<?xml version="1.0" encoding="utf-8"?>
<!-- Generator: Adobe Illustrator 16.0.0, SVG Export Plug-In . SVG Version: 6.00 Build 0)  -->
<!DOCTYPE svg PUBLIC "-//W3C//DTD SVG 1.1//EN" "http://www.w3.org/Graphics/SVG/1.1/DTD/svg11.dtd">
<svg version="1.1" id="Layer_1" xmlns="http://www.w3.org/2000/svg" xmlns:xlink="http://www.w3.org/1999/xlink" x="0px" y="0px"
	 width="145.233px" height="31.855px" viewBox="-0.127 0 145.233 31.855" enable-background="new -0.127 0 145.233 31.855"
	 xml:space="preserve">
<g>
	<g>
		<path d="M17.5,7.59c0.654-0.433,1.268-0.894,1.933-1.267c0.771-0.434,1.634-0.594,2.515-0.518C23.167,5.91,24.1,6.47,24.614,7.674
			c0.228-0.195,0.438-0.381,0.655-0.56c1.247-1.031,2.676-1.471,4.284-1.28c1.215,0.145,2.102,1,2.381,2.33
			c0.121,0.573,0.199,1.167,0.203,1.752c0.019,3.206,0.009,6.412,0.008,9.619c0,0.444-0.054,0.505-0.494,0.508
			c-0.835,0.005-1.67,0.002-2.505,0.001c-0.502-0.001-0.551-0.048-0.552-0.557c-0.002-2.884,0-5.768-0.004-8.651
			c0-0.289-0.019-0.58-0.058-0.865c-0.141-1.016-0.718-1.402-1.71-1.174c-0.688,0.158-1.229,0.562-1.737,1.015
			c-0.077,0.068-0.085,0.241-0.085,0.364c-0.005,3.073-0.004,6.146-0.004,9.219c0,0.633-0.017,0.649-0.657,0.649
			c-0.768,0-1.537,0.001-2.305,0c-0.56,0-0.59-0.03-0.59-0.579c0-2.85,0.004-5.7-0.005-8.55c-0.001-0.398-0.033-0.805-0.121-1.191
			c-0.177-0.783-0.584-1.049-1.375-0.969c-0.821,0.083-1.443,0.548-2.028,1.072c-0.076,0.068-0.077,0.244-0.077,0.369
			c-0.004,3.084-0.003,6.168-0.003,9.251c0,0.566-0.03,0.596-0.61,0.596c-0.768,0-1.536,0-2.304,0c-0.608,0-0.626-0.018-0.626-0.607
			c0-2.84,0.021-5.679-0.012-8.517c-0.011-0.985-0.142-1.971-0.244-2.954c-0.028-0.259-0.155-0.508-0.236-0.761
			c-0.12-0.377-0.046-0.528,0.329-0.653c0.696-0.232,1.391-0.463,2.09-0.686c0.483-0.154,0.68-0.074,0.858,0.398
			C17.249,6.708,17.37,7.169,17.5,7.59z"/>
		<path d="M78.299,7.664c0.31-0.261,0.587-0.518,0.888-0.743c1.233-0.926,2.614-1.319,4.145-1.048
			c1.518,0.269,2.488,1.283,2.729,2.807c0.049,0.306,0.08,0.619,0.081,0.93c0.005,3.307,0.003,6.614,0.003,9.92
			c0,0.467-0.043,0.513-0.515,0.515c-0.835,0.002-1.67,0.002-2.505,0c-0.457-0.001-0.52-0.067-0.52-0.522
			c-0.001-2.794,0.001-5.589-0.002-8.385c0-0.311-0.006-0.625-0.051-0.932c-0.166-1.16-0.879-1.654-2.031-1.425
			c-0.714,0.143-1.284,0.549-1.803,1.028c-0.084,0.078-0.097,0.261-0.097,0.396c-0.005,3.062-0.004,6.125-0.004,9.187
			c0,0.636-0.02,0.655-0.654,0.656c-0.791,0-1.581,0.001-2.372,0c-0.475-0.001-0.536-0.063-0.536-0.543
			c-0.001-2.961,0.021-5.924-0.013-8.885c-0.011-0.94-0.158-1.88-0.266-2.817c-0.028-0.238-0.152-0.463-0.219-0.697
			c-0.076-0.266,0.006-0.449,0.29-0.539c0.721-0.229,1.436-0.474,2.156-0.704c0.476-0.151,0.677-0.062,0.854,0.412
			C78.021,6.717,78.146,7.178,78.299,7.664z"/>
		<path fill="#FF9900" d="M102.302,7.954c0.514-0.315,0.981-0.639,1.481-0.898c0.774-0.402,1.582-0.729,2.482-0.661
			c0.855,0.064,1.697,0.18,2.236,0.972c0.135,0.199,0.244,0.417,0.383,0.659c0.227-0.148,0.431-0.277,0.632-0.411
			c0.82-0.545,1.67-1.053,2.662-1.182c1.698-0.221,3.292,0.491,3.525,2.51c0.071,0.617,0.122,1.239,0.125,1.859
			c0.013,2.883,0.006,5.768,0.005,8.651c0,0.543-0.031,0.574-0.56,0.575c-0.345,0-0.691-0.017-1.035,0.004
			c-0.324,0.021-0.422-0.104-0.42-0.423c0.011-2.372,0.012-4.744,0.003-7.115c-0.003-0.889-0.029-1.778-0.063-2.667
			c-0.045-1.201-0.99-1.871-2.257-1.685c-0.834,0.122-1.488,0.564-2.128,1.043c-0.103,0.077-0.147,0.288-0.147,0.437
			c-0.008,3.229-0.006,6.458-0.006,9.688c0,0.1,0.002,0.201-0.003,0.301c-0.014,0.289-0.131,0.443-0.458,0.424
			c-0.41-0.025-0.824-0.014-1.235-0.004c-0.261,0.006-0.363-0.126-0.372-0.362c-0.005-0.1-0.003-0.2-0.003-0.301
			c0-3.062,0-6.125-0.001-9.186c0-0.166-0.002-0.334-0.027-0.498c-0.217-1.439-1.322-1.756-2.616-1.447
			c-0.688,0.164-1.274,0.528-1.792,0.991c-0.115,0.102-0.161,0.333-0.161,0.504c-0.009,3.24-0.006,6.48-0.007,9.72
			c0,0.1,0.031,0.216-0.01,0.296c-0.054,0.107-0.161,0.26-0.251,0.265c-0.489,0.025-0.98,0.025-1.469-0.001
			c-0.097-0.006-0.209-0.158-0.27-0.267c-0.042-0.077-0.011-0.196-0.011-0.296c0-3.251,0.001-6.503-0.001-9.754
			c-0.001-0.761-0.069-1.509-0.449-2.194c-0.096-0.174-0.025-0.29,0.139-0.379c0.382-0.207,0.762-0.416,1.136-0.636
			c0.237-0.14,0.388-0.047,0.476,0.168c0.134,0.329,0.244,0.667,0.364,1.002C102.232,7.757,102.267,7.856,102.302,7.954z"/>
		<path d="M52.202,15.779c0.652,0,1.273-0.006,1.894,0.001c1.37,0.017,2.654,0.352,3.838,1.052c0.408,0.241,0.464,0.394,0.296,0.839
			c-0.18,0.479-0.355,0.958-0.523,1.441c-0.076,0.22-0.174,0.315-0.414,0.185c-1.044-0.568-2.172-0.846-3.353-0.877
			c-1.083-0.028-2.158,0.107-3.196,0.413c-0.957,0.282-1.893,0.633-2.835,0.961c-0.365,0.128-0.442,0.088-0.444-0.289
			c-0.002-0.445,0.024-0.892-0.008-1.335c-0.03-0.405,0.101-0.723,0.34-1.04c1.967-2.599,3.923-5.206,5.884-7.81
			c0.064-0.087,0.127-0.175,0.249-0.341c-0.229,0-0.379-0.003-0.529,0c-1.624,0.04-3.249,0.079-4.873,0.121
			c-0.422,0.01-0.464-0.023-0.466-0.438c-0.005-0.646-0.009-1.292-0.009-1.938c0-0.405,0.09-0.5,0.482-0.5
			c2.895-0.002,5.789-0.002,8.684,0c0.464,0,0.531,0.073,0.531,0.547c0,0.233-0.032,0.473,0.006,0.7
			c0.154,0.914-0.237,1.594-0.8,2.28c-1.517,1.85-2.975,3.747-4.456,5.626C52.397,15.509,52.303,15.643,52.202,15.779z"/>
		<path fill="#FF9900" d="M92.493,20.432c-1.315-0.046-2.571-0.35-3.762-0.908c-0.472-0.223-0.504-0.34-0.29-0.802
			c0.103-0.222,0.218-0.439,0.3-0.669c0.111-0.309,0.28-0.329,0.568-0.216c0.682,0.266,1.366,0.536,2.069,0.728
			c0.678,0.185,1.385,0.215,2.073,0c0.733-0.229,1.251-0.688,1.38-1.475c0.126-0.78-0.05-1.49-0.75-1.933
			c-0.701-0.444-1.435-0.842-2.18-1.209c-0.791-0.39-1.56-0.79-2.229-1.383c-1.507-1.336-1.173-4.015,0.268-5.16
			c1.233-0.979,2.62-1.219,4.118-0.852c0.645,0.158,1.275,0.386,1.896,0.624c0.457,0.175,0.476,0.286,0.275,0.729
			c-0.097,0.213-0.195,0.425-0.299,0.634c-0.181,0.368-0.243,0.366-0.622,0.236c-0.659-0.226-1.321-0.452-1.998-0.609
			c-0.562-0.129-1.122-0.015-1.659,0.217c-1.198,0.516-1.149,2.23-0.475,2.91c0.553,0.559,1.235,0.898,1.925,1.24
			c0.775,0.383,1.586,0.721,2.301,1.198c2.361,1.573,1.797,5.244-0.793,6.295C93.931,20.301,93.229,20.452,92.493,20.432z"/>
		<path fill="#FF9900" d="M130.071,8.262c0,2.283-0.005,4.565,0.004,6.847c0.002,0.8,0.028,1.601,0.063,2.399
			c0.049,1.078,0.824,1.553,1.935,1.198c0.18-0.058,0.351-0.141,0.53-0.201c0.17-0.058,0.3-0.021,0.364,0.175
			c0.103,0.316,0.218,0.629,0.333,0.942c0.094,0.258-0.089,0.364-0.264,0.416c-0.489,0.144-0.98,0.314-1.482,0.367
			c-0.708,0.073-1.418,0.045-2.087-0.285c-0.713-0.353-1.105-0.926-1.193-1.694c-0.095-0.837-0.2-1.679-0.204-2.519
			c-0.019-4.965-0.009-9.931-0.009-14.896c0-0.578,0-0.579,0.552-0.714c0.377-0.092,0.758-0.173,1.133-0.276
			c0.246-0.067,0.328,0.024,0.326,0.259c-0.004,0.479-0.001,0.958-0.001,1.436C130.071,3.899,130.071,6.081,130.071,8.262z"/>
		<path fill="#FF9900" d="M123.451,13.441c0,2.025,0,4.051,0,6.076c0,0.48-0.031,0.51-0.513,0.511
			c-0.378,0.001-0.757-0.011-1.135,0.004c-0.28,0.011-0.372-0.107-0.366-0.377c0.012-0.522,0.003-1.045,0.003-1.568
			c0-3.06,0.001-6.119,0-9.179c0-0.508-0.001-0.508-0.52-0.509c-0.534,0-1.068-0.01-1.603,0.003
			c-0.283,0.006-0.415-0.107-0.412-0.389c0.003-0.278,0.001-0.557,0-0.834c-0.001-0.255,0.101-0.391,0.378-0.39
			c1.258,0.006,2.515,0.008,3.772,0c0.353-0.003,0.395,0.206,0.395,0.478c-0.002,1.592-0.001,3.183,0,4.774
			C123.451,12.507,123.451,12.974,123.451,13.441z"/>
		<path fill="#FF9900" d="M122.295,3.457c-0.851,0.097-1.66-0.688-1.653-1.617c0.006-0.924,0.721-1.658,1.638-1.663
			c0.916-0.004,1.642,0.725,1.643,1.65C123.925,2.787,123.256,3.457,122.295,3.457z"/>
		<g>
			<path d="M71.761,11.018c-0.26-1.416-0.83-2.684-1.863-3.729c-2.187-2.21-7.561-2.392-9.333,2.043
				c-0.943,2.362-0.976,4.787-0.164,7.185c0.817,2.412,2.501,3.81,5.096,3.977c2.392,0.154,4.429-0.86,5.544-3.059
				c0.68-1.342,0.908-2.779,0.969-4.269C71.93,12.45,71.89,11.726,71.761,11.018z M67.953,15.793
				c-0.032,0.248-0.136,0.493-0.241,0.724c-0.355,0.783-0.949,1.202-1.833,1.192c-0.873-0.01-1.44-0.453-1.784-1.219
				c-0.338-0.756-0.396-1.567-0.434-2.38c-0.056-1.225-0.055-2.446,0.216-3.65c0.043-0.194,0.112-0.384,0.186-0.569
				c0.345-0.863,0.95-1.289,1.829-1.295c0.898-0.006,1.511,0.415,1.868,1.289c0.349,0.852,0.387,1.752,0.412,2.655
				c0.006,0.2,0.001,0.4,0.001,0.601c0.024,0.003,0.048,0.005,0.073,0.009C68.15,14.03,68.067,14.913,67.953,15.793z"/>
		</g>
		<g>
			<path d="M11.092,18.828c-0.419-0.881-0.589-1.813-0.593-2.782c-0.006-1.815-0.005-3.629-0.014-5.444
				c-0.003-0.422-0.015-0.845-0.056-1.265c-0.184-1.882-1.226-3.038-3.076-3.396C5.921,5.664,4.49,5.767,3.078,6.068
				c-0.647,0.138-1.274,0.379-1.9,0.601C0.911,6.764,0.714,6.969,0.816,7.291c0.196,0.625,0.407,1.245,0.619,1.865
				c0.082,0.24,0.239,0.331,0.494,0.232c0.3-0.116,0.607-0.215,0.911-0.323C3.78,8.73,4.737,8.499,5.748,8.627
				c0.562,0.071,1.046,0.274,1.24,0.857c0.218,0.654,0.134,1.331,0.123,1.929c-1.141,0.122-2.24,0.195-3.324,0.369
				c-1.105,0.177-2.114,0.609-2.887,1.47c-0.906,1.008-1.123,2.222-1.01,3.518c0.124,1.417,0.725,2.561,2.013,3.258
				c1.648,0.892,3.995,0.548,5.338-0.762c0.126-0.124,0.254-0.244,0.382-0.366c0.197,0.465,0.371,0.896,0.561,1.321
				c0.121,0.272,0.322,0.322,0.599,0.204c0.664-0.283,1.336-0.548,2.004-0.823C11.275,19.402,11.32,19.305,11.092,18.828z
				 M6.546,17.365c-0.582,0.427-1.19,0.637-1.899,0.49c-0.726-0.151-1.187-0.614-1.352-1.316c-0.177-0.751-0.088-1.464,0.566-1.996
				c0.69-0.56,1.514-0.712,2.369-0.755c0.276-0.014,0.554-0.002,0.896-0.002c0,0.567,0,1.098,0,1.629
				c0,0.244-0.031,0.493,0.006,0.732C7.22,16.7,6.981,17.046,6.546,17.365z"/>
		</g>
		<g>
			<path d="M45.634,18.819c-0.368-0.788-0.566-1.619-0.576-2.483c-0.02-1.937-0.009-3.874-0.019-5.81
				c-0.002-0.411-0.023-0.823-0.066-1.231c-0.191-1.844-1.232-2.993-3.047-3.349c-1.443-0.283-2.885-0.177-4.309,0.123
				c-0.637,0.135-1.254,0.369-1.871,0.588c-0.257,0.091-0.49,0.281-0.389,0.609c0.2,0.647,0.423,1.287,0.644,1.927
				c0.075,0.218,0.23,0.283,0.451,0.203c0.25-0.092,0.503-0.174,0.753-0.265c1.01-0.373,2.036-0.64,3.129-0.5
				c0.69,0.088,1.154,0.427,1.256,1.052c0.095,0.586,0.092,1.187,0.134,1.822c-0.2,0-0.331-0.008-0.46,0.001
				c-0.865,0.063-1.732,0.099-2.591,0.207c-0.797,0.101-1.569,0.333-2.262,0.758c-1.636,1.004-2.134,2.534-1.967,4.355
				c0.087,0.945,0.401,1.8,1.071,2.496c1.522,1.58,4.514,1.6,6.168,0.045c0.168-0.158,0.335-0.317,0.493-0.465
				c0.186,0.447,0.356,0.878,0.543,1.302c0.124,0.281,0.325,0.349,0.622,0.22c0.652-0.283,1.315-0.543,1.973-0.812
				C45.823,19.403,45.866,19.314,45.634,18.819z M41.687,16.732c0,0.051-0.021,0.115-0.055,0.149
				c-0.671,0.658-1.396,1.189-2.419,0.978c-0.728-0.15-1.191-0.607-1.365-1.307c-0.18-0.724-0.106-1.422,0.505-1.956
				c0.702-0.613,1.562-0.764,2.454-0.808c0.276-0.014,0.554-0.002,0.883-0.002C41.689,14.8,41.689,15.766,41.687,16.732z"/>
		</g>
		<g>
			<path fill="#FF9900" d="M136.886,12.2c0.9-0.005,1.801-0.002,2.701-0.001c0.79,0,1.579,0,2.369,0c-0.79,0-1.579,0-2.369,0
				C138.687,12.198,137.786,12.195,136.886,12.2z"/>
			<path fill="#FF9900" d="M144.486,10.053c-0.831-2.926-2.987-4.116-5.862-3.517c-1.688,0.352-2.792,1.474-3.475,3.001
				c-0.901,2.017-0.992,4.122-0.503,6.255c0.318,1.392,0.958,2.608,2.096,3.512c1.397,1.108,3.005,1.303,4.703,1.012
				c1.003-0.171,1.957-0.507,2.833-1.034c0.102-0.061,0.238-0.238,0.213-0.312c-0.161-0.47-0.362-0.925-0.571-1.438
				c-0.175,0.094-0.292,0.156-0.406,0.219c-1.042,0.581-2.126,0.998-3.354,0.937c-0.834-0.043-1.561-0.304-2.172-0.88
				c-1.075-1.014-1.333-2.34-1.438-3.727c-0.021-0.265,0.15-0.275,0.345-0.275c0.89,0.003,1.78,0.001,2.67,0.001
				c1.614,0,3.228-0.002,4.842,0.001c0.232,0,0.423-0.019,0.428-0.325C144.851,12.328,144.805,11.173,144.486,10.053z
				 M141.956,12.199c-0.79,0-1.579,0-2.369,0c-0.9,0-1.801-0.004-2.701,0.002c-0.233,0.001-0.36-0.07-0.337-0.326
				c0.083-0.925,0.247-1.823,0.794-2.61c0.791-1.135,1.939-1.443,3.187-1.136c0.694,0.171,1.143,0.665,1.494,1.25
				c0.398,0.66,0.57,1.393,0.599,2.157C142.648,12.198,142.637,12.199,141.956,12.199z"/>
		</g>
	</g>
	<g>
		<path fill="#FF9900" d="M10.801,22.477c-0.061,0.075-0.121,0.149-0.181,0.224c0.159,0.185,0.3,0.388,0.479,0.55
			c2.25,2.029,4.759,3.676,7.483,4.988c6.396,3.081,13.122,4.021,20.119,2.943c4.491-0.692,8.721-2.148,12.519-4.7
			c0.419-0.281,1.279-0.436,0.929-1.188c-0.082-0.176-1.066-0.087-1.547,0.103c-7.003,2.776-14.26,3.735-21.725,2.929
			c-6.126-0.662-11.917-2.495-17.314-5.505C11.32,22.685,11.055,22.591,10.801,22.477z M48.085,23.233
			c0.444,0.022,0.694,0.053,0.942,0.043c1.28-0.048,2.559-0.14,3.839-0.151c1.331-0.011,1.817,0.457,1.586,1.763
			c-0.222,1.251-0.697,2.458-1.065,3.684c-0.104,0.346-0.221,0.688-0.332,1.031c0.357-0.055,0.569-0.191,0.739-0.369
			c1.652-1.721,2.365-3.847,2.623-6.161c0.102-0.917-0.494-1.301-1.261-1.335c-1.3-0.059-2.619-0.121-3.903,0.037
			C50.166,21.907,49.054,22.22,48.085,23.233z"/>
		<path fill="#FF9900" d="M10.801,22.477c0.254,0.114,0.519,0.208,0.762,0.344c5.397,3.01,11.187,4.843,17.314,5.505
			c7.465,0.807,14.722-0.152,21.725-2.928c0.48-0.19,1.465-0.279,1.547-0.103c0.35,0.751-0.51,0.906-0.929,1.188
			c-3.798,2.552-8.028,4.008-12.519,4.7c-6.997,1.077-13.722,0.137-20.119-2.944c-2.725-1.312-5.234-2.958-7.483-4.987
			c-0.179-0.162-0.32-0.366-0.479-0.55C10.68,22.626,10.74,22.552,10.801,22.477z"/>
		<path fill="#FF9900" d="M48.085,23.233c0.969-1.012,2.081-1.325,3.168-1.458c1.284-0.157,2.603-0.096,3.903-0.037
			c0.767,0.035,1.363,0.419,1.261,1.335c-0.258,2.314-0.971,4.44-2.623,6.161c-0.17,0.177-0.382,0.313-0.739,0.369
			c0.111-0.344,0.229-0.686,0.332-1.031c0.368-1.226,0.843-2.433,1.065-3.685c0.231-1.306-0.255-1.773-1.586-1.762
			c-1.28,0.011-2.559,0.103-3.839,0.151C48.779,23.285,48.529,23.255,48.085,23.233z"/>
	</g>
</g>
</svg>
