<?xml version="1.0" encoding="utf-8"?>
<!-- Generator: Adobe Illustrator 16.0.0, SVG Export Plug-In . SVG Version: 6.00 Build 0)  -->
<!DOCTYPE svg PUBLIC "-//W3C//DTD SVG 1.1//EN" "http://www.w3.org/Graphics/SVG/1.1/DTD/svg11.dtd">
<svg version="1.1" id="Layer_1" xmlns="http://www.w3.org/2000/svg" xmlns:xlink="http://www.w3.org/1999/xlink" x="0px" y="0px"
	 width="60px" height="60px" viewBox="78.887 79.059 60 60" enable-background="new 78.887 79.059 60 60" xml:space="preserve">
<rect x="87.279" y="90.923" fill="#FFFFFF" width="42.507" height="37.446"/>
<path fill="#2F7A8F" d="M108.901,79.059c-16.075,0.029-30.037,12.849-30.014,30.014c0.021,16.989,13.516,29.979,30.052,29.985
	c17.529,0.007,30.253-14.47,29.941-30.02C139.237,93.17,125.775,79.029,108.901,79.059z M90.381,106.923
	c-1.14-5.989,2.737-11.622,8.776-12.575c3.324-0.525,6.388,0.316,8.867,2.748c1.482,1.453,2.94,2.933,4.399,4.409
	c1.513,1.531,1.584,3.072,0.22,4.411c-1.266,1.243-2.922,1.152-4.333-0.257c-2.107-2.103-4.203-4.217-6.304-6.326
	c-0.194-0.193-0.366-0.49-0.595-0.547c-0.312-0.079-0.725-0.063-0.982,0.095c-0.124,0.077-0.106,0.67,0.052,0.86
	c0.619,0.748,1.32,1.429,2.045,2.193c-3.1,3.546-6.777,6.355-9.566,10.142C91.583,110.733,90.76,108.914,90.381,106.923z
	 M95.244,114.183c-0.94-0.948-0.849-2.014,0.303-3.174c2.429-2.448,4.867-4.888,7.305-7.327c0.214-0.214,0.461-0.397,0.64-0.55
	c0.974,0.934,1.893,1.815,2.856,2.739c-0.181,0.232-0.325,0.461-0.51,0.648c-2.459,2.474-4.918,4.947-7.39,7.408
	C97.374,114.996,96.135,115.08,95.244,114.183z M124.091,112.973c-4.483,4.495-8.984,8.973-13.475,13.463
	c-0.733,0.733-1.531,1.086-2.522,0.52c-0.945-0.539-1.283-1.389-1.014-2.395c0.121-0.455,0.482-0.885,0.827-1.235
	c2.611-2.654,5.258-5.272,7.853-7.942c0.272-0.28,0.509-0.932,0.366-1.215c-0.4-0.8-0.94-0.516-1.467,0.019
	c-2.531,2.568-5.083,5.116-7.628,7.669c-0.249,0.25-0.488,0.514-0.76,0.735c-0.789,0.645-1.972,0.616-2.69-0.045
	c-0.826-0.761-0.96-1.838-0.273-2.741c0.377-0.494,0.851-0.917,1.293-1.362c2.351-2.359,4.708-4.714,7.056-7.076
	c0.428-0.431,1.021-0.798,0.31-1.529c-0.758-0.778-1.154-0.16-1.613,0.302c-2.597,2.614-5.185,5.235-7.785,7.846
	c-0.653,0.656-1.351,1.209-2.384,0.833c-1.448-0.527-1.986-2.224-0.924-3.331c2.551-2.657,5.165-5.255,7.799-7.83
	c0.226-0.221,0.882-0.264,1.188-0.104c2.168,1.132,4.375,0.76,5.781-1.056c1.474-1.903,1.348-4.006-0.435-5.817
	c-1.203-1.222-2.492-2.359-3.887-3.67c3.833-2.934,7.632-3.679,11.672-1.801c3.81,1.772,5.962,4.817,6.194,9.109
	C127.76,107.756,126.471,110.587,124.091,112.973z"/>
</svg>
