<?xml version="1.0" encoding="utf-8"?>
<!-- Generator: Adobe Illustrator 16.0.0, SVG Export Plug-In . SVG Version: 6.00 Build 0)  -->
<!DOCTYPE svg PUBLIC "-//W3C//DTD SVG 1.1//EN" "http://www.w3.org/Graphics/SVG/1.1/DTD/svg11.dtd">
<svg version="1.1" id="Layer_1" xmlns="http://www.w3.org/2000/svg" xmlns:xlink="http://www.w3.org/1999/xlink" x="0px" y="0px"
	 width="60px" height="60px" viewBox="78.863 79.788 60 60" enable-background="new 78.863 79.788 60 60" xml:space="preserve">
<rect x="89.32" y="91.442" fill="#FFFFFF" width="39.217" height="38.104"/>
<g>
	<g>
		<path fill="#48A1B9" d="M108.863,79.788c-16.541,0-30,13.459-30,30c0,16.542,13.459,30,30,30c16.542,0,30-13.459,30-30
			C138.862,93.248,125.407,79.788,108.863,79.788z M116.324,110.844h-4.881c0,7.798,0,17.396,0,17.396h-7.232c0,0,0-9.505,0-17.396
			h-3.439v-6.148h3.439v-3.977c0-2.849,1.354-7.299,7.299-7.299l5.359,0.02v5.969c0,0-3.258,0-3.89,0
			c-0.634,0-1.534,0.316-1.534,1.674v3.613h5.511L116.324,110.844z"/>
	</g>
</g>
</svg>
