<?xml version="1.0" encoding="utf-8"?>
<!-- Generator: Adobe Illustrator 16.0.0, SVG Export Plug-In . SVG Version: 6.00 Build 0)  -->
<!DOCTYPE svg PUBLIC "-//W3C//DTD SVG 1.1//EN" "http://www.w3.org/Graphics/SVG/1.1/DTD/svg11.dtd">
<svg version="1.1" id="Layer_1" xmlns="http://www.w3.org/2000/svg" xmlns:xlink="http://www.w3.org/1999/xlink" x="0px" y="0px"
	 width="103.801px" height="79.688px" viewBox="0 0 103.801 79.688" enable-background="new 0 0 103.801 79.688"
	 xml:space="preserve">
<g>
	<path fill="#006891" d="M18.581,57.405H7.936v-1.423c0.887,0,1.558-0.085,2.012-0.254c0.454-0.171,0.75-0.426,0.889-0.767
		c0.139-0.34,0.208-0.826,0.208-1.455V40.325c0-0.907-0.188-1.547-0.564-1.918c-0.377-0.371-1.225-0.557-2.546-0.557v-1.423h10.645
		v1.423c-0.887,0-1.558,0.087-2.011,0.263c-0.454,0.175-0.75,0.431-0.89,0.766c-0.139,0.336-0.208,0.818-0.208,1.447v13.181
		c0,0.599,0.066,1.068,0.2,1.408c0.134,0.34,0.42,0.604,0.859,0.789c0.438,0.186,1.121,0.279,2.049,0.279L18.581,57.405
		L18.581,57.405z"/>
	<path fill="#006891" d="M40.667,51.866c0,1.176-0.3,2.139-0.898,2.886s-1.357,1.315-2.274,1.702
		c-0.918,0.387-1.815,0.642-2.692,0.766c-0.877,0.124-1.722,0.185-2.537,0.185h-10.52v-1.423c0.898,0,1.56-0.092,1.987-0.277
		c0.428-0.185,0.707-0.45,0.836-0.789c0.129-0.34,0.193-0.81,0.193-1.409V40.263c0-0.928-0.191-1.573-0.572-1.934
		c-0.382-0.361-1.197-0.541-2.444-0.541v-1.454c1.496-0.032,2.919-0.062,4.27-0.094s2.462-0.054,3.334-0.069
		c0.872-0.015,1.482-0.023,1.833-0.023h0.572c1.073,0,2.195,0.111,3.365,0.332c1.17,0.222,2.238,0.726,3.203,1.509
		s1.446,1.913,1.446,3.387c0,1.104-0.392,2.053-1.176,2.847c-0.784,0.794-2.067,1.45-3.852,1.965c1.217,0.216,2.276,0.58,3.18,1.09
		c0.902,0.511,1.585,1.158,2.049,1.942C40.434,50.005,40.667,50.887,40.667,51.866z M35.344,41.5c0-0.721-0.173-1.353-0.519-1.895
		c-0.345-0.542-0.856-0.964-1.531-1.269c-0.676-0.304-1.503-0.456-2.483-0.456h-1.625v7.518h1.269c1.661,0,2.89-0.35,3.69-1.051
		C34.944,43.646,35.344,42.698,35.344,41.5z M35.916,51.603c0-1.423-0.369-2.529-1.106-3.318c-0.738-0.789-1.777-1.184-3.118-1.184
		h-2.506v5.043v0.419c0,0.763,0.046,1.358,0.14,1.787c0.093,0.427,0.325,0.757,0.696,0.989c0.371,0.233,0.959,0.349,1.764,0.349
		c1.073,0,2.029-0.325,2.87-0.975C35.496,54.064,35.916,53.027,35.916,51.603z"/>
	<path fill="#006891" d="M61.32,42.011c0,1.723-0.532,3.03-1.594,3.922c-1.062,0.893-2.312,1.464-3.752,1.717
		c-1.439,0.254-2.953,0.379-4.541,0.379h-1.392v5.477c0,0.62,0.066,1.098,0.201,1.438c0.134,0.341,0.422,0.599,0.866,0.774
		c0.443,0.176,1.119,0.262,2.027,0.262v1.423H42.584v-1.423c0.897,0,1.56-0.092,1.988-0.277c0.428-0.185,0.706-0.45,0.835-0.789
		c0.128-0.34,0.194-0.81,0.194-1.409V40.263c0-0.598-0.062-1.066-0.186-1.4c-0.124-0.335-0.402-0.599-0.835-0.79
		c-0.434-0.191-1.099-0.285-1.996-0.285v-1.454l5.988-0.156c0.309-0.01,0.647-0.018,1.013-0.023s0.657-0.011,0.874-0.016
		c0.217-0.004,0.536-0.008,0.959-0.008c0.526,0,0.918,0.006,1.176,0.016c1.228,0.051,2.408,0.169,3.542,0.355
		c1.135,0.186,2.283,0.71,3.443,1.57C60.741,38.935,61.32,40.248,61.32,42.011z M56.555,42.042c0-1.671-0.487-2.788-1.462-3.35
		c-0.975-0.562-2.257-0.843-3.845-0.843c-0.289,0-0.69,0.011-1.206,0.031v8.431h1.423c1.516,0,2.743-0.26,3.682-0.781
		C56.085,45.01,56.555,43.847,56.555,42.042z"/>
	<path fill="#006891" d="M78.428,51.387c0,0.65-0.139,1.338-0.418,2.065c-0.279,0.726-0.699,1.423-1.262,2.088
		c-0.562,0.665-1.271,1.207-2.127,1.625c-0.856,0.417-2.437,0.626-3.561,0.626c-1.114,0-1.63-0.242-2.728-0.727
		c-1.098-0.484-2.029-1.207-2.793-2.166c-0.33,0.763-0.541,1.469-0.633,2.121h-1.423v-7.18h1.423
		c0.258,1.031,0.614,2.001,1.067,2.909c0.455,0.908,1.096,1.688,1.927,2.344c0.83,0.655,1.849,0.983,3.055,0.983
		c1.053,0,1.896-0.29,2.53-0.867c0.634-0.577,0.951-1.305,0.951-2.181c0-0.495-0.099-0.928-0.294-1.299
		c-0.196-0.372-0.479-0.704-0.85-0.998c-0.372-0.294-0.879-0.607-1.524-0.944c-0.645-0.334-1.38-0.688-2.204-1.061
		c-1.269-0.598-2.312-1.2-3.126-1.809c-0.814-0.608-1.432-1.199-1.849-1.771c-0.418-0.572-0.707-1.116-0.867-1.632
		s-0.24-1.037-0.24-1.562c0-0.939,0.253-1.865,0.758-2.777c0.506-0.913,1.246-1.661,2.22-2.244c0.975-0.583,2.102-0.874,3.381-0.874
		c0.979,0,1.913,0.219,2.8,0.657c0.887,0.438,1.655,1.04,2.304,1.803c0.186-0.434,0.356-1.042,0.51-1.826h1.455v5.848h-1.455
		c-1.031-3.187-2.825-4.78-5.383-4.78c-0.929,0-1.674,0.244-2.235,0.735c-0.562,0.489-0.843,1.121-0.843,1.895
		c0,0.608,0.175,1.138,0.526,1.586c0.352,0.449,0.812,0.833,1.385,1.152c0.573,0.319,1.499,0.778,2.777,1.377
		c1.548,0.732,2.756,1.366,3.628,1.903c0.873,0.537,1.609,1.211,2.212,2.027C78.126,49.247,78.428,50.231,78.428,51.387z"/>
	<path fill="#006891" d="M100.146,57.405h-9.887v-1.423c0.835,0,1.443-0.058,1.824-0.177c0.382-0.119,0.573-0.401,0.573-0.844
		c0-0.31-0.061-0.624-0.186-0.944l-0.989-2.475h-6.809l-0.51,1.362c-0.29,0.764-0.433,1.314-0.433,1.655
		c0,0.618,0.238,1.011,0.718,1.175c0.481,0.165,1.04,0.248,1.68,0.248v1.423h-7.225v-1.423c0.578,0,1.068-0.108,1.469-0.325
		c0.403-0.217,0.787-0.627,1.152-1.229c0.366-0.604,0.76-1.458,1.184-2.561l6.049-15.842h1.47l6.388,16.337
		c0.465,1.155,0.805,1.936,1.022,2.344c0.216,0.408,0.516,0.722,0.896,0.944c0.382,0.221,0.919,0.332,1.611,0.332V57.405
		L100.146,57.405z M90.923,50.025l-2.893-7.317l-2.754,7.317H90.923z"/>
</g>
<g>
	<path fill="#008066" d="M2.577,64.262v-0.201h2.712v0.201H5.163c-0.291,0-0.482,0.024-0.573,0.072
		c-0.091,0.048-0.151,0.137-0.182,0.269c-0.031,0.131-0.046,0.444-0.046,0.936v2.911c0,0.466,0.011,0.771,0.033,0.915
		c0.022,0.145,0.081,0.252,0.176,0.322c0.094,0.07,0.276,0.105,0.544,0.105h0.174v0.201H2.577v-0.201h0.175
		c0.253,0,0.43-0.032,0.527-0.097c0.097-0.063,0.16-0.163,0.186-0.3c0.026-0.135,0.039-0.451,0.039-0.946v-2.911
		c0-0.472-0.013-0.777-0.039-0.914c-0.026-0.137-0.085-0.233-0.175-0.285c-0.091-0.052-0.286-0.079-0.586-0.079H2.577z"/>
	<path fill="#008066" d="M10.184,66.122c-0.198,0-0.34,0.02-0.426,0.06c-0.086,0.04-0.139,0.099-0.16,0.176
		c-0.02,0.078-0.031,0.205-0.031,0.38v3.292H9.286l-2.717-3.228v2.287c0,0.174,0.01,0.3,0.032,0.379
		c0.022,0.079,0.077,0.139,0.164,0.181s0.23,0.062,0.426,0.062v0.282H5.648v-0.282c0.184,0,0.317-0.021,0.4-0.062
		c0.083-0.042,0.134-0.102,0.153-0.181s0.029-0.205,0.029-0.379v-2.119c0-0.172-0.005-0.3-0.014-0.386
		c-0.009-0.086-0.031-0.16-0.066-0.226c-0.034-0.063-0.09-0.116-0.17-0.156c-0.078-0.04-0.187-0.066-0.326-0.081V65.84h1.21
		l2.364,2.792v-1.895c0-0.155-0.011-0.274-0.032-0.357c-0.021-0.083-0.074-0.146-0.16-0.191c-0.084-0.044-0.219-0.066-0.402-0.066
		V65.84h1.55L10.184,66.122L10.184,66.122z"/>
	<path fill="#008066" d="M14.555,67.02h-0.291c-0.026-0.258-0.083-0.448-0.169-0.57c-0.086-0.123-0.181-0.199-0.281-0.227
		c-0.1-0.029-0.215-0.043-0.346-0.043H12.94v3.041c0,0.12,0.012,0.214,0.037,0.28c0.024,0.067,0.082,0.118,0.171,0.155
		c0.09,0.037,0.222,0.055,0.396,0.055v0.282h-2.082v-0.282c0.255,0,0.419-0.036,0.492-0.11c0.074-0.073,0.111-0.2,0.111-0.38V66.18
		h-0.441c-0.174,0-0.318,0.013-0.432,0.042c-0.114,0.028-0.215,0.103-0.302,0.226c-0.086,0.124-0.136,0.314-0.148,0.572h-0.291
		v-1.18h4.104V67.02z"/>
	<path fill="#008066" d="M18.605,68.626l-0.034,1.366h-3.7V69.71c0.255,0,0.42-0.037,0.493-0.11c0.074-0.073,0.11-0.2,0.11-0.381
		v-2.608c0-0.119-0.011-0.21-0.035-0.277c-0.023-0.067-0.079-0.119-0.166-0.157c-0.086-0.038-0.221-0.057-0.403-0.057v-0.283h3.445
		l0.056,1.078h-0.282c-0.063-0.238-0.136-0.409-0.219-0.513c-0.083-0.103-0.176-0.166-0.28-0.189
		c-0.103-0.024-0.258-0.036-0.463-0.036h-0.778v1.466h0.423c0.145,0,0.254-0.012,0.325-0.038c0.071-0.025,0.121-0.074,0.15-0.145
		s0.048-0.184,0.059-0.337h0.294v1.382h-0.283c-0.008-0.154-0.029-0.267-0.062-0.339c-0.033-0.072-0.084-0.12-0.155-0.146
		c-0.07-0.024-0.178-0.036-0.324-0.036h-0.429v0.977c0,0.163,0.004,0.283,0.013,0.357c0.008,0.075,0.03,0.139,0.066,0.188
		s0.093,0.086,0.174,0.108c0.081,0.022,0.196,0.034,0.345,0.034h0.333c0.141,0,0.276-0.019,0.404-0.054
		c0.127-0.036,0.252-0.128,0.375-0.276c0.123-0.147,0.208-0.38,0.257-0.696h0.288V68.626z"/>
	<path fill="#008066" d="M23.479,69.993h-1.112c-0.041-0.044-0.091-0.109-0.151-0.195c-0.061-0.086-0.127-0.187-0.198-0.302
		c-0.072-0.116-0.131-0.211-0.178-0.287l-0.281-0.465c-0.127-0.208-0.223-0.351-0.287-0.428c-0.064-0.076-0.138-0.125-0.221-0.146
		c-0.082-0.021-0.223-0.032-0.421-0.032h-0.156v1.084c0,0.114,0.012,0.206,0.037,0.275c0.024,0.069,0.082,0.123,0.173,0.16
		c0.09,0.037,0.223,0.055,0.396,0.055v0.282h-2.083v-0.282c0.253,0,0.417-0.036,0.488-0.11c0.073-0.073,0.11-0.2,0.11-0.38V66.6
		c0-0.177-0.036-0.304-0.106-0.378c-0.07-0.075-0.233-0.111-0.492-0.111v-0.289l0.962-0.03c0.073-0.005,0.158-0.007,0.253-0.01
		c0.095-0.001,0.184-0.002,0.265-0.002c0.063,0,0.168,0.001,0.315,0.006c0.207,0.007,0.399,0.018,0.579,0.037
		c0.18,0.019,0.321,0.042,0.426,0.07c0.154,0.039,0.299,0.103,0.437,0.192c0.138,0.09,0.25,0.209,0.337,0.355
		c0.086,0.147,0.13,0.317,0.13,0.512c0,0.138-0.03,0.273-0.09,0.405c-0.061,0.13-0.157,0.247-0.291,0.349
		c-0.133,0.103-0.309,0.184-0.528,0.242c0.149,0.088,0.275,0.196,0.38,0.325c0.104,0.13,0.268,0.368,0.489,0.716
		c0.129,0.197,0.235,0.348,0.319,0.449c0.084,0.101,0.161,0.169,0.232,0.205c0.07,0.036,0.16,0.059,0.267,0.068L23.479,69.993
		L23.479,69.993z M21.758,66.946c0-0.331-0.101-0.551-0.302-0.658c-0.202-0.109-0.464-0.162-0.789-0.162
		c-0.045,0-0.08,0-0.106,0.001c-0.026,0-0.055,0.001-0.087,0.001v1.669h0.193c0.308,0,0.567-0.049,0.776-0.15
		C21.652,67.547,21.758,67.313,21.758,66.946z"/>
	<path fill="#008066" d="M28.146,66.122c-0.198,0-0.34,0.02-0.425,0.06c-0.086,0.04-0.139,0.099-0.16,0.176
		c-0.021,0.078-0.031,0.205-0.031,0.38v3.292h-0.282l-2.717-3.228v2.287c0,0.174,0.011,0.3,0.033,0.379s0.076,0.139,0.164,0.181
		c0.087,0.042,0.229,0.062,0.426,0.062v0.282h-1.544v-0.282c0.185,0,0.317-0.021,0.4-0.062c0.083-0.042,0.134-0.102,0.154-0.181
		c0.019-0.079,0.028-0.205,0.028-0.379v-2.119c0-0.172-0.004-0.3-0.013-0.386c-0.01-0.086-0.032-0.16-0.065-0.226
		c-0.035-0.063-0.091-0.116-0.17-0.156c-0.079-0.04-0.187-0.066-0.326-0.081V65.84h1.209l2.364,2.792v-1.895
		c0-0.155-0.011-0.274-0.032-0.357c-0.021-0.083-0.075-0.146-0.159-0.191c-0.085-0.044-0.22-0.066-0.403-0.066V65.84h1.55
		L28.146,66.122L28.146,66.122z"/>
	<path fill="#008066" d="M32.391,69.993h-1.957v-0.281c0.166,0,0.286-0.013,0.361-0.036c0.075-0.023,0.112-0.078,0.112-0.166
		c0-0.062-0.012-0.123-0.037-0.187l-0.196-0.49h-1.348l-0.101,0.269c-0.058,0.152-0.086,0.261-0.086,0.329
		c0,0.122,0.048,0.2,0.142,0.232c0.095,0.033,0.206,0.049,0.332,0.049v0.282h-1.43v-0.282c0.114,0,0.211-0.021,0.291-0.063
		c0.08-0.043,0.156-0.124,0.229-0.243c0.072-0.12,0.151-0.289,0.234-0.507l1.197-3.137h0.291l1.265,3.234
		c0.091,0.229,0.159,0.383,0.202,0.464c0.043,0.081,0.103,0.143,0.178,0.187c0.076,0.044,0.182,0.065,0.319,0.065v0.281H32.391z
		 M30.566,68.532l-0.573-1.448l-0.546,1.448H30.566z"/>
	<path fill="#008066" d="M36.431,67.02H36.14c-0.027-0.258-0.083-0.448-0.17-0.57c-0.087-0.123-0.181-0.199-0.28-0.227
		c-0.1-0.029-0.216-0.043-0.346-0.043h-0.527v3.041c0,0.12,0.013,0.214,0.037,0.28c0.024,0.067,0.082,0.118,0.171,0.155
		s0.221,0.055,0.395,0.055v0.282h-2.083v-0.282c0.256,0,0.42-0.036,0.493-0.11c0.074-0.073,0.111-0.2,0.111-0.38V66.18H33.5
		c-0.174,0-0.318,0.013-0.432,0.042c-0.114,0.028-0.214,0.103-0.302,0.226c-0.086,0.124-0.136,0.314-0.148,0.572h-0.291v-1.18h4.104
		V67.02z"/>
	<path fill="#008066" d="M38.825,69.993h-2.107v-0.281c0.176,0,0.308-0.017,0.397-0.051c0.09-0.034,0.149-0.084,0.177-0.151
		c0.028-0.067,0.041-0.163,0.041-0.288v-2.609c0-0.181-0.037-0.307-0.111-0.38c-0.075-0.074-0.243-0.111-0.504-0.111v-0.282h2.107
		v0.282c-0.176,0-0.308,0.018-0.399,0.052c-0.09,0.035-0.148,0.085-0.176,0.152c-0.027,0.066-0.041,0.161-0.041,0.286v2.61
		c0,0.117,0.013,0.211,0.04,0.278c0.026,0.068,0.083,0.119,0.17,0.156c0.086,0.037,0.222,0.056,0.406,0.056V69.993z"/>
	<path fill="#008066" d="M43.881,67.917c0,0.378-0.089,0.731-0.27,1.062c-0.18,0.329-0.445,0.594-0.798,0.793
		s-0.769,0.299-1.248,0.299c-0.392,0-0.737-0.063-1.035-0.19c-0.298-0.125-0.542-0.295-0.73-0.508
		c-0.188-0.212-0.329-0.444-0.42-0.698c-0.09-0.254-0.136-0.507-0.136-0.763c0-0.369,0.086-0.719,0.26-1.046
		c0.174-0.329,0.435-0.594,0.784-0.796c0.349-0.2,0.767-0.301,1.252-0.301c0.443,0,0.82,0.072,1.13,0.217
		c0.31,0.144,0.553,0.327,0.727,0.547c0.173,0.222,0.297,0.452,0.372,0.694C43.845,67.468,43.881,67.699,43.881,67.917z
		 M42.889,67.904c0-0.232-0.02-0.453-0.061-0.661c-0.04-0.208-0.109-0.397-0.208-0.565c-0.1-0.168-0.237-0.302-0.41-0.401
		c-0.174-0.099-0.388-0.149-0.644-0.149c-0.351,0-0.625,0.087-0.822,0.261c-0.197,0.175-0.331,0.394-0.402,0.656
		c-0.07,0.262-0.105,0.548-0.105,0.858c0,0.172,0.012,0.351,0.034,0.536s0.076,0.376,0.162,0.571
		c0.085,0.195,0.222,0.359,0.41,0.493s0.431,0.201,0.729,0.201c0.296,0,0.537-0.069,0.721-0.208
		c0.185-0.139,0.319-0.307,0.405-0.505c0.085-0.198,0.137-0.389,0.159-0.571C42.878,68.24,42.889,68.068,42.889,67.904z"/>
	<path fill="#008066" d="M48.842,66.122c-0.199,0-0.34,0.02-0.426,0.06c-0.086,0.04-0.139,0.099-0.16,0.176
		c-0.021,0.078-0.031,0.205-0.031,0.38v3.292h-0.282l-2.717-3.228v2.287c0,0.174,0.011,0.3,0.033,0.379
		c0.022,0.079,0.076,0.139,0.164,0.181s0.23,0.062,0.426,0.062v0.282h-1.544v-0.282c0.185,0,0.317-0.021,0.4-0.062
		c0.083-0.042,0.134-0.102,0.154-0.181c0.019-0.079,0.029-0.205,0.029-0.379v-2.119c0-0.172-0.005-0.3-0.014-0.386
		c-0.01-0.086-0.032-0.16-0.065-0.226c-0.035-0.063-0.091-0.116-0.17-0.156c-0.079-0.04-0.186-0.066-0.326-0.081V65.84h1.21
		l2.364,2.792v-1.895c0-0.155-0.011-0.274-0.032-0.357c-0.021-0.083-0.075-0.146-0.159-0.191c-0.085-0.044-0.22-0.066-0.403-0.066
		V65.84h1.55L48.842,66.122L48.842,66.122z"/>
	<path fill="#008066" d="M53.087,69.993H51.13v-0.281c0.166,0,0.286-0.013,0.361-0.036c0.076-0.023,0.113-0.078,0.113-0.166
		c0-0.062-0.013-0.123-0.037-0.187l-0.196-0.49h-1.348l-0.101,0.269c-0.058,0.152-0.086,0.261-0.086,0.329
		c0,0.122,0.048,0.2,0.142,0.232c0.095,0.033,0.206,0.049,0.332,0.049v0.282h-1.43v-0.282c0.114,0,0.211-0.021,0.291-0.063
		c0.08-0.043,0.156-0.124,0.229-0.243c0.072-0.12,0.151-0.289,0.234-0.507l1.197-3.137h0.291l1.265,3.234
		c0.091,0.229,0.159,0.383,0.202,0.464s0.102,0.143,0.177,0.187c0.076,0.044,0.182,0.065,0.319,0.065L53.087,69.993L53.087,69.993z
		 M51.262,68.532l-0.573-1.448l-0.546,1.448H51.262z"/>
	<path fill="#008066" d="M57.02,68.605l-0.028,1.388h-3.699v-0.281c0.255,0,0.42-0.037,0.493-0.111
		c0.074-0.073,0.111-0.2,0.111-0.379v-2.61c0-0.12-0.013-0.213-0.037-0.28c-0.024-0.065-0.081-0.118-0.169-0.154
		c-0.089-0.037-0.222-0.056-0.397-0.056v-0.281h2.088v0.281c-0.173,0-0.305,0.017-0.394,0.052c-0.089,0.035-0.147,0.086-0.174,0.152
		c-0.028,0.066-0.042,0.162-0.042,0.286V69c0,0.188,0.01,0.323,0.027,0.404c0.019,0.083,0.068,0.144,0.15,0.185
		c0.083,0.042,0.215,0.062,0.402,0.062c0.235,0,0.44-0.017,0.617-0.053c0.177-0.037,0.339-0.132,0.489-0.285
		c0.15-0.154,0.244-0.391,0.28-0.709L57.02,68.605L57.02,68.605z"/>
	<path fill="#008066" d="M62.553,66.8c0.674,0.05,1.174,0.217,1.5,0.503c0.327,0.286,0.49,0.643,0.49,1.072
		c0,0.374-0.111,0.695-0.332,0.966c-0.221,0.269-0.505,0.444-0.852,0.528c-0.345,0.084-0.808,0.124-1.389,0.124h-2.328v-0.201h0.229
		c0.253,0,0.429-0.031,0.527-0.096s0.161-0.164,0.186-0.3c0.027-0.136,0.04-0.452,0.04-0.948v-2.887c0-0.48-0.014-0.792-0.042-0.932
		c-0.028-0.139-0.086-0.236-0.175-0.288c-0.088-0.053-0.283-0.08-0.583-0.08H59.71V64.06l0.976-0.026l1.111-0.035
		c1.622,0,2.433,0.467,2.433,1.4c0,0.384-0.139,0.694-0.417,0.927C63.533,66.56,63.114,66.717,62.553,66.8z M61.482,66.716
		c0.073,0.003,0.135,0.004,0.185,0.004c0.629,0,1.06-0.099,1.291-0.297c0.23-0.199,0.345-0.52,0.345-0.962
		c0-0.309-0.044-0.549-0.135-0.717c-0.09-0.169-0.227-0.3-0.407-0.392c-0.181-0.092-0.49-0.138-0.927-0.138
		c-0.113,0-0.23,0.004-0.35,0.013L61.482,66.716L61.482,66.716z M61.482,66.93v1.321c0,0.563,0.01,0.92,0.031,1.071
		c0.021,0.152,0.075,0.268,0.164,0.346c0.089,0.079,0.265,0.117,0.528,0.117c0.467,0,0.816-0.118,1.05-0.357
		c0.234-0.238,0.35-0.598,0.35-1.076c0-0.49-0.132-0.851-0.396-1.083c-0.264-0.233-0.729-0.348-1.394-0.348
		C61.71,66.922,61.598,66.924,61.482,66.93z"/>
	<path fill="#008066" d="M69.873,67.917c0,0.378-0.09,0.731-0.27,1.062c-0.179,0.329-0.445,0.594-0.798,0.793
		c-0.352,0.199-0.769,0.299-1.248,0.299c-0.393,0-0.737-0.063-1.035-0.19c-0.299-0.125-0.542-0.295-0.73-0.508
		c-0.189-0.212-0.329-0.444-0.42-0.698c-0.09-0.254-0.136-0.507-0.136-0.763c0-0.369,0.086-0.719,0.261-1.046
		c0.172-0.329,0.434-0.594,0.783-0.796c0.349-0.2,0.767-0.301,1.252-0.301c0.443,0,0.82,0.072,1.13,0.217
		c0.31,0.144,0.553,0.327,0.725,0.547c0.175,0.222,0.298,0.452,0.373,0.694C69.834,67.468,69.873,67.699,69.873,67.917z
		 M68.88,67.904c0-0.232-0.021-0.453-0.061-0.661c-0.04-0.208-0.11-0.397-0.208-0.565c-0.101-0.168-0.236-0.302-0.411-0.401
		c-0.174-0.099-0.387-0.149-0.643-0.149c-0.352,0-0.626,0.087-0.823,0.261c-0.197,0.175-0.33,0.394-0.401,0.656
		c-0.071,0.262-0.105,0.548-0.105,0.858c0,0.172,0.012,0.351,0.034,0.536c0.023,0.186,0.077,0.376,0.162,0.571
		c0.086,0.195,0.223,0.359,0.41,0.493c0.188,0.134,0.431,0.201,0.729,0.201c0.296,0,0.536-0.069,0.721-0.208
		c0.185-0.139,0.32-0.307,0.405-0.505s0.137-0.389,0.159-0.571C68.87,68.24,68.88,68.068,68.88,67.904z"/>
	<path fill="#008066" d="M74.082,69.993h-1.957v-0.281c0.165,0,0.286-0.013,0.361-0.036s0.113-0.078,0.113-0.166
		c0-0.062-0.013-0.123-0.037-0.187l-0.196-0.49h-1.347l-0.102,0.269c-0.057,0.152-0.086,0.261-0.086,0.329
		c0,0.122,0.048,0.2,0.143,0.232c0.095,0.033,0.206,0.049,0.332,0.049v0.282h-1.43v-0.282c0.114,0,0.211-0.021,0.29-0.063
		c0.08-0.043,0.156-0.124,0.229-0.243c0.073-0.12,0.151-0.289,0.234-0.507l1.197-3.137h0.291l1.265,3.234
		c0.091,0.229,0.159,0.383,0.202,0.464s0.102,0.143,0.177,0.187c0.077,0.044,0.183,0.065,0.319,0.065v0.281H74.082z M72.256,68.532
		l-0.573-1.448l-0.546,1.448H72.256z"/>
	<path fill="#008066" d="M78.778,69.993h-1.111c-0.041-0.044-0.092-0.109-0.152-0.195c-0.061-0.086-0.127-0.187-0.199-0.302
		c-0.07-0.116-0.13-0.211-0.177-0.287l-0.282-0.465c-0.126-0.208-0.222-0.351-0.286-0.428c-0.063-0.076-0.137-0.125-0.22-0.146
		s-0.224-0.032-0.421-0.032h-0.157v1.084c0,0.114,0.013,0.206,0.037,0.275c0.024,0.069,0.082,0.123,0.173,0.16
		c0.09,0.037,0.223,0.055,0.396,0.055v0.282h-2.082v-0.282c0.253,0,0.417-0.036,0.488-0.11c0.073-0.073,0.109-0.2,0.109-0.38V66.6
		c0-0.177-0.035-0.304-0.105-0.378c-0.07-0.075-0.234-0.111-0.492-0.111v-0.289l0.962-0.03c0.073-0.005,0.158-0.007,0.253-0.01
		c0.095-0.001,0.184-0.002,0.264-0.002c0.063,0,0.168,0.001,0.316,0.006c0.207,0.007,0.399,0.018,0.579,0.037
		c0.179,0.019,0.32,0.042,0.425,0.07c0.153,0.039,0.299,0.103,0.436,0.192c0.138,0.09,0.25,0.209,0.337,0.355
		c0.087,0.147,0.13,0.317,0.13,0.512c0,0.138-0.03,0.273-0.09,0.405c-0.061,0.13-0.158,0.247-0.291,0.349
		c-0.133,0.103-0.31,0.184-0.529,0.242c0.15,0.088,0.276,0.196,0.381,0.325c0.104,0.13,0.268,0.368,0.489,0.716
		c0.129,0.197,0.235,0.348,0.319,0.449c0.084,0.101,0.161,0.169,0.231,0.205s0.16,0.059,0.268,0.068L78.778,69.993L78.778,69.993z
		 M77.058,66.946c0-0.331-0.101-0.551-0.302-0.658c-0.201-0.109-0.464-0.162-0.788-0.162c-0.045,0-0.081,0-0.106,0.001
		c-0.025,0-0.054,0.001-0.087,0.001v1.669h0.193c0.308,0,0.567-0.049,0.776-0.15C76.953,67.547,77.058,67.313,77.058,66.946z"/>
	<path fill="#008066" d="M83.319,67.954c0,0.301-0.05,0.57-0.152,0.812c-0.103,0.243-0.234,0.444-0.396,0.605
		c-0.161,0.161-0.333,0.283-0.518,0.363c-0.387,0.173-0.863,0.258-1.423,0.258h-1.896v-0.281c0.175,0,0.308-0.017,0.398-0.051
		s0.149-0.084,0.177-0.151s0.042-0.163,0.042-0.288V66.6c0-0.179-0.037-0.306-0.11-0.379c-0.074-0.074-0.242-0.111-0.506-0.111
		v-0.288l0.892-0.019c0.031,0,0.155-0.002,0.374-0.006c0.218-0.004,0.345-0.007,0.379-0.007c0.341,0,0.63,0.019,0.869,0.056
		c0.237,0.037,0.455,0.096,0.654,0.178c0.182,0.073,0.35,0.176,0.501,0.308c0.154,0.132,0.284,0.282,0.388,0.451
		c0.106,0.168,0.186,0.352,0.243,0.549C83.291,67.53,83.319,67.738,83.319,67.954z M82.329,67.935c0-0.43-0.083-0.792-0.247-1.082
		c-0.165-0.291-0.388-0.492-0.669-0.605c-0.123-0.049-0.252-0.081-0.391-0.093c-0.137-0.013-0.335-0.02-0.593-0.02v2.919
		c0,0.167,0.008,0.288,0.025,0.365c0.016,0.077,0.064,0.135,0.144,0.175c0.079,0.04,0.203,0.06,0.371,0.06
		c0.496,0,0.847-0.173,1.051-0.521C82.226,68.786,82.329,68.386,82.329,67.935z"/>
	<path fill="#008066" d="M85.841,69.993h-2.107v-0.281c0.176,0,0.308-0.017,0.397-0.051c0.09-0.034,0.149-0.084,0.177-0.151
		s0.041-0.163,0.041-0.288v-2.609c0-0.181-0.037-0.307-0.111-0.38c-0.075-0.074-0.243-0.111-0.504-0.111v-0.282h2.107v0.282
		c-0.176,0-0.308,0.018-0.399,0.052c-0.09,0.035-0.148,0.085-0.176,0.152s-0.041,0.161-0.041,0.286v2.61
		c0,0.117,0.012,0.211,0.039,0.278c0.026,0.068,0.083,0.119,0.17,0.156c0.086,0.037,0.222,0.056,0.406,0.056V69.993L85.841,69.993z"
		/>
	<path fill="#008066" d="M90.633,66.122c-0.198,0-0.34,0.02-0.426,0.06s-0.139,0.099-0.159,0.176s-0.031,0.205-0.031,0.38v3.292
		h-0.282l-2.716-3.228v2.287c0,0.174,0.01,0.3,0.032,0.379c0.021,0.079,0.076,0.139,0.164,0.181s0.229,0.062,0.426,0.062v0.282
		h-1.543v-0.282c0.184,0,0.317-0.021,0.4-0.062c0.083-0.042,0.134-0.102,0.153-0.181c0.019-0.079,0.029-0.205,0.029-0.379v-2.119
		c0-0.172-0.005-0.3-0.013-0.386c-0.01-0.086-0.031-0.16-0.066-0.226c-0.035-0.063-0.091-0.116-0.17-0.156
		c-0.079-0.04-0.187-0.066-0.326-0.081V65.84h1.21l2.364,2.792v-1.895c0-0.155-0.011-0.274-0.033-0.357
		c-0.021-0.083-0.073-0.146-0.159-0.191c-0.085-0.044-0.219-0.066-0.402-0.066V65.84h1.55V66.122L90.633,66.122z"/>
	<path fill="#008066" d="M95.543,68.355c-0.118,0.012-0.208,0.03-0.268,0.057c-0.061,0.024-0.102,0.068-0.124,0.131
		s-0.034,0.159-0.034,0.29v0.974c-0.296,0-0.617,0.038-0.962,0.116c-0.249,0.056-0.436,0.093-0.561,0.114s-0.271,0.033-0.441,0.033
		c-0.449,0-0.834-0.106-1.154-0.315c-0.319-0.211-0.561-0.48-0.721-0.812c-0.16-0.33-0.24-0.671-0.24-1.02
		c0-0.4,0.095-0.766,0.284-1.095c0.189-0.331,0.447-0.589,0.772-0.778c0.324-0.189,0.68-0.283,1.065-0.283
		c0.47,0,0.897,0.162,1.282,0.487c0.049-0.088,0.086-0.209,0.114-0.361h0.297l0.031,1.36h-0.282
		c-0.043-0.207-0.123-0.396-0.241-0.566c-0.118-0.172-0.267-0.308-0.443-0.408c-0.177-0.1-0.371-0.15-0.583-0.15
		c-0.155,0-0.308,0.027-0.457,0.082c-0.148,0.054-0.287,0.148-0.417,0.282c-0.13,0.134-0.233,0.315-0.312,0.546
		c-0.078,0.231-0.117,0.516-0.117,0.854c0,0.291,0.03,0.569,0.091,0.837c0.062,0.267,0.187,0.497,0.374,0.688
		c0.188,0.193,0.454,0.289,0.796,0.289c0.271,0,0.475-0.043,0.613-0.127c0.139-0.086,0.229-0.188,0.271-0.312
		c0.042-0.122,0.062-0.258,0.062-0.409c0-0.144-0.01-0.248-0.032-0.312c-0.021-0.065-0.072-0.113-0.15-0.145
		s-0.199-0.045-0.362-0.045v-0.283h1.851L95.543,68.355L95.543,68.355z"/>
	<path fill="#008066" d="M102.632,68.999c-0.012,0.172-0.05,0.339-0.118,0.502c-0.067,0.164-0.168,0.3-0.305,0.409
		c-0.136,0.11-0.307,0.165-0.513,0.165c-0.103,0-0.204-0.017-0.303-0.05c-0.1-0.032-0.206-0.09-0.322-0.174
		c-0.113-0.084-0.257-0.21-0.427-0.38c-0.217,0.207-0.438,0.358-0.664,0.459c-0.225,0.101-0.438,0.15-0.644,0.15
		c-0.235,0-0.445-0.056-0.634-0.166c-0.189-0.11-0.334-0.258-0.437-0.438c-0.103-0.181-0.152-0.374-0.152-0.58
		c0-0.122,0.019-0.255,0.061-0.396c0.04-0.143,0.135-0.307,0.287-0.493c0.15-0.185,0.371-0.356,0.659-0.513
		c-0.11-0.191-0.194-0.36-0.252-0.509c-0.059-0.147-0.087-0.308-0.087-0.479c0-0.165,0.032-0.313,0.095-0.447
		c0.062-0.133,0.144-0.24,0.242-0.322c0.1-0.082,0.212-0.144,0.338-0.187c0.125-0.044,0.254-0.066,0.382-0.066
		c0.189,0,0.354,0.042,0.493,0.126c0.142,0.084,0.248,0.19,0.322,0.321s0.111,0.267,0.111,0.408c0,0.187-0.067,0.372-0.202,0.556
		c-0.136,0.184-0.333,0.342-0.591,0.478l1.008,1.317c0.121-0.152,0.229-0.307,0.321-0.459c0.092-0.155,0.139-0.306,0.139-0.451
		c0-0.047-0.021-0.108-0.063-0.179s-0.135-0.108-0.276-0.108v-0.3h1.342v0.3c-0.12,0.027-0.216,0.063-0.289,0.111
		c-0.072,0.048-0.138,0.109-0.196,0.184c-0.058,0.075-0.153,0.219-0.287,0.433l-0.142,0.229c-0.119,0.188-0.237,0.349-0.355,0.479
		c0.105,0.152,0.228,0.289,0.365,0.412c0.139,0.123,0.271,0.185,0.392,0.185c0.059,0,0.115-0.016,0.17-0.048
		c0.055-0.031,0.103-0.087,0.144-0.169c0.041-0.083,0.068-0.187,0.084-0.312L102.632,68.999L102.632,68.999z M100.453,69.247
		l-1.146-1.491c-0.328,0.196-0.49,0.438-0.49,0.727c0,0.165,0.043,0.328,0.131,0.49c0.087,0.162,0.203,0.296,0.349,0.402
		c0.146,0.105,0.302,0.158,0.47,0.158c0.136,0,0.256-0.028,0.363-0.084C100.237,69.394,100.343,69.327,100.453,69.247z
		 M100.319,66.327c0-0.089-0.017-0.173-0.05-0.251c-0.034-0.079-0.087-0.142-0.156-0.191c-0.069-0.049-0.151-0.073-0.247-0.073
		c-0.138,0-0.245,0.043-0.323,0.132c-0.079,0.088-0.117,0.186-0.117,0.295c0,0.254,0.121,0.548,0.364,0.88
		c0.159-0.119,0.286-0.236,0.383-0.35C100.27,66.654,100.319,66.508,100.319,66.327z"/>
	<path fill="#008066" d="M6.225,75.764v1.247c0,0.467,0.012,0.772,0.034,0.917S6.34,78.18,6.436,78.25
		c0.096,0.068,0.277,0.104,0.542,0.104h0.197v0.202H4.458v-0.202h0.158c0.254,0,0.43-0.032,0.527-0.097
		c0.098-0.063,0.16-0.164,0.186-0.3c0.026-0.135,0.039-0.451,0.039-0.947v-2.909c0-0.473-0.013-0.777-0.039-0.914
		c-0.027-0.137-0.085-0.232-0.175-0.283c-0.09-0.054-0.286-0.081-0.586-0.081h-0.11v-0.2l0.744-0.026
		c0.595-0.021,1.059-0.031,1.391-0.031c0.612,0,1.084,0.049,1.415,0.144c0.331,0.098,0.603,0.269,0.814,0.513
		c0.211,0.245,0.317,0.554,0.317,0.928c0,0.323-0.072,0.608-0.216,0.856c-0.145,0.248-0.352,0.437-0.621,0.564
		c-0.271,0.129-0.745,0.192-1.425,0.192L6.225,75.764L6.225,75.764z M6.225,75.547H6.65c0.341,0,0.617-0.036,0.827-0.104
		c0.209-0.067,0.384-0.212,0.525-0.431c0.141-0.218,0.209-0.488,0.209-0.809c0-0.49-0.12-0.85-0.36-1.078
		c-0.241-0.229-0.63-0.344-1.17-0.344c-0.198,0-0.35,0.006-0.456,0.017V75.547z"/>
	<path fill="#008066" d="M13.035,77.19l-0.034,1.365h-3.7v-0.282c0.256,0,0.42-0.036,0.493-0.109c0.074-0.073,0.11-0.201,0.11-0.381
		v-2.609c0-0.118-0.012-0.21-0.036-0.275c-0.022-0.067-0.079-0.119-0.165-0.157c-0.086-0.039-0.221-0.057-0.403-0.057v-0.283h3.445
		l0.055,1.078H12.52c-0.063-0.238-0.136-0.409-0.219-0.513c-0.083-0.104-0.175-0.166-0.279-0.189
		c-0.103-0.023-0.258-0.035-0.463-0.035H10.78v1.466h0.423c0.145,0,0.253-0.012,0.325-0.037c0.071-0.026,0.121-0.074,0.15-0.146
		c0.028-0.071,0.048-0.184,0.059-0.338h0.294v1.382h-0.282c-0.009-0.153-0.029-0.266-0.062-0.338
		c-0.033-0.072-0.084-0.12-0.155-0.146c-0.07-0.024-0.178-0.037-0.324-0.037H10.78v0.978c0,0.163,0.004,0.283,0.013,0.357
		c0.008,0.075,0.03,0.139,0.065,0.188c0.036,0.049,0.094,0.085,0.175,0.108c0.082,0.023,0.195,0.033,0.345,0.033h0.333
		c0.142,0,0.275-0.018,0.404-0.053c0.127-0.036,0.252-0.128,0.375-0.276c0.123-0.147,0.208-0.381,0.257-0.696h0.289V77.19z"/>
	<path fill="#008066" d="M17.499,75.583h-0.292c-0.026-0.258-0.083-0.448-0.169-0.571c-0.086-0.122-0.181-0.197-0.281-0.226
		c-0.1-0.029-0.215-0.043-0.346-0.043h-0.527v3.04c0,0.12,0.013,0.214,0.037,0.28c0.024,0.067,0.082,0.118,0.171,0.156
		c0.09,0.036,0.222,0.054,0.396,0.054v0.283h-2.083v-0.283c0.256,0,0.42-0.036,0.493-0.109c0.074-0.073,0.111-0.201,0.111-0.381
		v-3.04h-0.441c-0.174,0-0.317,0.013-0.432,0.041c-0.114,0.027-0.214,0.104-0.302,0.227c-0.086,0.124-0.136,0.314-0.148,0.572
		h-0.291v-1.181h4.104V75.583z"/>
	<path fill="#008066" d="M20.423,78.495v-1.907h0.219c0.248,1.242,0.835,1.863,1.763,1.863c0.417,0,0.741-0.118,0.97-0.356
		c0.229-0.237,0.343-0.503,0.343-0.798c0-0.298-0.1-0.547-0.302-0.749c-0.201-0.198-0.569-0.41-1.103-0.639
		c-0.476-0.204-0.833-0.383-1.076-0.535c-0.242-0.154-0.43-0.353-0.566-0.598c-0.135-0.244-0.203-0.506-0.203-0.783
		c0-0.423,0.146-0.774,0.439-1.057c0.293-0.281,0.664-0.422,1.114-0.422c0.251,0,0.487,0.04,0.709,0.122
		c0.221,0.082,0.449,0.251,0.682,0.508c0.135-0.16,0.21-0.334,0.228-0.521h0.192v1.553h-0.192c-0.111-0.452-0.307-0.808-0.588-1.068
		c-0.282-0.259-0.607-0.389-0.979-0.389c-0.352,0-0.611,0.097-0.776,0.286c-0.164,0.191-0.247,0.401-0.247,0.628
		c0,0.274,0.104,0.506,0.311,0.696c0.204,0.191,0.573,0.408,1.107,0.647c0.51,0.228,0.881,0.41,1.113,0.549s0.418,0.331,0.558,0.575
		c0.14,0.246,0.21,0.528,0.21,0.85c0,0.507-0.169,0.92-0.507,1.238c-0.338,0.317-0.791,0.477-1.356,0.477
		c-0.651,0-1.193-0.249-1.627-0.748c-0.096,0.136-0.168,0.331-0.214,0.578L20.423,78.495L20.423,78.495z"/>
	<path fill="#008066" d="M28.642,77.19l-0.034,1.365h-3.7v-0.282c0.256,0,0.419-0.036,0.493-0.109s0.11-0.201,0.11-0.381v-2.609
		c0-0.118-0.012-0.21-0.035-0.275c-0.023-0.067-0.079-0.119-0.166-0.157c-0.087-0.039-0.221-0.057-0.403-0.057v-0.283h3.445
		l0.056,1.078h-0.282c-0.063-0.238-0.136-0.409-0.219-0.513c-0.083-0.104-0.176-0.166-0.279-0.189
		c-0.103-0.023-0.258-0.035-0.464-0.035h-0.777v1.466h0.422c0.145,0,0.254-0.012,0.325-0.037c0.071-0.026,0.121-0.074,0.15-0.146
		c0.028-0.071,0.048-0.184,0.059-0.338h0.294v1.382h-0.282c-0.008-0.153-0.029-0.266-0.061-0.338
		c-0.034-0.072-0.085-0.12-0.155-0.146c-0.07-0.024-0.178-0.037-0.323-0.037h-0.429v0.978c0,0.163,0.004,0.283,0.013,0.357
		c0.008,0.075,0.03,0.139,0.065,0.188c0.036,0.049,0.094,0.085,0.175,0.108s0.196,0.033,0.345,0.033h0.333
		c0.141,0,0.275-0.018,0.403-0.053c0.127-0.036,0.252-0.128,0.375-0.276c0.123-0.147,0.209-0.381,0.258-0.696h0.288V77.19z"/>
	<path fill="#008066" d="M33.515,78.557h-1.112c-0.04-0.046-0.091-0.111-0.152-0.197s-0.126-0.186-0.197-0.301
		c-0.072-0.116-0.131-0.212-0.178-0.287l-0.282-0.465c-0.127-0.208-0.222-0.352-0.286-0.428s-0.138-0.126-0.22-0.146
		c-0.083-0.022-0.223-0.032-0.421-0.032H30.51v1.083c0,0.115,0.012,0.207,0.036,0.276c0.025,0.069,0.083,0.122,0.173,0.16
		c0.09,0.036,0.223,0.054,0.396,0.054v0.283h-2.083v-0.283c0.253,0,0.417-0.036,0.489-0.109c0.073-0.073,0.109-0.201,0.109-0.381
		v-2.62c0-0.178-0.035-0.305-0.106-0.379c-0.07-0.074-0.234-0.111-0.492-0.111v-0.288l0.962-0.03
		c0.073-0.004,0.158-0.008,0.253-0.01s0.184-0.003,0.265-0.003c0.063,0,0.168,0.002,0.315,0.005c0.207,0.008,0.399,0.02,0.579,0.038
		c0.179,0.018,0.321,0.042,0.426,0.07c0.153,0.038,0.298,0.103,0.436,0.192c0.137,0.09,0.25,0.209,0.336,0.355
		c0.086,0.147,0.13,0.316,0.13,0.513c0,0.138-0.03,0.272-0.09,0.403c-0.061,0.132-0.158,0.247-0.292,0.349
		c-0.134,0.103-0.309,0.184-0.528,0.243c0.149,0.087,0.275,0.195,0.38,0.325s0.268,0.368,0.49,0.717
		c0.129,0.196,0.235,0.347,0.319,0.448c0.083,0.101,0.161,0.169,0.231,0.205c0.071,0.035,0.16,0.059,0.268,0.067L33.515,78.557
		L33.515,78.557z M31.793,75.509c0-0.33-0.1-0.55-0.301-0.659c-0.202-0.107-0.464-0.162-0.789-0.162
		c-0.045,0-0.081,0.002-0.107,0.003c-0.025,0.001-0.054,0.001-0.086,0.001v1.669h0.193c0.307,0,0.567-0.05,0.776-0.149
		C31.689,76.111,31.793,75.876,31.793,75.509z"/>
	<path fill="#008066" d="M37.68,74.685c-0.098,0.002-0.184,0.015-0.256,0.04c-0.073,0.024-0.133,0.062-0.18,0.114
		c-0.046,0.052-0.094,0.123-0.14,0.212c-0.047,0.09-0.112,0.231-0.196,0.424l-1.354,3.158H35.27l-1.415-3.314
		c-0.088-0.207-0.157-0.348-0.206-0.426c-0.049-0.078-0.115-0.133-0.196-0.162c-0.082-0.031-0.203-0.046-0.364-0.046v-0.282h2.113
		v0.282c-0.2,0.009-0.339,0.024-0.416,0.05c-0.079,0.023-0.117,0.085-0.117,0.183c0,0.093,0.024,0.19,0.074,0.295l0.955,2.22
		l0.882-2.073c0.076-0.18,0.113-0.304,0.113-0.37c0-0.133-0.046-0.215-0.138-0.248c-0.092-0.032-0.23-0.051-0.413-0.056v-0.282
		h1.538V74.685z"/>
	<path fill="#008066" d="M39.993,78.557h-2.107v-0.283c0.176,0,0.309-0.017,0.398-0.05c0.09-0.034,0.149-0.085,0.177-0.151
		c0.027-0.068,0.041-0.163,0.041-0.289v-2.609c0-0.18-0.037-0.306-0.111-0.379c-0.075-0.073-0.243-0.11-0.504-0.11v-0.283h2.107
		v0.283c-0.176,0-0.308,0.017-0.399,0.052c-0.09,0.034-0.148,0.086-0.176,0.151c-0.027,0.067-0.041,0.161-0.041,0.285v2.61
		c0,0.118,0.013,0.211,0.04,0.279s0.083,0.119,0.17,0.156c0.086,0.036,0.222,0.055,0.406,0.055V78.557z"/>
	<path fill="#008066" d="M44.363,78.513h-0.288c-0.043-0.175-0.113-0.332-0.211-0.471c-0.155,0.161-0.333,0.3-0.532,0.416
		c-0.2,0.116-0.471,0.175-0.812,0.175c-0.374,0-0.721-0.092-1.04-0.273c-0.319-0.181-0.574-0.435-0.764-0.761
		c-0.189-0.325-0.284-0.692-0.284-1.102c0-0.289,0.052-0.565,0.155-0.829c0.104-0.263,0.25-0.495,0.44-0.695
		c0.19-0.199,0.419-0.356,0.683-0.472c0.264-0.114,0.554-0.171,0.869-0.171c0.518,0,0.947,0.17,1.286,0.508
		c0.045-0.088,0.088-0.215,0.132-0.383h0.275l0.049,1.528h-0.294c-0.053-0.258-0.149-0.489-0.288-0.692
		c-0.139-0.201-0.304-0.356-0.495-0.464c-0.191-0.106-0.391-0.16-0.599-0.16c-0.233,0-0.442,0.063-0.627,0.191
		s-0.332,0.322-0.436,0.582c-0.106,0.262-0.159,0.588-0.159,0.978c0,0.38,0.044,0.697,0.132,0.948
		c0.088,0.252,0.197,0.442,0.326,0.571c0.13,0.128,0.259,0.215,0.391,0.261c0.131,0.047,0.254,0.07,0.367,0.07
		c0.251,0,0.478-0.069,0.679-0.204s0.365-0.304,0.494-0.509s0.215-0.409,0.258-0.611h0.294v1.568H44.363z"/>
	<path fill="#008066" d="M48.644,77.19l-0.033,1.365h-3.7v-0.282c0.255,0,0.419-0.036,0.493-0.109
		c0.074-0.073,0.111-0.201,0.111-0.381v-2.609c0-0.118-0.012-0.21-0.035-0.275c-0.023-0.067-0.079-0.119-0.166-0.157
		c-0.086-0.039-0.221-0.057-0.402-0.057v-0.283h3.445l0.056,1.078h-0.282c-0.063-0.238-0.136-0.409-0.219-0.513
		c-0.083-0.104-0.176-0.166-0.279-0.189s-0.258-0.035-0.464-0.035H46.39v1.466h0.422c0.145,0,0.254-0.012,0.325-0.037
		c0.072-0.026,0.122-0.074,0.15-0.146c0.028-0.071,0.048-0.184,0.059-0.338h0.293v1.382h-0.282
		c-0.008-0.153-0.029-0.266-0.061-0.338c-0.033-0.072-0.084-0.12-0.155-0.146c-0.07-0.024-0.178-0.037-0.324-0.037h-0.429v0.978
		c0,0.163,0.004,0.283,0.013,0.357c0.008,0.075,0.03,0.139,0.065,0.188c0.036,0.049,0.094,0.085,0.175,0.108
		c0.081,0.023,0.195,0.033,0.345,0.033h0.333c0.141,0,0.275-0.018,0.404-0.053c0.127-0.036,0.252-0.128,0.375-0.276
		c0.123-0.147,0.209-0.381,0.258-0.696h0.288V77.19z"/>
	<path fill="#008066" d="M52.197,77.365c0,0.128-0.028,0.266-0.084,0.408c-0.055,0.145-0.138,0.283-0.25,0.413
		c-0.111,0.132-0.252,0.24-0.421,0.321c-0.169,0.084-0.365,0.126-0.588,0.126c-0.221,0-0.439-0.049-0.657-0.145
		c-0.217-0.096-0.402-0.238-0.553-0.43c-0.065,0.151-0.107,0.292-0.126,0.42h-0.281v-1.421h0.281
		c0.051,0.205,0.122,0.396,0.212,0.576c0.09,0.18,0.216,0.334,0.381,0.463c0.166,0.131,0.367,0.196,0.605,0.196
		c0.208,0,0.375-0.058,0.501-0.173c0.125-0.114,0.188-0.259,0.188-0.431c0-0.099-0.02-0.186-0.059-0.258
		c-0.039-0.074-0.095-0.14-0.168-0.198c-0.074-0.059-0.174-0.119-0.302-0.187c-0.128-0.065-0.273-0.136-0.436-0.209
		c-0.251-0.119-0.458-0.237-0.619-0.358c-0.161-0.119-0.283-0.236-0.366-0.351c-0.083-0.113-0.14-0.221-0.172-0.323
		c-0.032-0.103-0.047-0.206-0.047-0.31c0-0.185,0.05-0.369,0.149-0.549c0.101-0.182,0.247-0.329,0.44-0.444s0.416-0.173,0.668-0.173
		c0.195,0,0.38,0.043,0.555,0.13c0.176,0.087,0.328,0.206,0.456,0.356c0.037-0.086,0.07-0.207,0.101-0.361h0.288v1.157h-0.288
		c-0.205-0.63-0.56-0.945-1.066-0.945c-0.184,0-0.331,0.048-0.442,0.145s-0.167,0.223-0.167,0.375c0,0.12,0.035,0.227,0.104,0.315
		c0.069,0.088,0.161,0.164,0.274,0.227c0.114,0.063,0.296,0.156,0.55,0.272c0.307,0.146,0.546,0.271,0.719,0.378
		c0.172,0.105,0.318,0.239,0.438,0.401C52.136,76.942,52.197,77.137,52.197,77.365z"/>
	<path fill="#008066" d="M58.577,76.369h-2.253l-0.152,0.377c-0.229,0.545-0.341,0.9-0.341,1.067c0,0.178,0.061,0.312,0.182,0.405
		c0.121,0.092,0.276,0.138,0.466,0.138v0.201h-1.764v-0.201c0.262-0.041,0.458-0.135,0.586-0.279
		c0.129-0.144,0.283-0.446,0.463-0.912c0.015-0.043,0.084-0.212,0.209-0.507l1.725-4.117h0.17l1.982,4.712l0.271,0.621
		c0.061,0.141,0.143,0.251,0.248,0.332c0.103,0.08,0.259,0.131,0.465,0.15v0.202h-2.332v-0.202c0.286,0,0.479-0.021,0.58-0.062
		c0.1-0.042,0.151-0.127,0.151-0.252c0-0.064-0.067-0.256-0.202-0.573L58.577,76.369z M58.502,76.171l-1.049-2.527l-1.046,2.527
		H58.502z"/>
	<path fill="#008066" d="M64.1,77.365c0,0.128-0.027,0.266-0.083,0.408c-0.055,0.145-0.138,0.283-0.25,0.413
		c-0.111,0.132-0.251,0.24-0.421,0.321c-0.169,0.084-0.365,0.126-0.587,0.126c-0.221,0-0.44-0.049-0.657-0.145
		c-0.218-0.096-0.402-0.238-0.554-0.43c-0.064,0.151-0.107,0.292-0.125,0.42h-0.281v-1.421h0.281
		c0.051,0.205,0.121,0.396,0.211,0.576c0.09,0.18,0.217,0.334,0.382,0.463c0.165,0.131,0.366,0.196,0.604,0.196
		c0.208,0,0.375-0.058,0.501-0.173c0.126-0.114,0.188-0.259,0.188-0.431c0-0.099-0.019-0.186-0.059-0.258
		c-0.039-0.074-0.095-0.14-0.168-0.198c-0.074-0.059-0.174-0.119-0.301-0.187c-0.128-0.065-0.273-0.136-0.437-0.209
		c-0.251-0.119-0.457-0.237-0.619-0.358c-0.161-0.119-0.283-0.236-0.365-0.351c-0.083-0.113-0.141-0.221-0.172-0.323
		c-0.032-0.103-0.047-0.206-0.047-0.31c0-0.185,0.049-0.369,0.15-0.549c0.1-0.182,0.247-0.329,0.439-0.444
		c0.193-0.115,0.416-0.173,0.669-0.173c0.194,0,0.379,0.043,0.554,0.13c0.176,0.087,0.329,0.206,0.457,0.356
		c0.036-0.086,0.071-0.207,0.101-0.361h0.288v1.157h-0.288c-0.205-0.63-0.559-0.945-1.066-0.945c-0.184,0-0.331,0.048-0.441,0.145
		c-0.111,0.097-0.167,0.223-0.167,0.375c0,0.12,0.034,0.227,0.104,0.315c0.069,0.088,0.161,0.164,0.274,0.227
		c0.113,0.063,0.296,0.156,0.55,0.272c0.306,0.146,0.545,0.271,0.719,0.378c0.172,0.105,0.318,0.239,0.437,0.401
		C64.039,76.942,64.1,77.137,64.1,77.365z"/>
	<path fill="#008066" d="M67.695,77.365c0,0.128-0.027,0.266-0.083,0.408c-0.054,0.145-0.138,0.283-0.249,0.413
		c-0.112,0.132-0.252,0.24-0.421,0.321c-0.17,0.084-0.365,0.126-0.587,0.126c-0.221,0-0.44-0.049-0.657-0.145
		c-0.218-0.096-0.402-0.238-0.554-0.43c-0.064,0.151-0.107,0.292-0.125,0.42h-0.281v-1.421h0.281
		c0.051,0.205,0.122,0.396,0.211,0.576c0.09,0.18,0.217,0.334,0.382,0.463c0.165,0.131,0.366,0.196,0.604,0.196
		c0.208,0,0.375-0.058,0.501-0.173c0.126-0.114,0.188-0.259,0.188-0.431c0-0.099-0.019-0.186-0.058-0.258
		c-0.04-0.074-0.095-0.14-0.169-0.198c-0.074-0.059-0.174-0.119-0.301-0.187c-0.128-0.065-0.273-0.136-0.437-0.209
		c-0.251-0.119-0.457-0.237-0.619-0.358c-0.161-0.119-0.283-0.236-0.365-0.351c-0.083-0.113-0.141-0.221-0.172-0.323
		c-0.032-0.103-0.047-0.206-0.047-0.31c0-0.185,0.049-0.369,0.15-0.549c0.1-0.182,0.247-0.329,0.439-0.444s0.415-0.173,0.669-0.173
		c0.193,0,0.378,0.043,0.554,0.13c0.176,0.087,0.329,0.206,0.457,0.356c0.036-0.086,0.071-0.207,0.101-0.361h0.288v1.157h-0.288
		c-0.205-0.63-0.56-0.945-1.066-0.945c-0.184,0-0.331,0.048-0.442,0.145s-0.167,0.223-0.167,0.375c0,0.12,0.034,0.227,0.104,0.315
		c0.068,0.088,0.161,0.164,0.273,0.227c0.113,0.063,0.296,0.156,0.551,0.272c0.306,0.146,0.545,0.271,0.718,0.378
		c0.172,0.105,0.318,0.239,0.437,0.401C67.635,76.942,67.695,77.137,67.695,77.365z"/>
	<path fill="#008066" d="M72.898,76.48c0,0.377-0.088,0.73-0.269,1.062c-0.179,0.329-0.445,0.594-0.797,0.792
		c-0.353,0.2-0.768,0.3-1.248,0.3c-0.392,0-0.737-0.064-1.035-0.19c-0.298-0.126-0.542-0.295-0.729-0.508
		c-0.189-0.212-0.33-0.445-0.42-0.699c-0.091-0.253-0.136-0.506-0.136-0.763c0-0.369,0.086-0.718,0.26-1.047
		c0.174-0.327,0.435-0.594,0.784-0.794c0.349-0.201,0.767-0.302,1.251-0.302c0.444,0,0.821,0.071,1.131,0.217
		c0.31,0.146,0.553,0.328,0.726,0.548c0.173,0.222,0.297,0.453,0.373,0.694C72.862,76.031,72.898,76.261,72.898,76.48z
		 M71.906,76.467c0-0.232-0.02-0.453-0.06-0.661c-0.041-0.208-0.11-0.397-0.209-0.565c-0.101-0.169-0.237-0.302-0.411-0.4
		c-0.173-0.1-0.388-0.148-0.643-0.148c-0.352,0-0.625,0.087-0.823,0.26c-0.197,0.176-0.331,0.395-0.401,0.657
		c-0.07,0.261-0.106,0.548-0.106,0.858c0,0.172,0.011,0.351,0.035,0.535c0.021,0.187,0.076,0.377,0.162,0.572
		c0.085,0.194,0.222,0.358,0.411,0.493c0.187,0.134,0.43,0.201,0.729,0.201c0.295,0,0.536-0.07,0.721-0.208
		c0.185-0.138,0.32-0.307,0.404-0.505c0.085-0.199,0.138-0.39,0.16-0.571S71.906,76.63,71.906,76.467z"/>
	<path fill="#008066" d="M77.437,78.513H77.15c-0.043-0.175-0.114-0.332-0.212-0.471c-0.155,0.161-0.333,0.3-0.533,0.416
		c-0.2,0.116-0.471,0.175-0.811,0.175c-0.374,0-0.721-0.092-1.041-0.273c-0.32-0.181-0.574-0.435-0.764-0.761
		c-0.19-0.325-0.284-0.692-0.284-1.102c0-0.289,0.051-0.565,0.154-0.829c0.104-0.263,0.25-0.495,0.44-0.695
		c0.191-0.199,0.419-0.356,0.684-0.472c0.264-0.114,0.554-0.171,0.868-0.171c0.519,0,0.947,0.17,1.287,0.508
		c0.044-0.088,0.088-0.215,0.131-0.383h0.276l0.049,1.528h-0.294c-0.053-0.258-0.149-0.489-0.287-0.692
		c-0.14-0.201-0.305-0.356-0.496-0.464c-0.191-0.106-0.391-0.16-0.599-0.16c-0.233,0-0.442,0.063-0.628,0.191
		s-0.331,0.322-0.436,0.582c-0.105,0.262-0.158,0.588-0.158,0.978c0,0.38,0.044,0.697,0.131,0.948
		c0.088,0.252,0.198,0.442,0.327,0.571c0.13,0.128,0.259,0.215,0.391,0.261c0.131,0.047,0.253,0.07,0.367,0.07
		c0.252,0,0.478-0.069,0.679-0.204c0.201-0.135,0.366-0.304,0.495-0.509s0.214-0.409,0.257-0.611h0.294v1.568H77.437z"/>
	<path fill="#008066" d="M80.062,78.557h-2.107v-0.283c0.176,0,0.308-0.017,0.398-0.05c0.09-0.034,0.149-0.085,0.176-0.151
		c0.028-0.068,0.041-0.163,0.041-0.289v-2.609c0-0.18-0.037-0.306-0.111-0.379c-0.075-0.073-0.243-0.11-0.505-0.11v-0.283h2.107
		v0.283c-0.176,0-0.308,0.017-0.399,0.052c-0.09,0.034-0.148,0.086-0.176,0.151c-0.027,0.067-0.041,0.161-0.041,0.285v2.61
		c0,0.118,0.013,0.211,0.04,0.279s0.083,0.119,0.17,0.156c0.087,0.036,0.222,0.055,0.406,0.055V78.557L80.062,78.557z"/>
	<path fill="#008066" d="M84.448,78.557H82.49v-0.283c0.165,0,0.286-0.011,0.361-0.035c0.076-0.023,0.113-0.079,0.113-0.166
		c0-0.062-0.012-0.124-0.037-0.188l-0.195-0.489h-1.348l-0.101,0.269c-0.058,0.151-0.086,0.261-0.086,0.328
		c0,0.123,0.047,0.201,0.142,0.233c0.095,0.032,0.207,0.048,0.332,0.048v0.283h-1.43v-0.283c0.114,0,0.211-0.021,0.291-0.063
		c0.08-0.042,0.156-0.123,0.229-0.242c0.072-0.121,0.151-0.289,0.234-0.507l1.198-3.137h0.291l1.265,3.234
		c0.091,0.229,0.159,0.383,0.202,0.464c0.043,0.081,0.103,0.143,0.178,0.187c0.076,0.043,0.182,0.064,0.319,0.064L84.448,78.557
		L84.448,78.557z M82.623,77.096l-0.573-1.45l-0.546,1.45H82.623z"/>
	<path fill="#008066" d="M88.487,75.583h-0.291c-0.027-0.258-0.084-0.448-0.169-0.571c-0.088-0.122-0.181-0.197-0.281-0.226
		c-0.101-0.029-0.215-0.043-0.346-0.043h-0.527v3.04c0,0.12,0.013,0.214,0.037,0.28c0.024,0.067,0.082,0.118,0.171,0.156
		c0.09,0.036,0.221,0.054,0.395,0.054v0.283h-2.082v-0.283c0.255,0,0.42-0.036,0.493-0.109c0.074-0.073,0.11-0.201,0.11-0.381v-3.04
		h-0.44c-0.174,0-0.318,0.013-0.432,0.041c-0.114,0.027-0.214,0.104-0.302,0.227c-0.087,0.124-0.136,0.314-0.149,0.572h-0.291
		v-1.181h4.104V75.583z"/>
	<path fill="#008066" d="M90.882,78.557h-2.106v-0.283c0.175,0,0.308-0.017,0.397-0.05c0.09-0.034,0.148-0.085,0.177-0.151
		c0.027-0.068,0.04-0.163,0.04-0.289v-2.609c0-0.18-0.036-0.306-0.11-0.379c-0.075-0.073-0.243-0.11-0.504-0.11v-0.283h2.106v0.283
		c-0.176,0-0.309,0.017-0.398,0.052c-0.091,0.034-0.149,0.086-0.177,0.151c-0.027,0.067-0.041,0.161-0.041,0.285v2.61
		c0,0.118,0.014,0.211,0.04,0.279s0.083,0.119,0.169,0.156c0.087,0.036,0.224,0.055,0.407,0.055V78.557L90.882,78.557z"/>
	<path fill="#008066" d="M95.939,76.48c0,0.377-0.091,0.73-0.271,1.062c-0.18,0.329-0.445,0.594-0.798,0.792
		c-0.353,0.2-0.768,0.3-1.247,0.3c-0.393,0-0.737-0.064-1.036-0.19c-0.298-0.126-0.541-0.295-0.729-0.508
		c-0.189-0.212-0.329-0.445-0.42-0.699c-0.09-0.253-0.136-0.506-0.136-0.763c0-0.369,0.086-0.718,0.26-1.047
		c0.173-0.327,0.436-0.594,0.784-0.794c0.349-0.201,0.767-0.302,1.252-0.302c0.444,0,0.82,0.071,1.131,0.217
		s0.553,0.328,0.726,0.548c0.174,0.222,0.298,0.453,0.372,0.694S95.939,76.261,95.939,76.48z M94.946,76.467
		c0-0.232-0.021-0.453-0.061-0.661c-0.039-0.208-0.109-0.397-0.209-0.565c-0.101-0.169-0.236-0.302-0.41-0.4
		c-0.173-0.1-0.388-0.148-0.643-0.148c-0.352,0-0.626,0.087-0.823,0.26c-0.197,0.176-0.33,0.395-0.401,0.657
		c-0.071,0.261-0.105,0.548-0.105,0.858c0,0.172,0.012,0.351,0.033,0.535c0.023,0.187,0.077,0.377,0.163,0.572
		c0.085,0.194,0.223,0.358,0.41,0.493c0.188,0.134,0.431,0.201,0.729,0.201c0.296,0,0.535-0.07,0.722-0.208
		c0.185-0.138,0.319-0.307,0.403-0.505c0.086-0.199,0.139-0.39,0.16-0.571S94.946,76.63,94.946,76.467z"/>
	<path fill="#008066" d="M100.9,74.685c-0.199,0-0.341,0.02-0.426,0.06c-0.087,0.04-0.14,0.099-0.159,0.177
		c-0.021,0.077-0.032,0.204-0.032,0.38v3.292h-0.281l-2.717-3.229v2.288c0,0.174,0.01,0.3,0.032,0.378
		c0.021,0.079,0.076,0.14,0.164,0.182c0.087,0.042,0.229,0.062,0.426,0.062v0.283h-1.544v-0.283c0.185,0,0.317-0.02,0.399-0.062
		c0.084-0.042,0.134-0.103,0.154-0.182c0.019-0.078,0.029-0.204,0.029-0.378v-2.119c0-0.172-0.006-0.301-0.014-0.386
		c-0.01-0.086-0.031-0.16-0.066-0.226c-0.034-0.063-0.091-0.117-0.169-0.156c-0.079-0.04-0.188-0.066-0.327-0.081v-0.282h1.21
		l2.365,2.793V75.3c0-0.155-0.012-0.274-0.033-0.356c-0.021-0.083-0.074-0.146-0.16-0.191c-0.085-0.044-0.219-0.067-0.402-0.067
		v-0.282h1.55L100.9,74.685L100.9,74.685z"/>
</g>
<g>
	<path fill="#AFD2CA" d="M59.686,19.354c1.901,1.335,2.543,1.464,4.132,0.106c0.604-0.518,1.644-0.501,1.872-1.461
		c0.047-1.008,0.125-2.031-1.181-2.362c-0.48-0.006-1.004-0.117-1.3,0.418c-0.67,1.218-1.142,0.356-1.675-0.137
		c-0.369-0.342-0.501-0.721-0.6-1.235c-0.566-2.933-4.427-5.311-7.354-5.517c-1.602-0.114-3.176,0.067-4.79,0.479
		c-1.569,0.401-3.322,0.131-4.992,0.073c-1.212-0.042-2.292-0.721-3.594-0.668c-0.672,0.027-1.645-0.491-1.933-1.592
		c-0.351-1.342-1.535-2.152-2.469-3.101c-0.265-0.271-0.494-0.556-0.96-0.54c-1.693,0.058-3.464-0.283-4.846,1.14
		c-0.252,0.26-0.48,0.524-0.898,0.673c-1.8,0.641-1.625,0.704-1.848,2.235c-0.17,1.164,0.749,1.948,0.645,3.009
		c-0.053,0.533,0.281,0.639,0.72,0.633c0.491-0.008,1.019-0.114,1.466,0.024c0.665,0.206,1.274,0.59,1.907,0.898
		c-0.572,0.283-1.143,0.564-1.713,0.847h-1.576c-1.041,0.148-2.424-0.526-3.064,0.317c-0.881,1.161-1.622,0.182-2.398,0.257
		c-0.657,0.063-1.028-0.707-1.824-0.62c-0.933,0.104-2.249,0.48-2.771-0.216c-0.478-0.637-0.163-1.868-0.197-2.836
		c-0.003-0.098-0.026-0.939-0.322-1.016c-0.364-0.095-0.729-0.044-0.886,0.455c-1.204,3.807-5.306,5.776-5.669,6.107
		c-1.12,1.021-2.188,2.571-2.556,4.247c-0.731,3.333-0.79,6.671-1.165,10.123c-0.205,1.89-1.248,5.796-2.109,6.219
		c-0.554,0.272-1.245,0.12-1.461-0.777c-0.253-1.051-0.032-2.164,0.005-3.244c0.02-0.602-0.445-1.068-0.769-1.111
		c-0.817-0.109-0.487,3.143-0.409,4.22c0.145,1.978,0.596,3.129,2.545,2.814c2.185-0.353,3.689-4.734,3.812-8.962
		c0.058-1.947,0.9-3.424,1.354-5.248c0.48-1.928,1.615-3.58,3.244-4.81c0.119-0.089,0.412-0.061,0.562,0.023
		c0.402,0.225-0.395,2.033-0.345,2.718c0.094,1.302,0.461,2.028,1.316,2.968c0.247,0.271,0.526,0.16,0.803,0.165
		c0.37,0.224,1.017-0.746,0.676-2.208c-0.093-0.399-0.63-0.773-0.371-0.987c0.855-0.71,0.569-1.616,0.536-2.44
		c-0.037-0.957,0.589-0.996,1.114-0.81c0.796,0.282,1.557,0.501,2.414,0.604c1.471,0.176,0.04,1.723,0.914,2.35
		c0.33,0.235,0.387,0.82,0.658,1.177c0.27,0.355,0.347,0.648,0.081,1.018c-0.68,0.943,0.164,1.578,0.688,1.844
		c0.765,0.389,1.09-0.529,1.824-0.955c1.533-0.888-1.092-1.98-0.923-3.025c0.039-0.239,0.558-0.053,2.115,1.088
		c1.021,0.628,1.837,0.13,2.288-0.837c0.539-1.159-0.491-4.36-1.589-5.047c-0.198-0.124-0.704-0.127-0.625-0.335
		c0.127-0.334,0.486-0.765,0.798-0.811c0.943-0.14,1.844-0.188,2.642,0.71c0.463,0.521,1.153,1.028,1.909-0.344
		c0.816-1.484,1.676-1.275,2.899-0.081c1.181,1.153,1.938,2.718,3.489,3.519c0.431,0.223,0.643,0.646,0.61,1.216
		c-0.049,0.84-0.017,1.622,0.503,2.447c0.344,0.545,0.129,1.53-0.032,2.276c-0.097,0.449-1.674,0.386-1.868,0.948
		c-0.168,0.486,0.165,0.867,0.228,1.286c0.071,0.474,0.581,0.369,0.955,0.369c0.588,0,1.176,0.007,1.765-0.002
		c0.973-0.013,2.246,0.334,2.844-0.148c0.8-0.645,0.184-2.005,0.307-3.048c0.023-0.193-0.049-0.41,0.013-0.585
		c0.338-0.972,0.437-2.016,0.697-2.964c0.206-0.748,1.595-0.114,2.391-0.364c1.12-0.351,2.221-0.807,3.255-1.36
		c0.387-0.207,0.465-0.259,0.871-0.006c1.21,0.757,0.942,2.192,1.619,3.182c0.416,0.605,0.668,1.266,0.651,2.099
		c-0.028,1.341-2.003,1.389-2.074,1.432c-0.531,0.326-0.337,0.865-0.314,1.311c0.028,0.544,0.499,0.411,0.878,0.458
		c2.795,0.343,3.152-1.591,3.531-2.286c0.355-0.652,1.111-1.077,0.907-2.002c-0.024-0.113,0.191-0.28,0.295-0.421
		c0.093,0.159,0.273,0.322,0.262,0.474c-0.05,0.739,0.32,1.607-0.542,2.129c-0.858,0.519-0.956,2.22,0.251,2.106
		c3.163-0.297,3.264-0.055,3.311-3.38c0.023-1.639-0.51-3.133-0.627-4.711c-0.018-0.244,0.104-0.612,0.286-0.727
		C59.093,19.103,59.404,19.156,59.686,19.354z"/>
	<path fill="#AFD2CA" d="M96.062,21.443c-0.321-2.229-2.581-3.743-2.192-6.222c0.033-0.208-0.226-1.581-0.823-1.501
		c-0.773,0.104-0.691,1.464-0.785,1.881c-0.04,0.177,0.045,0.872-0.056,0.898c-0.383,0.105-0.495-0.922-0.841-1.551
		c-0.083-0.152-0.688-1.708-2.004-1.645c-0.318,1.453-0.644,2.37,0.033,3.514c0.167,0.283,0.226,0.968,0.355,1.181
		c0.28,0.459,0.606,0.512-0.092,1.087c-0.465,0.382-0.141,1.162-1.157,1.388c-1.018,0.225-1.974,1.035-2.613,2.269
		c-0.577,1.113-1.082,2.339-1.862,3.383c-0.196,0.263-0.052,0.747-0.626,0.743c-0.584-0.005-0.414-0.514-0.611-0.758
		c-0.821-1.018-0.851-1.896,0.233-2.692c0.492-0.361,0.378-0.846,0.386-1.32c0.009-0.489-0.178-1.255,0.058-1.42
		c1.506-1.06,1.064-2.583,1.124-3.996c0-0.689-0.009-1.378,0.004-2.067c0.006-0.306-0.023-0.636-0.321-0.727
		c-0.246-0.075-0.517-0.022-0.8,0.182c-1.888,1.354-2.39,1.356-4.218,0.048c-0.263-0.188-0.517-0.318-0.782-0.237
		c-0.479,0.148-0.406,0.595-0.371,0.966c0.042,0.46-0.202,0.985,0.268,1.364c0.344,0.277,0.45,0.638,0.204,1
		c-0.271,0.401-0.852,0.315-1.071,0.169c-1.522-1.014-3.199-0.402-4.795-0.549c-0.362-0.034-0.767-0.129-1.076,0.245
		c-1.493,1.809-3.812,2.969-4.2,5.652c-0.148,1.024-0.682,1.191-1.81,0.794c-1.35-0.475-1.798-0.129-3.027,0.433
		c-1.169,0.533-2.382,3.701-1.821,3.887c0.582,0.194,1.214-1.394,1.526-1.76c1.233-1.452,2.552-1.843,3.67-0.503
		c1.192,1.427,2.211,1.664,3.483,2.508c1.121,0.744,2.148,0.688,3.236,0.316c1.493-0.508,2.892-0.549,4.4,0.048
		c0.939,0.372,2.412,0.419,3.32-0.412c0.138-0.125-0.281-0.553-0.45-0.578c-0.289-0.044-0.602,0.04-0.881-0.026
		c-0.301-0.071-0.437-0.325-0.394-0.656c0.042-0.332,0.198-0.492,0.549-0.518c0.616-0.046,1.092,0.086,1.541,0.589
		c0.989,1.105,2.108,1.917,3.742,1.212c0.42-0.182,0.7,0.171,0.667,0.654c-0.019,0.287,0.072,0.696-0.083,0.837
		c-0.439,0.407-0.498,0.667-0.005,1.081c0.425,0.356,0.706,0.439,1.246,0.134c0.655-0.37,1.623-1.18,1.816,0.51
		c0.033,0.284,0.431,0.33,0.735,0.305c0.382-0.032,0.523,0.948,1.092,0.236c0.3-0.376,0.815-0.745,0.394-1.208
		c-0.906-0.992,0.008-0.725,0.488-0.803c0.737-0.119,0.978,0.536,1.398,0.896c0.511,0.435,1.117,0.444,1.585,0.135
		c0.438-0.291,0.343-1.08,0.114-1.32c-0.468-0.493-0.764-1.136-0.472-1.552c0.749-1.066,0.55-2.207,0.527-3.327
		c-0.018-0.927,0.031-1.414,1.232-1.41C95.84,23.231,96.198,22.391,96.062,21.443z"/>
	<path fill="#AFD2CA" d="M65.71,17.8c0.417-1.193,0.562-2.061-1.202-2.164C65.815,15.967,65.757,16.792,65.71,17.8z"/>
	<path fill="#AFD2CA" d="M65.689,17.999c0.582,0.045,0.573-0.359,0.593-0.76c0.038-0.761,0.062-0.778,1.27-1.002
		c0.552-0.103,0.47-0.476,0.507-0.858c0.081-0.824-0.502-1.41-0.859-1.994c-0.582-0.951-0.434-1.926-0.229-2.786
		c0.181-0.761,1.309-0.633,1.883-0.958c1.131-0.642,2.553-0.53,3.503-1.542c1.143-1.215,2.408-2.317,3.506-3.57
		c0.524-0.597,1.028-1.318,1.041-2.205c0.005-0.278,0.111-0.624-0.229-0.771c-0.082-0.037-0.286,0.146-0.405,0.26
		c-0.424,0.409-0.851,0.816-1.249,1.249c-1.133,1.233-2.41,2.191-4.198,1.926c-0.688-0.103-1.023,0.41-1.518,0.626
		c-2.244,0.98-4.379,0.996-6.309-0.666c-0.669-0.575-1.269-0.868-2.021-0.243c-0.757,0.629-1.318,0.316-2.037-0.188
		c-0.804-0.564-1.791-0.866-2.698-1.281c-0.801-0.591-1.593-1.193-2.41-1.759c-0.125-0.086-0.36-0.013-0.543-0.013
		c0.563,1.012,1.351,1.799,2.362,2.362c2.303,0.769,3.187,3.437,5.543,4.143c0.294,0.087,0.429,0.368,0.358,0.682
		c-0.215,0.975,0.691,1.28,1.085,1.896c0.264,0.413,0.555,0.966,0.479,1.391c-0.061,0.338-0.28,0.897-0.877,0.853
		c-0.146-0.011-0.633,0.554-0.47,0.572c0.384,0.042,1.03-0.103,1.419-0.085c1.275,0.057,1.276,0.062,1.32,1.482
		c0.009,0.292,0.001,0.585,0.001,0.877"/>
</g>
</svg>
