<?xml version="1.0" encoding="utf-8"?>
<!-- Generator: Adobe Illustrator 16.0.0, SVG Export Plug-In . SVG Version: 6.00 Build 0)  -->
<!DOCTYPE svg PUBLIC "-//W3C//DTD SVG 1.1//EN" "http://www.w3.org/Graphics/SVG/1.1/DTD/svg11.dtd">
<svg version="1.1" id="Layer_1" xmlns="http://www.w3.org/2000/svg" xmlns:xlink="http://www.w3.org/1999/xlink" x="0px" y="0px"
	 width="94.22px" height="70.898px" viewBox="0 0 94.22 70.898" enable-background="new 0 0 94.22 70.898" xml:space="preserve">
<g>
	<path fill="#FFFFFF" d="M18.782,0H2.198C0.985,0,0,0.984,0,2.197v66.505c0,1.214,0.984,2.196,2.197,2.196h1.819
		c-0.019-0.056-0.041-0.111-0.041-0.18c0-0.332,0.163-0.55,0.487-0.656c0.268-0.092,0.425-0.145,0.469-0.166
		c0.044-0.02,0.092-0.065,0.141-0.14c0.096-0.131,0.145-0.336,0.145-0.622V56.947c0-0.283-0.049-0.491-0.145-0.622
		c-0.049-0.072-0.096-0.12-0.141-0.14c-0.044-0.02-0.201-0.074-0.469-0.164c-0.324-0.106-0.487-0.323-0.487-0.659
		c0-0.202,0.08-0.357,0.238-0.469c0.159-0.11,0.384-0.165,0.676-0.165h5.734v14.304c0,0.318,0.061,0.546,0.184,0.685
		c0.063,0.081,0.125,0.132,0.183,0.151c0.056,0.02,0.243,0.071,0.559,0.152c0.391,0.09,0.584,0.312,0.584,0.669
		c0,0.074-0.019,0.14-0.043,0.205h6.69c1.214,0,2.198-0.983,2.198-2.197v-66.5C20.98,0.984,19.996,0,18.782,0z M17.516,62.792
		c-0.551,0.786-1.323,1.368-2.314,1.742c-0.819,0.299-2.001,0.449-3.543,0.449V63.68c0.35-0.081,0.595-0.166,0.737-0.254
		c0.142-0.091,0.267-0.229,0.372-0.414c0.169-0.317,0.255-0.743,0.255-1.279v-3.897c0-0.382-0.028-0.664-0.087-0.852
		c-0.056-0.186-0.169-0.357-0.34-0.51c-0.236-0.228-0.551-0.369-0.95-0.427v-1.316c1.671,0,2.905,0.16,3.702,0.476
		c0.917,0.363,1.643,0.924,2.179,1.68c0.543,0.772,0.815,1.716,0.815,2.838C18.345,60.973,18.068,61.997,17.516,62.792z"/>
	<path fill="#FFFFFF" d="M67.607,0H51.022c-1.214,0-2.198,0.984-2.198,2.197v66.505c0,1.214,0.984,2.196,2.198,2.196h2.515
		c0.215-0.066,0.365-0.15,0.445-0.245c0.208-0.244,0.311-0.991,0.311-2.241V55.065c0-1.251-0.102-1.996-0.311-2.237
		c-0.207-0.238-0.872-0.396-1.991-0.47l-0.264-0.026v-0.858h6.059l2.011-0.071l0.953-0.027c3.966,0,5.948,1.807,5.948,5.419
		c0,2.208-0.719,3.865-2.16,4.975c-1.44,1.109-3.603,1.663-6.493,1.663h-0.865v4.98c0,1.231,0.111,1.979,0.334,2.241
		c0.08,0.097,0.219,0.179,0.415,0.245h9.677c1.214,0,2.197-0.982,2.197-2.196V2.197C69.804,0.984,68.82,0,67.607,0z M62.269,61.088
		c0.899-0.943,1.351-2.355,1.351-4.233c0-1.601-0.343-2.74-1.031-3.428c-0.688-0.684-1.833-1.025-3.443-1.025h-1.966v10.1h1.023
		C60.015,62.502,61.37,62.032,62.269,61.088z"/>
	<path fill="#FFFFFF" d="M87.031,61.573c0-1.768-1.251-2.622-3.157-2.622c-0.754,0-1.33,0.06-1.629,0.14v5.203
		c0.376,0.099,0.854,0.138,1.43,0.138C85.76,64.431,87.031,63.418,87.031,61.573z M92.021,0H75.435
		c-1.214,0-2.197,0.984-2.197,2.197v66.505c0,1.214,0.983,2.196,2.197,2.196h5.082V57.839c0.834-0.14,1.926-0.258,3.316-0.258
		c1.707,0,2.959,0.396,3.752,1.111c0.734,0.634,1.171,1.607,1.171,2.8c0,1.212-0.356,2.165-1.033,2.859
		c-0.914,0.972-2.401,1.47-4.09,1.47c-0.516,0-0.993-0.02-1.39-0.12v5.194h9.777c1.212,0,2.199-0.982,2.199-2.196V2.197
		C94.22,0.984,93.233,0,92.021,0z"/>
	<path fill="#FFFFFF" d="M42.548,66.081c-0.876-0.616-1.02-1.923-0.318-2.922c0.701-0.998,1.979-1.311,2.855-0.695
		c0.115,0.08,0.216,0.173,0.306,0.278V2.197C45.391,0.984,44.407,0,43.194,0H26.61c-1.214,0-2.197,0.984-2.197,2.197v66.505
		c0,1.214,0.983,2.196,2.197,2.196h10.198c-0.443-0.26-0.91-0.65-1.397-1.21c-2.1-2.419-8.626,1.785-5.833-5.091
		c0.968-2.387,4.189-3.348,7.226-2.135c3.036,1.214,4.723,4.133,3.768,6.526c-0.341,0.851-0.802,1.521-1.356,1.909h3.979
		c1.214,0,2.197-0.982,2.197-2.196v-3.3C44.688,66.388,43.42,66.691,42.548,66.081z M32.368,59.039
		c-0.135,1.159-1.058,2.007-2.062,1.889c-1.004-0.116-1.708-1.15-1.573-2.312c0.135-1.161,1.058-2.007,2.062-1.891
		C31.799,56.84,32.503,57.877,32.368,59.039z M37.569,59.001c-0.428,1.225-1.649,1.908-2.731,1.534
		c-1.082-0.379-1.615-1.676-1.188-2.896c0.426-1.225,1.646-1.91,2.729-1.533C37.462,56.482,37.993,57.779,37.569,59.001z
		 M39.298,62.601c-1.088-0.555-1.483-1.958-0.884-3.135c0.599-1.177,1.965-1.681,3.053-1.126c1.088,0.554,1.483,1.958,0.885,3.133
		C41.752,62.651,40.384,63.154,39.298,62.601z"/>
</g>
</svg>
