<?xml version="1.0" encoding="utf-8"?>
<!-- Generator: Adobe Illustrator 16.0.0, SVG Export Plug-In . SVG Version: 6.00 Build 0)  -->
<!DOCTYPE svg PUBLIC "-//W3C//DTD SVG 1.1//EN" "http://www.w3.org/Graphics/SVG/1.1/DTD/svg11.dtd">
<svg version="1.1" id="Layer_1" xmlns="http://www.w3.org/2000/svg" xmlns:xlink="http://www.w3.org/1999/xlink" x="0px" y="0px"
	 width="57.25px" height="47.708px" viewBox="0 0 57.25 47.708" enable-background="new 0 0 57.25 47.708" xml:space="preserve">
<g>
	<path fill="#FFFFFF" d="M57.25,2.385C57.25,0.954,56.296,0,54.865,0H2.385C0.954,0,0,0.954,0,2.385v4.771
		c0,1.431,0.954,2.385,2.385,2.385h52.479c1.432,0,2.386-0.954,2.386-2.385V2.385L57.25,2.385z"/>
	<path fill="#FFFFFF" d="M57.25,21.469c0-1.431-0.954-2.385-2.385-2.385H2.385C0.954,19.083,0,20.038,0,21.469v4.771
		c0,1.431,0.954,2.385,2.385,2.385h52.479c1.432,0,2.386-0.954,2.386-2.385V21.469L57.25,21.469z"/>
	<path fill="#FFFFFF" d="M57.25,40.552c0-1.431-0.954-2.385-2.385-2.385H2.385C0.954,38.167,0,39.121,0,40.552v4.771
		c0,1.431,0.954,2.385,2.385,2.385h52.479c1.432,0,2.386-0.954,2.386-2.385V40.552L57.25,40.552z"/>
</g>
</svg>
