<?xml version="1.0" encoding="utf-8"?>
<!-- Generator: Adobe Illustrator 16.0.0, SVG Export Plug-In . SVG Version: 6.00 Build 0)  -->
<!DOCTYPE svg PUBLIC "-//W3C//DTD SVG 1.1//EN" "http://www.w3.org/Graphics/SVG/1.1/DTD/svg11.dtd">
<svg version="1.1" id="Layer_1" xmlns="http://www.w3.org/2000/svg" xmlns:xlink="http://www.w3.org/1999/xlink" x="0px" y="0px"
	 width="145.999px" height="145.999px" viewBox="0 0 145.999 145.999" enable-background="new 0 0 145.999 145.999"
	 xml:space="preserve">
<g>
	<path fill="#D20B43" d="M131.56,0H14.439C6.466,0,0,6.466,0,14.439v117.12c0,7.974,6.466,14.439,14.439,14.439h117.12
		c7.976,0,14.439-6.466,14.439-14.439V14.439C145.999,6.466,139.535,0,131.56,0z M114.013,51.886
		c-2.301,1.007-4.028,4.891-4.028,4.891s2.59,0.72,4.46,2.734c1.871,2.013,0,5.755-2.157,6.474
		c-2.158,0.72-12.74,5.322-18.271,4.316c-3.967-0.722-11.366-4.604-11.366-4.604s-1.44,4.316-1.728,6.762
		c-0.287,2.444-1.45,4.706,4.488,32.083c5.937,27.378,1.648,26.719,0,27.708c-1.649,0.988-5.57-1.39-6.598-3.958
		c-0.784-1.961-5.606-13.523-6.597-22.43c-0.989-8.906-5.938-20.78-6.927-20.78c-0.988,0-4.617,9.235-7.685,14.843
		s-16.312,32.668-23.981,30.017c-5.443-1.882,11.215-36.943,13.524-42.881s7.257-28.366,7.257-28.366s-0.33-4.949-8.906,8.905
		S33.713,84.95,30.326,81.123c-0.789-0.892-0.66-8.575,1.648-11.874c2.31-3.299,8.816-14.32,13.434-19.598
		c4.619-5.277,15.265-8.77,20.542-12.729c5.277-3.957,5.277-9.564,5.607-14.183s7.928-11.851,13.854-8.247
		c15.437,9.388-5.063,19.983-7.078,24.588c-2.014,4.604,5.898,8.344,12.949,15.826c7.05,7.48,12.372,2.014,12.372,2.014
		s0.433-2.303-0.862-4.174c-1.295-1.869-5.467-2.732-11.366-7.193c-5.898-4.459,1.727-11.221,8.776-7.912s5.899,18.416,5.899,18.416
		l1.295-0.289c0,0,1.87-10.646,4.747-15.824c2.877-5.18,11.222-10.647,17.121-1.439C135.163,47.714,116.316,50.878,114.013,51.886z"
		/>
</g>
</svg>
