<?xml version="1.0" encoding="utf-8"?>
<!-- Generator: Adobe Illustrator 16.0.0, SVG Export Plug-In . SVG Version: 6.00 Build 0)  -->
<!DOCTYPE svg PUBLIC "-//W3C//DTD SVG 1.1//EN" "http://www.w3.org/Graphics/SVG/1.1/DTD/svg11.dtd">
<svg version="1.1" id="Layer_1" xmlns="http://www.w3.org/2000/svg" xmlns:xlink="http://www.w3.org/1999/xlink" x="0px" y="0px"
	 width="36px" height="36px" viewBox="91.274 91.378 36 36" enable-background="new 91.274 91.378 36 36" xml:space="preserve">
<rect x="98.688" y="99.762" fill="#FFFFFF" width="23.441" height="20.347"/>
<g>
	<g>
		<path fill="#AA0332" d="M109.274,91.378c-9.925,0-18,8.075-18,18s8.075,18,18,18c9.925,0,18-8.076,18-18
			C127.274,99.453,119.2,91.378,109.274,91.378z M117.303,105.259c0.008,0.178,0.013,0.358,0.013,0.537
			c0,5.475-4.167,11.787-11.789,11.787c-2.339,0-4.517-0.685-6.35-1.86c0.324,0.038,0.653,0.058,0.988,0.058
			c1.941,0,3.727-0.662,5.145-1.773c-1.812-0.033-3.343-1.23-3.87-2.878c0.252,0.049,0.513,0.075,0.779,0.075
			c0.378,0,0.745-0.049,1.092-0.145c-1.896-0.38-3.323-2.054-3.323-4.062c0-0.018,0-0.036,0.001-0.052
			c0.558,0.31,1.197,0.497,1.875,0.518c-1.111-0.742-1.842-2.011-1.842-3.447c0-0.761,0.204-1.472,0.56-2.084
			c2.043,2.507,5.097,4.156,8.539,4.33c-0.071-0.303-0.106-0.619-0.106-0.944c0-2.288,1.854-4.144,4.142-4.144
			c1.192,0,2.268,0.503,3.024,1.309c0.944-0.186,1.829-0.53,2.632-1.006c-0.312,0.969-0.967,1.779-1.824,2.292
			c0.839-0.1,1.64-0.321,2.379-0.651C118.816,103.946,118.114,104.676,117.303,105.259z"/>
	</g>
</g>
</svg>
