<?xml version="1.0" encoding="utf-8"?>
<!-- Generator: Adobe Illustrator 16.0.0, SVG Export Plug-In . SVG Version: 6.00 Build 0)  -->
<!DOCTYPE svg PUBLIC "-//W3C//DTD SVG 1.1//EN" "http://www.w3.org/Graphics/SVG/1.1/DTD/svg11.dtd">
<svg version="1.1" id="Layer_1" xmlns="http://www.w3.org/2000/svg" xmlns:xlink="http://www.w3.org/1999/xlink" x="0px" y="0px"
	 width="60px" height="60px" viewBox="79.274 79.378 60 60" enable-background="new 79.274 79.378 60 60" xml:space="preserve">
<rect x="91.631" y="93.352" fill="#FFFFFF" width="39.067" height="33.91"/>
<g>
	<g>
		<path fill="#2F7A8F" d="M109.274,79.378c-16.541,0-30,13.458-30,30c0,16.542,13.459,30,30,30c16.542,0,30-13.459,30-30
			S125.818,79.378,109.274,79.378z M122.657,102.512c0.014,0.297,0.021,0.597,0.021,0.896c0,9.126-6.944,19.644-19.648,19.644
			c-3.899,0-7.529-1.14-10.584-3.1c0.541,0.063,1.089,0.097,1.647,0.097c3.236,0,6.212-1.104,8.575-2.956
			c-3.021-0.056-5.572-2.051-6.45-4.796c0.42,0.08,0.854,0.124,1.298,0.124c0.629,0,1.241-0.082,1.82-0.24
			c-3.159-0.634-5.538-3.423-5.538-6.771c0-0.029,0-0.06,0.001-0.087c0.93,0.516,1.995,0.827,3.126,0.863
			c-1.852-1.237-3.071-3.352-3.071-5.746c0-1.267,0.34-2.453,0.934-3.473c3.404,4.179,8.494,6.926,14.231,7.216
			c-0.118-0.506-0.177-1.033-0.177-1.574c0-3.813,3.09-6.906,6.904-6.906c1.985,0,3.778,0.838,5.04,2.181
			c1.574-0.309,3.048-0.883,4.387-1.677c-0.52,1.614-1.611,2.965-3.042,3.821c1.398-0.167,2.733-0.536,3.966-1.086
			C125.177,100.324,124.008,101.541,122.657,102.512z"/>
	</g>
</g>
</svg>
