<?xml version="1.0" encoding="utf-8"?>
<!-- Generator: Adobe Illustrator 16.0.0, SVG Export Plug-In . SVG Version: 6.00 Build 0)  -->
<!DOCTYPE svg PUBLIC "-//W3C//DTD SVG 1.1//EN" "http://www.w3.org/Graphics/SVG/1.1/DTD/svg11.dtd">
<svg version="1.1" id="Layer_1" xmlns="http://www.w3.org/2000/svg" xmlns:xlink="http://www.w3.org/1999/xlink" x="0px" y="0px"
	 width="642px" height="144.651px" viewBox="0 0 642 144.651" enable-background="new 0 0 642 144.651" xml:space="preserve">
<g>
	<path fill-rule="evenodd" clip-rule="evenodd" d="M82.904,37.178c2.843-1.885,5.515-3.891,8.403-5.512
		c3.356-1.885,7.107-2.583,10.942-2.252c5.302,0.457,9.356,2.893,11.595,8.126c0.989-0.847,1.905-1.657,2.848-2.435
		c5.425-4.482,11.639-6.397,18.635-5.565c5.285,0.628,9.141,4.347,10.358,10.134c0.524,2.493,0.865,5.074,0.881,7.619
		c0.083,13.945,0.04,27.891,0.038,41.836c0,1.932-0.236,2.197-2.15,2.209c-3.631,0.021-7.263,0.012-10.895,0.004
		c-2.183-0.005-2.398-0.209-2.4-2.423c-0.008-12.542,0.003-25.083-0.016-37.624c-0.001-1.256-0.081-2.52-0.254-3.762
		c-0.612-4.416-3.122-6.096-7.437-5.107c-2.99,0.686-5.345,2.444-7.557,4.416c-0.334,0.298-0.37,1.045-0.37,1.583
		c-0.02,13.364-0.016,26.729-0.016,40.095c0,2.752-0.072,2.823-2.859,2.824c-3.341,0.001-6.682,0.004-10.023-0.001
		c-2.436-0.003-2.566-0.131-2.566-2.52c-0.002-12.396,0.019-24.792-0.024-37.188c-0.006-1.73-0.145-3.498-0.524-5.18
		c-0.77-3.404-2.542-4.561-5.979-4.214c-3.571,0.36-6.277,2.386-8.819,4.665c-0.33,0.295-0.333,1.059-0.334,1.605
		c-0.017,13.413-0.013,26.826-0.014,40.239c0,2.46-0.132,2.591-2.654,2.593c-3.341,0.002-6.682,0.002-10.023,0
		c-2.645-0.002-2.723-0.08-2.723-2.645c-0.001-12.348,0.09-24.697-0.05-37.043c-0.049-4.287-0.616-8.572-1.063-12.847
		c-0.119-1.128-0.673-2.209-1.025-3.312c-0.521-1.637-0.203-2.296,1.432-2.84c3.025-1.006,6.05-2.014,9.087-2.981
		c2.103-0.671,2.958-0.323,3.735,1.731C81.81,33.338,82.334,35.344,82.904,37.178z"/>
	<path fill-rule="evenodd" clip-rule="evenodd" d="M347.339,37.498c1.346-1.134,2.553-2.252,3.863-3.234
		c5.365-4.026,11.371-5.736,18.027-4.558c6.602,1.169,10.82,5.579,11.873,12.205c0.213,1.333,0.346,2.694,0.348,4.044
		c0.024,14.383,0.016,28.768,0.014,43.15c0,2.031-0.189,2.229-2.24,2.236c-3.633,0.01-7.265,0.012-10.896-0.002
		c-1.986-0.006-2.262-0.292-2.263-2.271c-0.002-12.156,0.006-24.312-0.01-36.468c-0.002-1.353-0.027-2.72-0.219-4.055
		c-0.724-5.044-3.825-7.193-8.835-6.198c-3.108,0.617-5.584,2.387-7.843,4.469c-0.366,0.337-0.423,1.136-0.424,1.721
		c-0.022,13.318-0.017,26.637-0.019,39.955c0,2.767-0.086,2.851-2.844,2.852c-3.438,0.001-6.877,0.008-10.315-0.002
		c-2.065-0.007-2.329-0.275-2.329-2.363c-0.004-12.883,0.09-25.766-0.057-38.646c-0.047-4.089-0.686-8.176-1.156-12.252
		c-0.119-1.033-0.662-2.012-0.952-3.031c-0.329-1.157,0.024-1.951,1.258-2.342c3.135-0.994,6.245-2.062,9.379-3.06
		c2.066-0.657,2.945-0.272,3.711,1.79C346.13,33.377,346.674,35.383,347.339,37.498z"/>
	<path fill-rule="evenodd" clip-rule="evenodd" fill="#FF9900" d="M451.734,38.76c2.238-1.371,4.27-2.779,6.443-3.907
		c3.367-1.747,6.881-3.172,10.797-2.877c3.717,0.28,7.38,0.786,9.723,4.229c0.588,0.865,1.058,1.812,1.666,2.869
		c0.99-0.644,1.876-1.209,2.752-1.79c3.568-2.371,7.266-4.579,11.576-5.14c7.389-0.963,14.318,2.134,15.332,10.918
		c0.31,2.682,0.531,5.388,0.543,8.084c0.057,12.543,0.025,25.086,0.023,37.629c0,2.36-0.135,2.494-2.436,2.498
		c-1.5,0.001-3.007-0.074-4.502,0.02c-1.41,0.09-1.836-0.453-1.828-1.842c0.045-10.314,0.049-20.631,0.012-30.945
		c-0.014-3.867-0.127-7.734-0.272-11.6c-0.196-5.223-4.306-8.139-9.819-7.33c-3.629,0.531-6.469,2.456-9.257,4.537
		c-0.446,0.333-0.638,1.251-0.64,1.898c-0.035,14.045-0.026,28.09-0.027,42.134c0,0.437,0.01,0.872-0.012,1.308
		c-0.061,1.258-0.574,1.93-1.992,1.845c-1.785-0.106-3.584-0.06-5.375-0.015c-1.133,0.027-1.576-0.547-1.619-1.576
		c-0.02-0.436-0.012-0.871-0.012-1.307c0-13.318,0.002-26.637-0.005-39.955c-0.001-0.723-0.011-1.455-0.118-2.168
		c-0.943-6.26-5.75-7.635-11.377-6.291c-2.991,0.715-5.541,2.299-7.797,4.312c-0.498,0.443-0.697,1.446-0.699,2.192
		c-0.041,14.093-0.029,28.186-0.03,42.278c0,0.436,0.134,0.942-0.042,1.29c-0.236,0.466-0.699,1.129-1.094,1.149
		c-2.124,0.111-4.262,0.114-6.386-0.004c-0.423-0.024-0.909-0.685-1.173-1.159c-0.186-0.335-0.049-0.852-0.049-1.287
		c-0.002-14.142,0.006-28.283-0.007-42.425c-0.003-3.307-0.302-6.563-1.952-9.542c-0.418-0.757-0.113-1.259,0.604-1.647
		c1.66-0.9,3.312-1.811,4.939-2.767c1.033-0.606,1.689-0.204,2.07,0.735c0.582,1.431,1.061,2.902,1.583,4.358
		C451.432,37.901,451.582,38.332,451.734,38.76z"/>
	<path fill-rule="evenodd" clip-rule="evenodd" d="M233.834,72.793c2.835,0,5.536-0.027,8.236,0.006
		c5.958,0.076,11.542,1.532,16.693,4.576c1.775,1.048,2.017,1.709,1.287,3.65c-0.783,2.081-1.544,4.17-2.275,6.27
		c-0.331,0.953-0.756,1.37-1.798,0.804c-4.543-2.469-9.45-3.679-14.584-3.814c-4.71-0.124-9.386,0.467-13.901,1.797
		c-4.161,1.226-8.235,2.751-12.334,4.183c-1.586,0.555-1.921,0.382-1.93-1.258c-0.012-1.937,0.105-3.881-0.035-5.809
		c-0.129-1.762,0.437-3.142,1.479-4.52c8.556-11.304,17.066-22.642,25.59-33.97c0.282-0.376,0.555-0.76,1.084-1.485
		c-0.995,0-1.648-0.014-2.301,0.002c-7.064,0.172-14.129,0.346-21.193,0.525c-1.836,0.047-2.016-0.102-2.029-1.906
		c-0.021-2.809-0.038-5.617-0.039-8.426c0-1.764,0.392-2.176,2.096-2.176c12.59-0.006,25.178-0.007,37.768,0
		c2.021,0.002,2.308,0.318,2.31,2.378c0.002,1.017-0.141,2.058,0.025,3.046c0.669,3.974-1.03,6.933-3.477,9.916
		c-6.595,8.047-12.941,16.298-19.383,24.471C234.68,71.615,234.27,72.203,233.834,72.793z"/>
	<path fill-rule="evenodd" clip-rule="evenodd" fill="#FF9900" d="M409.073,93.028c-5.721-0.196-11.18-1.518-16.361-3.95
		c-2.055-0.965-2.192-1.478-1.26-3.485c0.448-0.966,0.949-1.913,1.309-2.911c0.482-1.34,1.217-1.427,2.469-0.938
		c2.963,1.158,5.938,2.331,9,3.164c2.949,0.803,6.023,0.938,9.017,0.003c3.191-0.997,5.443-2.993,6-6.415
		c0.551-3.393-0.217-6.482-3.263-8.409c-3.049-1.93-6.242-3.661-9.482-5.257c-3.439-1.695-6.784-3.434-9.697-6.016
		c-6.557-5.811-5.102-17.461,1.166-22.438c5.361-4.258,11.393-5.303,17.907-3.707c2.803,0.688,5.546,1.679,8.246,2.715
		c1.986,0.762,2.07,1.244,1.195,3.17c-0.42,0.924-0.848,1.846-1.299,2.756c-0.789,1.598-1.057,1.59-2.705,1.025
		c-2.865-0.982-5.746-1.968-8.69-2.649c-2.443-0.565-4.881-0.063-7.217,0.941c-5.213,2.244-4.998,9.7-2.068,12.655
		c2.408,2.43,5.373,3.909,8.373,5.393c3.374,1.668,6.897,3.135,10.01,5.209c10.269,6.844,7.815,22.812-3.45,27.381
		C415.324,92.461,412.276,93.121,409.073,93.028z"/>
	<path fill-rule="evenodd" clip-rule="evenodd" fill="#FF9900" d="M572.514,40.102c0,9.928-0.023,19.854,0.014,29.781
		c0.012,3.479,0.121,6.959,0.279,10.436c0.211,4.689,3.583,6.755,8.416,5.209c0.781-0.25,1.524-0.616,2.303-0.877
		c0.742-0.249,1.305-0.091,1.582,0.762c0.449,1.377,0.949,2.739,1.449,4.101c0.41,1.12-0.385,1.583-1.152,1.81
		c-2.125,0.625-4.263,1.366-6.443,1.594c-3.076,0.318-6.17,0.197-9.078-1.24c-3.102-1.533-4.804-4.027-5.186-7.367
		c-0.415-3.641-0.872-7.303-0.887-10.957c-0.082-21.596-0.04-43.193-0.039-64.791c0-2.514,0-2.518,2.4-3.104
		c1.643-0.4,3.297-0.752,4.928-1.199c1.07-0.293,1.426,0.105,1.417,1.125c-0.019,2.082-0.003,4.164-0.003,6.246
		C572.515,21.12,572.514,30.611,572.514,40.102z"/>
	<path fill-rule="evenodd" clip-rule="evenodd" fill="#FF9900" d="M543.721,62.627c0,8.807,0.002,17.615,0,26.422
		c0,2.089-0.133,2.219-2.23,2.223c-1.646,0.004-3.293-0.049-4.936,0.017c-1.219,0.048-1.621-0.467-1.592-1.637
		c0.055-2.273,0.014-4.548,0.014-6.823c0-13.309,0.002-26.617,0-39.925c0-2.211-0.006-2.212-2.262-2.214
		c-2.322-0.002-4.646-0.04-6.969,0.016c-1.232,0.029-1.805-0.467-1.791-1.691c0.014-1.209,0.008-2.42,0.002-3.629
		c-0.004-1.107,0.439-1.699,1.646-1.693c5.469,0.026,10.936,0.035,16.404-0.004c1.533-0.01,1.719,0.895,1.717,2.08
		c-0.008,6.921-0.004,13.842-0.002,20.762C543.723,58.562,543.723,60.594,543.721,62.627z"/>
	<path fill-rule="evenodd" clip-rule="evenodd" fill="#FF9900" d="M538.693,19.202c-3.701,0.419-7.215-2.991-7.19-7.032
		c0.024-4.018,3.134-7.213,7.124-7.232c3.984-0.02,7.141,3.15,7.148,7.178C545.783,16.288,542.873,19.2,538.693,19.202z"/>
	<g>
		<path d="M318.899,52.085c-1.129-6.159-3.607-11.675-8.102-16.218c-9.512-9.611-32.882-10.402-40.592,8.89
			c-4.105,10.273-4.246,20.818-0.713,31.247c3.553,10.491,10.879,16.57,22.164,17.298c10.4,0.669,19.264-3.742,24.113-13.304
			c2.959-5.836,3.947-12.084,4.214-18.565C319.636,58.314,319.464,55.164,318.899,52.085z M302.339,72.853
			c-0.141,1.079-0.594,2.146-1.051,3.149c-1.545,3.405-4.128,5.23-7.973,5.185c-3.799-0.044-6.268-1.97-7.76-5.302
			c-1.472-3.287-1.725-6.816-1.887-10.354c-0.244-5.325-0.238-10.638,0.941-15.877c0.19-0.843,0.487-1.67,0.809-2.475
			c1.501-3.755,4.132-5.604,7.956-5.631c3.908-0.027,6.57,1.803,8.124,5.604c1.515,3.705,1.681,7.623,1.79,11.547
			c0.024,0.871,0.003,1.742,0.003,2.614c0.105,0.011,0.211,0.022,0.316,0.034C303.196,65.184,302.835,69.027,302.339,72.853z"/>
	</g>
	<g>
		<path d="M55.032,86.055c-1.824-3.834-2.564-7.889-2.58-12.1c-0.027-7.892-0.021-15.783-0.062-23.676
			c-0.009-1.836-0.064-3.679-0.242-5.504c-0.801-8.188-5.329-13.215-13.379-14.773c-6.226-1.205-12.452-0.756-18.594,0.555
			c-2.814,0.601-5.541,1.647-8.265,2.613c-1.162,0.412-2.017,1.303-1.575,2.706c0.854,2.718,1.772,5.415,2.691,8.112
			c0.355,1.041,1.042,1.437,2.15,1.01c1.307-0.506,2.642-0.936,3.962-1.406c4.091-1.459,8.252-2.461,12.646-1.906
			c2.441,0.309,4.55,1.193,5.396,3.73c0.948,2.849,0.581,5.789,0.534,8.389c-4.961,0.531-9.744,0.849-14.455,1.605
			c-4.806,0.77-9.194,2.652-12.557,6.395c-3.941,4.387-4.884,9.664-4.393,15.301c0.538,6.162,3.15,11.139,8.756,14.17
			c7.168,3.878,17.376,2.385,23.215-3.316c0.548-0.535,1.106-1.059,1.664-1.592c0.854,2.023,1.612,3.899,2.437,5.746
			c0.526,1.182,1.402,1.402,2.605,0.889c2.89-1.231,5.812-2.385,8.718-3.578C55.826,88.552,56.021,88.131,55.032,86.055z
			 M35.259,79.693c-2.529,1.857-5.176,2.77-8.262,2.129c-3.154-0.654-5.159-2.67-5.879-5.726c-0.769-3.267-0.381-6.366,2.466-8.677
			c3.003-2.436,6.583-3.098,10.302-3.283c1.203-0.06,2.411-0.01,3.895-0.01c0,2.467,0,4.775,0,7.084
			c0,1.062-0.136,2.147,0.027,3.186C38.187,76.8,37.15,78.305,35.259,79.693z"/>
	</g>
	<g>
		<path d="M205.268,86.014c-1.602-3.428-2.465-7.043-2.505-10.801c-0.089-8.423-0.039-16.848-0.082-25.271
			c-0.01-1.786-0.102-3.581-0.287-5.357c-0.833-8.019-5.361-13.016-13.254-14.562c-6.274-1.229-12.545-0.772-18.736,0.536
			c-2.77,0.586-5.458,1.602-8.136,2.557c-1.117,0.398-2.134,1.223-1.693,2.649c0.87,2.813,1.842,5.597,2.8,8.382
			c0.325,0.945,1.002,1.231,1.959,0.881c1.087-0.4,2.191-0.754,3.278-1.154c4.394-1.619,8.854-2.781,13.608-2.175
			c3.002,0.383,5.021,1.856,5.463,4.577c0.414,2.547,0.397,5.163,0.582,7.922c-0.871,0-1.439-0.036-2.004,0.006
			c-3.759,0.277-7.534,0.43-11.27,0.902c-3.465,0.438-6.825,1.446-9.837,3.294c-7.118,4.368-9.282,11.022-8.556,18.943
			c0.378,4.111,1.744,7.829,4.658,10.853c6.624,6.871,19.631,6.958,26.828,0.198c0.731-0.688,1.459-1.38,2.144-2.027
			c0.807,1.944,1.548,3.819,2.362,5.665c0.539,1.222,1.415,1.518,2.703,0.958c2.838-1.231,5.719-2.363,8.583-3.531
			C206.086,88.557,206.273,88.168,205.268,86.014z M188.099,76.939c-0.001,0.22-0.088,0.502-0.239,0.65
			c-2.919,2.862-6.072,5.172-10.521,4.253c-3.166-0.654-5.182-2.642-5.938-5.686c-0.781-3.147-0.462-6.187,2.195-8.509
			c3.054-2.668,6.796-3.323,10.672-3.512c1.201-0.059,2.407-0.01,3.841-0.01C188.108,68.535,188.112,72.737,188.099,76.939z"/>
	</g>
	<g>
		<path fill="#FF9900" d="M602.152,57.23c3.916-0.025,7.834-0.01,11.75-0.008c3.434,0,6.867,0,10.301,0
			c-3.434,0-6.867,0-10.301-0.001C609.986,57.221,606.068,57.205,602.152,57.23z"/>
		<path fill="#FF9900" d="M635.209,47.89c-3.615-12.728-12.99-17.901-25.498-15.295c-7.342,1.53-12.146,6.41-15.115,13.056
			c-3.918,8.771-4.311,17.925-2.189,27.207c1.383,6.05,4.166,11.344,9.115,15.272c6.076,4.823,13.072,5.667,20.455,4.404
			c4.363-0.746,8.512-2.206,12.322-4.497c0.445-0.266,1.035-1.034,0.926-1.354c-0.701-2.044-1.576-4.027-2.486-6.252
			c-0.76,0.41-1.266,0.675-1.766,0.953c-4.535,2.527-9.248,4.34-14.586,4.071c-3.627-0.183-6.787-1.319-9.445-3.828
			c-4.674-4.41-5.795-10.178-6.253-16.208c-0.087-1.154,0.653-1.199,1.501-1.196c3.872,0.013,7.744,0.005,11.617,0.005
			c7.018,0,14.037-0.007,21.057,0.007c1.012,0.002,1.842-0.083,1.861-1.411C636.797,57.785,636.594,52.758,635.209,47.89z
			 M624.203,57.223c-3.434,0-6.867,0-10.301,0c-3.916-0.002-7.834-0.018-11.75,0.008c-1.011,0.008-1.566-0.303-1.465-1.415
			c0.363-4.024,1.072-7.933,3.453-11.352c3.438-4.937,8.435-6.279,13.863-4.94c3.016,0.743,4.969,2.891,6.498,5.432
			c1.732,2.873,2.479,6.061,2.605,9.384C627.217,57.221,627.166,57.223,624.203,57.223z"/>
	</g>
</g>
<g>
	<path fill="#FF9900" d="M53.765,101.925c-0.264,0.324-0.525,0.648-0.788,0.972c0.69,0.802,1.304,1.689,2.083,2.393
		c9.783,8.825,20.696,15.988,32.546,21.695c27.82,13.397,57.071,17.486,87.505,12.8c19.53-3.009,37.93-9.345,54.449-20.44
		c1.823-1.225,5.562-1.896,4.04-5.166c-0.356-0.765-4.64-0.381-6.729,0.447c-30.459,12.075-62.022,16.245-94.487,12.738
		c-26.647-2.876-51.829-10.851-75.307-23.944C56.021,102.83,54.871,102.418,53.765,101.925z M215.927,105.211
		c1.933,0.096,3.018,0.23,4.097,0.189c5.567-0.208,11.131-0.609,16.698-0.657c5.789-0.05,7.902,1.985,6.896,7.663
		c-0.966,5.445-3.032,10.696-4.631,16.027c-0.45,1.504-0.961,2.991-1.443,4.485c1.553-0.237,2.475-0.833,3.213-1.604
		c7.185-7.485,10.287-16.731,11.408-26.795c0.442-3.988-2.149-5.658-5.484-5.81c-5.651-0.257-11.389-0.523-16.973,0.159
		C224.973,99.448,220.139,100.809,215.927,105.211z"/>
	<path fill-rule="evenodd" clip-rule="evenodd" fill="#FF9900" d="M53.765,101.925c1.106,0.493,2.257,0.905,3.312,1.494
		c23.478,13.094,48.659,21.068,75.307,23.944c32.465,3.507,64.028-0.663,94.487-12.738c2.09-0.828,6.373-1.212,6.729-0.447
		c1.521,3.27-2.217,3.941-4.04,5.166c-16.52,11.096-34.919,17.432-54.449,20.44c-30.434,4.687-59.685,0.598-87.505-12.8
		c-11.85-5.707-22.763-12.87-32.546-21.695c-0.779-0.703-1.393-1.591-2.083-2.393C53.239,102.573,53.501,102.249,53.765,101.925z"/>
	<path fill-rule="evenodd" clip-rule="evenodd" fill="#FF9900" d="M215.927,105.211c4.212-4.402,9.046-5.763,13.781-6.341
		c5.584-0.683,11.321-0.416,16.973-0.159c3.335,0.151,5.927,1.821,5.484,5.81c-1.121,10.063-4.224,19.31-11.408,26.795
		c-0.738,0.771-1.66,1.366-3.213,1.604c0.482-1.494,0.993-2.981,1.443-4.485c1.599-5.331,3.665-10.582,4.631-16.027
		c1.006-5.678-1.107-7.713-6.896-7.663c-5.567,0.048-11.131,0.449-16.698,0.657C218.944,105.441,217.859,105.307,215.927,105.211z"
		/>
</g>
</svg>
