<?xml version="1.0" encoding="utf-8"?>
<!-- Generator: Adobe Illustrator 16.0.0, SVG Export Plug-In . SVG Version: 6.00 Build 0)  -->
<!DOCTYPE svg PUBLIC "-//W3C//DTD SVG 1.1//EN" "http://www.w3.org/Graphics/SVG/1.1/DTD/svg11.dtd">
<svg version="1.1" id="Layer_1" xmlns="http://www.w3.org/2000/svg" xmlns:xlink="http://www.w3.org/1999/xlink" x="0px" y="0px"
	 width="238.3px" height="67.027px" viewBox="57.391 10.704 238.3 67.027" enable-background="new 57.391 10.704 238.3 67.027"
	 xml:space="preserve">
<g>
	<g>
		<path fill="#C3002F" d="M74.574,67.324c0.122-0.031,0.298,0.049,0.413,0c0.101-0.043,0.29-0.357,0.413-0.413
			c0.401-0.185,1.033-0.269,1.238-0.413c0.091-0.064,0.32-0.321,0.412-0.413c0.294-0.294,0.669-0.621,0.825-0.826
			c0.14-0.18,0.068-0.418,0.207-0.618c0.106-0.156,0.297-0.215,0.413-0.414c0.124-0.213,0.083-0.373,0.207-0.619
			c0.056-0.11,0.355-0.278,0.413-0.414c0.048-0.113-0.03-0.291,0-0.412c0.102-0.408,0.357-1.157,0.413-1.65
			c0.112-0.995,0.176-2.238,0-3.096c-0.003-0.016-0.191,0.013-0.207,0c-0.055-0.044,0.026-0.34,0-0.413
			c-0.05-0.14-0.201-0.296-0.206-0.413c-0.013-0.229-0.157-0.105-0.207-0.207c-0.136-0.279-0.037-0.579-0.207-0.825
			c-0.173-0.251-0.746-0.556-1.031-0.825c-0.323-0.306-0.468-0.808-0.825-0.826c-0.232-0.012-0.1-0.147-0.206-0.207
			c-0.342-0.183-0.906-0.258-1.445-0.412c-1.558-0.447-3.755-0.529-5.572-0.206c0.099,3.094-0.046,6.926-0.207,9.286
			c-0.08,1.175,0.039,2.349,0,3.303c-0.019,0.449-0.305,0.855,0,1.236C71.456,67.807,73.281,67.646,74.574,67.324 M73.749,44.415
			c0.318-0.127,1.187-0.272,1.445-0.413c0.028-0.016-0.021-0.18,0-0.206c0.057-0.069,0.341,0.058,0.413,0
			c0.196-0.16,0.354-0.562,0.619-0.826c0.264-0.263,0.734-0.485,0.825-0.618c0.128-0.189,0.239-0.818,0.413-1.24
			c0.039-0.094,0.157-0.006,0.207-0.206c0.072-0.289,0.124-0.414,0.206-0.62c0.021-0.05-0.002-0.151,0-0.207
			c0.011-0.18,0.197-0.164,0.207-0.206c0.085-0.367-0.048-0.987,0-1.445c0.022-0.209,0.166-0.24,0.207-0.413
			c0.057-0.238,0.007-0.58,0-0.825c-0.03-1.058-0.454-2.792-0.826-3.096c-0.067-0.056-0.161-0.55-0.206-0.619
			c-0.259-0.406-1.573-1.843-1.856-1.857c-0.233-0.012-0.099-0.148-0.207-0.206c-0.277-0.15-0.534-0.108-0.826-0.207
			c-0.249-0.085-0.297-0.19-0.619-0.207c-0.166-0.009-0.183-0.202-0.207-0.206c-0.928-0.166-1.874,0.122-2.889,0
			c-0.244,0.1-0.468,0.22-0.619,0.413c-0.19,4.349-0.256,8.825-0.413,13.208C70.717,44.811,73.103,44.673,73.749,44.415
			 M58.683,74.134V72.07c0.457-0.026,0.087-0.875,0.207-1.239c-0.002-10.029,0.471-21.212,0.618-30.957
			c0.041-2.661,0.062-5.69,0.207-7.636c0.13-1.75-0.039-3.333,0-4.954c0.044-1.854-0.057-3.848,1.032-5.366
			c2.229-0.366,4.499-0.206,6.812-0.206c2.483,0,5.019-0.216,7.224,0c0.01,0.001-0.012,0.194,0,0.206
			c0.035,0.043,0.349-0.009,0.412,0c0.776,0.111,0.981,0.103,1.445,0.207c0.13,0.03,0.282-0.032,0.413,0
			c0.118,0.03,0.202,0.206,0.206,0.207c0.373,0.091,0.829,0.084,1.238,0.206c0.382,0.115,0.613,0.36,0.826,0.413
			c0.263,0.065,0.261,0.055,0.413,0.207c0.035,0.034,0.165-0.026,0.207,0c0.312,0.191,0.669,0.38,1.032,0.619
			c0.198,0.131,0.25,0.289,0.413,0.413c0.167,0.127,0.446,0.068,0.619,0.206c0.266,0.213,0.533,0.533,0.825,0.826
			c0.251,0.25,0.645,0.599,0.826,0.825c0.132,0.164,0.091,0.468,0.207,0.619c0.118,0.154,0.289,0.224,0.413,0.413
			c1.727,2.621,3.542,8.119,2.477,12.383c-0.031,0.129,0.021,0.281,0,0.413c-0.123,0.8-0.208,1.593-0.411,2.27
			c-0.007,0.018-0.164,0.098-0.207,0.207c-0.188,0.471-0.236,0.854-0.413,1.238c-0.188,0.409-0.233,0.633-0.413,1.033
			c-0.031,0.068-0.362,0.126-0.413,0.206c-0.062,0.099,0.048,0.306,0,0.413c-0.068,0.152-0.398,0.148-0.413,0.413
			c-0.012,0.218-1.289,1.446-1.238,1.444c-0.24,0.012-0.092,0.099-0.207,0.207c-0.393,0.368-0.856,0.651-1.237,1.03
			c-0.207,0-0.246,0.167-0.413,0.207c-0.217,0.013-0.163,0.265,0.207,0.207c0.199,0.26,0.578,0.319,0.825,0.413
			c2.421,0.916,4.099,2.338,5.366,4.334c1.048,1.65,1.541,3.339,1.857,5.366c0.452,2.896,0.085,5.966-0.62,8.255
			c-0.156,0.512-0.48,1.436-0.619,1.65c-0.315,0.496-0.369,1.035-0.619,1.237c-0.066,0.056,0.052,0.339,0,0.414
			c-0.1,0.144-0.296,0.238-0.413,0.413c-0.24,0.361-0.438,0.584-0.619,0.826c-0.735,0.988-1.324,1.683-2.063,2.27
			c-0.87,0.692-1.778,1.221-2.684,1.651c-1.657,0.789-3.759,0.876-5.984,1.032c-4.163,0.291-8.099-0.074-12.589-0.207
			c-2.65-0.078-4.354,0.183-4.541-2.064C58.879,74.214,58.858,74.098,58.683,74.134"/>
		<path fill="#C3002F" d="M142.891,21.713h4.334c1.543,0,2.906-0.159,4.128,0.206c0.357,1.662,0.206,3.477,0.206,5.16
			c0,2.426-0.06,4.989-0.206,7.223c-0.259,3.882,0.169,7.896,0,11.765c-0.091,2.054-0.358,3.976-0.207,5.984
			c0.091,0.301,0.182-0.021,0.413,0c-0.173-0.484,0.397-0.531,0.619-0.824c0.164-0.22,0.253-0.623,0.412-0.826
			c0.135-0.17,0.281-0.198,0.413-0.412c0.179-0.291,0.504-0.625,0.825-1.032c0.223-0.283,0.429-0.591,0.619-0.825
			c0.196-0.242,0.405-0.352,0.619-0.619c0.129-0.162,0.07-0.437,0.207-0.619c0.089-0.121,0.802-0.379,0.825-0.826
			c0.017-0.301,0.562-0.502,0.825-0.825c0.192-0.235,0.219-0.593,0.413-0.826c0.201-0.24,0.634-0.375,0.826-0.619
			c0.058-0.073-0.068-0.356,0-0.413c0.183-0.148,1.007-0.559,1.032-1.031c0.033-0.627,1.612-1.44,2.062-2.063
			c0.938,0.219,1.438,1.296,2.064,2.063c0.162,0.198,0.469,0.429,0.619,0.618c0.112,0.144,0.327,0.289,0.413,0.413
			c0.052,0.075-0.067,0.357,0,0.413c0.17,0.14,0.599,0.239,0.619,0.619c0.014,0.265,0.301,0.263,0.414,0.413
			c0.055,0.074-0.069,0.357,0,0.413c0.286,0.233,0.418,0.198,0.412,1.032c-0.001,0.125,0.081,0.744,0,0.824
			c-0.174,0.174-0.269,0.188-0.412,0.413c-0.191,0.3-0.634,0.935-1.032,1.444c-0.305,0.39-0.709,0.627-1.032,1.031
			c-0.104,0.131-0.111,0.263-0.207,0.412c-0.072,0.115-0.393,0.55-0.619,0.826c-0.306,0.375-0.736,0.66-1.032,1.032
			c-0.104,0.13-0.11,0.263-0.207,0.413c-0.53,0.833-1.902,2.245-2.477,3.096c1.604,1.998,3.225,4.453,5.16,7.018
			c0.17,0.225,0.583,0.515,0.827,0.826c0.141,0.181,0.055,0.457,0.205,0.619c0.084,0.088,0.343,0.112,0.414,0.205
			c0.141,0.188,0.055,0.457,0.205,0.619c0.083,0.092,0.343,0.114,0.413,0.207c0.143,0.186,0.057,0.457,0.207,0.619
			c0.082,0.089,0.345,0.115,0.412,0.207c0.141,0.188,0.074,0.444,0.207,0.619c0.112,0.146,0.285,0.247,0.414,0.413
			c0.382,0.499,1.632,2.014,1.65,2.684c0.025,0.974-0.711,1.636-1.445,2.478c-0.05,0.057-0.387,0.152-0.412,0.207
			c-0.119,0.264-0.12,0.52-0.414,0.824c-0.287,0.301-0.719,0.531-1.031,0.826c-0.448,0.42-1.406,1.2-2.063,1.856
			c-0.563,0.563-1.669,2.46-2.683,1.444c-0.168-0.168-0.062-0.412-0.207-0.619c-0.092-0.129-0.336-0.291-0.413-0.414
			c-0.106-0.17-0.082-0.414-0.206-0.618c-0.078-0.128-0.353-0.3-0.413-0.413c-0.127-0.236-0.085-0.411-0.207-0.619
			c-0.076-0.13-0.352-0.298-0.413-0.413c-0.127-0.237-0.08-0.412-0.207-0.618c-0.084-0.139-0.335-0.289-0.412-0.414
			c-0.105-0.172-0.082-0.412-0.207-0.619c-0.084-0.14-0.335-0.289-0.413-0.412c-0.191-0.31-0.379-0.617-0.619-1.032
			c-0.238-0.412-0.486-0.904-0.825-1.444c-0.078-0.126-0.353-0.3-0.412-0.414c-0.127-0.236-0.078-0.412-0.207-0.619
			c-0.085-0.138-0.336-0.289-0.413-0.412c-0.104-0.168-0.082-0.422-0.207-0.619c-0.086-0.137-0.335-0.289-0.412-0.412
			c-0.099-0.158-0.083-0.438-0.207-0.62c-0.188-0.278-0.627-0.543-0.826-0.826c-0.216-0.308-0.393-0.702-0.619-1.032
			c-0.125-0.182-0.298-0.262-0.413-0.412c-0.125-0.162-0.07-0.436-0.207-0.619c-0.198-0.272-0.605-0.539-0.824-0.826
			c-0.226-0.295-0.325-0.588-0.619-0.826c-0.493,2.68-0.028,5.816-0.207,8.875c-0.03,0.507-0.182,0.963-0.206,1.445
			c-0.062,1.19,0.202,2.305-0.207,3.302c-1.046,0.59-2.701,0.573-4.333,0.618c-1.56,0.045-3.26,0.07-4.541-0.207
			c-0.651-1.26-0.239-2.482-0.206-3.713c0.109-4.051-0.128-8.918,0.206-13.002c0.329-4.014-0.067-8.713,0.206-12.59
			c0.287-4.07-0.062-8.561,0.207-12.383c0.291-4.134-0.405-8.501,0.206-11.558c0.013-0.065-0.046-0.374,0-0.412
			c0.087-0.071,0.263,0.002,0.207-0.207C142.387,22.035,142.594,21.829,142.891,21.713"/>
		<path fill="#C3002F" d="M106.776,60.719c-0.011-0.125-0.031-0.244-0.206-0.205c-0.209-0.058-0.136,0.118-0.206,0.205
			c-0.041,0.051-0.344-0.017-0.413,0c-0.377,0.098-0.832,0.234-1.238,0.414c-0.207,0.092-0.393,0.084-0.619,0.207
			c-0.112,0.061-0.288,0.333-0.413,0.412c-0.306,0.193-0.752,0.376-1.032,0.619c-0.479,0.417-0.78,1.041-1.031,1.445
			c-0.035,0.054-0.144,0.111-0.207,0.205c-0.136,0.207-0.136,0.34-0.206,0.621c-0.078,0.311-0.183,0.375-0.207,0.825
			c-0.008,0.154-0.205,0.197-0.206,0.206c-0.229,1.614,0.323,3.215,0.826,3.715c0.378,0.379,0.727,0.492,1.238,0.619
			c0.094,0.025,0.235,0.212,0.207,0.207c1.307,0.221,2.654-0.641,3.714-1.238V60.719L106.776,60.719z M115.651,74.959
			c-2.03,0.453-3.478,0.111-5.16,0.206c-1.155,0.063-2.392,0.213-3.508,0.413c-1.539,0.275-3.074,0.863-4.541,1.238
			c-1.695,0.433-3.459,0.873-5.16,0.619c-0.011,0-0.049-0.197-0.207-0.205c-0.078-0.006-0.576,0.053-0.619,0
			c-0.147-0.183-0.639-0.226-1.032-0.414c-0.146-0.069-0.289-0.336-0.412-0.414c-0.456-0.283-1.009-0.553-1.444-1.237
			c-0.07-0.11-0.161-0.136-0.206-0.206c-0.301-0.459-0.394-0.941-0.62-1.445c-0.043-0.096-0.195,0.019-0.206-0.205
			c-0.012-0.228-0.271-0.729-0.413-1.24c-0.094-0.34-0.122-0.467-0.207-0.824c-0.224-0.948-0.363-3.421-0.206-4.953
			c0.078-0.762,0.369-1.889,0.619-2.891c0.045-0.181,0.183-0.135,0.207-0.207c0.15-0.444,0.205-0.971,0.413-1.443
			c0.042-0.095,0.194,0.016,0.206-0.207c0.005-0.096,0.154-0.3,0.207-0.412c0.161-0.349,0.359-0.609,0.619-1.031
			c0.164-0.268,0.377-0.434,0.619-0.826c0.209-0.34,0.617-0.618,1.031-1.032c0.295-0.296,0.426-0.673,0.619-0.825
			c0.073-0.057,0.357,0.068,0.413,0c0.058-0.068,0.138-0.367,0.207-0.413c0.075-0.05,0.358,0.067,0.413,0
			c0.048-0.06,0.148-0.378,0.206-0.413c0.269-0.158,0.54-0.059,0.826-0.206c0.125-0.063,0.306-0.362,0.412-0.413
			c0.297-0.141,0.512-0.078,0.826-0.207c0.089-0.035-0.013-0.195,0.205-0.207c0.056-0.002,0.155,0.021,0.206,0
			c0.297-0.117,0.761-0.242,1.445-0.412c0.979-0.244,3.181-0.597,4.954-0.414c0.23-0.942-0.027-2.436-0.413-3.508
			c-0.228-0.636-0.604-1.555-1.238-2.063c-0.07-0.058-0.355,0.069-0.413,0c-0.031-0.038-0.175-0.399-0.205-0.413
			c-0.487-0.202-1.263-0.18-1.858-0.206c-0.668-0.031-1.397-0.058-2.063,0c-1.598,0.137-3.195,0.905-4.747,0.825
			c-0.399-0.855-0.328-1.731-0.618-2.889c-0.056-0.22-0.148-0.572-0.207-1.238c-0.082-0.908-0.519-2.499,0.412-3.303
			c0.069-0.06,0.354,0.069,0.412,0c0.048-0.058,0.151-0.379,0.207-0.412c0.27-0.154,1.094-0.272,1.444-0.414
			c0.549-0.219,2.027-0.582,3.096-0.825c2.083-0.476,6.023-0.315,7.843,0.413c0.073,0.03,0.365-0.056,0.412,0
			c0.018,0.021-0.021,0.198,0,0.207c0.439,0.166,0.974,0.397,1.238,0.413c0.268,0.014,0.259,0.308,0.413,0.413
			c0.075,0.052,0.358-0.066,0.413,0c0.164,0.201,0.198,0.258,0.413,0.414c0.251,0.181,0.375,0.422,0.619,0.619
			c0.493,0.396,0.679,0.271,1.032,0.824c0.093,0.146,0.42,0.359,0.619,0.619c0.414,0.543,0.837,1.514,1.238,2.271
			c0.057,0.105,0.193-0.026,0.206,0.205c0.003,0.057-0.021,0.156,0,0.207c0.061,0.147,0.179,0.143,0.206,0.207
			c0.13,0.301,0.084,0.68,0.207,1.032c0.026,0.075,0.195-0.001,0.206,0.206c0.003,0.057-0.021,0.156,0,0.207
			c0.927,2.316,1.22,6.441,1.238,9.906c0.016,2.85,0,5.732,0,8.668c0,1.388-0.115,2.769-0.206,4.127
			C116.182,72.561,116.458,73.926,115.651,74.959"/>
		<path fill="#C3002F" d="M138.557,50.605c-3.196,0.633-5.263,0.974-6.812,3.097c-0.115,0.157-0.32,0.28-0.413,0.412
			c-0.052,0.073,0.068,0.358,0,0.413c-0.026,0.021-0.189-0.029-0.206,0c-0.042,0.074,0.063,0.359,0,0.412
			c-0.023,0.021-0.194-0.025-0.207,0c-0.035,0.074,0.061,0.363,0,0.412c-0.366,0.301-0.454,1.407-0.619,2.271
			c-0.006,0.027-0.197,0.037-0.206,0.206c-0.116,2.214-0.2,5.858-0.413,8.462c-0.286,3.492,0.597,7.038-0.206,9.906
			c-1.095,0.656-2.797,0.412-4.541,0.412c-1.658,0-3.492,0.158-4.747-0.207c-0.36-1.771-0.206-3.707-0.206-5.571
			c0-1.841-0.133-3.737,0-5.572c0.036-0.485,0.182-0.915,0.206-1.444c0.328-7.213-0.55-14.623,0.413-21.256
			c2.124-1.054,5.717-0.502,8.255-0.207c0.681,1.453,0.331,3.936,0.413,5.984c0.282-0.2,0.291-0.521,0.413-0.825
			c0.003-0.007,0.176-0.802,0.207-0.825c0.021-0.019,0.196,0.022,0.206,0c0.125-0.311,0.067-0.677,0.206-1.031
			c0.033-0.086,0.194,0.008,0.206-0.207c0.017-0.293,0.375-0.711,0.62-1.032c0.482-0.63,1.085-1.617,1.857-2.271
			c0.164-0.139,0.432-0.065,0.62-0.207c0.088-0.065,0.123-0.362,0.207-0.412c0.074-0.044,0.359,0.064,0.413,0
			c0.332-0.406,1.554-0.653,2.477-0.826c0.733-0.137,1.26-0.324,1.651,0.413c0.052,0.098,0.156,0.011,0.207,0.207
			c0.081,0.324-0.066,0.705,0,1.031C139.034,44.729,138.512,48.008,138.557,50.605"/>
		<path fill="#C3002F" d="M233.066,67.529c0.188-0.01,0.155-0.193,0.206-0.206c0.733-0.189,1.417-0.332,1.65-0.62
			c0.057-0.068,0.341,0.055,0.413,0c0.096-0.072,0.111-0.33,0.207-0.413c0.617-0.533,2.026-1.565,2.064-2.271
			c0.012-0.228,0.158-0.105,0.206-0.207c0.56-1.17,0.986-3.571,0.826-4.953c-0.064-0.553-0.605-1.605-0.619-1.858
			c-0.013-0.228-0.157-0.104-0.207-0.206c-0.137-0.281-0.036-0.58-0.206-0.826c-0.116-0.167-0.472-0.265-0.62-0.412
			c-0.166-0.166-0.228-0.478-0.413-0.619c-0.434-0.334-1.826-1.01-2.271-1.033c-0.189-0.01-0.151-0.191-0.206-0.206
			c-0.25-0.068-0.566,0.028-0.826,0c-1.259-0.142-3.233-0.339-4.54,0c-0.372,1.579-0.207,3.374-0.207,5.159
			c0,3.143-0.046,6.168-0.207,8.668C230.168,67.77,231.733,67.6,233.066,67.529 M232.448,44.415c0.042-0.052,0.541,0.004,0.619,0
			c0.203-0.011,0.135-0.183,0.206-0.207c0.799-0.263,0.942-0.258,1.238-0.619c0.056-0.067,0.339,0.056,0.412,0
			c0.497-0.362,1.057-1.239,1.444-2.063c0.703-1.487,1.114-4.351,0.62-5.984c-0.103-0.336,0.021-0.433-0.206-0.619
			c-0.057-0.046,0.03-0.339,0-0.413c-0.141-0.352-0.4-0.586-0.414-0.826c-0.012-0.237-0.134-0.092-0.206-0.207
			c-0.167-0.268-0.268-0.663-0.413-0.825c-0.223-0.251-1.18-0.864-1.444-1.032c-0.538-0.344-1.014-0.586-1.651-0.619
			c-0.164-0.009-0.186-0.203-0.205-0.207c-0.824-0.142-1.728,0.105-2.683,0c-0.245,0.1-0.47,0.22-0.62,0.413
			c-0.015,0.005-0.206-0.006-0.206,0c-0.137,1.501,0.068,3.161,0,4.747c-0.029,0.653-0.167,1.194-0.206,1.858
			c-0.138,2.25,0.102,4.494,0,6.811C230.081,44.492,232.062,44.887,232.448,44.415 M220.271,21.713
			c5.832,0.292,11.824-0.646,16.304,0.619c0.07,0.02,0.371-0.051,0.413,0c0.015,0.018-0.02,0.201,0,0.206
			c0.597,0.174,1.027,0.135,1.445,0.413c0.164,0.109,0.495,0.219,0.824,0.413c0.198,0.116,0.259,0.305,0.413,0.413
			c0.075,0.052,0.357-0.067,0.413,0c0.192,0.236,0.927,0.92,1.444,1.239c0.274,0.169,0.377,0.239,0.619,0.619
			c0.025,0.042,0.811,0.748,0.825,1.032c0.004,0.063,0.159,0.341,0.207,0.413c0.089,0.134,0.335,0.289,0.413,0.413
			c1.233,1.97,1.94,4.545,2.271,7.636c0.172,1.609,0.164,3.674-0.207,5.572c-0.032,0.166-0.164,0.217-0.207,0.413
			c-0.042,0.193,0.058,0.431,0,0.618c-0.019,0.065-0.195,0.01-0.206,0.207c-0.003,0.056,0.021,0.155,0,0.207
			c-0.11,0.275-0.362,1.338-0.619,1.857c-0.051,0.104-0.193-0.021-0.207,0.207c-0.014,0.268-0.305,0.262-0.413,0.414
			c-0.052,0.074,0.068,0.357,0,0.412c-0.069,0.057-0.365,0.137-0.412,0.207c-0.051,0.074,0.065,0.357,0,0.413
			c-0.311,0.253-0.457,0.62-0.825,1.03c-0.686,0.763-1.72,1.219-2.478,2.064c0.661,0.114,1.12,0.486,1.651,0.619
			c0.121,0.029,0.298-0.049,0.413,0c0.138,0.059,0.299,0.354,0.413,0.413c0.172,0.091,0.403,0.091,0.618,0.207
			c0.146,0.079,0.287,0.331,0.412,0.413c2.307,1.503,4.096,4.304,4.748,7.842c0.096,0.521,0.135,1.039,0.206,1.652
			c0.13,1.108,0.15,2.15,0,3.508c-0.082,0.738-0.082,1.417-0.206,2.063c-0.006,0.027-0.197,0.036-0.207,0.206
			c-0.004,0.078,0.054,0.576,0,0.62c-0.237,0.195-0.001,0.62-0.207,0.826c-0.018,0.019-0.199-0.021-0.206,0
			c-0.169,0.551-0.114,0.978-0.412,1.444c-0.036,0.056-0.208,0.207-0.207,0.207c-0.138,0.322-0.081,0.767-0.206,1.031
			c-0.044,0.094-0.379,0.129-0.413,0.205c-0.113,0.252-0.042,0.606-0.207,0.826c-0.076,0.102-0.346,0.111-0.412,0.207
			c-0.053,0.075,0.066,0.357,0,0.413c-0.081,0.063-0.354,0.128-0.414,0.207c-0.19,0.252-0.229,0.61-0.413,0.826
			c-0.154,0.179-0.46,0.239-0.619,0.413c-0.371,0.4-0.635,0.918-1.031,1.238c-0.174,0.139-0.452,0.077-0.621,0.205
			c-0.161,0.125-0.215,0.282-0.411,0.413c-0.149,0.099-0.454,0.083-0.62,0.207c-0.272,0.204-0.168,0.3-0.62,0.413
			c0.008-0.001-0.604,0.189-0.619,0.207c-0.439,0.537-2.192,0.684-3.301,0.825c-3.385,0.434-6.609,0.392-10.526,0.207
			c-0.332-0.017-0.706,0.059-1.032,0c-0.198-0.036-0.312-0.192-0.619-0.207c-2.218-0.103-4.668,0.338-7.017-0.619
			c-0.152-0.526-0.354-0.958-0.413-1.444c-0.438-3.77,0.21-7.937,0.21-11.978c0-2.167,0.124-4.437,0.207-6.81
			c0.076-2.188-0.064-4.492,0-6.812c0.112-4.001,0.248-8.63,0.413-13.415c0.062-1.816-0.12-4.462,0-7.017
			c0.024-0.537,0.184-1.067,0.206-1.651c0.058-1.476-0.052-3.493,0.62-4.334C219.539,22.214,219.866,22.027,220.271,21.713"/>
		<path fill="#C3002F" d="M281.565,48.749c-0.21,0.022-0.37,0.125-0.62,0.207c-0.229,0.075-0.651,0.206-1.032,0.413
			c-0.23,0.126-0.234,0.277-0.413,0.413c-0.354,0.272-0.804,0.219-0.825,0.618c-0.012,0.242-0.116,0.091-0.207,0.207
			c-0.516,0.675-0.556,0.789-0.824,1.445c-0.023,0.057-0.15,0.065-0.207,0.206c-0.021,0.052,0.004,0.152,0,0.207
			c-0.011,0.21-0.178,0.125-0.207,0.206c-1.263,3.454-0.929,8.199,0.207,11.352c0.163,0.451,0.223,0.867,0.413,1.237
			c0.057,0.111,0.34,0.288,0.412,0.413c0.062,0.104-0.049,0.305,0,0.414c0.029,0.062,0.362,0.137,0.413,0.207
			c0.136,0.18,0.068,0.42,0.207,0.619c0.112,0.162,0.467,0.275,0.619,0.413c0.481,0.43,0.812,0.667,1.444,0.825
			c1.027,0.257,2.719,0.437,3.922-0.413c0.109-5.944-0.236-12.345,0.207-17.955C283.798,48.885,282.725,48.622,281.565,48.749
			 M294.774,22.333c0.691,1.787,0.413,3.966,0.413,6.397c0,6.559-0.138,13.364-0.206,20.019c-0.07,6.666-0.409,13.071-0.62,19.812
			c-0.032,1.014-0.12,2.037-0.207,3.097c-0.078,0.952,0.167,2.028-0.413,2.889c-1.394,0.793-3.171,0.29-5.159,0.414
			c-1.057,0.065-2.065,0.205-3.096,0.412c-1.416,0.285-2.604,0.829-3.921,1.239c-0.447,0.139-0.956,0.277-1.444,0.412
			c-0.07,0.02-0.371-0.051-0.413,0c-0.202,0.246-0.47,0.11-1.239,0.207c-0.271,0.033-0.378,0.229-1.031,0.207
			c-0.36-0.014-0.449-0.166-0.825-0.207c-0.576-0.064-0.831,0.006-1.444-0.207c-0.076-0.026,0-0.195-0.207-0.207
			c-0.346-0.019-0.227-0.112-0.412-0.207c-0.164-0.082-0.418-0.092-0.619-0.207c-0.143-0.079-0.289-0.334-0.413-0.412
			c-0.471-0.292-1.346-0.838-1.858-1.444c-0.204-0.241-0.25-0.592-0.413-0.825c-0.051-0.074-0.383-0.142-0.413-0.207
			c-0.048-0.104,0.063-0.318,0-0.412c-0.074-0.111-0.337-0.105-0.413-0.207c-0.054-0.072,0.069-0.356,0-0.412
			c-0.026-0.022-0.188,0.028-0.206,0c-0.044-0.075,0.064-0.36,0-0.412c-0.023-0.021-0.194,0.025-0.207,0
			c-0.034-0.075,0.062-0.364,0-0.413c-0.024-0.021-0.191,0.026-0.207,0c-0.239-0.472-0.389-1.087-0.618-1.652
			c-0.036-0.088-0.194,0.013-0.206-0.205c-0.018-0.323-0.126-0.366-0.207-0.62c-0.274-0.863-0.598-1.687-0.825-2.683
			c-0.044-0.196,0.042-0.422,0-0.62c-0.061-0.273-0.131-0.404-0.206-1.032c-0.007-0.061,0.042-0.377,0-0.411
			c-0.257-0.211-0.115-0.529-0.207-1.24c-0.249-1.926-0.275-5.344,0-7.635c0.008-0.062-0.043-0.379,0-0.414
			c0.201-0.164,0.166-0.279,0.207-0.619c0.007-0.062-0.042-0.377,0-0.412c0.202-0.164,0.166-0.28,0.206-0.619
			c0.007-0.062-0.042-0.378,0-0.413c0.327-0.267,0.376-1.501,0.62-2.271c0.021-0.066,0.195-0.006,0.206-0.207
			c0.004-0.078,0.07-0.92,0.207-1.031c0.023-0.021,0.193,0.025,0.206,0c0.034-0.075-0.062-0.363,0-0.413
			c0.188-0.153,0.319-0.373,0.412-0.619c0.028-0.073-0.056-0.367,0-0.412c0.023-0.021,0.196,0.024,0.206,0
			c0.033-0.075-0.059-0.364,0-0.413c0.025-0.02,0.195,0.026,0.207,0c0.035-0.074-0.061-0.363,0-0.413
			c0.025-0.021,0.192,0.027,0.207,0c0.039-0.075-0.062-0.362,0-0.413c0.202-0.166,0.275-0.17,0.413-0.412
			c0.149-0.264,0.247-0.574,0.413-0.826c0.095-0.146,0.315-0.28,0.412-0.412c0.093-0.127,0.109-0.281,0.207-0.413
			c0.173-0.229,0.422-0.369,0.619-0.619c0.203-0.256,0.191-0.551,0.414-0.826c0.176-0.22,0.438-0.45,0.619-0.62
			c0.165-0.154,0.425-0.061,0.62-0.205c0.119-0.091,0.379-0.804,0.824-0.826c0.042-0.002,0.175,0.021,0.207,0
			c0.213-0.142,0.45-0.523,0.619-0.62c0.075-0.042,0.361,0.064,0.413,0c0.02-0.023-0.026-0.194,0-0.206
			c0.074-0.036,0.363,0.06,0.412,0c0.316-0.387,2.086-0.808,3.096-0.826c0.579-0.01,1.319,0.096,1.858,0.207
			c0.449,0.092,1.041,0.27,1.443,0.413c0.822,0.292,1.57,0.926,2.478,1.238c0.244-5.462-0.082-11.051,0.207-16.717
			c0.051-1.006-0.097-2.128,0.619-2.89c0.716-0.603,2.94-0.434,4.954-0.413C292.532,21.935,294.06,21.792,294.774,22.333"/>
		<path fill="#C3002F" d="M259.276,24.603c0.009-0.001,0.062-0.187,0.207-0.206c1.238-0.163,2.615,0.086,3.301,0.412
			c0.1,0.048-0.02,0.195,0.207,0.207c0.109,0.005,1.22,0.896,1.239,1.238c0.015,0.298,0.391,0.446,0.412,0.826
			c-0.01-0.17,0.174,1.005,0.207,1.032c0.014,0.012,0.204-0.013,0.206,0c0.11,0.669,0.134,1.832,0,2.683
			c-0.003,0.015-0.198,0.047-0.206,0.207c-0.026,0.477-0.04,0.615-0.207,1.032c-0.059,0.145-0.182,0.145-0.206,0.206
			c-0.122,0.288-0.054,0.546-0.206,0.826c-0.049,0.087-0.38,0.133-0.414,0.206c-0.045,0.1,0.064,0.329,0,0.413
			c-0.34,0.443-1.011,0.818-1.651,1.238c-0.125,0.082-0.297,0.349-0.413,0.413c-0.075,0.042-0.358-0.063-0.413,0
			c-0.185,0.225-0.622,0.507-1.031,0.619c-0.729,0.199-2.903,0.393-3.92,0c-0.086-0.033,0.008-0.195-0.206-0.206
			c-0.266-0.014-0.263-0.345-0.413-0.413c-0.433-0.194-0.468-0.139-0.826-0.619c-0.286-0.382-0.625-0.897-0.826-1.651
			c-0.27-1.017-0.369-2.35-0.206-3.303c0.003-0.02,0.197-0.042,0.206-0.206c0.031-0.562,0.201-0.779,0.414-1.238
			c0.098-0.212,0.396-0.504,0.412-0.826c0.016-0.3,1.475-1.613,1.857-1.858c0.098-0.062,0.153-0.175,0.207-0.206
			c0.177-0.104,0.402-0.084,0.619-0.207c0.131-0.074,0.297-0.351,0.413-0.413C258.372,24.629,258.684,24.714,259.276,24.603"/>
		<path fill="#C3002F" d="M262.579,42.145c0.604,0.832,0.558,1.893,0.619,2.891c0.336,5.386-0.207,11.691-0.207,17.129
			c0,3.577-0.131,6.729-0.207,10.525c-0.02,1.065,0.171,2.324-0.412,3.302c-1.05,0.647-2.823,0.627-4.541,0.62
			c-1.725-0.008-3.435-0.041-4.541-0.62c-0.593-1.265-0.466-2.712-0.413-4.128c0.052-1.354,0.185-2.715,0.206-4.127
			c0.043-2.842-0.355-6.7,0.207-9.287c0.202-0.93,0-2.618,0-3.922c0-2.853,0.147-5.848,0.206-8.668
			c0.028-1.34-0.396-2.947,0.619-3.715c1.025-0.295,2.896-0.205,4.748-0.205C260.223,41.939,261.586,41.785,262.579,42.145"/>
		<path fill="#C3002F" d="M185.069,12.353c0.035-0.008,0.042-0.187,0.207-0.206c1.041-0.123,2.478,0.083,3.302,0.413
			c0.074,0.029,0.366-0.057,0.413,0c0.017,0.02-0.021,0.198,0,0.206c0.462,0.167,1.022,0.212,1.445,0.413
			c0.1,0.047-0.021,0.194,0.206,0.206c0.407,0.022,1.81,1.686,2.063,2.271c0.147,0.338,0.212,0.552,0.206,1.032
			c-0.013,1.153-0.64,1.524-1.237,2.27c-0.369,0.461-0.811,0.885-1.237,1.445c-0.213,0.277-0.416,0.558-0.62,1.032
			c-0.073,0.171-0.104,0.397-0.207,0.619c-0.053,0.114-0.107,0.488-0.206,0.62c-0.076,0.101-0.345,0.111-0.413,0.207
			c-0.139,0.197-0.051,0.452-0.207,0.619c-0.729,0.784-1.853,1.044-3.301,0.413c-0.094-0.041,0.015-0.194-0.207-0.206
			c-0.328-0.017-0.697-0.396-1.032-0.62c-0.174-0.116-0.27-0.313-0.413-0.413c-0.074-0.051-0.356,0.068-0.413,0
			c-0.388-0.476-1.835-0.768-2.682-1.238c-0.108-0.061,0.027-0.194-0.206-0.206c-0.583-0.031-1.042-1.158-1.032-2.064
			c0.005-0.53,0.038-0.771,0.207-1.444c-0.002,0.007,0.188-0.604,0.206-0.62c0.254-0.207,0.362-0.852,0.62-1.238
			c0.128-0.191,0.395-0.333,0.619-0.619c0.322-0.411,0.463-0.886,0.619-1.032c0.124-0.114,0.434-0.403,0.62-0.413
			c0.264-0.014,0.26-0.345,0.411-0.414c0.252-0.113,0.606-0.041,0.826-0.206c0.085-0.063,0.125-0.368,0.206-0.413
			c0.275-0.156,0.531-0.065,0.826-0.206c0.101-0.048-0.02-0.195,0.207-0.207C184.926,12.349,185.008,12.368,185.069,12.353"/>
		<path fill="#C3002F" d="M199.104,15.242c0.024-0.005,0.039-0.198,0.206-0.207c0.884-0.046,2.62-0.042,3.302,0.413
			c0.318,0.211,1.102,0.608,1.444,1.032c0.422,0.52,0.767,1.614,1.031,2.683c0.266,1.066,0.564,2.361,0.413,3.302
			c-0.128,0.796-0.799,1.665-1.444,2.27c-0.229,0.215-0.436,0.487-0.619,0.619c-0.074,0.053-0.357-0.068-0.413,0
			c-0.37,0.451-1.958,1.426-2.89,1.445c-0.446,0.009-1.233-0.216-1.65-0.413c-0.101-0.047,0.019-0.195-0.207-0.206
			c-0.297-0.016-0.445-0.393-0.825-0.413c-0.044-0.002-0.171,0.022-0.207,0c-0.245-0.149-0.375-0.47-0.619-0.619
			c-0.076-0.046-0.358,0.065-0.414,0c-0.255-0.313-0.381-0.333-0.826-0.62c-0.113-0.074,0.033-0.193-0.205-0.206
			c0.015,0.001-0.696-0.431-0.826-0.619c-0.052-0.075,0.066-0.358,0-0.413c-0.024-0.02-0.194,0.026-0.206,0
			c-0.035-0.075,0.06-0.364,0-0.413c-0.263-0.214-0.111-0.42-0.207-0.826c-0.039-0.167-0.209-0.207-0.207-0.413
			c0.005-0.336,0.16-0.351,0.207-0.619c0.08-0.454,0.03-0.659,0.207-1.032c0.047-0.1,0.192,0.02,0.206-0.206
			c0.018-0.333,0.398-0.689,0.619-1.032c0.112-0.175,0.4-0.394,0.412-0.619c0.01-0.176,0.313-0.457,0.413-0.619
			c0.08-0.13,0.113-0.279,0.207-0.413c0.207-0.294,0.418-0.407,0.619-0.619c0.214-0.226,0.396-0.668,0.619-0.825
			c0.075-0.052,0.358,0.067,0.413,0c0.019-0.025-0.026-0.194,0-0.207c0.075-0.036,0.363,0.06,0.413,0
			C198.288,15.185,198.426,15.368,199.104,15.242"/>
		<path fill="#C3002F" d="M170.83,32.372c-0.751-1.864-1.185-4.044-1.032-6.811c0.6-0.724,1.117-1.667,2.064-2.271
			c0.098-0.062,0.152-0.175,0.206-0.207c0.316-0.188,0.612-0.376,1.032-0.619c0.18-0.104,0.393-0.087,0.618-0.206
			c0.123-0.065,0.308-0.364,0.412-0.413c1.134-0.527,3.447,0.749,4.334,1.238c0.308,0.169,0.601,0.262,0.826,0.413
			c0.115,0.078-0.033,0.194,0.206,0.207c0.261,0.014,0.269,0.29,0.413,0.413c0.07,0.06,0.355-0.07,0.413,0
			c0.121,0.148,0.307,0.278,0.413,0.413c0.056,0.072-0.069,0.357,0,0.413c0.023,0.02,0.194-0.026,0.206,0
			c0.035,0.074-0.061,0.363,0,0.413c0.018,0.014,0.202-0.018,0.207,0c0.101,0.369,0.123,1.571,0,2.064
			c-0.045,0.181-0.141,0.354-0.207,0.619c-0.045,0.184-0.18,0.132-0.206,0.206c-0.233,0.677-0.62,1.415-1.032,2.064
			c-0.086,0.136-0.335,0.289-0.412,0.413c-0.194,0.314-0.32,0.641-0.62,1.031c-0.299,0.392-0.694,0.831-1.237,1.238
			c-0.116,0.087-0.303,0.352-0.413,0.413c-0.076,0.042-0.361-0.063-0.413,0c-0.15,0.184-1.072,0.42-1.651,0.413
			c0.045,0.001-0.093-0.201-0.207-0.207c-0.333-0.018-0.904,0.119-1.443,0c-0.038-0.008-0.029-0.197-0.206-0.207
			c-0.057-0.002-0.156,0.02-0.207,0c-0.206-0.082-0.331-0.134-0.62-0.206c-0.253-0.063-0.455-0.256-0.619-0.413
			C171.596,32.728,171.101,32.524,170.83,32.372"/>
		<path fill="#C3002F" d="M188.991,26.18c0.001,0,0.06-0.196,0.207-0.206c1.24-0.091,3.439-0.129,4.54,0.206
			c0.028,0.009,0.068,0.171,0.207,0.207c0.431,0.107,0.47,0.019,1.033,0.207c0.071,0.024,0.001,0.195,0.206,0.206
			c0.052,0.003,0.159-0.021,0.206,0c0.141,0.063,0.296,0.347,0.412,0.413c0.076,0.042,0.361-0.063,0.413,0
			c0.103,0.124,0.57,0.605,0.827,0.619c0.34,0.018,0.713,0.591,1.031,0.825c0.19,0.141,0.455,0.054,0.62,0.207
			c0.093,0.087,0.11,0.336,0.206,0.413c0.162,0.129,0.437,0.069,0.619,0.206c0.132,0.1,0.814,0.782,1.03,1.032
			c0.239,0.274,0.389,0.671,0.621,1.032c0.229,0.357,0.446,0.709,0.619,1.031c0.071,0.134,0.351,0.297,0.413,0.413
			c0.114,0.213,0.139,0.422,0.206,0.619c0.287,0.836,0.25,2.417-0.206,3.302c-0.368,0.713-1.344,1.401-2.063,2.064
			c-0.167,0.154-0.24,0.479-0.413,0.619c-0.071,0.057-0.356-0.069-0.413,0c-0.059,0.07-0.137,0.365-0.206,0.413
			c-0.075,0.051-0.358-0.067-0.413,0c-0.045,0.054-0.155,0.384-0.207,0.413c-0.275,0.151-0.541,0.055-0.826,0.206
			c-0.105,0.057,0.025,0.195-0.206,0.207c-0.182,0.01-0.548,0.237-0.826,0.413c-0.19,0.123-0.948,0.421-1.444,0.62
			c-0.134,0.053-0.159,0.188-0.206,0.206c-0.521,0.198-1.135,0.245-1.652,0.413c-0.069,0.021-0.004,0.195-0.206,0.207
			c-0.478,0.024-0.615,0.039-1.032,0.205c-0.238,0.097-0.476,0.102-0.825,0.207c-0.213,0.064-0.5,0.108-0.825,0.207
			c-0.41,0.125-2.043,0.465-2.89,0.619c-0.192,0.035-0.433-0.057-0.619,0c-1.496,0.452-4.259,0.137-5.572-0.619
			c-0.111-0.063,0.027-0.193-0.207-0.207c-0.273-0.015-0.322-0.396-0.619-0.412c-0.328-0.019-0.479-0.474-0.62-0.619
			c-0.195-0.204-0.41-1.13-0.619-1.651c-0.338-0.846-0.194-2.655,0.206-4.128c0.016-0.055,0.196-0.016,0.207-0.206
			c0.002-0.056-0.021-0.156,0-0.207c0.095-0.239,0.1-0.476,0.206-0.826c0.028-0.092,0.406-1.11,0.62-1.444
			c0.145-0.229,0.323-0.981,0.619-1.444c0.652-1.023,1.467-3.281,2.477-4.127c0.229-0.193,0.831-0.403,1.238-0.619
			c0.117-0.062,0.314-0.371,0.413-0.413c0.115-0.049,0.292,0.03,0.413,0c0.193-0.048,0.12-0.173,0.206-0.207
			C186.77,26.461,187.837,26.335,188.991,26.18"/>
		<path fill="#C3002F" d="M203.602,58.896c0.002,0.013,0.173,0.07,0.207,0.205c0.065,0.266,0.161,0.438,0.206,0.619
			c0.03,0.122-0.049,0.299,0,0.414c0.041,0.096,0.347,0.301,0.413,0.413c0.06,0.103-0.05,0.304,0,0.413
			c0.021,0.043,0.365,0.162,0.412,0.206c0.375,0.353,0.531,0.726,1.032,0.826c0.535,0.106,0.963-0.035,1.652-0.207
			c0.366-1.292,0.206-2.729,0.206-4.334V52.91C204.281,50.95,202.986,55.53,203.602,58.896 M212.477,39.496
			c0.374,1.707,0.206,3.584,0.206,5.365c0,1.846,0.111,3.729,0,5.572c-0.115,1.892-0.058,4.762-0.206,7.225
			c-0.039,0.633-0.179,1.224-0.207,1.857c-0.083,1.893,0.332,3.877-0.413,5.571c-1.331,0.447-2.424,0.065-3.509,0.207
			c-1.967,0.255-3.277,1.397-5.159,1.032c0.019,0.003-0.104-0.182-0.206-0.207c-0.568-0.143-0.76-0.301-1.238-0.62
			c-0.116-0.076,0.033-0.192-0.207-0.206c-0.397-0.021-0.232-0.378-0.413-0.62c-0.072-0.098-0.349-0.112-0.413-0.206
			c-0.05-0.074,0.067-0.357,0-0.414c-0.871-0.713-1.508-3.185-1.65-4.746c-0.2-2.178,0.085-4.084,0.619-5.779
			c0.142-0.446,0.217-0.817,0.414-1.236c0.053-0.115,0.107-0.488,0.205-0.619c0.064-0.087,0.366-0.125,0.413-0.207
			c0.13-0.226,0.09-0.417,0.207-0.619c0.436-0.753,1.776-2.184,2.89-2.478c1.307-0.345,2.358-0.05,3.921,0.618
			c0.393-2.381,0.049-5.392,0.206-8.254c0.011-0.182-0.053-0.446,0-0.619c0.05-0.164,0.199-0.208,0.207-0.413
			C208.879,38.958,211.416,39.268,212.477,39.496"/>
		<path fill="#C3002F" d="M173.676,61.785c0.005,0.016,0.191-0.016,0.207,0c0.173,0.172,0.068,0.621,0.207,0.826
			c0.839,0.441,1.772,0.072,2.478-0.207v-4.127C174.694,58.386,173.33,60.105,173.676,61.785 M180.9,65.293
			c-3.958-0.449-5.796,1.221-9.493,1.032c0.016-0.233-0.279-0.12-0.413-0.207c-0.078-0.052-0.138-0.382-0.206-0.413
			c-0.085-0.039-0.35,0.062-0.413,0c-0.064-0.064,0.069-0.355,0-0.413c-0.392-0.321-0.535-0.719-0.826-1.444
			c-0.292-0.729-0.364-3.242,0-4.334c0.024-0.072,0.195,0,0.207-0.205c0.021-0.39,0.393-0.652,0.412-1.033
			c0.019-0.348,0.598-0.418,0.619-0.825c0.023-0.443,0.84-0.784,1.238-1.032c0.119-0.074,0.306-0.361,0.412-0.413
			c0.149-0.073,0.876-0.016,1.032-0.207c0.371-0.455,1.994-0.469,2.889-0.414c0.253-0.5,0.042-1.31-0.207-1.856
			c-0.129-0.289-0.258-0.67-0.412-0.825c-0.172-0.173-0.561-0.126-0.619-0.413c-1.729-0.215-2.659,0.368-4.128,0.413
			c-0.028-1.21-0.48-1.995-0.413-3.302c0.591-0.644,1.543-0.844,2.478-1.032c1.067-0.216,2.272-0.373,3.302-0.207
			c0.016,0.002,0.047,0.198,0.207,0.207c0.618,0.032,1.305,0.261,1.857,0.618c0.114,0.076-0.032,0.195,0.205,0.207
			c0.312,0.018,1.019,0.893,1.238,1.238c0.149,0.234,0.232,0.43,0.414,0.619c0.266,0.279,0.465,1.553,0.619,2.271
			c0.008,0.035,0.198,0.029,0.207,0.205c0.094,1.8,0.206,4.519,0.206,7.019C181.312,62.229,181.495,63.975,180.9,65.293"/>
		<path fill="#C3002F" d="M196.585,65.706c-1.064,0.449-2.934,0.093-4.333,0.206c-0.482-2.482,0.387-6.96,0-10.318
			c-0.021-0.173-0.17-0.346-0.207-0.619c-0.077-0.582,0.002-0.82-0.206-1.444c-0.023-0.072-0.195-0.001-0.207-0.206
			c-0.034-0.666-1.254-1.151-2.27-0.62c-0.654,0.17-0.391,1.024-0.414,1.444c-0.08,1.488,0,3.393,0,5.16
			c0,2.34,0.237,4.725-0.413,6.397c-1.125,0.226-3.242,0.413-4.333,0c-0.373-1.606-0.206-3.379-0.206-5.159
			c0-1.708-0.104-3.455,0-5.16c0.037-0.59,0.18-1.084,0.206-1.65c0.062-1.385-0.208-2.713,0.207-3.922
			c1.773-0.572,2.642,0.218,4.334-0.205c0.182-0.045,0.354-0.141,0.619-0.207c-0.008,0.002,0.604-0.188,0.619-0.207
			c0.28-0.342,1.096-0.389,1.857-0.619c0.388-0.117,1.37-0.346,2.271,0c0.085,0.033-0.006,0.195,0.207,0.207
			c0.475,0.025,1.104,1.107,1.445,1.65c0.069,0.113,0.192-0.031,0.204,0.207c0.007,0.101,0.155,0.295,0.207,0.412
			c1.07,2.424,0.826,5.557,0.826,9.287C196.998,62.357,197.201,64.261,196.585,65.706"/>
	</g>
</g>
</svg>
