<?xml version="1.0" encoding="utf-8"?>
<!-- Generator: Adobe Illustrator 16.0.0, SVG Export Plug-In . SVG Version: 6.00 Build 0)  -->
<!DOCTYPE svg PUBLIC "-//W3C//DTD SVG 1.1//EN" "http://www.w3.org/Graphics/SVG/1.1/DTD/svg11.dtd">
<svg version="1.1" id="Layer_1" xmlns="http://www.w3.org/2000/svg" xmlns:xlink="http://www.w3.org/1999/xlink" x="0px" y="0px"
	 width="66.913px" height="82px" viewBox="0 0 66.913 82" enable-background="new 0 0 66.913 82" xml:space="preserve">
<g>
	<g>
		<path fill="#222222" d="M20.809,23.707c0,0,0.899-4.521-0.793-9.936c-1.219-3.897-5.983-6.56-0.824-9.455
			c5.381-3.021,17.629-4.143,20.574-3.106c2.944,1.038,2.833,0.91,2.596,4.51c-0.237,3.6-0.285,13.48,1.093,14.536
			c0,0,2.487-1.163,3.022-1.971c0.535-0.809,2.371-4.1,3.853-3.604c2.241,0.75,3.684,2.652,5.363,2.764
			c1.68,0.111,8.007-0.799,9.851,2.336c1.843,3.134,1.566,7.335,0.679,8c-0.888,0.665-5.991,1.293-7.736,0.334
			c-1.418-0.778-3.058-2.973-4.019-3.037c-0.96-0.062-4.075-4.004-4.804-3.932c-0.728,0.072-2.604,2.962-2.604,2.962
			s5.685,5.195,4.017,10.389c-1.667,5.193-3.914,8.179-6.041,9.364c-2.127,1.187-2.758,1.628-2.758,1.628l0.088,0.487
			c0,0,5.115,2.867,5.837,4.723s2.973,6.102,2.017,9.654c0,0,1.858,2.896,3.241,2.021c1.384-0.873,2.949-4.507-0.034-12.296
			c0,0-4.883-2.731-3.542-6.622c1.342-3.889,5.646-3.364,6.582-2.94c0.938,0.423,3.834,2.18,3.908,4.715
			c0.075,2.537-1.453,3.762-3.18,4.371c-1.729,0.609-2.199,0.459-2.199,0.459s3.189,6.478,2.959,8.148
			c-0.23,1.672-1.638,5.613-5.875,6.846c-1.352,0.394-2.809-1.27-3.433-0.949s-2.245,4.793-7.98,5.862l-0.188,2.882
			c0,0,6.494-1.463,5.333,5.051c-0.573,3.217-2.933,4.267-4.132,4.188c-1.2-0.08-4.725-3.324-4.757-4.652s1.853-4.338,1.853-4.338
			l0.167-2.52c0,0-1.743,0.85-3.543,0.73c-1.801-0.119-3.458-0.588-3.458-0.588l-0.278,2.392c0,0,3.729,1.933,3.875,3.388
			c0.146,1.456-0.652,4.418-2.101,4.443s-3.124,0.951-4.648-0.789c-1.233-1.407-2.727-4.942-1.893-6.03
			c0.791-1.033,3.215-1.235,3.215-1.235l-0.178-2.785c0,0-6.834-2.377-7.956-3.656c-1.121-1.279-2.597-4.51-2.597-4.51
			s-3.068-0.2-3.096,1.242c-0.045,2.528,2.717,6.326,4.11,7.142c1.393,0.815,3.201,0.812,3.962,2.067
			c0.762,1.256,1.955,3.264-1.052,4.994s-6.647,0.286-7.657-0.865c-1.009-1.151-2.146-2.191-0.835-3.793
			c1.311-1.601,3.854-1.795,3.854-1.795l-0.312-0.744c0,0-5.75-6.043-4.736-8.629c1.014-2.584,5.23-2.547,5.23-2.547l-0.099-2.176
			c0,0-4.745-1.156-5.895-7.499c-1.149-6.344,5.68-9.389,5.68-9.389s-3.354,5.202-2.864,8.729c0.491,3.527,3.5,5.413,3.5,5.413
			s1.646-4.833,3.027-5.707c1.383-0.873,3.998-2.147,3.998-2.147l-0.44-0.631c0,0-4.916-4.06-6.182-6.795
			c-1.266-2.735-0.729-10.895-0.729-10.895s-2.561,0.434-2.6,1.033c-0.04,0.601-0.758,2.361-1.357,2.322
			c-0.601-0.04-1.777-0.479-2.544,0.194c-0.769,0.672-3.997,3.955-5.484,4.581c-1.488,0.625-4.04,0.938-4.096-0.029
			c-0.058-0.968-0.595-1.968-1.059-2.24c-0.464-0.271-1.544-0.343-1.512-0.823c0.031-0.48-0.172-4.712,2.179-5.641
			c2.352-0.931,3.679-0.964,5.198-2.069s6.941-4.726,7.749-4.191C16.126,21.591,17.424,23.846,20.809,23.707"/>
		<path fill="#FFFFFF" d="M21.163,27.467c0,0,5.686,0.445,11.417-0.555c6.343-1.106,11.605-3.113,11.605-3.113
			s0.232,1.944,0.833,1.983c0.601,0.039,5.37,2.643,4.229,7.148c-1.14,4.505-3.129,9.075-4.888,10.165
			c-1.759,1.089-6.198,2.604-8.606,2.567c-2.407-0.038-8.145-0.777-10.763-3.119c-2.619-2.342-4.499-3.068-4.488-8.732
			C20.516,28.147,21.163,27.467,21.163,27.467"/>
		<path fill="#FFFFFF" d="M33.813,47.705c2.265,0.39,9.151,0.12,10.882,1.318c1.729,1.199,1.426,2.144,2.067,3.391
			c0.641,1.247,2.211,3.039,2.243,4.366c0.033,1.327-0.357,1.784-0.357,1.784s-0.61-1.728-1.37-1.174
			c-0.759,0.553-1.382,2.68-0.957,3.553c0.425,0.871,0.617,1.606,0.714,1.976c0.096,0.367-2.501,3.21-4.245,4.06
			c-1.743,0.851-2.223,0.817-2.223,0.817s0.716-5.376,0.562-6.712c-0.153-1.336-1.242-3.095-2.002-2.543
			c-0.76,0.553-0.709,3.449-0.596,5.385c0.114,1.936,0.157,4.952,0.157,4.952s-1.744,0.851-3.664,0.724s-3-0.196-3-0.196
			s0.26-5.77,0.346-7.091c0.087-1.318-0.323-4.239-1.539-4.078c-1.217,0.162-1.183,1.49-1.062,3.306
			c0.122,1.815,0.127,7.241,0.127,7.241s-4.596-1.628-6.518-3.562c-1.921-1.935-4.524-6.324-2.528-11.015s3.923-6.492,5.626-6.741
			C28.18,47.213,33.813,47.705,33.813,47.705"/>
		<path fill="#222222" d="M35.396,36.48c3.367,0.932,4.357,1.537,4.517,2.795c0.158,1.259-0.445,3.094-3.005,3.55
			c-2.562,0.456-4.515,0.827-5.959-1.017c-1.446-1.845-3.285-3.215-1.419-4.092C31.395,36.842,34.212,36.153,35.396,36.48"/>
		<path fill="#222222" d="M29.28,32.341c0.334-1.425,3.462-1.34,3.496-0.011c0.034,1.328-0.006,1.97-1.574,1.945
			C28.794,34.237,29.28,32.341,29.28,32.341"/>
		<path fill="#222222" d="M38.832,31.884c0.81,0.535,1.833,1.446,1.187,2.127c-0.647,0.68-2.127,1.187-2.929,0.53
			c-0.801-0.656-1.313-2.015-0.313-2.552C37.776,31.453,38.832,31.884,38.832,31.884"/>
		<path fill="#222222" d="M13.498,39.459c0,0-0.093-1.259,0.593-1.854c0.687-0.595,2.741-0.366,2.277-0.19
			c-0.209,0.079-1.198-0.213-1.981,0.462C13.589,38.562,13.571,39.528,13.498,39.459"/>
		<path fill="#222222" d="M14.024,41.609c0,0-0.43-1.516,0.983-2.721c1.413-1.207,3.138-0.708,3.447-0.394
			c0.312,0.314-1.927-0.277-3.047,0.818S14.171,41.746,14.024,41.609"/>
		<path fill="#222222" d="M18.088,43.859c0,0,0.745-0.187,1.013-0.623c0.42-0.69,0.384-1.393,0.384-1.393s0.311,1.301-0.063,1.606
			C18.871,43.898,18.088,43.859,18.088,43.859"/>
		<path fill="#222222" d="M18.784,44.557c0,0,0.641,0.045,0.922-0.351c0.283-0.394,0.207-1.229,0.207-1.229s0.527,0.76,0.067,1.318
			S18.784,44.557,18.784,44.557"/>
		<path fill="#222222" d="M31.533,45.912c0,0,0.893-1.348,2.765-1.141c2.246,0.25,2.201,1.955,2.201,1.955s4.729-1.843,5.562-1.355
			c0.834,0.486,0.525,7.288-0.349,7.191c-0.874-0.098-5.412-1.39-5.596-2.066c-0.184-0.678-0.341,0.882-2.352,0.791
			c-1.795-0.082-1.904-1.133-2.529-1.201c-0.624-0.07-5.004,2.074-5.413,1.107c-0.407-0.965-0.361-7.664,0.598-7.164
			C27.381,44.531,31.533,45.912,31.533,45.912"/>
		<path fill="none" stroke="#000000" stroke-width="0.927" d="M31.533,45.912c0,0,0.893-1.348,2.765-1.141
			c2.246,0.25,2.201,1.955,2.201,1.955s4.729-1.843,5.562-1.355c0.834,0.486,0.525,7.288-0.349,7.191
			c-0.874-0.098-5.412-1.39-5.596-2.066c-0.184-0.678-0.341,0.882-2.352,0.791c-1.795-0.082-1.904-1.133-2.529-1.201
			c-0.624-0.07-5.004,2.074-5.413,1.107c-0.407-0.965-0.361-7.664,0.598-7.164C27.381,44.531,31.533,45.912,31.533,45.912z"/>
		<path fill="#D31245" d="M31.477,46.29c0,0,0.807-1.272,2.606-1.154c2.16,0.142,2.178,1.71,2.178,1.71s4.462-1.876,5.278-1.461
			c0.816,0.416,0.767,6.68-0.074,6.625c-0.84-0.056-5.231-1.066-5.434-1.683c-0.201-0.616-0.295,0.823-2.223,0.817
			c-1.723-0.006-1.865-0.967-2.465-1.006c-0.602-0.039-4.72,2.101-5.144,1.229c-0.425-0.872-0.622-7.031,0.314-6.608
			C27.451,45.182,31.477,46.29,31.477,46.29"/>
		<path fill="#222222" d="M29.972,47.573c-0.31-0.089-1.12-0.692-1.436-0.751c-0.358-0.068,0.103,0.289,0.403,0.494
			c0.339,0.231,0.724,0.457,1.033,0.545c0.354,0.102,0.611,0.176,0.987,0.236c0.269,0.043,0.152-0.453,0.109-0.473
			C31.071,47.625,30.27,47.659,29.972,47.573"/>
		<path fill="#222222" d="M30.751,48.62c-1.124,0.213-1.97-0.013-3.08,0.274c-0.352,0.09,0.201,0.238,0.554,0.146
			c1.11-0.287,2.537,0.248,2.658,0.189C30.994,49.18,30.957,48.6,30.751,48.62"/>
		<path fill="#222222" d="M37.34,48.128c1.107-0.687,2.251-0.532,3.367-0.698c0.36-0.055-0.06-0.619-0.421-0.564
			c-1.174,0.176-2.29,0.712-3.393,1.13c-0.342,0.129-0.241,0.394,0.1,0.264L37.34,48.128z"/>
		<path fill="#222222" d="M39.042,49.966c0.362,0.362,0.663-0.233,0.234-0.521c-0.456-0.305-1.56-0.551-2.077-0.663
			c-0.357-0.076-0.381,0.159-0.027,0.235C37.173,49.02,38.521,49.443,39.042,49.966"/>
	</g>
</g>
</svg>
