<?xml version="1.0" encoding="utf-8"?>
<!-- Generator: Adobe Illustrator 16.0.0, SVG Export Plug-In . SVG Version: 6.00 Build 0)  -->
<!DOCTYPE svg PUBLIC "-//W3C//DTD SVG 1.1//EN" "http://www.w3.org/Graphics/SVG/1.1/DTD/svg11.dtd">
<svg version="1.1" id="Layer_1" xmlns="http://www.w3.org/2000/svg" xmlns:xlink="http://www.w3.org/1999/xlink" x="0px" y="0px"
	 width="508.641px" height="331.017px" viewBox="0 0 508.641 331.017" enable-background="new 0 0 508.641 331.017"
	 xml:space="preserve">
<g>
	<g>
		<path fill-rule="evenodd" clip-rule="evenodd" fill="#D31245" d="M353.498,22.922c-1.432,1.208-2.727,2.575-4.271,3.537
			c-2.406,1.497-4.051,0.79-5.051-1.934c-1.639,2.774-3.676,4.992-7.182,4.634c-2.355-0.24-3.539-1.947-4.205-4.51
			c-0.799,0.891-1.357,1.681-2.074,2.284c-3.32,2.798-6.162,1.985-7.453-2.022c-0.744,0.697-1.467,1.472-2.293,2.117
			c-0.652,0.508-1.389,0.966-2.156,1.251c-2.617,0.967-4.57-0.232-4.99-2.981c-0.037-0.248-0.053-0.498-0.088-0.847
			c-1.184,1.08-2.236,2.141-3.391,3.073c-1.975,1.592-4.092,2.933-6.74,3.075c-2.188,0.119-3.465-0.588-3.836-2.767
			c-0.389-2.277-0.34-4.636-0.373-6.961c-0.023-1.517,0.143-3.036,0.227-4.554c-0.148-0.079-0.295-0.157-0.443-0.235
			c-0.59,0.588-1.404,1.074-1.734,1.784c-1.311,2.823-2.52,5.698-3.662,8.594c-0.346,0.875-0.375,1.796-1.664,1.808
			c-1.57,0.016-2.674-0.487-3.09-1.748c-0.275-0.827-0.354-1.718-0.621-3.117c-0.322,0.559-0.461,0.934-0.711,1.208
			c-2.127,2.335-4.461,4.401-7.492,5.511c-0.287,0.106-0.582,0.203-0.879,0.281c-3.23,0.852-5.23-0.296-5.51-3.6
			c-0.248-2.971,0.004-5.984,0.033-8.978c0.004-0.507,0-1.013,0-1.52c-0.127-0.074-0.258-0.148-0.385-0.224
			c-0.592,0.59-1.404,1.077-1.734,1.788c-1.311,2.823-2.52,5.698-3.66,8.594c-0.346,0.878-0.381,1.815-1.67,1.8
			c-1.322-0.016-2.521-0.25-3.021-1.634c-0.279-0.771-0.447-1.631-0.441-2.449c0.018-2.338,0.162-4.674,0.229-7.012
			c0.021-0.792,0.021-1.596-0.084-2.379c-0.219-1.658,0.367-2.384,2.182-2.582c1.596-0.173,2.639,0.603,2.672,2.174
			c0.035,1.674-0.104,3.352-0.164,5.028c-0.008,0.247,0,0.494,0,1.094c0.863-1.3,1.465-2.36,2.219-3.295
			c0.826-1.022,1.678-2.089,2.727-2.85c2.359-1.714,5.422-0.476,5.85,2.39c0.271,1.817,0.146,3.693,0.182,5.542
			c0.021,1.059-0.045,2.12,0.023,3.173c0.111,1.729,0.85,2.228,2.314,1.271c1.902-1.243,3.637-2.75,5.395-4.204
			c2.465-2.039,2.725-4.792,2.328-7.708c-0.229-1.692,0.324-2.397,2.135-2.611c1.652-0.195,2.676,0.606,2.715,2.268
			c0.033,1.41-0.084,2.823-0.127,4.235c-0.014,0.474-0.002,0.948-0.002,1.748c0.471-0.721,0.75-1.241,1.115-1.695
			c1.156-1.437,2.172-3.048,3.555-4.225c2.383-2.029,5.658-0.774,6.096,2.304c0.275,1.948,0.111,3.958,0.148,5.94
			c0.02,1.057,0.018,2.117,0.09,3.171c0.07,1.037,0.723,1.459,1.643,1.07c3.229-1.366,5.84-3.607,7.535-6.596
			c0.674-1.185,0.229-3.018,0.244-4.557c0.008-0.609-0.121-1.219-0.184-1.787c0.127-0.105,0.188-0.193,0.262-0.208
			c3.873-0.819,4.711-0.125,4.555,3.801c-0.07,1.808-0.244,3.616-0.225,5.422c0.004,0.567,0.348,1.364,0.787,1.617
			c0.338,0.194,1.186-0.164,1.609-0.513c1.564-1.291,2.807-2.763,2.646-5.035c-0.121-1.707-0.025-3.431-0.025-5.142
			c3.053-0.738,4.5,0.351,4.477,3.472c-0.01,1.585-0.225,3.167-0.312,4.753c-0.039,0.704-0.074,1.426,0.043,2.112
			c0.092,0.516,0.33,1.274,0.686,1.4c0.385,0.135,1.166-0.203,1.455-0.578c1.367-1.766,2.859-3.497,3.863-5.466
			c1.436-2.81,3.248-5.036,6.35-5.946c1.994-0.587,3.934-0.424,5.67,0.842c1.482,1.082,2.357,2.346,1.832,4.377
			c-0.322,1.25-0.297,2.63-0.201,3.936c0.094,1.236,1.053,1.7,1.938,0.912c1.439-1.283,2.842-2.669,3.955-4.23
			c0.512-0.719,0.283-1.957,0.42-2.957c0.527-3.906,1.701-7.572,4.221-10.681c0.574-0.706,1.291-1.353,2.064-1.828
			c2.301-1.415,4.729-0.117,4.48,2.562c-0.191,2.11-0.799,4.25-1.605,6.221c-1.115,2.723-2.576,5.307-3.918,7.935
			c-0.738,1.445-0.125,4.745,1.113,5.729c0.818,0.652,1.719,0.566,2.449-0.009c1.379-1.086,2.764-2.2,3.949-3.483
			c1.314-1.419,2.385-3.061,3.617-4.56c0.232-0.285,0.727-0.357,1.1-0.527c0.176,0.449,0.379,0.89,0.512,1.352
			c0.037,0.13-0.111,0.326-0.197,0.478c-2.186,3.866-4.934,7.23-8.881,9.401c-3.686,2.027-6.646,0.864-8.072-3.078
			C353.988,25.068,353.764,23.904,353.498,22.922z M337.6,23.786c0.199,0.386,0.363,1.195,0.77,1.346
			c0.408,0.15,1.117-0.272,1.586-0.6c0.414-0.292,0.775-0.753,0.992-1.218c0.855-1.827,1.711-3.66,2.408-5.548
			c0.174-0.469-0.07-1.45-0.436-1.666c-0.404-0.238-1.348-0.075-1.742,0.272C339.029,18.262,338.102,20.802,337.6,23.786z
			 M358.453,16.446c1.697-3.272,3.439-6.53,3.086-10.422C358.918,9.016,358.988,12.822,358.453,16.446z"/>
		<path fill-rule="evenodd" clip-rule="evenodd" fill="#D31245" d="M252.785,24.091c-4.558,0-8.948,0-13.521,0
			c-1.85,5.464-4.111,10.996-3.264,17.5c-1.542-0.404-2.963-0.636-4.266-1.162c-1.202-0.485-1.827-1.666-1.667-2.919
			c0.295-2.3,0.639-4.623,1.29-6.84c0.776-2.646,1.896-5.19,2.942-7.98c-4.347-0.595-4.224-3.734-3.854-7.088
			c1.714,0.73,3.453,1.429,5.151,2.213c0.802,0.37,1.19,0.204,1.675-0.546c3.269-5.062,6.872-9.858,11.629-13.646
			c1.059-0.843,2.271-1.515,3.473-2.152c2.938-1.559,5.613,0.655,5.753,3.263c0.141,2.641,0.158,5.292,0.15,7.938
			c-0.01,3.709-0.115,7.419-0.135,11.129c-0.016,3.062,0.608,5.967,2.429,8.504c0.41,0.573,0.289,0.91-0.16,1.343
			c-2,1.928-5.134,1.47-6.513-1.021c-1.27-2.292-1.312-4.814-1.208-7.346C252.71,24.804,252.766,24.33,252.785,24.091z
			 M253.105,20.394c0.246-2.036,0.527-3.958,0.7-5.89c0.233-2.637,0.439-5.279,0.53-7.923c0.021-0.626-0.469-1.27-0.725-1.905
			c-0.577,0.247-1.246,0.382-1.719,0.76c-4.726,3.778-7.76,8.815-10.584,14.181C245.267,20.532,249.074,21.116,253.105,20.394z"/>
		<path fill-rule="evenodd" clip-rule="evenodd" fill="#D31245" d="M209.301,24.839c-0.707,1.785-1.32,3.524-2.088,5.191
			c-0.437,0.947-1.029,1.866-1.724,2.644c-1.798,2.017-3.894,1.638-4.707-0.951c-0.522-1.659-0.608-3.457-0.872-5.195
			c-0.062-0.417-0.059-0.845-0.087-1.284c-1.166,1.214-2.21,2.456-3.413,3.514c-1.615,1.422-3.581,2.093-5.741,1.949
			c-3.823-0.255-6.252-2.804-6.438-7.05c-0.113-2.54,0.199-5.1,0.336-7.65c0.025-0.471,0.118-0.938,0.156-1.223
			c-1.2-0.354-2.397-0.46-3.239-1.063c-0.407-0.292-0.146-1.517-0.193-2.442c1.437,0.161,2.599,0.292,4.014,0.451
			c0.38-2.698,0.749-5.332,1.134-8.079c0.562,0.026,1.168,0.03,1.769,0.085c1.759,0.163,2.573,0.934,2.581,2.708
			c0.004,1.312-0.23,2.626-0.368,3.939c-0.045,0.424-0.124,0.844-0.212,1.427c1.877,0,3.618,0,5.389,0
			c0.047,1.51-0.56,2.339-1.939,2.47c-1.315,0.124-2.635,0.177-4.055,0.268c-0.675,3.436-1.225,6.867-0.879,10.358
			c0.231,2.349,1.941,3.537,4.116,2.673c1.413-0.562,2.786-1.549,3.819-2.676c2.49-2.718,3.867-5.995,4.537-9.663
			c0.397-2.177,1.377-4.256,2.187-6.342c0.264-0.679,0.775-1.28,1.248-1.856c0.929-1.13,2.115-1.855,3.599-1.378
			c1.539,0.496,2.025,1.874,2.205,3.329c0.299,2.42-0.526,4.554-2.002,6.394c-0.985,1.229-2.243,2.236-3.299,3.416
			c-0.427,0.477-0.873,1.138-0.902,1.734c-0.105,2.237-0.043,4.483-0.043,6.726c0.14,0.034,0.279,0.067,0.418,0.1
			c0.174-0.393,0.329-0.793,0.521-1.177c1.136-2.277,2.116-4.655,3.47-6.796c1.203-1.9,2.886-2.023,4.325-0.575
			c0.417,0.419,0.617,1.21,0.634,1.837c0.035,1.314-0.237,2.641-0.163,3.95c0.1,1.771,1.24,2.355,2.56,1.198
			c1.679-1.472,3.129-3.208,4.633-4.871c0.769-0.849,1.416-1.806,2.168-2.671c0.19-0.22,0.568-0.277,0.86-0.409
			c0.114,0.315,0.358,0.649,0.317,0.942c-0.073,0.508-0.258,1.029-0.51,1.48c-1.823,3.269-4.119,6.151-7.066,8.486
			c-0.173,0.137-0.349,0.27-0.532,0.392c-2.85,1.907-4.855,1.202-5.929-2.096C209.665,26.344,209.506,25.615,209.301,24.839z
			 M206.933,8.818c-1.411,0.836-2.593,4.8-2.163,7.034C206.782,14.045,207.809,10.812,206.933,8.818z"/>
		<path fill-rule="evenodd" clip-rule="evenodd" fill="#D31245" d="M175.022,16.098c4.159,1.116,6.321,3.358,6.764,6.878
			c0.516,4.102-1.108,7.57-4.637,9.454c-3.963,2.117-8.076,2.3-12.219,0.479c-0.678-0.297-1.323-0.716-1.902-1.181
			c-1.072-0.858-1.957-1.926-1.593-3.396c0.348-1.406,1.576-1.902,2.96-2.239c0.204,0.434,0.407,0.857,0.602,1.285
			c1.194,2.642,3.001,3.767,5.714,3.557c2.879-0.222,5.107-2,5.798-4.623c1.042-3.966-1.62-7.228-5.698-6.99
			c-0.881,0.051-1.801,0.224-2.631,0.029c-0.543-0.127-1.377-0.85-1.342-1.239c0.08-0.886-0.089-2.171,1.251-2.425
			c2.556-0.485,4.318-1.888,5.245-4.318c0.425-1.119,0.408-2.191-0.604-3.01c-0.968-0.784-2.106-0.806-3.09-0.172
			c-0.79,0.508-1.455,1.265-2.04,2.016c-0.45,0.578-0.727,1.208-1.642,0.879c-0.878-0.317-1.792-0.749-1.658-1.773
			c0.116-0.888,0.471-1.941,1.092-2.532c2.459-2.344,8.534-2.369,11.14-0.19c2.854,2.386,2.726,6.379-0.28,8.656
			C175.904,15.506,175.538,15.741,175.022,16.098z"/>
		<path fill-rule="evenodd" clip-rule="evenodd" fill="#D31245" d="M152.399,9.519c-0.618,0.64-1.392,1.191-1.82,1.939
			c-0.737,1.291-1.298,2.688-1.859,4.071c-0.23,0.566-0.233,1.4-1.078,1.165c-0.686-0.191-1.598-0.604-1.82-1.154
			c-0.27-0.673-0.116-1.678,0.192-2.392c1.467-3.381,3.86-6,7.053-7.825c2.398-1.372,4.371-0.597,4.8,2.152
			c0.397,2.542,0.382,5.187,0.235,7.767c-0.302,5.331-0.99,10.645-0.139,15.984c0.165,1.032-1.764,2.792-3.207,3.024
			c-1.353,0.217-2.304-0.387-2.361-1.986c-0.106-2.943,0.004-5.9,0.128-8.846c0.164-3.925,0.449-7.844,0.63-11.769
			c0.03-0.653-0.202-1.318-0.312-1.979C152.692,9.62,152.546,9.569,152.399,9.519z"/>
	</g>
	<g>
		<g>
			<path fill-rule="evenodd" clip-rule="evenodd" fill="#D31245" d="M55.729,324.719c-0.768,1.275-1.697,2.197-3.166,2.436
				c-1.945,0.318-3.707-0.529-4.567-2.318c-0.94-1.955-0.911-3.953,0.046-5.883c1.173-2.365,3.839-3.074,6.09-1.689
				c0.21,0.129,0.417,0.264,0.663,0.418c0.136-1.811,0.202-3.553,0.424-5.273c0.113-0.877,0.429-1.752,0.793-2.564
				s1.114-1.139,2.01-1.021c1.07,0.139,1.503,0.84,1.2,1.855c-1.197,4.025-1.535,8.109-0.74,12.252
				c0.175,0.908,0.354,1.965,1.426,2.229c1.117,0.277,1.834-0.572,2.365-1.365c0.765-1.141,1.445-2.354,2.02-3.604
				c0.51-1.105,1.133-1.945,2.423-2.039c0.666-2.541,2.486-3.537,4.943-2.834c2.005,0.574,2.667,2.283,2.923,4.176
				c0.047,0.35,0.029,0.711,0.026,1.066c-0.012,1.139,0.211,1.389,1.34,1.49c1.75,0.156,3.907-1.596,4.127-3.336
				c0.057-0.447,0.143-0.893,0.262-1.328c0.603-2.211,2.045-2.838,4.155-1.787c-0.926,2.547-0.953,5.172-0.579,7.822
				c0.062,0.441,0.159,0.906,0.369,1.289c0.163,0.299,0.52,0.666,0.801,0.676c0.299,0.008,0.825-0.324,0.879-0.584
				c0.251-1.213,0.436-2.449,0.518-3.686c0.049-0.748-0.317-1.568,0.915-1.678c1.02-0.092,1.62,0.266,1.821,1.395
				c0.168,0.949,0.2,1.924,0.311,2.885c0.04,0.35,0.094,0.707,0.202,1.041c0.278,0.865,1.055,1.092,1.589,0.363
				c0.456-0.621,0.778-1.42,0.913-2.184c0.362-2.053,0.184-2.893-0.885-6.012c1.406-1.127,2.705-0.906,3.625,0.615
				c1.338,2.209,2.946,2.801,4.912,1.854c0.654-0.316,1.035-0.717,0.912-1.488c-0.061-0.381-0.02-0.777-0.074-1.16
				c-0.179-1.229,0.242-1.746,1.582-1.895c1.168-0.131,1.925,0.434,1.967,1.58c0.051,1.406,0.012,2.814,0.012,4.297
				c0.441-0.674,0.82-1.373,1.314-1.979c0.669-0.818,1.329-1.697,2.165-2.318c1.712-1.271,3.975-0.359,4.283,1.734
				c0.2,1.361,0.103,2.768,0.131,4.152c0.016,0.773-0.027,1.551,0.029,2.322c0.085,1.154,0.543,1.414,1.605,0.906
				c1.935-0.926,3.459-2.359,4.772-4.023c0.418-0.529,0.693-1.178,1.143-1.674c0.245-0.27,0.719-0.33,1.089-0.484
				c0.089,0.365,0.372,0.842,0.236,1.076c-0.659,1.137-1.345,2.279-2.181,3.289c-1.538,1.859-3.354,3.408-5.672,4.242
				c-0.508,0.182-1.062,0.279-1.602,0.32c-1.654,0.125-2.582-0.412-2.865-2.061c-0.281-1.635-0.243-3.33-0.266-5
				c-0.015-1.119,0.11-2.24,0.173-3.361c-0.1-0.062-0.199-0.125-0.299-0.188c-0.433,0.418-1.032,0.758-1.271,1.268
				c-0.963,2.064-1.86,4.162-2.684,6.287c-0.281,0.725-0.36,1.414-1.388,1.365c-1.143-0.051-1.915-0.451-2.161-1.42
				c-0.172-0.68-0.213-1.4-0.245-2.105c-0.04-0.863-0.009-1.729-0.009-2.695c-1.722,0.969-3.41,1.061-4.906,0.129
				c-0.48,1.418-0.859,2.842-1.445,4.172c-0.492,1.121-1.408,1.912-2.639,2.264c-1.75,0.502-2.937-0.037-4.126-1.941
				c-0.32,0.416-0.603,0.83-0.934,1.203c-1.897,2.145-4.629,1.754-5.737-0.871c-0.42-0.992-0.605-2.082-0.907-3.158
				c-1.669,1.338-3.491,2.359-5.864,1.457c-0.982,2.021-2.423,3.527-4.821,3.613c-2.354,0.084-3.99-1.057-4.877-3.316
				c-0.561,0.631-1.021,1.203-1.537,1.721C60.084,328.364,57.74,328.083,55.729,324.719z M67.682,318.268
				c1.294,1.041,1.421,2.348,0.354,3.643c-0.627,0.762-0.698,2.137-0.157,3.014c0.697,1.129,1.93,1.16,2.511-0.033
				c1.004-2.064,1.129-4.25,0.278-6.387C70.075,317.018,68.627,316.954,67.682,318.268z M50.906,321.92
				c0.118,0.678,0.104,1.303,0.35,1.799c0.233,0.471,0.688,1.033,1.14,1.135c0.382,0.086,1.146-0.324,1.31-0.703
				c0.488-1.129,0.86-2.332,1.089-3.541c0.138-0.727-0.927-1.709-1.73-1.82c-0.903-0.125-1.399,0.443-1.676,1.164
				C51.139,320.604,51.048,321.315,50.906,321.92z"/>
			<path fill-rule="evenodd" clip-rule="evenodd" fill="#D31245" d="M212.595,319.127c0.678,0.295,0.838,0.723,0.588,1.295
				c-1.296,2.965-2.919,5.719-5.624,7.605c-0.828,0.578-1.936,0.969-2.943,1.035c-2.743,0.184-4.525-2.031-3.796-4.688
				c0.344-1.252,1.027-2.41,1.593-3.693c-0.665-0.158-1.425-0.338-2.219-0.527c-1.171,2.318-2.711,4.328-4.773,5.9
				c-2.297,1.754-4.779,2.363-7.512,1.08c-1.52-0.713-2.257-1.617-3.149-3.645c-1.425,1.182-2.794,2.531-4.374,3.553
				c-1.038,0.67-2.356,1.027-3.597,1.232c-1.412,0.234-2.386-0.416-2.631-1.834c-0.293-1.697-0.289-3.453-0.325-5.186
				c-0.022-1.121,0.113-2.244,0.178-3.367c-0.093-0.064-0.187-0.129-0.279-0.191c-0.416,0.381-0.905,0.709-1.236,1.154
				c-1.431,1.926-2.108,4.193-2.775,6.451c-0.202,0.684-0.301,1.299-1.231,1.299c-1.146,0.002-1.947-0.379-2.246-1.305
				c-0.193-0.604-0.25-1.25-0.37-1.889c-0.946,0.889-1.855,1.838-2.863,2.668c-1.434,1.178-2.997,2.139-4.937,2.234
				c-1.551,0.076-2.491-0.438-2.757-1.967c-0.288-1.666-0.269-3.393-0.298-5.092c-0.02-1.121,0.112-2.246,0.177-3.367
				c-0.094-0.064-0.187-0.127-0.279-0.189c-0.417,0.383-0.907,0.713-1.239,1.16c-1.43,1.926-2.1,4.195-2.777,6.451
				c-0.19,0.631-0.23,1.283-1.134,1.285c-0.958,0.004-1.857-0.121-2.249-1.129c-0.218-0.559-0.354-1.188-0.351-1.785
				c0.009-1.742,0.117-3.484,0.165-5.229c0.016-0.578,0.01-1.166-0.067-1.74c-0.157-1.172,0.239-1.678,1.535-1.852
				c1.174-0.156,1.971,0.391,2.019,1.516c0.061,1.416,0.015,2.838,0.015,4.307c0.116-0.152,0.25-0.33,0.383-0.508
				c0.811-1.082,1.563-2.213,2.447-3.232c0.918-1.057,2.154-1.277,3.453-0.814c1.264,0.451,1.558,1.584,1.617,2.742
				c0.065,1.289-0.016,2.584-0.018,3.877c0,0.676-0.007,1.357,0.059,2.029c0.096,0.986,0.529,1.25,1.444,0.824
				c2.447-1.135,4.418-2.902,5.644-5.254c0.51-0.979,0.274-2.398,0.206-3.609c-0.067-1.197,0.234-1.688,1.523-1.873
				c1.177-0.168,1.985,0.371,2.038,1.488c0.051,1.061-0.039,2.129-0.072,3.195c-0.011,0.371-0.036,0.742,0.105,1.158
				c0.489-0.736,0.929-1.514,1.483-2.199c0.604-0.746,1.228-1.527,1.995-2.084c1.729-1.25,3.977-0.342,4.275,1.76
				c0.201,1.426,0.091,2.896,0.123,4.346c0.018,0.807,0.014,1.613,0.068,2.418c0.047,0.699,0.498,1.029,1.135,0.768
				c2.441-0.998,4.285-2.752,5.693-4.928c0.395-0.609,0.304-1.512,0.575-2.227c0.687-1.807,1.808-3.197,3.846-3.58
				c1.932-0.361,3.467,0.775,3.692,2.732c0.181,1.564-0.257,2.932-1.252,4.141c-0.617,0.748-1.216,1.512-1.895,2.357
				c0.524,0.926,1.782,1.541,3.183,1.02c1.001-0.373,2.021-0.932,2.778-1.668c1.238-1.201,2.27-2.617,3.37-3.92
				c-0.189-0.283-0.24-0.406-0.329-0.486c-0.954-0.875-1.266-1.93-0.854-3.16c0.435-1.295,1.438-1.955,2.709-2.217
				c1.124-0.23,1.93,0.508,1.764,1.65c-0.105,0.723-0.399,1.416-0.65,2.262c0.961,0.154,1.96,0.307,2.955,0.475
				c2.899,0.49,3.19,1.119,1.777,3.674c-0.528,0.955-1.039,1.932-1.436,2.947c-0.252,0.646-0.416,1.432,0.266,1.969
				c0.692,0.543,1.501,0.332,2.064-0.143c0.928-0.781,1.838-1.639,2.54-2.619C210.642,322.454,211.565,320.788,212.595,319.127z
				 M188.381,322.11c1.136-1.062,2.018-2.094,2.035-3.572c0.006-0.438-0.329-0.881-0.509-1.322c-0.424,0.268-1.013,0.436-1.241,0.82
				C187.938,319.256,188.146,320.602,188.381,322.11z M200.442,315.008c-0.152-0.035-0.305-0.07-0.457-0.105
				c-0.139,0.662-0.277,1.324-0.416,1.986c0.124,0.027,0.247,0.055,0.37,0.082C200.107,316.317,200.274,315.663,200.442,315.008z"/>
			<path fill-rule="evenodd" clip-rule="evenodd" fill="#D31245" d="M141.272,317.899c2.255-0.74,3.356,0.023,3.327,2.264
				c-0.028,2.293-0.15,4.586-0.145,6.877c0.001,0.848-0.21,1.34-1.091,1.469c-0.979,0.145-1.66-0.16-1.924-1.029
				c-0.166-0.547-0.224-1.137-0.263-1.713c-0.043-0.637-0.01-1.281-0.01-2.062c-0.812,0.875-1.483,1.678-2.239,2.391
				c-0.887,0.836-1.929,1.428-3.203,1.377c-1.227-0.049-2.123-0.68-2.754-1.709c-0.196-0.32-0.373-0.652-0.604-1.061
				c-0.778,1.266-1.69,2.203-3.149,2.447c-1.954,0.326-3.71-0.498-4.583-2.279c-0.971-1.984-0.937-4.012,0.053-5.965
				c1.173-2.314,3.809-3.008,6.025-1.664c0.213,0.129,0.413,0.281,0.915,0.623c0-1.457-0.123-2.68,0.032-3.867
				c0.183-1.389,0.462-2.803,0.973-4.098c0.475-1.205,1.826-1.436,2.844-0.73c0.464,0.322,0.654,0.635,0.447,1.277
				c-1.217,3.773-1.523,7.645-0.997,11.57c0.101,0.756,0.309,1.525,0.616,2.223c0.49,1.109,1.393,1.311,2.354,0.555
				c0.5-0.395,0.979-0.869,1.32-1.4C140.302,321.704,141.678,320.108,141.272,317.899z M127.515,322.01
				c0.142,0.676,0.197,1.297,0.405,1.861c0.46,1.252,1.687,1.51,2.314,0.377c0.618-1.111,0.923-2.432,1.179-3.697
				c0.138-0.678-0.922-1.631-1.688-1.756c-0.899-0.146-1.42,0.395-1.695,1.123C127.771,320.6,127.672,321.34,127.515,322.01z"/>
			<path fill-rule="evenodd" clip-rule="evenodd" fill="#D31245" d="M12.209,320.393c-1.28,0.492-2.467,0.947-3.478,1.336
				c0.203,1.08,0.579,2.033,0.515,2.957c-0.118,1.703-1.704,3.008-3.891,3.312c-0.842,0.117-1.753,0.066-2.58-0.127
				c-1.294-0.301-1.71-1.383-1.065-2.551c0.261-0.475,0.632-0.896,1.007-1.293c0.375-0.395,0.818-0.727,1.303-1.15
				c-0.387-0.408-0.79-0.805-1.158-1.232c-1.24-1.436-1.357-3.236-0.31-4.506c1.071-1.297,3.71-1.898,5.048-1.088
				c0.211,0.127,0.393,0.766,0.287,0.873c-0.469,0.479-1.012,0.914-1.6,1.234c-0.336,0.182-0.81,0.109-1.276,0.156
				c0.071,0.973,0.826,1.35,1.406,1.873c0.659,0.594,1.264,0.725,2.133,0.309c1.152-0.551,2.411-0.879,3.71-1.334
				c0-0.336,0-0.781,0-1.199c2.001-0.9,3.363-0.074,3.343,2.02c-0.021,2.357-0.144,4.713-0.146,7.07
				c-0.001,0.791-0.157,1.293-1.005,1.443c-0.995,0.178-1.688-0.082-1.967-0.943c-0.195-0.604-0.295-1.262-0.301-1.896
				c-0.014-1.486,0.058-2.971,0.087-4.457C12.274,320.987,12.239,320.77,12.209,320.393z M5.312,324.045
				c-0.111-0.025-0.223-0.049-0.334-0.074c-0.795,0.699-1.804,1.225-2.021,2.514c1,0.145,1.746-0.145,2.15-0.91
				C5.333,325.149,5.254,324.561,5.312,324.045z"/>
			<path fill-rule="evenodd" clip-rule="evenodd" fill="#D31245" d="M19.51,316.739c-0.884-0.264-1.758-0.346-2.373-0.787
				c-0.295-0.213-0.1-1.107-0.131-1.783c1.052,0.119,1.902,0.215,2.934,0.332c0.276-1.979,0.547-3.906,0.818-5.848
				c0.035-0.014,0.092-0.057,0.148-0.057c2.696-0.006,3.406,0.811,3.019,3.49c-0.113,0.785-0.26,1.568-0.411,2.475
				c1.389,0,2.662,0,3.955,0c0.033,1.105-0.413,1.709-1.423,1.805c-0.961,0.09-1.927,0.129-2.964,0.195
				c-0.491,2.516-0.898,5.025-0.643,7.58c0.171,1.719,1.421,2.588,3.012,1.955c1.034-0.41,2.096-1.107,2.777-1.969
				c1.088-1.375,1.854-3,2.793-4.498c0.172-0.275,0.515-0.443,0.779-0.66c0.162,0.369,0.535,0.795,0.453,1.1
				c-0.785,2.938-2.138,5.57-4.746,7.291c-3.861,2.547-8.085,0.467-8.355-4.141c-0.108-1.855,0.147-3.73,0.247-5.598
				C19.418,317.28,19.483,316.94,19.51,316.739z"/>
			<path fill-rule="evenodd" clip-rule="evenodd" fill="#D31245" d="M226.318,322.877c-0.087,1.039-0.129,1.977-0.253,2.904
				c-0.186,1.381-0.878,2-1.981,1.891c-0.488-0.049-0.75-0.227-0.771-0.771c-0.053-1.316-0.158-2.633-0.246-4.002
				c-1.011-0.09-2.002-0.141-2.983-0.271c-1.384-0.186-1.998-0.865-1.894-1.979c0.044-0.469,0.185-0.762,0.749-0.781
				c1.348-0.049,2.693-0.16,4.063-0.246c0.052-0.955,0.076-1.857,0.16-2.754c0.046-0.477,0.141-0.963,0.31-1.408
				c0.271-0.715,0.825-1.082,1.606-0.93c0.737,0.143,1.04,0.605,1.043,1.383c0.005,1.191,0.121,2.383,0.193,3.648
				c0.981,0.066,1.973,0.084,2.949,0.213c1.419,0.186,2.04,0.949,1.747,2.002c-0.155,0.561-0.444,0.869-1.082,0.885
				C228.74,322.692,227.554,322.799,226.318,322.877z"/>
			<path fill-rule="evenodd" clip-rule="evenodd" fill="#D31245" d="M39.263,321.077c1.07,0.053,2.654,0.061,4.221,0.234
				c1.334,0.146,1.923,1.17,1.401,2.268c-0.125,0.262-0.498,0.574-0.762,0.578c-2.866,0.045-5.736,0.088-8.602,0.01
				c-1.281-0.033-1.83-0.719-1.857-1.791c-0.018-0.67,0.227-1.021,0.931-1.051C35.98,321.268,37.365,321.18,39.263,321.077z"/>
			<path fill-rule="evenodd" clip-rule="evenodd" fill="#D31245" d="M15.83,314.461c0.018,0.914-1.126,2.117-2.042,2.15
				c-0.781,0.029-1.537-1.014-1.56-2.148c-0.017-0.852,0.781-1.469,1.916-1.482C15.131,312.969,15.813,313.569,15.83,314.461z"/>
		</g>
		<g>
			<path fill-rule="evenodd" clip-rule="evenodd" fill="#D31245" d="M298.15,323.032c-1.551,1.318-3,2.764-4.664,3.891
				c-1.021,0.691-2.344,1.066-3.582,1.275c-1.518,0.256-2.482-0.395-2.748-1.926c-0.287-1.666-0.268-3.393-0.297-5.094
				c-0.018-1.121,0.111-2.244,0.176-3.367c-0.094-0.062-0.186-0.125-0.279-0.188c-0.418,0.385-0.908,0.717-1.24,1.164
				c-1.43,1.928-2.1,4.197-2.777,6.453c-0.189,0.635-0.238,1.258-1.137,1.287c-1.154,0.039-1.994-0.299-2.287-1.227
				c-0.248-0.783-0.305-1.629-0.463-2.547c-0.309,0.367-0.598,0.734-0.91,1.078c-1.676,1.842-3.484,3.486-6.09,3.836
				c-3.219,0.432-5.918-1.357-6.863-4.502c-0.045-0.15-0.127-0.289-0.125-0.283c-1.184,1.105-2.312,2.316-3.604,3.316
				c-0.896,0.693-1.97,1.252-3.052,1.592c-1.615,0.51-3.04-0.021-3.759-1.555c-0.671-1.43-1.176-3.025-1.332-4.59
				c-0.384-3.832,0.461-7.461,2.612-10.695c0.539-0.811,1.291-1.561,2.106-2.088c1.611-1.039,3.369-0.057,3.223,1.859
				c-0.113,1.451-0.501,2.934-1.06,4.283c-0.858,2.082-1.952,4.066-2.971,6.08c-0.543,1.072-0.13,3.449,0.773,4.201
				c0.588,0.49,1.245,0.445,1.79,0.031c0.947-0.717,1.904-1.455,2.707-2.322c1.285-1.389,2.488-2.822,3.08-4.729
				c0.555-1.783,1.824-3.021,3.773-3.373c1.877-0.338,3.396,0.797,3.637,2.701c0.248,1.963-0.504,3.537-1.877,4.863
				c-0.484,0.469-1.01,0.898-1.514,1.342c0.957,1.391,2.207,1.963,3.662,1.271c1.246-0.594,2.422-1.473,3.406-2.451
				c0.971-0.965,1.811-2.135,2.418-3.359c0.365-0.734,0.273-1.752,0.205-2.627c-0.09-1.168,0.264-1.678,1.559-1.848
				c1.174-0.154,1.979,0.396,2.01,1.523c0.033,1.258-0.072,2.518-0.115,3.777c-0.006,0.16,0,0.32,0,0.771
				c0.299-0.449,0.443-0.701,0.621-0.928c0.869-1.115,1.621-2.363,2.654-3.303c1.855-1.691,4.334-0.771,4.678,1.701
				c0.182,1.301,0.061,2.643,0.076,3.967c0.01,0.773-0.023,1.551,0.035,2.32c0.086,1.096,0.549,1.373,1.551,0.865
				c0.799-0.404,1.586-0.881,2.273-1.453c0.84-0.697,1.627-1.482,2.336-2.312c1.426-1.67,1.783-2.828,1.771-5.174
				c-0.752-0.414-1.936,0.365-2.396-0.727c-0.201-0.475-0.035-1.102-0.035-1.717c1.051,0.119,1.902,0.217,2.91,0.33
				c0.275-1.977,0.541-3.881,0.807-5.801c2.266-0.457,3.309,0.361,3.209,2.654c-0.045,1.023-0.258,2.041-0.408,3.17
				c1.311,0,2.59,0,3.865,0c0.025,1.254-0.244,1.666-1.32,1.818c-0.986,0.141-1.988,0.154-3.219,0.242
				c-0.162,2.383-0.451,4.754-0.453,7.127c0,2.283,1.738,3.293,3.707,2.141c1.104-0.645,2.074-1.648,2.855-2.678
				c0.85-1.115,1.395-2.459,2.109-3.684c0.133-0.227,0.441-0.354,0.67-0.525c0.184,0.262,0.52,0.521,0.527,0.789
				c0.088,3.055-3.951,7.965-6.967,8.527c-3.121,0.58-5.383-0.947-6.043-4.084C298.271,323.723,298.203,323.315,298.15,323.032z
				 M259.069,310.202c-1.206,0.74-2.564,5.5-2.242,7.66C258.328,315.536,259.483,311.668,259.069,310.202z M268.494,321.819
				c0.09,0.029,0.18,0.057,0.27,0.086c1.111-1.031,2.018-2.186,1.908-3.834c-0.021-0.322-0.291-0.799-0.551-0.881
				c-0.262-0.084-0.785,0.139-0.957,0.389c-0.316,0.457-0.578,1.021-0.643,1.564C268.418,320.024,268.494,320.926,268.494,321.819z"
				/>
			<path fill-rule="evenodd" clip-rule="evenodd" fill="#D31245" d="M408.336,316.086c2.98-0.734,3.646-0.211,3.531,2.684
				c-0.051,1.324-0.178,2.646-0.164,3.969c0.002,0.418,0.244,1,0.566,1.193c0.24,0.145,0.869-0.109,1.178-0.363
				c1.145-0.943,2.062-2.016,1.945-3.68c-0.088-1.25-0.018-2.514-0.016-3.77c2.201-0.566,3.295,0.246,3.273,2.523
				c-0.012,1.322-0.24,2.645-0.227,3.963c0.01,0.719,0.326,1.434,0.504,2.15c0.615-0.408,1.393-0.693,1.812-1.248
				c1.109-1.461,2.092-3.021,3.07-4.574c1.121-1.777,2.557-3.041,4.744-3.24c1.201-0.109,2.367,0.068,3.295,0.828
				c0.498,0.408,1.037,1.121,1.029,1.688c-0.006,0.479-0.777,0.945-1.27,1.482c-0.434-0.539-0.691-0.9-0.992-1.225
				c-0.84-0.902-1.869-0.877-2.678,0.043c-1.211,1.381-1.328,4.557-0.207,6.023c0.531,0.695,1.244,1.092,2.115,0.834
				c0.826-0.242,1.67-0.527,2.402-0.965c2.08-1.244,3.816-2.908,5.152-4.912c0.551-0.824,0.699-1.914,0.992-2.775
				c-1.033-0.311-1.908-0.393-2.521-0.838c-0.297-0.213-0.1-1.109-0.127-1.777c1.053,0.117,1.902,0.213,2.932,0.33
				c0.277-1.984,0.547-3.914,0.828-5.932c0.584,0.043,1.197,0.035,1.787,0.143c0.9,0.164,1.42,0.824,1.395,1.936
				c-0.031,1.252-0.215,2.498-0.342,3.857c1.24,0,2.514,0,3.775,0c0.092,1.201-0.168,1.648-1.17,1.803
				c-1.014,0.156-2.049,0.186-3.359,0.293c-0.148,2.443-0.42,4.91-0.406,7.373c0.01,1.908,1.463,2.818,3.219,2.08
				c0.945-0.398,1.879-1.076,2.527-1.865c0.973-1.186,1.785-2.533,2.475-3.908c0.336-0.672,0.24-1.561,0.344-2.381
				c1.936-0.811,3.234-0.004,3.213,2.107c-0.023,2.359-0.15,4.719-0.145,7.076c0.002,0.818-0.209,1.277-1.037,1.418
				c-0.994,0.172-1.686-0.105-1.951-0.977c-0.193-0.637-0.234-1.328-0.297-1.998c-0.045-0.467-0.008-0.938-0.008-1.455
				c-0.947,1.018-1.756,2.012-2.693,2.863c-1.166,1.059-2.611,1.549-4.191,1.457c-2.77-0.16-4.469-1.975-4.771-5.027
				c-0.047-0.475-0.064-0.953-0.334-1.617c-0.145,0.232-0.262,0.49-0.439,0.693c-1.594,1.814-3.381,3.418-5.611,4.371
				c-1.068,0.457-2.305,0.795-3.447,0.75c-2.729-0.107-4.18-1.615-4.797-4.607c-0.723,0.801-1.359,1.664-2.156,2.34
				c-0.693,0.59-1.518,1.152-2.377,1.395c-1.539,0.432-2.688-0.346-3.193-1.889c-0.076-0.234-0.15-0.471-0.213-0.666
				c-0.59,0.547-1.15,1.129-1.775,1.627c-0.422,0.336-0.91,0.623-1.414,0.816c-2.031,0.785-3.576-0.195-3.738-2.354
				c-0.041-0.533-0.006-1.07,0.115-1.365c-0.637,0.486-1.264,0.982-1.91,1.455c-0.518,0.377-1.027,0.791-1.596,1.078
				c-1.742,0.877-2.713,0.447-3.398-1.248c-0.887,0.826-1.723,1.902-2.811,2.559c-2.633,1.584-5.418-0.035-5.555-3.102
				c-0.178-4.012,2.854-7.658,6.492-7.814c1.256-0.055,2.346,0.334,3.275,1.184c0.781,0.713,1.207,1.486,0.936,2.641
				c-0.225,0.957-0.254,1.988-0.197,2.977c0.061,1.059,0.803,1.393,1.578,0.678c1.107-1.023,2.191-2.121,3.039-3.357
				c0.369-0.537,0.152-1.494,0.15-2.262C408.49,317.096,408.395,316.616,408.336,316.086z M396.686,323.266
				c0.148,0.279,0.275,0.873,0.57,0.977c0.305,0.105,0.818-0.209,1.16-0.451c0.303-0.217,0.566-0.553,0.727-0.895
				c0.623-1.336,1.248-2.678,1.758-4.061c0.125-0.342-0.062-1.061-0.33-1.215c-0.299-0.17-0.986-0.045-1.275,0.211
				C397.729,319.221,397.043,321.077,396.686,323.266z"/>
			<path fill-rule="evenodd" clip-rule="evenodd" fill="#D31245" d="M491.74,322.708c-0.33-0.303-0.686-0.629-0.938-0.859
				c-1.346,1.371-2.648,2.844-4.105,4.141c-1.41,1.254-3.047,2.184-5.023,2.258c-1.445,0.055-2.398-0.451-2.643-1.867
				c-0.295-1.697-0.291-3.453-0.328-5.186c-0.023-1.123,0.113-2.246,0.178-3.369c-0.092-0.066-0.186-0.131-0.277-0.195
				c-0.416,0.379-0.904,0.705-1.234,1.146c-1.432,1.926-2.109,4.193-2.777,6.451c-0.203,0.682-0.293,1.303-1.227,1.305
				c-1.145,0.002-1.943-0.379-2.252-1.299c-0.162-0.482-0.225-1.008-0.27-1.518c-0.043-0.512-0.01-1.027-0.01-1.701
				c-1.818,1.408-3.631,2.471-5.996,1.549c-0.805,1.574-1.828,3.047-3.676,3.396c-1.031,0.195-2.213,0.156-3.213-0.148
				c-2.049-0.627-3.312-2.955-3.111-5.27c0.184-2.125,0.951-3.119,2.695-3.494c0.639-2.471,2.434-3.518,4.939-2.797
				c2.002,0.576,2.662,2.289,2.912,4.184c0.051,0.383,0.086,0.789,0.012,1.16c-0.197,0.99,0.41,1.24,1.174,1.365
				c1.926,0.312,4.438-1.809,4.451-3.764c0.004-0.516,0.002-1.037-0.068-1.545c-0.164-1.182,0.227-1.682,1.521-1.861
				c1.176-0.162,1.979,0.383,2.027,1.504c0.062,1.418,0.016,2.838,0.016,4.289c0.088-0.104,0.217-0.238,0.328-0.389
				c0.83-1.109,1.596-2.27,2.496-3.316c0.912-1.061,2.15-1.285,3.451-0.826c1.266,0.447,1.564,1.578,1.623,2.738
				c0.068,1.289-0.014,2.584-0.016,3.875c0,0.678-0.008,1.359,0.057,2.031c0.096,0.99,0.527,1.256,1.439,0.836
				c2.418-1.115,4.221-2.938,5.656-5.139c0.15-0.232,0.121-0.613,0.098-0.92c-0.105-1.395,0.402-2.496,1.619-3.168
				c1.322-0.729,2.74-0.99,4.17-0.305c0.189,0.092,0.363,0.711,0.264,0.814c-0.467,0.482-0.994,0.939-1.578,1.266
				c-0.334,0.188-0.818,0.109-1.312,0.158c0.029,0.959,0.805,1.316,1.363,1.854c0.686,0.658,1.312,0.707,2.219,0.318
				c1.26-0.541,2.625-0.848,3.965-1.182c0.488-0.121,1.074-0.105,1.117,0.662c-1.73,0.602-3.447,1.199-5.27,1.832
				c0.938,1.326,1.256,2.598,0.537,3.926c-0.809,1.498-2.219,2.129-3.818,2.312c-0.752,0.088-1.561,0.039-2.297-0.139
				c-1.385-0.338-1.854-1.49-1.051-2.68C490.164,324.276,490.973,323.557,491.74,322.708z M458.475,318.198
				c1.287,1.031,1.424,2.404,0.395,3.605c-0.666,0.779-0.74,2.199-0.16,3.092c0.695,1.07,1.891,1.105,2.457-0.033
				c1.041-2.09,1.168-4.305,0.283-6.471C460.865,316.959,459.461,316.901,458.475,318.198z M490.732,326.448
				c1.023,0.066,1.791-0.174,2.18-0.963c0.213-0.43,0.131-1.006,0.182-1.516c-0.113-0.021-0.225-0.041-0.338-0.061
				C491.969,324.6,490.984,325.125,490.732,326.448z"/>
			<path fill-rule="evenodd" clip-rule="evenodd" fill="#D31245" d="M323.66,317.165c1.348,2.146,3.066,3.803,5.229,5.273
				c0.656-1.396,1.283-2.725,1.926-4.09c1.191-0.059,1.707,0.473,1.35,1.666c-0.35,1.164-0.865,2.279-1.385,3.619
				c1.193,0.498,2.477,1.035,3.875,1.621c-0.207,0.559-0.357,1.186-0.658,1.73c-0.482,0.869-1.275,1.32-2.273,1.055
				c-0.861-0.23-1.736-0.52-2.506-0.957c-0.709-0.404-1.158-0.436-1.85,0.094c-1.977,1.512-4.246,1.99-6.684,1.438
				c-4.223-0.957-6.305-5.609-4.094-9.336c0.711-1.197,1.764-2.211,2.75-3.223c0.455-0.467,0.57-0.848,0.527-1.496
				c-0.086-1.336-0.162-2.719,0.1-4.014c0.307-1.508,1.42-2.508,2.932-2.939c1.518-0.434,2.91-0.158,3.994,1.021
				c1.064,1.164,1.268,2.619,0.578,3.967c-0.604,1.18-1.539,2.199-2.385,3.242C324.688,316.329,324.154,316.711,323.66,317.165z
				 M321.504,319.516c-1.762,2.055-1.934,4.604-0.453,6.053c1.008,0.984,3.35,1.066,4.996-0.527
				C324.535,323.204,323.031,321.374,321.504,319.516z M322.055,313.467c0.107,0.031,0.215,0.062,0.322,0.094
				c0.492-0.449,1.055-0.844,1.455-1.363c0.459-0.596,0.92-1.262,1.119-1.971c0.268-0.947-0.496-1.549-1.355-1.074
				c-0.545,0.303-1.146,0.859-1.305,1.42C322.033,311.487,322.115,312.497,322.055,313.467z"/>
			<path fill-rule="evenodd" clip-rule="evenodd" fill="#D31245" d="M374.625,321.233c-2.008,1.059-3.996,1.021-5.922,0.184
				c-0.773,1.338-1.439,2.662-2.277,3.869c-0.502,0.723-1.203,1.363-1.939,1.855c-1.166,0.783-2.205,0.525-2.812-0.75
				c-0.623-1.299-1.041-2.699-1.516-4.066c-0.498-1.43-0.926-2.883-1.451-4.303c-0.197-0.527-0.109-0.893,0.34-1.119
				c0.65-0.328,1.318-0.721,2.02-0.83c1.396-0.215,2.363,0.525,2.479,1.945c0.117,1.439,0.018,2.898,0.018,4.348
				c0,0.484-0.043,0.979,0.039,1.449c0.055,0.314,0.295,0.596,0.453,0.893c0.303-0.199,0.646-0.357,0.895-0.611
				c0.191-0.195,0.305-0.496,0.383-0.771c0.326-1.145,0.666-2.289,0.918-3.451c0.088-0.406-0.07-0.863-0.104-1.297
				c-0.068-0.828-0.252-1.67-0.158-2.479c0.113-0.971,0.871-1.518,1.738-1.504c0.98,0.016,1.525,0.652,1.623,1.496
				c0.111,0.975,0.078,1.996-0.092,2.961c-0.111,0.633,0.055,0.9,0.566,1.105c1.248,0.5,2.51,0.566,3.779,0.096
				c0.785-0.291,1.324-0.752,1.611-1.631c0.611-1.871,1.756-3.295,3.832-3.701c1.984-0.389,3.52,0.766,3.738,2.775
				c0.209,1.93-0.549,3.465-1.889,4.766c-0.484,0.469-1.01,0.896-1.514,1.34c0.959,1.391,2.137,1.816,3.684,1.316
				c1.707-0.551,2.9-1.789,3.982-3.125c0.707-0.875,1.309-1.84,1.912-2.793c0.289-0.457,0.652-0.877,1.127-0.518
				c0.268,0.203,0.457,0.939,0.297,1.209c-0.9,1.514-1.789,3.068-2.926,4.402c-1.479,1.74-3.295,3.092-5.691,3.387
				c-3.523,0.434-6.549-1.916-6.98-5.434C374.748,321.932,374.688,321.62,374.625,321.233z M378.613,322.043
				c1.131-1.068,2.018-2.098,2.033-3.576c0.006-0.439-0.33-0.881-0.51-1.322c-0.424,0.268-1.012,0.438-1.242,0.82
				C378.166,319.188,378.377,320.534,378.613,322.043z"/>
			<path fill-rule="evenodd" clip-rule="evenodd" fill="#D31245" d="M353.201,317.858c2.191-0.787,3.377-0.021,3.354,2.115
				c-0.027,2.488-0.133,4.975-0.154,7.461c-0.006,0.725-0.469,0.861-0.969,0.969c-0.771,0.17-1.553,0.115-1.9-0.717
				c-0.24-0.58-0.346-1.244-0.385-1.877c-0.062-0.994-0.016-1.996-0.016-3.252c-0.4,0.463-0.625,0.797-0.92,1.053
				c-1.43,1.242-2.748,2.678-4.348,3.643c-2.572,1.555-4.895,0.643-5.793-2.24c-1.664-5.336-0.766-10.324,2.504-14.863
				c0.297-0.41,0.711-0.756,1.123-1.059c0.789-0.578,1.672-0.932,2.611-0.391c0.967,0.559,1.217,1.541,1.014,2.529
				c-0.283,1.381-0.617,2.781-1.168,4.072c-0.85,1.98-1.893,3.879-2.875,5.803c-0.543,1.064-0.152,3.527,0.816,4.162
				c0.385,0.252,1.084,0.32,1.508,0.15c0.668-0.27,1.279-0.754,1.814-1.254c0.752-0.705,1.447-1.477,2.105-2.271
				C352.5,320.711,353.703,319.608,353.201,317.858z M345.033,317.897c1.197-2.418,2.549-4.789,2.215-7.66
				C345.42,312.467,345.383,315.229,345.033,317.897z"/>
			<path fill-rule="evenodd" clip-rule="evenodd" fill="#D31245" d="M239.259,322.805c-0.502-0.539-0.98-0.979-1.37-1.486
				c-1.593-2.066-0.807-4.682,1.702-5.377c0.922-0.256,1.974-0.219,2.938-0.096c0.834,0.107,1.018,0.672,0.461,1.314
				c-0.371,0.43-0.964,0.701-1.503,0.938c-0.337,0.146-0.761,0.094-1.2,0.137c-0.063,0.898,0.665,1.238,1.163,1.736
				c0.767,0.768,1.522,0.875,2.548,0.357c1.075-0.543,2.29-0.812,3.519-1.227c0-0.381,0-0.826,0-1.244
				c2.141-0.82,3.349-0.02,3.322,2.191c-0.027,2.324-0.152,4.648-0.145,6.973c0.003,0.826-0.222,1.287-1.048,1.406
				c-0.837,0.121-1.613,0.014-1.902-0.893c-0.213-0.664-0.311-1.387-0.329-2.086c-0.046-1.643-0.016-3.287-0.016-5.1
				c-1.222,0.465-2.432,0.928-3.67,1.398c1.783,2.609,0.665,5.625-3.37,6.217c-0.716,0.105-1.495,0.047-2.202-0.119
				c-1.494-0.352-1.918-1.488-1.096-2.797c0.271-0.434,0.627-0.82,0.986-1.188C238.406,323.497,238.818,323.184,239.259,322.805z
				 M238.041,326.114c0.095,0.109,0.189,0.217,0.284,0.326c0.813,0.111,1.556-0.139,1.96-0.848c0.253-0.443,0.192-1.064,0.272-1.607
				c-0.142-0.055-0.283-0.111-0.425-0.166C239.436,324.584,238.738,325.35,238.041,326.114z"/>
			<path fill-rule="evenodd" clip-rule="evenodd" fill="#D31245" d="M507.031,309.35c-0.416,3.781-0.834,7.562-1.25,11.344
				c-0.078,0.711-0.342,1.252-1.16,1.289c-0.838,0.041-1.287-0.465-1.379-1.201c-0.291-2.268-0.576-4.541-0.742-6.82
				c-0.115-1.605-0.09-3.229-0.02-4.838c0.062-1.42,0.777-2.18,1.912-2.268C506.207,306.715,506.961,307.463,507.031,309.35z"/>
			<path fill-rule="evenodd" clip-rule="evenodd" fill="#D31245" d="M504.844,323.577c1.318-0.004,2.271,0.678,2.26,1.611
				c-0.018,1.254-1.414,2.727-2.59,2.725c-1.078,0-2.117-1.238-2.094-2.496C502.438,324.364,503.471,323.579,504.844,323.577z"/>
			<path fill-rule="evenodd" clip-rule="evenodd" fill="#D31245" d="M353.18,314.389c-0.014-0.85,0.789-1.467,1.922-1.479
				c0.984-0.01,1.666,0.592,1.68,1.486c0.016,0.912-1.131,2.115-2.045,2.146C353.957,316.569,353.199,315.52,353.18,314.389z"/>
			<path fill-rule="evenodd" clip-rule="evenodd" fill="#D31245" d="M449.689,314.389c-0.016-0.85,0.787-1.467,1.92-1.479
				c0.986-0.01,1.666,0.592,1.682,1.486c0.014,0.912-1.133,2.115-2.047,2.146C450.465,316.569,449.709,315.52,449.689,314.389z"/>
			<path fill-rule="evenodd" clip-rule="evenodd" fill="#D31245" d="M249.393,312.911c0.985-0.004,1.662,0.602,1.671,1.496
				c0.01,0.914-1.146,2.115-2.056,2.137c-0.776,0.02-1.535-1.043-1.548-2.164C247.451,313.538,248.268,312.917,249.393,312.911z"/>
			<path fill-rule="evenodd" clip-rule="evenodd" fill="#D31245" d="M142.91,312.911c0.985-0.004,1.662,0.602,1.671,1.496
				c0.01,0.914-1.146,2.115-2.056,2.137c-0.776,0.02-1.535-1.043-1.548-2.164C140.969,313.538,141.785,312.917,142.91,312.911z"/>
		</g>
	</g>
	<g>
		<g>
			<path fill="#A0002E" d="M94.339,136.066c0.192-0.05,0.475,0.078,0.657,0c0.161-0.068,0.463-0.569,0.659-0.658
				c0.639-0.294,1.647-0.428,1.975-0.659c0.143-0.101,0.509-0.512,0.655-0.658c0.469-0.469,1.066-0.99,1.315-1.317
				c0.224-0.287,0.108-0.667,0.33-0.984c0.168-0.249,0.473-0.344,0.658-0.66c0.197-0.339,0.132-0.595,0.33-0.987
				c0.089-0.176,0.565-0.444,0.658-0.66c0.076-0.181-0.048-0.464,0-0.657c0.162-0.651,0.57-1.845,0.657-2.631
				c0.181-1.585,0.281-3.566,0-4.935c-0.003-0.025-0.304,0.021-0.33,0c-0.087-0.07,0.043-0.542,0-0.658
				c-0.078-0.223-0.319-0.472-0.327-0.659c-0.021-0.364-0.251-0.167-0.33-0.33c-0.218-0.443-0.059-0.923-0.33-1.315
				c-0.276-0.4-1.189-0.886-1.644-1.313c-0.514-0.489-0.746-1.289-1.314-1.317c-0.37-0.019-0.16-0.235-0.329-0.33
				c-0.545-0.292-1.445-0.411-2.305-0.657c-2.481-0.713-5.983-0.844-8.881-0.329c0.157,4.932-0.073,11.041-0.33,14.803
				c-0.127,1.873,0.062,3.744,0,5.265c-0.029,0.716-0.487,1.364,0,1.971C89.368,136.837,92.277,136.581,94.339,136.066
				 M93.023,99.548c0.506-0.203,1.892-0.433,2.302-0.659c0.047-0.025-0.032-0.287,0-0.329c0.093-0.109,0.545,0.094,0.66,0
				c0.312-0.255,0.563-0.895,0.987-1.317c0.42-0.418,1.169-0.772,1.313-0.984c0.206-0.302,0.382-1.304,0.659-1.977
				c0.062-0.149,0.25-0.009,0.33-0.328c0.115-0.461,0.197-0.66,0.328-0.989c0.034-0.079-0.003-0.241,0-0.33
				c0.019-0.286,0.314-0.261,0.33-0.328c0.135-0.585-0.076-1.574,0-2.304c0.034-0.333,0.265-0.381,0.33-0.657
				c0.09-0.38,0.011-0.925,0-1.315c-0.047-1.688-0.725-4.451-1.317-4.937c-0.105-0.088-0.255-0.876-0.328-0.985
				c-0.413-0.647-2.508-2.939-2.96-2.96c-0.37-0.019-0.155-0.237-0.329-0.329c-0.44-0.238-0.851-0.171-1.315-0.33
				c-0.397-0.135-0.474-0.302-0.987-0.33c-0.265-0.014-0.291-0.322-0.33-0.329c-1.479-0.265-2.987,0.195-4.606,0
				c-0.388,0.161-0.744,0.352-0.985,0.659c-0.304,6.934-0.409,14.068-0.658,21.054C88.189,100.18,91.994,99.959,93.023,99.548
				 M69.008,146.921v-3.289c0.729-0.042,0.138-1.395,0.33-1.976c-0.003-15.987,0.751-33.813,0.984-49.347
				c0.065-4.242,0.1-9.069,0.33-12.172c0.208-2.79-0.062-5.313,0-7.897c0.069-2.955-0.091-6.133,1.645-8.554
				c3.555-0.584,7.172-0.329,10.858-0.329c3.959,0,8.001-0.344,11.517,0c0.016,0.002-0.019,0.31,0,0.329
				c0.056,0.068,0.556-0.014,0.657,0c1.235,0.177,1.562,0.165,2.304,0.33c0.205,0.048,0.448-0.051,0.656,0
				c0.188,0.048,0.322,0.329,0.329,0.33c0.595,0.145,1.321,0.134,1.974,0.328c0.608,0.184,0.977,0.575,1.317,0.659
				c0.419,0.104,0.415,0.087,0.658,0.33c0.056,0.054,0.262-0.042,0.33,0c0.496,0.305,1.064,0.605,1.644,0.987
				c0.316,0.208,0.398,0.461,0.66,0.659c0.265,0.202,0.71,0.107,0.985,0.328c0.425,0.339,0.851,0.85,1.315,1.317
				c0.4,0.398,1.027,0.954,1.317,1.313c0.21,0.262,0.145,0.748,0.33,0.987c0.187,0.246,0.46,0.358,0.656,0.658
				c2.754,4.178,5.647,12.942,3.95,19.739c-0.049,0.206,0.032,0.449,0,0.659c-0.196,1.275-0.332,2.539-0.656,3.619
				c-0.011,0.028-0.262,0.156-0.33,0.33c-0.299,0.75-0.376,1.361-0.656,1.973c-0.301,0.652-0.372,1.01-0.66,1.647
				c-0.05,0.109-0.576,0.201-0.657,0.328c-0.1,0.157,0.075,0.487,0,0.659c-0.108,0.243-0.635,0.236-0.66,0.658
				c-0.019,0.347-2.055,2.306-1.972,2.303c-0.383,0.019-0.148,0.157-0.33,0.33c-0.628,0.585-1.365,1.037-1.973,1.641
				c-0.33,0-0.393,0.266-0.657,0.33c-0.347,0.021-0.261,0.423,0.33,0.33c0.316,0.414,0.92,0.509,1.314,0.658
				c3.858,1.46,6.534,3.727,8.554,6.909c1.67,2.631,2.456,5.322,2.959,8.554c0.723,4.615,0.137,9.51-0.986,13.159
				c-0.249,0.815-0.767,2.29-0.987,2.631c-0.503,0.791-0.589,1.648-0.987,1.971c-0.105,0.09,0.083,0.54,0,0.66
				c-0.158,0.23-0.472,0.38-0.658,0.658c-0.383,0.576-0.699,0.931-0.986,1.317c-1.173,1.576-2.109,2.682-3.29,3.618
				c-1.386,1.104-2.833,1.948-4.277,2.633c-2.641,1.258-5.992,1.396-9.54,1.645c-6.635,0.464-12.909-0.118-20.065-0.33
				c-4.225-0.125-6.941,0.291-7.238-3.291C69.319,147.049,69.285,146.865,69.008,146.921"/>
			<path fill="#A0002E" d="M203.239,63.36h6.908c2.46,0,4.633-0.252,6.582,0.328c0.569,2.649,0.326,5.543,0.326,8.226
				c0,3.867-0.093,7.953-0.326,11.513c-0.414,6.189,0.268,12.588,0,18.755c-0.146,3.273-0.57,6.337-0.33,9.538
				c0.143,0.481,0.289-0.033,0.656,0c-0.273-0.771,0.636-0.845,0.987-1.312c0.262-0.352,0.404-0.993,0.657-1.317
				c0.215-0.271,0.448-0.316,0.66-0.657c0.283-0.464,0.803-0.996,1.313-1.646c0.355-0.451,0.685-0.941,0.987-1.315
				c0.312-0.385,0.645-0.561,0.986-0.986c0.206-0.258,0.112-0.697,0.33-0.987c0.141-0.193,1.28-0.604,1.314-1.317
				c0.027-0.479,0.896-0.8,1.316-1.315c0.306-0.375,0.349-0.945,0.657-1.317c0.32-0.383,1.012-0.598,1.316-0.987
				c0.094-0.115-0.108-0.567,0-0.659c0.293-0.235,1.607-0.891,1.645-1.642c0.053-1,2.571-2.296,3.287-3.29
				c1.495,0.349,2.292,2.066,3.291,3.29c0.259,0.314,0.747,0.683,0.987,0.985c0.178,0.229,0.52,0.459,0.657,0.657
				c0.084,0.12-0.106,0.57,0,0.659c0.271,0.224,0.955,0.381,0.986,0.987c0.021,0.423,0.479,0.42,0.66,0.658
				c0.087,0.119-0.109,0.57,0,0.659c0.458,0.372,0.666,0.316,0.657,1.646c0,0.199,0.131,1.186,0,1.314
				c-0.277,0.277-0.43,0.299-0.657,0.657c-0.305,0.479-1.009,1.491-1.644,2.302c-0.486,0.623-1.13,1-1.647,1.644
				c-0.165,0.208-0.174,0.419-0.33,0.657c-0.111,0.184-0.625,0.876-0.983,1.317c-0.489,0.598-1.174,1.051-1.647,1.644
				c-0.165,0.207-0.174,0.42-0.33,0.659c-0.844,1.328-3.032,3.579-3.947,4.936c2.556,3.185,5.14,7.097,8.226,11.187
				c0.271,0.358,0.928,0.82,1.316,1.317c0.228,0.288,0.088,0.729,0.327,0.987c0.134,0.14,0.548,0.178,0.66,0.327
				c0.225,0.299,0.087,0.729,0.327,0.985c0.134,0.148,0.548,0.182,0.66,0.33c0.227,0.297,0.09,0.729,0.33,0.987
				c0.13,0.142,0.548,0.184,0.656,0.33c0.225,0.3,0.115,0.708,0.33,0.987c0.178,0.233,0.452,0.394,0.66,0.659
				c0.607,0.795,2.6,3.21,2.628,4.278c0.04,1.553-1.134,2.609-2.304,3.951c-0.078,0.09-0.616,0.243-0.654,0.33
				c-0.189,0.42-0.192,0.828-0.66,1.314c-0.457,0.479-1.148,0.845-1.644,1.317c-0.716,0.669-2.242,1.912-3.291,2.958
				c-0.896,0.898-2.658,3.921-4.274,2.303c-0.268-0.268-0.1-0.657-0.33-0.987c-0.146-0.206-0.535-0.464-0.66-0.66
				c-0.168-0.271-0.131-0.66-0.327-0.986c-0.124-0.204-0.563-0.478-0.66-0.658c-0.202-0.375-0.134-0.655-0.33-0.987
				c-0.121-0.207-0.56-0.475-0.656-0.659c-0.202-0.376-0.128-0.655-0.33-0.984c-0.134-0.223-0.535-0.461-0.657-0.66
				c-0.168-0.274-0.131-0.657-0.33-0.987c-0.134-0.224-0.532-0.461-0.657-0.657c-0.305-0.495-0.604-0.984-0.986-1.646
				c-0.38-0.657-0.775-1.441-1.317-2.302c-0.124-0.201-0.56-0.478-0.656-0.659c-0.203-0.376-0.125-0.657-0.33-0.987
				c-0.134-0.221-0.536-0.461-0.657-0.657c-0.165-0.268-0.131-0.672-0.33-0.987c-0.137-0.218-0.535-0.46-0.657-0.657
				c-0.158-0.252-0.134-0.697-0.329-0.989c-0.3-0.443-1-0.865-1.317-1.317c-0.346-0.49-0.626-1.119-0.987-1.644
				c-0.199-0.292-0.473-0.419-0.656-0.657c-0.199-0.258-0.112-0.696-0.33-0.987c-0.318-0.435-0.966-0.859-1.314-1.317
				c-0.361-0.47-0.52-0.937-0.986-1.317c-0.788,4.271-0.044,9.271-0.33,14.147c-0.047,0.808-0.29,1.535-0.33,2.304
				c-0.097,1.896,0.323,3.674-0.33,5.263c-1.666,0.94-4.303,0.914-6.906,0.985c-2.487,0.071-5.195,0.112-7.238-0.33
				c-1.037-2.008-0.38-3.957-0.33-5.918c0.175-6.458-0.202-14.216,0.33-20.726c0.523-6.399-0.105-13.889,0.327-20.069
				c0.458-6.488-0.097-13.647,0.33-19.74c0.464-6.59-0.645-13.551,0.33-18.424c0.021-0.104-0.075-0.596,0-0.657
				c0.137-0.114,0.42,0.003,0.33-0.33C202.436,63.874,202.766,63.545,203.239,63.36"/>
			<path fill="#A0002E" d="M145.669,125.537c-0.016-0.199-0.048-0.388-0.327-0.325c-0.333-0.094-0.218,0.187-0.33,0.325
				c-0.063,0.083-0.548-0.026-0.656,0c-0.602,0.157-1.326,0.374-1.975,0.66c-0.329,0.148-0.625,0.134-0.986,0.33
				c-0.178,0.098-0.458,0.531-0.657,0.657c-0.488,0.308-1.198,0.6-1.646,0.987c-0.763,0.665-1.242,1.66-1.643,2.304
				c-0.056,0.085-0.229,0.176-0.33,0.327c-0.216,0.33-0.216,0.542-0.328,0.99c-0.125,0.495-0.293,0.598-0.33,1.314
				c-0.013,0.246-0.327,0.314-0.329,0.328c-0.365,2.573,0.516,5.126,1.317,5.923c0.603,0.604,1.159,0.783,1.973,0.985
				c0.15,0.041,0.375,0.338,0.33,0.33c2.084,0.354,4.23-1.021,5.921-1.972v-13.164H145.669z M159.816,148.237
				c-3.234,0.722-5.543,0.178-8.224,0.329c-1.842,0.101-3.812,0.339-5.594,0.658c-2.453,0.439-4.898,1.376-7.238,1.974
				c-2.701,0.689-5.514,1.392-8.225,0.987c-0.017,0-0.079-0.314-0.33-0.327c-0.124-0.009-0.918,0.084-0.986,0
				c-0.235-0.293-1.02-0.361-1.646-0.66c-0.233-0.11-0.461-0.536-0.657-0.66c-0.726-0.451-1.608-0.881-2.301-1.972
				c-0.112-0.174-0.257-0.216-0.33-0.329c-0.479-0.731-0.627-1.499-0.986-2.302c-0.069-0.154-0.312,0.029-0.329-0.327
				c-0.02-0.364-0.431-1.163-0.658-1.977c-0.149-0.542-0.194-0.744-0.33-1.314c-0.358-1.512-0.579-5.453-0.328-7.896
				c0.124-1.214,0.588-3.011,0.986-4.608c0.072-0.29,0.291-0.215,0.33-0.33c0.238-0.708,0.327-1.547,0.658-2.301
				c0.067-0.151,0.309,0.026,0.327-0.33c0.01-0.152,0.246-0.478,0.33-0.657c0.259-0.556,0.573-0.97,0.987-1.643
				c0.262-0.428,0.601-0.693,0.986-1.317c0.334-0.542,0.984-0.985,1.645-1.646c0.47-0.472,0.679-1.072,0.986-1.315
				c0.117-0.09,0.57,0.109,0.659,0c0.092-0.107,0.22-0.585,0.33-0.658c0.119-0.08,0.571,0.107,0.658,0
				c0.076-0.095,0.236-0.603,0.327-0.659c0.43-0.25,0.862-0.093,1.316-0.329c0.199-0.1,0.489-0.576,0.657-0.657
				c0.474-0.226,0.815-0.125,1.317-0.33c0.143-0.056-0.021-0.311,0.326-0.33c0.091-0.003,0.248,0.033,0.329,0
				c0.475-0.187,1.212-0.386,2.304-0.657c1.562-0.389,5.07-0.953,7.896-0.66c0.366-1.502-0.043-3.884-0.658-5.592
				c-0.362-1.015-0.963-2.479-1.974-3.289c-0.11-0.092-0.565,0.11-0.658,0c-0.05-0.061-0.279-0.635-0.327-0.659
				c-0.775-0.322-2.013-0.286-2.961-0.328c-1.064-0.048-2.228-0.092-3.289,0c-2.547,0.219-5.092,1.443-7.567,1.315
				c-0.635-1.362-0.522-2.759-0.983-4.605c-0.091-0.352-0.237-0.912-0.33-1.974c-0.131-1.448-0.828-3.984,0.656-5.265
				c0.109-0.096,0.563,0.109,0.656,0c0.076-0.093,0.24-0.604,0.329-0.657c0.432-0.246,1.745-0.434,2.303-0.66
				c0.875-0.349,3.231-0.928,4.935-1.315c3.32-0.758,9.602-0.501,12.504,0.659c0.115,0.048,0.58-0.089,0.656,0
				c0.028,0.034-0.034,0.316,0,0.33c0.699,0.265,1.551,0.633,1.973,0.658c0.428,0.022,0.412,0.491,0.658,0.659
				c0.118,0.083,0.57-0.106,0.659,0c0.26,0.321,0.315,0.411,0.658,0.66c0.398,0.288,0.598,0.672,0.987,0.987
				c0.784,0.63,1.081,0.431,1.644,1.312c0.149,0.233,0.669,0.573,0.987,0.987c0.659,0.865,1.335,2.415,1.974,3.621
				c0.09,0.167,0.308-0.042,0.328,0.327c0.005,0.09-0.032,0.248,0,0.33c0.099,0.233,0.285,0.227,0.328,0.33
				c0.207,0.479,0.134,1.083,0.33,1.644c0.041,0.12,0.312-0.001,0.327,0.329c0.006,0.092-0.032,0.249,0,0.33
				c1.479,3.692,1.946,10.268,1.974,15.791c0.026,4.542,0,9.138,0,13.817c0,2.212-0.184,4.415-0.326,6.579
				C160.663,144.415,161.104,146.59,159.816,148.237"/>
			<path fill="#A0002E" d="M196.33,109.416c-5.094,1.009-8.388,1.552-10.856,4.936c-0.184,0.251-0.511,0.447-0.66,0.657
				c-0.084,0.117,0.109,0.571,0,0.658c-0.04,0.033-0.302-0.046-0.326,0c-0.069,0.119,0.1,0.571,0,0.657
				c-0.038,0.033-0.312-0.041-0.33,0c-0.057,0.118,0.097,0.578,0,0.657c-0.586,0.479-0.726,2.242-0.987,3.62
				c-0.01,0.043-0.314,0.059-0.33,0.328c-0.184,3.529-0.317,9.339-0.657,13.489c-0.457,5.567,0.95,11.219-0.33,15.791
				c-1.743,1.046-4.458,0.657-7.238,0.657c-2.644,0-5.566,0.252-7.565-0.33c-0.573-2.824-0.33-5.909-0.33-8.881
				c0-2.935-0.212-5.958,0-8.883c0.06-0.772,0.293-1.458,0.33-2.301c0.523-11.498-0.878-23.31,0.657-33.883
				c3.387-1.681,9.112-0.8,13.16-0.33c1.087,2.316,0.526,6.273,0.657,9.538c0.451-0.319,0.463-0.83,0.659-1.315
				c0.003-0.011,0.28-1.278,0.33-1.314c0.034-0.031,0.312,0.034,0.327,0c0.199-0.497,0.109-1.081,0.33-1.644
				c0.053-0.137,0.309,0.013,0.327-0.33c0.028-0.467,0.598-1.133,0.99-1.645c0.766-1.004,1.728-2.578,2.957-3.62
				c0.262-0.223,0.691-0.104,0.99-0.33c0.14-0.104,0.196-0.577,0.33-0.657c0.118-0.07,0.573,0.101,0.657,0
				c0.529-0.647,2.479-1.042,3.951-1.317c1.167-0.218,2.008-0.517,2.63,0.658c0.081,0.156,0.249,0.017,0.33,0.33
				c0.128,0.517-0.105,1.124,0,1.644C197.093,100.049,196.259,105.275,196.33,109.416"/>
			<path fill="#A0002E" d="M346.984,136.394c0.299-0.016,0.246-0.308,0.326-0.329c1.17-0.302,2.26-0.529,2.631-0.988
				c0.09-0.109,0.545,0.087,0.66,0c0.152-0.115,0.174-0.526,0.33-0.659c0.984-0.85,3.229-2.494,3.287-3.619
				c0.021-0.364,0.252-0.168,0.33-0.33c0.895-1.865,1.572-5.693,1.316-7.896c-0.102-0.881-0.965-2.559-0.986-2.962
				c-0.021-0.363-0.252-0.165-0.33-0.329c-0.217-0.447-0.059-0.924-0.33-1.317c-0.184-0.266-0.75-0.422-0.986-0.655
				c-0.266-0.265-0.365-0.763-0.66-0.987c-0.691-0.533-2.908-1.611-3.617-1.647c-0.303-0.016-0.244-0.305-0.33-0.329
				c-0.398-0.109-0.904,0.045-1.318,0c-2.004-0.226-5.152-0.54-7.234,0c-0.596,2.517-0.33,5.378-0.33,8.224
				c0,5.009-0.074,9.832-0.33,13.817C342.363,136.778,344.857,136.507,346.984,136.394 M346,99.548c0.064-0.083,0.859,0.006,0.984,0
				c0.322-0.018,0.217-0.292,0.33-0.33c1.273-0.419,1.5-0.411,1.973-0.987c0.088-0.105,0.539,0.09,0.658,0
				c0.789-0.576,1.684-1.974,2.301-3.288c1.119-2.371,1.773-6.937,0.986-9.54c-0.162-0.535,0.033-0.689-0.326-0.987
				c-0.092-0.073,0.045-0.54,0-0.658c-0.225-0.561-0.639-0.934-0.66-1.315c-0.02-0.378-0.215-0.148-0.328-0.33
				c-0.268-0.428-0.43-1.057-0.66-1.315c-0.354-0.4-1.881-1.378-2.301-1.646c-0.859-0.548-1.615-0.934-2.633-0.987
				c-0.26-0.014-0.297-0.324-0.324-0.33c-1.314-0.226-2.756,0.168-4.277,0c-0.393,0.16-0.75,0.352-0.99,0.658
				c-0.021,0.008-0.328-0.009-0.328,0c-0.217,2.393,0.109,5.039,0,7.567c-0.047,1.042-0.268,1.904-0.33,2.962
				c-0.217,3.586,0.166,7.164,0,10.856C342.227,99.671,345.383,100.302,346,99.548 M326.588,63.36
				c9.297,0.465,18.848-1.029,25.99,0.987c0.109,0.033,0.588-0.081,0.658,0c0.023,0.029-0.031,0.321,0,0.328
				c0.951,0.277,1.637,0.215,2.303,0.659c0.262,0.174,0.787,0.349,1.314,0.659c0.314,0.185,0.41,0.485,0.656,0.658
				c0.121,0.083,0.57-0.107,0.66,0c0.305,0.377,1.477,1.466,2.301,1.976c0.436,0.269,0.602,0.38,0.986,0.985
				c0.041,0.067,1.293,1.192,1.314,1.646c0.006,0.101,0.256,0.543,0.33,0.658c0.143,0.213,0.535,0.461,0.66,0.659
				c1.965,3.14,3.092,7.245,3.617,12.172c0.277,2.565,0.262,5.856-0.33,8.882c-0.049,0.265-0.258,0.346-0.33,0.659
				c-0.064,0.308,0.094,0.687,0,0.985c-0.027,0.103-0.307,0.016-0.326,0.33c-0.006,0.088,0.035,0.246,0,0.33
				c-0.174,0.437-0.576,2.132-0.986,2.959c-0.082,0.167-0.309-0.033-0.33,0.33c-0.021,0.428-0.486,0.419-0.658,0.66
				c-0.084,0.118,0.107,0.57,0,0.657c-0.111,0.09-0.582,0.218-0.656,0.33c-0.08,0.118,0.104,0.57,0,0.659
				c-0.498,0.403-0.729,0.988-1.316,1.642c-1.094,1.216-2.74,1.943-3.949,3.29c1.053,0.182,1.785,0.775,2.631,0.987
				c0.193,0.046,0.475-0.078,0.658,0c0.221,0.093,0.477,0.565,0.66,0.658c0.273,0.145,0.641,0.145,0.982,0.33
				c0.234,0.126,0.459,0.528,0.658,0.659c3.676,2.396,6.529,6.86,7.568,12.5c0.152,0.832,0.215,1.657,0.33,2.634
				c0.205,1.765,0.236,3.426,0,5.591c-0.131,1.177-0.131,2.259-0.33,3.288c-0.01,0.043-0.314,0.058-0.33,0.328
				c-0.006,0.125,0.088,0.918,0,0.989c-0.377,0.311,0,0.988-0.33,1.317c-0.027,0.031-0.318-0.033-0.326,0
				c-0.271,0.878-0.184,1.56-0.658,2.302c-0.059,0.089-0.332,0.33-0.33,0.33c-0.221,0.512-0.131,1.222-0.33,1.643
				c-0.068,0.151-0.604,0.207-0.656,0.327c-0.18,0.402-0.068,0.967-0.33,1.317c-0.121,0.164-0.551,0.178-0.656,0.33
				c-0.084,0.12,0.105,0.57,0,0.659c-0.131,0.101-0.564,0.204-0.66,0.33c-0.303,0.401-0.365,0.973-0.66,1.317
				c-0.244,0.285-0.732,0.381-0.984,0.658c-0.592,0.637-1.016,1.463-1.645,1.973c-0.275,0.222-0.721,0.123-0.988,0.327
				c-0.26,0.199-0.344,0.45-0.658,0.659c-0.236,0.159-0.723,0.132-0.986,0.33c-0.434,0.325-0.268,0.478-0.99,0.658
				c0.016-0.001-0.963,0.302-0.984,0.33c-0.699,0.856-3.496,1.091-5.264,1.315c-5.396,0.691-10.533,0.624-16.779,0.33
				c-0.529-0.026-1.123,0.093-1.643,0c-0.318-0.058-0.498-0.307-0.988-0.33c-3.537-0.165-7.439,0.539-11.186-0.987
				c-0.242-0.839-0.564-1.527-0.656-2.303c-0.701-6.009,0.332-12.651,0.332-19.093c0-3.454,0.199-7.074,0.33-10.854
				c0.121-3.489-0.104-7.161,0-10.86c0.178-6.377,0.396-13.756,0.66-21.384c0.096-2.896-0.193-7.112,0-11.185
				c0.037-0.856,0.293-1.702,0.326-2.633c0.094-2.352-0.084-5.568,0.988-6.908C325.42,64.158,325.943,63.861,326.588,63.36"/>
			<path fill="#A0002E" d="M424.293,106.457c-0.334,0.036-0.59,0.199-0.988,0.33c-0.363,0.12-1.037,0.329-1.643,0.659
				c-0.367,0.201-0.375,0.442-0.66,0.658c-0.564,0.435-1.283,0.349-1.314,0.985c-0.02,0.386-0.188,0.145-0.33,0.33
				c-0.822,1.076-0.887,1.258-1.314,2.303c-0.037,0.092-0.238,0.104-0.33,0.328c-0.033,0.084,0.008,0.243,0,0.33
				c-0.018,0.335-0.283,0.199-0.33,0.329c-2.014,5.506-1.48,13.07,0.33,18.097c0.26,0.719,0.355,1.382,0.658,1.971
				c0.094,0.177,0.541,0.459,0.656,0.658c0.1,0.167-0.078,0.487,0,0.66c0.047,0.1,0.58,0.22,0.66,0.33
				c0.215,0.288,0.109,0.669,0.33,0.987c0.178,0.259,0.744,0.439,0.986,0.659c0.766,0.685,1.293,1.063,2.301,1.315
				c1.639,0.409,4.334,0.696,6.252-0.659c0.174-9.476-0.377-19.678,0.33-28.621C427.854,106.673,426.141,106.254,424.293,106.457
				 M445.348,64.348c1.104,2.849,0.66,6.322,0.66,10.198c0,10.455-0.221,21.302-0.33,31.911c-0.109,10.626-0.65,20.836-0.986,31.583
				c-0.051,1.616-0.189,3.247-0.33,4.936c-0.125,1.518,0.264,3.233-0.656,4.605c-2.225,1.264-5.057,0.462-8.227,0.66
				c-1.684,0.104-3.291,0.327-4.936,0.657c-2.256,0.455-4.148,1.322-6.25,1.976c-0.711,0.221-1.523,0.442-2.301,0.657
				c-0.113,0.031-0.592-0.081-0.658,0c-0.324,0.392-0.75,0.174-1.977,0.33c-0.43,0.053-0.602,0.364-1.645,0.33
				c-0.572-0.023-0.715-0.265-1.312-0.33c-0.92-0.103-1.324,0.009-2.301-0.33c-0.121-0.042,0-0.312-0.33-0.33
				c-0.551-0.031-0.365-0.179-0.658-0.33c-0.262-0.131-0.666-0.146-0.986-0.33c-0.227-0.126-0.461-0.532-0.66-0.657
				c-0.75-0.465-2.145-1.335-2.961-2.302c-0.324-0.383-0.398-0.943-0.656-1.314c-0.084-0.118-0.611-0.227-0.66-0.33
				c-0.074-0.167,0.1-0.507,0-0.657c-0.119-0.178-0.535-0.168-0.656-0.33c-0.088-0.115,0.107-0.568,0-0.657
				c-0.045-0.036-0.303,0.045-0.33,0c-0.068-0.12,0.102-0.574,0-0.657c-0.039-0.034-0.309,0.041-0.33,0
				c-0.053-0.12,0.1-0.581,0-0.658c-0.039-0.033-0.307,0.042-0.33,0c-0.381-0.752-0.621-1.733-0.984-2.634
				c-0.059-0.14-0.309,0.022-0.33-0.327c-0.027-0.514-0.199-0.583-0.33-0.987c-0.436-1.376-0.953-2.69-1.314-4.277
				c-0.07-0.313,0.066-0.673,0-0.989c-0.096-0.434-0.209-0.643-0.326-1.644c-0.012-0.098,0.064-0.602,0-0.655
				c-0.412-0.336-0.184-0.844-0.33-1.977c-0.398-3.07-0.439-8.518,0-12.17c0.012-0.1-0.068-0.604,0-0.66
				c0.318-0.262,0.264-0.445,0.33-0.987c0.01-0.1-0.068-0.601,0-0.657c0.32-0.261,0.262-0.447,0.326-0.987
				c0.014-0.098-0.068-0.603,0-0.659c0.52-0.425,0.598-2.393,0.988-3.619c0.033-0.106,0.311-0.009,0.33-0.33
				c0.006-0.125,0.111-1.466,0.33-1.644c0.037-0.033,0.307,0.04,0.326,0c0.057-0.12-0.096-0.579,0-0.659
				c0.303-0.245,0.51-0.595,0.656-0.987c0.047-0.117-0.086-0.585,0-0.657c0.037-0.033,0.314,0.039,0.33,0
				c0.053-0.118-0.094-0.579,0-0.658c0.041-0.031,0.312,0.042,0.33,0c0.057-0.117-0.1-0.578,0-0.657c0.041-0.034,0.305,0.042,0.33,0
				c0.062-0.12-0.1-0.577,0-0.658c0.32-0.265,0.439-0.271,0.658-0.657c0.236-0.422,0.395-0.915,0.658-1.317
				c0.15-0.233,0.502-0.447,0.658-0.657c0.146-0.203,0.17-0.448,0.33-0.659c0.273-0.364,0.672-0.588,0.984-0.987
				c0.322-0.408,0.305-0.878,0.658-1.317c0.285-0.35,0.701-0.716,0.988-0.987c0.264-0.246,0.678-0.098,0.99-0.327
				c0.189-0.146,0.604-1.283,1.312-1.317c0.066-0.003,0.277,0.033,0.33,0c0.34-0.227,0.717-0.834,0.988-0.988
				c0.117-0.067,0.572,0.101,0.656,0c0.031-0.038-0.041-0.31,0-0.329c0.119-0.058,0.578,0.095,0.656,0
				c0.506-0.617,3.326-1.288,4.936-1.317c0.924-0.016,2.102,0.152,2.961,0.33c0.715,0.146,1.658,0.431,2.301,0.658
				c1.311,0.465,2.502,1.476,3.951,1.974c0.389-8.707-0.131-17.616,0.33-26.647c0.08-1.605-0.156-3.394,0.986-4.608
				c1.139-0.96,4.686-0.691,7.896-0.659C441.777,63.714,444.211,63.486,445.348,64.348"/>
			<path fill="#A0002E" d="M388.762,67.967c0.016-0.001,0.1-0.299,0.33-0.328c1.975-0.26,4.17,0.137,5.266,0.657
				c0.158,0.076-0.035,0.31,0.33,0.33c0.17,0.008,1.941,1.427,1.973,1.972c0.025,0.475,0.623,0.711,0.658,1.317
				c-0.016-0.271,0.277,1.602,0.33,1.646c0.021,0.019,0.322-0.02,0.326,0c0.178,1.066,0.215,2.92,0,4.276
				c-0.004,0.025-0.314,0.075-0.326,0.33c-0.041,0.761-0.066,0.98-0.33,1.646c-0.094,0.232-0.291,0.232-0.33,0.328
				c-0.193,0.459-0.084,0.871-0.328,1.317c-0.076,0.139-0.605,0.212-0.66,0.329c-0.07,0.159,0.104,0.525,0,0.659
				c-0.541,0.705-1.611,1.303-2.631,1.972c-0.199,0.131-0.473,0.557-0.658,0.659c-0.119,0.067-0.57-0.1-0.658,0
				c-0.295,0.359-0.992,0.808-1.643,0.987c-1.162,0.317-4.631,0.627-6.25,0c-0.137-0.053,0.014-0.312-0.33-0.329
				c-0.424-0.021-0.416-0.549-0.656-0.658c-0.691-0.309-0.748-0.221-1.316-0.987c-0.455-0.608-0.996-1.429-1.318-2.631
				c-0.43-1.622-0.588-3.747-0.326-5.265c0.004-0.033,0.311-0.067,0.326-0.328c0.051-0.897,0.322-1.243,0.66-1.974
				c0.156-0.338,0.633-0.803,0.658-1.317c0.023-0.478,2.35-2.572,2.961-2.962c0.154-0.098,0.242-0.279,0.33-0.327
				c0.279-0.167,0.641-0.134,0.986-0.33c0.209-0.119,0.473-0.561,0.656-0.659C387.324,68.008,387.818,68.144,388.762,67.967"/>
			<path fill="#A0002E" d="M394.029,95.93c0.963,1.327,0.889,3.017,0.988,4.608c0.535,8.585-0.33,18.637-0.33,27.305
				c0,5.702-0.213,10.727-0.33,16.778c-0.035,1.697,0.27,3.705-0.658,5.263c-1.674,1.032-4.502,1-7.238,0.989
				c-2.752-0.013-5.477-0.065-7.238-0.989c-0.947-2.016-0.744-4.323-0.66-6.58c0.084-2.159,0.297-4.328,0.33-6.579
				c0.068-4.53-0.566-10.681,0.33-14.804c0.32-1.482,0-4.173,0-6.251c0-4.549,0.234-9.322,0.326-13.817
				c0.045-2.136-0.631-4.698,0.988-5.922c1.635-0.47,4.617-0.327,7.568-0.327C390.271,95.602,392.445,95.356,394.029,95.93"/>
			<path fill="#A0002E" d="M270.473,48.44c0.055-0.014,0.068-0.299,0.33-0.329c1.658-0.196,3.951,0.132,5.264,0.659
				c0.119,0.045,0.582-0.092,0.66,0c0.025,0.031-0.033,0.314,0,0.328c0.734,0.266,1.629,0.338,2.301,0.659
				c0.162,0.075-0.031,0.308,0.33,0.327c0.648,0.036,2.887,2.688,3.287,3.621c0.234,0.539,0.34,0.879,0.33,1.646
				c-0.021,1.837-1.02,2.428-1.973,3.618c-0.588,0.735-1.293,1.41-1.971,2.304c-0.34,0.442-0.664,0.889-0.99,1.646
				c-0.115,0.272-0.166,0.632-0.33,0.987c-0.084,0.181-0.168,0.777-0.326,0.987c-0.123,0.162-0.553,0.177-0.658,0.33
				c-0.225,0.314-0.084,0.721-0.33,0.987c-1.164,1.25-2.955,1.664-5.264,0.658c-0.15-0.065,0.023-0.31-0.33-0.328
				c-0.521-0.027-1.109-0.631-1.645-0.989c-0.277-0.184-0.43-0.498-0.656-0.658c-0.119-0.081-0.57,0.109-0.66,0
				c-0.617-0.758-2.924-1.224-4.275-1.973c-0.172-0.098,0.043-0.31-0.326-0.328c-0.932-0.05-1.664-1.847-1.648-3.291
				c0.01-0.845,0.062-1.229,0.33-2.301c-0.002,0.011,0.299-0.964,0.33-0.989c0.406-0.33,0.576-1.359,0.988-1.974
				c0.205-0.305,0.629-0.531,0.986-0.987c0.514-0.656,0.738-1.412,0.986-1.646c0.197-0.181,0.691-0.642,0.988-0.659
				c0.42-0.021,0.414-0.549,0.656-0.66c0.402-0.179,0.965-0.065,1.316-0.327c0.135-0.101,0.199-0.587,0.328-0.659
				c0.438-0.249,0.846-0.104,1.316-0.328c0.162-0.077-0.031-0.312,0.33-0.33C270.244,48.434,270.375,48.463,270.473,48.44"/>
			<path fill="#A0002E" d="M292.846,53.045c0.039-0.008,0.061-0.316,0.33-0.33c1.406-0.073,4.174-0.067,5.262,0.659
				c0.506,0.336,1.758,0.97,2.303,1.646c0.672,0.828,1.225,2.571,1.645,4.276c0.424,1.7,0.896,3.764,0.656,5.263
				c-0.201,1.269-1.273,2.654-2.301,3.62c-0.363,0.342-0.693,0.777-0.986,0.987c-0.119,0.084-0.57-0.109-0.66,0
				c-0.588,0.719-3.119,2.273-4.605,2.302c-0.713,0.016-1.967-0.344-2.631-0.658c-0.162-0.075,0.031-0.31-0.33-0.327
				c-0.473-0.026-0.709-0.627-1.312-0.658c-0.072-0.003-0.275,0.034-0.33,0c-0.393-0.238-0.598-0.75-0.988-0.987
				c-0.121-0.073-0.572,0.103-0.66,0c-0.406-0.5-0.605-0.531-1.316-0.988c-0.18-0.118,0.053-0.308-0.326-0.329
				c0.021,0.001-1.111-0.687-1.318-0.987c-0.084-0.12,0.107-0.571,0-0.659c-0.037-0.031-0.307,0.042-0.33,0
				c-0.055-0.12,0.098-0.581,0-0.658c-0.416-0.341-0.174-0.669-0.328-1.317c-0.062-0.267-0.334-0.33-0.33-0.657
				c0.008-0.537,0.254-0.561,0.33-0.987c0.127-0.724,0.049-1.051,0.328-1.646c0.076-0.159,0.309,0.031,0.33-0.329
				c0.029-0.531,0.637-1.099,0.988-1.645c0.178-0.279,0.639-0.627,0.656-0.987c0.016-0.28,0.498-0.729,0.656-0.987
				c0.129-0.207,0.182-0.444,0.33-0.657c0.33-0.469,0.668-0.649,0.988-0.987c0.342-0.361,0.631-1.064,0.986-1.315
				c0.119-0.083,0.57,0.107,0.66,0c0.027-0.04-0.043-0.31,0-0.33c0.119-0.058,0.576,0.095,0.656,0
				C291.547,52.955,291.764,53.246,292.846,53.045"/>
			<path fill="#A0002E" d="M247.775,80.351c-1.195-2.972-1.89-6.446-1.644-10.856c0.956-1.155,1.781-2.657,3.288-3.621
				c0.158-0.098,0.242-0.278,0.33-0.33c0.504-0.299,0.975-0.599,1.644-0.987c0.286-0.165,0.629-0.139,0.987-0.329
				c0.196-0.103,0.488-0.579,0.656-0.658c1.807-0.839,5.496,1.194,6.909,1.974c0.488,0.27,0.957,0.417,1.316,0.659
				c0.182,0.125-0.053,0.31,0.328,0.33c0.416,0.022,0.43,0.462,0.66,0.658c0.109,0.095,0.562-0.112,0.656,0
				c0.193,0.237,0.488,0.444,0.656,0.659c0.092,0.115-0.107,0.568,0,0.659c0.039,0.031,0.312-0.042,0.33,0
				c0.057,0.118-0.096,0.579,0,0.658c0.029,0.022,0.322-0.029,0.33,0c0.162,0.588,0.197,2.503,0,3.29
				c-0.07,0.29-0.223,0.565-0.33,0.987c-0.07,0.294-0.285,0.21-0.33,0.329c-0.369,1.079-0.986,2.255-1.643,3.291
				c-0.137,0.216-0.533,0.461-0.658,0.659c-0.306,0.5-0.509,1.021-0.986,1.642c-0.477,0.626-1.108,1.325-1.973,1.974
				c-0.185,0.139-0.483,0.561-0.657,0.658c-0.122,0.067-0.576-0.101-0.66,0c-0.236,0.293-1.706,0.669-2.631,0.659
				c0.071,0.001-0.149-0.321-0.33-0.33c-0.529-0.029-1.441,0.19-2.301,0c-0.06-0.012-0.047-0.314-0.327-0.33
				c-0.09-0.003-0.249,0.031-0.33,0c-0.33-0.131-0.529-0.213-0.99-0.328c-0.401-0.102-0.725-0.408-0.986-0.659
				C248.996,80.919,248.209,80.594,247.775,80.351"/>
			<path fill="#A0002E" d="M276.727,70.481c0,0,0.094-0.313,0.33-0.329c1.975-0.146,5.48-0.207,7.236,0.329
				c0.043,0.014,0.109,0.272,0.33,0.33c0.688,0.17,0.75,0.03,1.646,0.329c0.111,0.039,0,0.311,0.326,0.328
				c0.084,0.005,0.256-0.033,0.33,0c0.225,0.102,0.471,0.554,0.658,0.659c0.121,0.067,0.576-0.1,0.656,0
				c0.164,0.198,0.908,0.965,1.32,0.987c0.541,0.03,1.137,0.942,1.641,1.315c0.305,0.224,0.725,0.086,0.99,0.33
				c0.148,0.139,0.174,0.536,0.326,0.659c0.26,0.205,0.697,0.11,0.988,0.328c0.211,0.159,1.297,1.247,1.643,1.646
				c0.381,0.436,0.619,1.069,0.99,1.644c0.365,0.57,0.711,1.13,0.986,1.644c0.113,0.213,0.559,0.474,0.658,0.659
				c0.18,0.339,0.221,0.672,0.326,0.987c0.457,1.333,0.398,3.853-0.326,5.263c-0.586,1.137-2.143,2.234-3.289,3.291
				c-0.268,0.244-0.383,0.763-0.658,0.985c-0.113,0.092-0.568-0.109-0.658,0c-0.094,0.112-0.217,0.582-0.33,0.659
				c-0.117,0.083-0.57-0.106-0.656,0c-0.072,0.087-0.246,0.613-0.33,0.658c-0.439,0.241-0.863,0.089-1.316,0.329
				c-0.168,0.092,0.039,0.311-0.328,0.33c-0.293,0.016-0.875,0.378-1.316,0.658c-0.305,0.196-1.514,0.671-2.305,0.989
				c-0.211,0.084-0.252,0.3-0.326,0.328c-0.832,0.316-1.809,0.391-2.635,0.659c-0.107,0.033-0.006,0.312-0.326,0.33
				c-0.764,0.037-0.98,0.062-1.646,0.327c-0.381,0.154-0.76,0.162-1.314,0.33c-0.34,0.102-0.797,0.171-1.316,0.33
				c-0.654,0.199-3.258,0.741-4.605,0.987c-0.309,0.055-0.691-0.092-0.986,0c-2.385,0.719-6.791,0.218-8.883-0.987
				c-0.178-0.101,0.043-0.308-0.33-0.33c-0.436-0.025-0.514-0.632-0.986-0.657c-0.523-0.031-0.764-0.757-0.988-0.987
				c-0.311-0.326-0.652-1.801-0.986-2.632c-0.539-1.348-0.31-4.231,0.326-6.581c0.025-0.087,0.312-0.025,0.33-0.328
				c0.004-0.089-0.033-0.248,0-0.33c0.154-0.38,0.16-0.758,0.33-1.315c0.045-0.148,0.645-1.77,0.988-2.302
				c0.23-0.366,0.514-1.564,0.986-2.303c1.039-1.63,2.338-5.23,3.947-6.579c0.365-0.307,1.326-0.641,1.975-0.987
				c0.188-0.098,0.502-0.591,0.656-0.658c0.184-0.078,0.467,0.048,0.66,0c0.309-0.077,0.189-0.276,0.328-0.33
				C273.184,70.928,274.887,70.728,276.727,70.481"/>
			<path fill="#A0002E" d="M300.016,122.632c0.002,0.021,0.277,0.11,0.33,0.327c0.105,0.423,0.258,0.697,0.33,0.985
				c0.047,0.194-0.078,0.478,0,0.66c0.064,0.154,0.551,0.481,0.656,0.659c0.096,0.165-0.078,0.486,0,0.659
				c0.035,0.068,0.582,0.258,0.656,0.328c0.598,0.563,0.848,1.158,1.648,1.317c0.852,0.17,1.533-0.056,2.631-0.33
				c0.584-2.06,0.33-4.35,0.33-6.909v-7.239C301.098,109.965,299.035,117.267,300.016,122.632 M314.162,91.707
				c0.598,2.721,0.33,5.713,0.33,8.553c0,2.942,0.178,5.943,0,8.882c-0.184,3.015-0.094,7.59-0.33,11.517
				c-0.062,1.008-0.283,1.95-0.33,2.96c-0.131,3.017,0.529,6.18-0.656,8.879c-2.123,0.713-3.863,0.104-5.596,0.33
				c-3.135,0.406-5.225,2.228-8.223,1.646c0.031,0.005-0.164-0.29-0.33-0.33c-0.902-0.227-1.211-0.479-1.971-0.988
				c-0.186-0.122,0.051-0.305-0.33-0.329c-0.635-0.033-0.369-0.603-0.66-0.988c-0.115-0.156-0.557-0.178-0.656-0.329
				c-0.08-0.117,0.105-0.568,0-0.66c-1.389-1.136-2.404-5.076-2.631-7.564c-0.32-3.473,0.135-6.51,0.986-9.212
				c0.229-0.711,0.346-1.303,0.66-1.971c0.084-0.184,0.172-0.778,0.328-0.987c0.102-0.138,0.582-0.199,0.656-0.33
				c0.209-0.36,0.143-0.665,0.33-0.986c0.695-1.202,2.83-3.482,4.607-3.951c2.084-0.549,3.758-0.08,6.25,0.985
				c0.629-3.795,0.08-8.596,0.33-13.157c0.018-0.291-0.086-0.711,0-0.987c0.076-0.262,0.316-0.332,0.328-0.659
				C308.428,90.849,312.473,91.344,314.162,91.707"/>
			<path fill="#A0002E" d="M252.312,127.237c0.009,0.025,0.305-0.025,0.33,0c0.276,0.274,0.108,0.99,0.33,1.317
				c1.338,0.702,2.823,0.115,3.95-0.33v-6.579C253.935,121.818,251.761,124.56,252.312,127.237 M263.828,132.829
				c-6.311-0.716-9.24,1.948-15.131,1.646c0.025-0.372-0.445-0.191-0.66-0.33c-0.124-0.083-0.221-0.608-0.326-0.658
				c-0.138-0.062-0.561,0.1-0.66,0c-0.104-0.102,0.108-0.565,0-0.659c-0.626-0.511-0.854-1.146-1.317-2.301
				c-0.464-1.163-0.579-5.168,0-6.909c0.04-0.115,0.312,0,0.33-0.327c0.034-0.623,0.626-1.04,0.657-1.647
				c0.031-0.556,0.952-0.667,0.986-1.315c0.038-0.707,1.339-1.25,1.975-1.646c0.189-0.118,0.488-0.575,0.656-0.659
				c0.237-0.115,1.396-0.025,1.645-0.33c0.591-0.725,3.179-0.747,4.604-0.66c0.404-0.797,0.068-2.088-0.33-2.958
				c-0.206-0.46-0.411-1.068-0.654-1.315c-0.276-0.275-0.896-0.201-0.986-0.658c-2.759-0.343-4.24,0.587-6.582,0.658
				c-0.044-1.929-0.766-3.18-0.657-5.263c0.94-1.027,2.46-1.345,3.948-1.646c1.703-0.344,3.624-0.594,5.265-0.33
				c0.025,0.003,0.075,0.316,0.33,0.33c0.984,0.052,2.08,0.416,2.961,0.985c0.18,0.122-0.053,0.312,0.326,0.33
				c0.496,0.028,1.623,1.423,1.974,1.974c0.236,0.372,0.367,0.685,0.66,0.985c0.422,0.445,0.74,2.477,0.982,3.621
				c0.016,0.056,0.318,0.046,0.33,0.327c0.152,2.869,0.33,7.203,0.33,11.188C264.484,127.945,264.777,130.729,263.828,132.829"/>
			<path fill="#A0002E" d="M288.832,133.487c-1.697,0.716-4.68,0.148-6.908,0.328c-0.77-3.956,0.615-11.094,0-16.448
				c-0.035-0.275-0.271-0.551-0.33-0.985c-0.121-0.928,0.002-1.308-0.328-2.302c-0.037-0.115-0.311-0.002-0.33-0.329
				c-0.055-1.062-1.998-1.835-3.621-0.989c-1.039,0.271-0.621,1.633-0.656,2.303c-0.127,2.372,0,5.408,0,8.226
				c0,3.729,0.377,7.531-0.66,10.196c-1.793,0.361-5.168,0.658-6.904,0c-0.596-2.559-0.33-5.386-0.33-8.224
				c0-2.723-0.166-5.508,0-8.224c0.059-0.942,0.285-1.729,0.33-2.631c0.096-2.207-0.334-4.324,0.33-6.251
				c2.822-0.912,4.209,0.347,6.908-0.327c0.289-0.071,0.562-0.226,0.982-0.33c-0.012,0.003,0.967-0.3,0.988-0.33
				c0.447-0.545,1.75-0.62,2.961-0.987c0.619-0.187,2.186-0.551,3.621,0c0.133,0.053-0.01,0.312,0.33,0.33
				c0.756,0.041,1.758,1.765,2.303,2.631c0.109,0.179,0.305-0.05,0.324,0.33c0.012,0.16,0.248,0.47,0.33,0.655
				c1.705,3.865,1.316,8.859,1.316,14.804C289.488,128.149,289.812,131.183,288.832,133.487"/>
		</g>
	</g>
	<g>
		<path d="M65.728,205.825c1.109,0.637,2.771,1.191,4.518,1.191c2.188,0,3.408-1.025,3.408-2.549c0-1.414-0.942-2.246-3.325-3.104
			c-3.076-1.109-5.044-2.744-5.044-5.432c0-3.049,2.55-5.377,6.596-5.377c2.022,0,3.519,0.443,4.488,0.943l-0.831,2.742
			c-0.665-0.359-1.967-0.887-3.713-0.887c-2.161,0-3.104,1.164-3.104,2.246c0,1.439,1.081,2.105,3.574,3.074
			c3.242,1.221,4.822,2.855,4.822,5.543c0,2.992-2.272,5.598-7.094,5.598c-1.968,0-4.019-0.555-5.044-1.164L65.728,205.825z"/>
		<path d="M87.812,209.538l-0.221-1.496h-0.084c-0.831,1.053-2.244,1.801-3.99,1.801c-2.715,0-4.239-1.967-4.239-4.018
			c0-3.408,3.021-5.127,8.008-5.1v-0.221c0-0.887-0.36-2.355-2.743-2.355c-1.33,0-2.715,0.416-3.63,0.998l-0.665-2.217
			c0.998-0.611,2.743-1.193,4.877-1.193c4.323,0,5.57,2.744,5.57,5.682v4.877c0,1.219,0.055,2.41,0.193,3.242H87.812z
			 M87.368,202.942c-2.41-0.055-4.71,0.471-4.71,2.521c0,1.33,0.858,1.939,1.939,1.939c1.357,0,2.355-0.887,2.66-1.855
			c0.083-0.25,0.11-0.527,0.11-0.748V202.942z"/>
		<path d="M98.037,192.19v3.854h3.241v2.549h-3.241v5.957c0,1.635,0.443,2.494,1.745,2.494c0.582,0,1.025-0.084,1.33-0.166
			l0.056,2.604c-0.499,0.195-1.386,0.334-2.466,0.334c-1.247,0-2.301-0.416-2.938-1.109c-0.721-0.775-1.053-1.994-1.053-3.768
			v-6.346h-1.94v-2.549h1.94v-3.049L98.037,192.19z"/>
		<path d="M115.938,205.491c0,1.607,0.056,2.938,0.111,4.047h-2.993l-0.166-2.051h-0.056c-0.582,0.971-1.912,2.355-4.322,2.355
			c-2.467,0-4.711-1.469-4.711-5.875v-7.924h3.408v7.342c0,2.244,0.721,3.686,2.521,3.686c1.358,0,2.245-0.969,2.604-1.828
			c0.111-0.305,0.194-0.666,0.194-1.053v-8.146h3.408V205.491z"/>
		<path d="M119.622,200.393c0-1.828-0.028-3.131-0.111-4.35h2.965l0.111,2.576h0.11c0.665-1.912,2.245-2.883,3.686-2.883
			c0.333,0,0.526,0.029,0.804,0.084v3.215c-0.277-0.057-0.582-0.111-0.997-0.111c-1.636,0-2.743,1.053-3.049,2.576
			c-0.055,0.307-0.11,0.666-0.11,1.055v6.982h-3.408V200.393z"/>
		<path d="M141.679,189.864v15.877c0,1.387,0.056,2.883,0.111,3.797h-3.049l-0.139-2.135h-0.055
			c-0.804,1.498-2.438,2.439-4.406,2.439c-3.214,0-5.764-2.744-5.764-6.9c-0.027-4.516,2.799-7.205,6.041-7.205
			c1.856,0,3.187,0.777,3.796,1.773h0.056v-7.646H141.679z M138.271,201.668c0-0.277-0.027-0.611-0.083-0.887
			c-0.305-1.33-1.386-2.412-2.938-2.412c-2.188,0-3.408,1.939-3.408,4.461c0,2.467,1.22,4.268,3.381,4.268
			c1.386,0,2.604-0.941,2.937-2.41c0.084-0.305,0.111-0.637,0.111-0.998V201.668z"/>
		<path d="M152.929,209.538l-0.221-1.496h-0.084c-0.831,1.053-2.244,1.801-3.99,1.801c-2.715,0-4.239-1.967-4.239-4.018
			c0-3.408,3.021-5.127,8.008-5.1v-0.221c0-0.887-0.36-2.355-2.743-2.355c-1.33,0-2.715,0.416-3.63,0.998l-0.665-2.217
			c0.998-0.611,2.743-1.193,4.877-1.193c4.323,0,5.57,2.744,5.57,5.682v4.877c0,1.219,0.055,2.41,0.193,3.242H152.929z
			 M152.485,202.942c-2.41-0.055-4.71,0.471-4.71,2.521c0,1.33,0.858,1.939,1.939,1.939c1.357,0,2.355-0.887,2.66-1.855
			c0.083-0.25,0.11-0.527,0.11-0.748V202.942z"/>
		<path d="M161.27,196.043l2.438,7.23c0.276,0.832,0.554,1.857,0.748,2.633h0.083c0.222-0.775,0.471-1.773,0.721-2.66l2.105-7.203
			h3.658l-3.381,9.199c-1.856,5.043-3.104,7.287-4.711,8.672c-1.33,1.193-2.716,1.637-3.574,1.746l-0.776-2.881
			c0.582-0.139,1.303-0.443,1.995-0.943c0.638-0.414,1.386-1.219,1.856-2.133c0.139-0.25,0.222-0.443,0.222-0.609
			c0-0.139-0.027-0.332-0.193-0.666l-4.933-12.385H161.27z"/>
		<path d="M178.95,200.305c-0.055-1.857,1.469-3.297,3.27-3.297c1.829,0,3.298,1.439,3.298,3.297c0,1.828-1.44,3.297-3.298,3.297
			C180.419,203.602,178.95,202.19,178.95,200.305z"/>
		<path d="M221.653,198.444c-0.129-3.482-0.258-7.697-0.258-11.91h-0.129c-0.903,3.697-2.107,7.824-3.226,11.223l-3.525,11.309
			h-5.117l-3.096-11.223c-0.946-3.398-1.936-7.525-2.623-11.309h-0.086c-0.172,3.912-0.301,8.385-0.517,11.996l-0.516,11.008h-6.062
			l1.849-28.982h8.729l2.838,9.676c0.903,3.354,1.807,6.965,2.451,10.363h0.129c0.817-3.355,1.807-7.182,2.752-10.406l3.096-9.633
			h8.558l1.591,28.982h-6.407L221.653,198.444z"/>
		<path d="M239.144,202.098l-2.064,7.439h-6.793l8.857-28.982h8.6l8.987,28.982h-7.052l-2.236-7.439H239.144z M246.496,197.196
			l-1.806-6.148c-0.516-1.719-1.032-3.869-1.462-5.59h-0.086c-0.43,1.721-0.86,3.914-1.333,5.59l-1.72,6.148H246.496z"/>
		<path d="M262.223,209.538V197.67l-9.158-17.115h7.483l2.966,6.967c0.902,2.107,1.504,3.654,2.234,5.547h0.088
			c0.645-1.807,1.332-3.482,2.191-5.547l2.924-6.967h7.354l-9.545,16.898v12.084H262.223z"/>
		<path d="M286.098,209.538v-3.957l3.611-3.268c6.105-5.461,9.074-8.6,9.16-11.867c0-2.279-1.377-4.086-4.602-4.086
			c-2.408,0-4.516,1.205-5.977,2.322l-1.85-4.686c2.107-1.592,5.375-2.881,9.158-2.881c6.322,0,9.805,3.697,9.805,8.771
			c0,4.686-3.396,8.428-7.439,12.039l-2.58,2.15v0.086h10.535v5.375H286.098z"/>
		<path d="M314.305,187.393h-0.086l-5.332,2.537l-1.074-4.902l7.395-3.439h5.418v27.949h-6.32V187.393z"/>
		<path d="M331.074,200.305c-0.057-1.857,1.469-3.297,3.27-3.297c1.828,0,3.297,1.439,3.297,3.297c0,1.828-1.439,3.297-3.297,3.297
			C332.543,203.602,331.074,202.19,331.074,200.305z"/>
		<path d="M359.064,194.352h-6.928l-0.525,3.602c0.416-0.055,0.775-0.082,1.303-0.082c1.578,0,3.158,0.359,4.377,1.164
			c1.357,0.859,2.355,2.383,2.355,4.572c0,3.436-2.854,6.234-7.287,6.234c-2.078,0-3.824-0.527-4.766-1.053l0.691-2.578
			c0.777,0.416,2.328,0.943,3.963,0.943c1.996,0,3.908-1.137,3.908-3.299c0-2.049-1.525-3.408-5.127-3.408
			c-0.998,0-1.746,0.057-2.467,0.166l1.191-9.088h9.311V194.352z"/>
		<path d="M372.754,192.19v3.854h3.24v2.549h-3.24v5.957c0,1.635,0.443,2.494,1.744,2.494c0.582,0,1.025-0.084,1.33-0.166
			l0.057,2.604c-0.5,0.195-1.387,0.334-2.467,0.334c-1.246,0-2.301-0.416-2.938-1.109c-0.721-0.775-1.053-1.994-1.053-3.768v-6.346
			h-1.939v-2.549h1.939v-3.049L372.754,192.19z"/>
		<path d="M391.234,202.665c0,4.961-3.49,7.178-6.926,7.178c-3.824,0-6.762-2.633-6.762-6.955c0-4.434,2.908-7.15,6.982-7.15
			C388.547,195.737,391.234,198.565,391.234,202.665z M381.066,202.803c0,2.605,1.273,4.572,3.352,4.572
			c1.939,0,3.299-1.912,3.299-4.627c0-2.105-0.943-4.518-3.271-4.518C382.035,198.231,381.066,200.559,381.066,202.803z"/>
		<path d="M400.518,207.098c0.525,0.057,1.053,0.029,1.883-0.055c1.33-0.111,2.66-0.582,3.658-1.385
			c1.164-0.943,1.967-2.301,2.301-3.99l-0.057-0.029c-0.914,1.025-2.188,1.607-3.934,1.607c-3.131,0-5.459-2.271-5.459-5.598
			c0-3.436,2.66-6.428,6.512-6.428c4.184,0,6.428,3.297,6.428,7.676c0,3.852-1.273,6.594-3.131,8.367
			c-1.58,1.469-3.74,2.301-6.15,2.467c-0.777,0.084-1.553,0.084-2.051,0.057V207.098z M402.291,197.456
			c0.027,1.857,1.08,3.297,2.965,3.297c1.385,0,2.383-0.637,2.908-1.496c0.111-0.221,0.195-0.498,0.195-0.969
			c0.027-2.439-0.887-4.545-3.104-4.545C403.537,193.743,402.291,195.266,402.291,197.456z"/>
		<path d="M414.621,200.532c0-1.773-0.055-3.215-0.111-4.488h2.994l0.166,2.078h0.055c0.998-1.525,2.578-2.385,4.627-2.385
			c3.104,0,5.682,2.66,5.682,6.873c0,4.877-3.076,7.232-6.152,7.232c-1.689,0-3.104-0.721-3.795-1.801h-0.057v6.982h-3.408V200.532z
			 M418.029,203.885c0,0.332,0.027,0.637,0.111,0.941c0.332,1.385,1.551,2.383,2.992,2.383c2.162,0,3.436-1.801,3.436-4.461
			c0-2.383-1.162-4.322-3.352-4.322c-1.414,0-2.717,1.025-3.049,2.521c-0.082,0.277-0.139,0.582-0.139,0.859V203.885z"/>
		<path d="M430.832,200.061c0-1.553-0.029-2.855-0.111-4.018h2.938l0.139,1.994h0.082c0.666-1.053,1.885-2.301,4.156-2.301
			c1.773,0,3.16,0.998,3.742,2.494h0.055c0.471-0.748,1.025-1.301,1.662-1.689c0.748-0.527,1.607-0.805,2.717-0.805
			c2.244,0,4.516,1.525,4.516,5.848v7.953h-3.324v-7.455c0-2.244-0.777-3.574-2.412-3.574c-1.162,0-2.021,0.832-2.383,1.801
			c-0.082,0.334-0.166,0.748-0.166,1.137v8.092h-3.324v-7.814c0-1.885-0.748-3.215-2.328-3.215c-1.275,0-2.135,0.998-2.439,1.939
			c-0.139,0.334-0.193,0.721-0.193,1.109v7.98h-3.324V200.061z"/>
	</g>
	<g>
		<path d="M104.295,240.78h-4.754v-3.361h13.604v3.361h-4.832v14.338h-4.018V240.78z"/>
		<path d="M120.708,255.118l-0.236-1.287h-0.079c-0.84,1.025-2.153,1.576-3.676,1.576c-2.601,0-4.149-1.891-4.149-3.939
			c0-3.334,2.993-4.936,7.536-4.91v-0.184c0-0.684-0.367-1.654-2.337-1.654c-1.312,0-2.705,0.445-3.545,0.971l-0.735-2.572
			c0.893-0.5,2.652-1.131,4.989-1.131c4.28,0,5.646,2.521,5.646,5.541v4.465c0,1.234,0.052,2.416,0.184,3.125H120.708z
			 M120.235,249.051c-2.101-0.025-3.729,0.473-3.729,2.023c0,1.023,0.684,1.521,1.576,1.521c0.998,0,1.812-0.656,2.074-1.471
			c0.053-0.209,0.079-0.445,0.079-0.682V249.051z"/>
		<path d="M136.911,254.803c-0.709,0.314-2.048,0.578-3.571,0.578c-4.149,0-6.802-2.521-6.802-6.566
			c0-3.754,2.574-6.828,7.354-6.828c1.05,0,2.206,0.186,3.046,0.5l-0.63,2.967c-0.473-0.209-1.182-0.393-2.232-0.393
			c-2.101,0-3.467,1.496-3.44,3.598c0,2.363,1.576,3.598,3.52,3.598c0.945,0,1.681-0.158,2.284-0.395L136.911,254.803z"/>
		<path d="M151.513,248.553c0,4.701-3.335,6.854-6.774,6.854c-3.756,0-6.645-2.469-6.645-6.617c0-4.15,2.731-6.803,6.854-6.803
			C148.887,241.987,151.513,244.692,151.513,248.553z M142.217,248.684c0,2.205,0.919,3.859,2.626,3.859
			c1.55,0,2.548-1.549,2.548-3.859c0-1.916-0.735-3.859-2.548-3.859C142.926,244.825,142.217,246.793,142.217,248.684z"/>
		<path d="M153.981,246.374c0-1.602-0.052-2.967-0.104-4.098h3.361l0.184,1.734h0.079c0.551-0.814,1.681-2.023,3.886-2.023
			c1.655,0,2.968,0.842,3.52,2.18h0.053c0.473-0.656,1.05-1.182,1.654-1.549c0.709-0.42,1.496-0.631,2.442-0.631
			c2.468,0,4.332,1.734,4.332,5.568v7.562h-3.886v-6.984c0-1.865-0.604-2.941-1.891-2.941c-0.92,0-1.576,0.629-1.839,1.391
			c-0.104,0.289-0.157,0.709-0.157,1.025v7.51h-3.887v-7.195c0-1.627-0.578-2.73-1.838-2.73c-1.024,0-1.628,0.787-1.865,1.443
			c-0.131,0.316-0.157,0.684-0.157,0.998v7.484h-3.887V246.374z"/>
		<path d="M183.867,255.118l-0.236-1.287h-0.079c-0.84,1.025-2.153,1.576-3.676,1.576c-2.601,0-4.149-1.891-4.149-3.939
			c0-3.334,2.993-4.936,7.536-4.91v-0.184c0-0.684-0.367-1.654-2.337-1.654c-1.312,0-2.705,0.445-3.545,0.971l-0.735-2.572
			c0.893-0.5,2.652-1.131,4.989-1.131c4.28,0,5.646,2.521,5.646,5.541v4.465c0,1.234,0.052,2.416,0.184,3.125H183.867z
			 M183.395,249.051c-2.101-0.025-3.729,0.473-3.729,2.023c0,1.023,0.684,1.521,1.576,1.521c0.998,0,1.812-0.656,2.074-1.471
			c0.053-0.209,0.079-0.445,0.079-0.682V249.051z"/>
		<path d="M208.868,254.62c-0.735,0.367-2.39,0.762-4.543,0.762c-6.119,0-9.271-3.809-9.271-8.85c0-6.041,4.307-9.402,9.664-9.402
			c2.074,0,3.65,0.42,4.359,0.787l-0.814,3.178c-0.813-0.34-1.943-0.656-3.361-0.656c-3.178,0-5.646,1.918-5.646,5.857
			c0,3.545,2.101,5.775,5.672,5.775c1.208,0,2.547-0.262,3.335-0.576L208.868,254.62z"/>
		<path d="M223.548,248.553c0,4.701-3.335,6.854-6.774,6.854c-3.756,0-6.645-2.469-6.645-6.617c0-4.15,2.731-6.803,6.854-6.803
			C220.922,241.987,223.548,244.692,223.548,248.553z M214.252,248.684c0,2.205,0.919,3.859,2.626,3.859
			c1.55,0,2.548-1.549,2.548-3.859c0-1.916-0.735-3.859-2.548-3.859C214.961,244.825,214.252,246.793,214.252,248.684z"/>
		<path d="M226.018,246.374c0-1.602-0.052-2.967-0.104-4.098h3.466l0.185,1.76h0.078c0.525-0.814,1.839-2.049,3.966-2.049
			c2.626,0,4.596,1.734,4.596,5.516v7.615h-3.992V248c0-1.654-0.577-2.783-2.021-2.783c-1.104,0-1.76,0.762-2.022,1.498
			c-0.105,0.236-0.157,0.629-0.157,0.998v7.404h-3.992V246.374z"/>
		<path d="M243.875,242.276l1.733,5.961c0.314,1.078,0.551,2.102,0.735,3.125h0.078c0.21-1.049,0.421-2.021,0.709-3.125l1.655-5.961
			h4.201l-4.779,12.842h-3.991l-4.675-12.842H243.875z"/>
		<path d="M257.506,249.971c0.131,1.654,1.759,2.441,3.623,2.441c1.365,0,2.469-0.184,3.545-0.525l0.525,2.705
			c-1.312,0.525-2.914,0.789-4.648,0.789c-4.359,0-6.854-2.521-6.854-6.539c0-3.258,2.022-6.855,6.487-6.855
			c4.148,0,5.724,3.23,5.724,6.408c0,0.684-0.078,1.287-0.131,1.576H257.506z M262.205,247.241c0-0.973-0.42-2.602-2.257-2.602
			c-1.681,0-2.364,1.523-2.468,2.602H262.205z"/>
		<path d="M268.299,246.374c0-1.602-0.053-2.967-0.105-4.098h3.467l0.184,1.76h0.078c0.525-0.814,1.84-2.049,3.967-2.049
			c2.625,0,4.596,1.734,4.596,5.516v7.615h-3.992V248c0-1.654-0.578-2.783-2.021-2.783c-1.104,0-1.76,0.762-2.023,1.498
			c-0.105,0.236-0.156,0.629-0.156,0.998v7.404h-3.992V246.374z"/>
		<path d="M287.994,238.6v3.676h2.863v2.941h-2.863v4.648c0,1.549,0.367,2.258,1.576,2.258c0.498,0,0.893-0.053,1.182-0.104
			l0.025,3.02c-0.525,0.209-1.471,0.342-2.6,0.342c-1.287,0-2.363-0.447-2.994-1.104c-0.734-0.762-1.102-1.996-1.102-3.809v-5.252
			h-1.707v-2.941h1.707v-2.783L287.994,238.6z"/>
		<path d="M297.291,238.706c0,1.104-0.84,1.996-2.152,1.996c-1.262,0-2.102-0.893-2.074-1.996c-0.027-1.156,0.812-2.021,2.1-2.021
			S297.266,237.549,297.291,238.706z M293.168,255.118v-12.842h3.992v12.842H293.168z"/>
		<path d="M313.047,248.553c0,4.701-3.334,6.854-6.773,6.854c-3.756,0-6.645-2.469-6.645-6.617c0-4.15,2.73-6.803,6.854-6.803
			C310.422,241.987,313.047,244.692,313.047,248.553z M303.752,248.684c0,2.205,0.918,3.859,2.625,3.859
			c1.551,0,2.549-1.549,2.549-3.859c0-1.916-0.736-3.859-2.549-3.859C304.461,244.825,303.752,246.793,303.752,248.684z"/>
		<path d="M315.516,246.374c0-1.602-0.051-2.967-0.104-4.098h3.465l0.186,1.76h0.078c0.525-0.814,1.838-2.049,3.965-2.049
			c2.627,0,4.596,1.734,4.596,5.516v7.615h-3.992V248c0-1.654-0.576-2.783-2.021-2.783c-1.104,0-1.76,0.762-2.021,1.498
			c-0.105,0.236-0.158,0.629-0.158,0.998v7.404h-3.992V246.374z"/>
		<path d="M349.342,254.62c-0.736,0.367-2.391,0.762-4.543,0.762c-6.119,0-9.271-3.809-9.271-8.85c0-6.041,4.307-9.402,9.664-9.402
			c2.074,0,3.65,0.42,4.359,0.787l-0.814,3.178c-0.812-0.34-1.943-0.656-3.361-0.656c-3.178,0-5.645,1.918-5.645,5.857
			c0,3.545,2.1,5.775,5.672,5.775c1.207,0,2.547-0.262,3.334-0.576L349.342,254.62z"/>
		<path d="M354.41,249.971c0.131,1.654,1.76,2.441,3.623,2.441c1.367,0,2.469-0.184,3.547-0.525l0.523,2.705
			c-1.312,0.525-2.914,0.789-4.646,0.789c-4.359,0-6.855-2.521-6.855-6.539c0-3.258,2.023-6.855,6.486-6.855
			c4.15,0,5.727,3.23,5.727,6.408c0,0.684-0.08,1.287-0.133,1.576H354.41z M359.111,247.241c0-0.973-0.42-2.602-2.26-2.602
			c-1.68,0-2.363,1.523-2.467,2.602H359.111z"/>
		<path d="M365.203,246.374c0-1.602-0.051-2.967-0.104-4.098h3.465l0.186,1.76h0.078c0.525-0.814,1.838-2.049,3.965-2.049
			c2.627,0,4.596,1.734,4.596,5.516v7.615h-3.992V248c0-1.654-0.576-2.783-2.021-2.783c-1.104,0-1.76,0.762-2.021,1.498
			c-0.105,0.236-0.158,0.629-0.158,0.998v7.404h-3.992V246.374z"/>
		<path d="M384.9,238.6v3.676h2.861v2.941H384.9v4.648c0,1.549,0.367,2.258,1.574,2.258c0.5,0,0.893-0.053,1.182-0.104l0.027,3.02
			c-0.525,0.209-1.471,0.342-2.6,0.342c-1.287,0-2.363-0.447-2.994-1.104c-0.736-0.762-1.104-1.996-1.104-3.809v-5.252h-1.707
			v-2.941h1.707v-2.783L384.9,238.6z"/>
		<path d="M393.016,249.971c0.131,1.654,1.758,2.441,3.623,2.441c1.365,0,2.469-0.184,3.545-0.525l0.525,2.705
			c-1.312,0.525-2.914,0.789-4.648,0.789c-4.359,0-6.854-2.521-6.854-6.539c0-3.258,2.021-6.855,6.486-6.855
			c4.148,0,5.725,3.23,5.725,6.408c0,0.684-0.078,1.287-0.131,1.576H393.016z M397.715,247.241c0-0.973-0.42-2.602-2.258-2.602
			c-1.682,0-2.363,1.523-2.469,2.602H397.715z"/>
		<path d="M403.809,246.504c0-1.891-0.053-3.125-0.105-4.229h3.439l0.133,2.363h0.104c0.658-1.863,2.232-2.652,3.467-2.652
			c0.367,0,0.553,0,0.842,0.053v3.756c-0.289-0.053-0.631-0.105-1.078-0.105c-1.471,0-2.469,0.789-2.73,2.023
			c-0.053,0.262-0.078,0.576-0.078,0.893v6.512h-3.992V246.504z"/>
	</g>
	<g>
		<g>
			<path fill="#939393" d="M86.301,269.401h-0.045l-2.689,1.355l-0.475-2.102l3.57-1.762h2.328v14.688h-2.689V269.401z"/>
			<path fill="#939393" d="M103.388,269.198h-5.649l-0.43,2.938c0.339-0.045,0.633-0.068,1.062-0.068
				c1.288,0,2.576,0.295,3.57,0.949c1.107,0.701,1.921,1.943,1.921,3.729c0,2.803-2.327,5.086-5.943,5.086
				c-1.694,0-3.118-0.43-3.887-0.859l0.564-2.102c0.633,0.338,1.898,0.768,3.232,0.768c1.627,0,3.186-0.926,3.186-2.689
				c0-1.672-1.242-2.779-4.181-2.779c-0.813,0-1.424,0.045-2.011,0.137l0.972-7.412h7.593V269.198z"/>
			<path fill="#939393" d="M116.543,274.147c0,4.723-1.854,7.684-5.356,7.684c-3.39,0-5.197-3.074-5.22-7.549
				c0-4.564,1.943-7.639,5.378-7.639C114.893,266.643,116.543,269.807,116.543,274.147z M108.769,274.282
				c-0.022,3.57,0.972,5.424,2.509,5.424c1.627,0,2.485-1.988,2.485-5.514c0-3.412-0.813-5.424-2.485-5.424
				C109.786,268.768,108.746,270.598,108.769,274.282z"/>
			<path fill="#939393" d="M128.658,274.147c0,4.723-1.854,7.684-5.356,7.684c-3.39,0-5.197-3.074-5.22-7.549
				c0-4.564,1.943-7.639,5.378-7.639C127.008,266.643,128.658,269.807,128.658,274.147z M120.884,274.282
				c-0.022,3.57,0.972,5.424,2.509,5.424c1.627,0,2.485-1.988,2.485-5.514c0-3.412-0.813-5.424-2.485-5.424
				C121.901,268.768,120.861,270.598,120.884,274.282z"/>
			<path fill="#939393" d="M135.712,266.553c0.881-0.18,2.485-0.316,4.045-0.316c2.057,0,3.322,0.248,4.361,0.973
				c0.949,0.564,1.582,1.559,1.582,2.848c0,1.4-0.881,2.688-2.531,3.299v0.045c1.604,0.406,3.074,1.672,3.074,3.773
				c0,1.355-0.588,2.418-1.47,3.141c-1.084,0.949-2.869,1.424-5.649,1.424c-1.536,0-2.712-0.111-3.412-0.203V266.553z
				 M138.469,272.565h1.424c1.921,0,3.006-0.904,3.006-2.193c0-1.422-1.085-2.078-2.848-2.078c-0.813,0-1.288,0.045-1.582,0.113
				V272.565z M138.469,279.571c0.361,0.045,0.836,0.066,1.469,0.066c1.785,0,3.367-0.678,3.367-2.553
				c0-1.764-1.536-2.486-3.457-2.486h-1.379V279.571z"/>
			<path fill="#939393" d="M148.618,274.124c0-1.49-0.022-2.553-0.09-3.547h2.418l0.09,2.102h0.091
				c0.542-1.561,1.83-2.352,3.006-2.352c0.271,0,0.429,0.023,0.655,0.068v2.621c-0.227-0.045-0.475-0.09-0.813-0.09
				c-1.334,0-2.237,0.859-2.486,2.102c-0.045,0.248-0.09,0.543-0.09,0.859v5.693h-2.78V274.124z"/>
			<path fill="#939393" d="M166.925,275.977c0,4.045-2.847,5.854-5.649,5.854c-3.118,0-5.514-2.148-5.514-5.674
				c0-3.615,2.373-5.83,5.694-5.83C164.733,270.327,166.925,272.633,166.925,275.977z M158.632,276.09
				c0,2.123,1.039,3.729,2.734,3.729c1.582,0,2.689-1.559,2.689-3.773c0-1.719-0.769-3.684-2.667-3.684
				C159.423,272.362,158.632,274.26,158.632,276.09z"/>
			<path fill="#939393" d="M175.402,281.581l-0.181-1.219h-0.068c-0.678,0.857-1.83,1.469-3.254,1.469
				c-2.215,0-3.458-1.605-3.458-3.277c0-2.779,2.464-4.182,6.531-4.158v-0.182c0-0.723-0.294-1.92-2.237-1.92
				c-1.085,0-2.215,0.34-2.96,0.814l-0.543-1.809c0.813-0.498,2.237-0.973,3.978-0.973c3.525,0,4.542,2.238,4.542,4.633v3.979
				c0,0.994,0.046,1.965,0.158,2.643H175.402z M175.041,276.204c-1.967-0.047-3.842,0.383-3.842,2.057c0,1.084,0.7,1.58,1.582,1.58
				c1.106,0,1.92-0.723,2.169-1.514c0.067-0.203,0.091-0.43,0.091-0.609V276.204z"/>
			<path fill="#939393" d="M190.839,265.536v12.949c0,1.131,0.046,2.352,0.091,3.096h-2.485l-0.113-1.74h-0.045
				c-0.656,1.221-1.989,1.99-3.594,1.99c-2.621,0-4.7-2.238-4.7-5.627c-0.022-3.684,2.282-5.877,4.927-5.877
				c1.514,0,2.599,0.633,3.096,1.447h0.045v-6.238H190.839z M188.06,275.163c0-0.225-0.022-0.496-0.067-0.723
				c-0.249-1.084-1.13-1.965-2.396-1.965c-1.785,0-2.78,1.58-2.78,3.637c0,2.012,0.995,3.48,2.758,3.48
				c1.13,0,2.124-0.768,2.396-1.965c0.067-0.25,0.09-0.521,0.09-0.814V275.163z"/>
			<path fill="#939393" d="M195.498,270.577l1.152,4.994c0.248,1.174,0.497,2.373,0.7,3.57h0.046
				c0.226-1.197,0.587-2.418,0.903-3.549l1.424-5.016h2.26l1.379,4.881c0.339,1.287,0.633,2.486,0.881,3.684h0.045
				c0.182-1.197,0.43-2.396,0.724-3.684l1.22-4.881h2.735l-3.458,11.004h-2.576l-1.311-4.475c-0.339-1.152-0.588-2.191-0.836-3.525
				h-0.046c-0.226,1.357-0.52,2.441-0.836,3.525l-1.401,4.475h-2.599l-3.254-11.004H195.498z"/>
			<path fill="#939393" d="M216.812,281.581l-0.181-1.219h-0.068c-0.678,0.857-1.83,1.469-3.254,1.469
				c-2.215,0-3.457-1.605-3.457-3.277c0-2.779,2.463-4.182,6.53-4.158v-0.182c0-0.723-0.294-1.92-2.237-1.92
				c-1.085,0-2.215,0.34-2.96,0.814l-0.543-1.809c0.813-0.498,2.237-0.973,3.978-0.973c3.525,0,4.542,2.238,4.542,4.633v3.979
				c0,0.994,0.046,1.965,0.158,2.643H216.812z M216.45,276.204c-1.967-0.047-3.842,0.383-3.842,2.057c0,1.084,0.7,1.58,1.581,1.58
				c1.107,0,1.921-0.723,2.17-1.514c0.067-0.203,0.091-0.43,0.091-0.609V276.204z"/>
			<path fill="#939393" d="M223.616,270.577l1.988,5.896c0.227,0.68,0.452,1.516,0.61,2.148h0.068
				c0.181-0.633,0.384-1.447,0.587-2.17l1.718-5.875h2.983l-2.758,7.502c-1.514,4.113-2.53,5.943-3.841,7.072
				c-1.085,0.973-2.215,1.334-2.916,1.424l-0.633-2.35c0.475-0.113,1.062-0.361,1.628-0.768c0.52-0.34,1.13-0.994,1.514-1.74
				c0.113-0.203,0.181-0.361,0.181-0.498c0-0.113-0.022-0.271-0.158-0.541l-4.022-10.102H223.616z"/>
			<path fill="#939393" d="M237.223,275.684c-0.045-1.516,1.198-2.689,2.667-2.689c1.491,0,2.689,1.174,2.689,2.689
				c0,1.49-1.176,2.688-2.689,2.688C238.421,278.372,237.223,277.219,237.223,275.684z"/>
			<path fill="#939393" d="M251.733,268.678h-4.339v-2.328h11.503v2.328h-4.385v12.902h-2.779V268.678z"/>
			<path fill="#939393" d="M265.295,281.581l-0.182-1.219h-0.068c-0.678,0.857-1.83,1.469-3.254,1.469
				c-2.214,0-3.457-1.605-3.457-3.277c0-2.779,2.463-4.182,6.531-4.158v-0.182c0-0.723-0.295-1.92-2.238-1.92
				c-1.084,0-2.214,0.34-2.958,0.814l-0.543-1.809c0.813-0.498,2.236-0.973,3.977-0.973c3.525,0,4.543,2.238,4.543,4.633v3.979
				c0,0.994,0.045,1.965,0.158,2.643H265.295z M264.934,276.204c-1.967-0.047-3.842,0.383-3.842,2.057
				c0,1.084,0.699,1.58,1.582,1.58c1.105,0,1.92-0.723,2.168-1.514c0.068-0.203,0.092-0.43,0.092-0.609V276.204z"/>
			<path fill="#939393" d="M278.676,281.243c-0.588,0.271-1.74,0.564-3.119,0.564c-3.436,0-5.672-2.191-5.672-5.604
				c0-3.301,2.26-5.877,6.123-5.877c1.018,0,2.057,0.227,2.689,0.52l-0.496,2.08c-0.453-0.203-1.107-0.43-2.102-0.43
				c-2.125,0-3.391,1.559-3.367,3.57c0,2.26,1.469,3.549,3.367,3.549c0.971,0,1.648-0.203,2.191-0.43L278.676,281.243z"/>
			<path fill="#939393" d="M290.992,275.977c0,4.045-2.846,5.854-5.648,5.854c-3.119,0-5.514-2.148-5.514-5.674
				c0-3.615,2.373-5.83,5.693-5.83C288.801,270.327,290.992,272.633,290.992,275.977z M282.699,276.09
				c0,2.123,1.039,3.729,2.734,3.729c1.582,0,2.689-1.559,2.689-3.773c0-1.719-0.768-3.684-2.666-3.684
				C283.49,272.362,282.699,274.26,282.699,276.09z"/>
			<path fill="#939393" d="M293.279,273.852c0-1.266-0.023-2.326-0.09-3.275h2.395l0.113,1.627h0.068
				c0.541-0.859,1.535-1.877,3.389-1.877c1.447,0,2.576,0.814,3.051,2.035h0.045c0.385-0.611,0.836-1.062,1.357-1.379
				c0.609-0.43,1.311-0.656,2.213-0.656c1.832,0,3.684,1.244,3.684,4.77v6.484h-2.711v-6.078c0-1.83-0.633-2.916-1.967-2.916
				c-0.949,0-1.648,0.678-1.943,1.469c-0.066,0.271-0.135,0.611-0.135,0.928v6.598h-2.713v-6.371c0-1.537-0.609-2.623-1.896-2.623
				c-1.041,0-1.74,0.814-1.99,1.582c-0.113,0.271-0.158,0.588-0.158,0.904v6.508h-2.711V273.852z"/>
			<path fill="#939393" d="M318.639,281.581l-0.182-1.219h-0.068c-0.678,0.857-1.83,1.469-3.254,1.469
				c-2.215,0-3.457-1.605-3.457-3.277c0-2.779,2.463-4.182,6.531-4.158v-0.182c0-0.723-0.295-1.92-2.238-1.92
				c-1.084,0-2.215,0.34-2.959,0.814l-0.543-1.809c0.812-0.498,2.236-0.973,3.977-0.973c3.525,0,4.543,2.238,4.543,4.633v3.979
				c0,0.994,0.045,1.965,0.158,2.643H318.639z M318.277,276.204c-1.967-0.047-3.842,0.383-3.842,2.057
				c0,1.084,0.699,1.58,1.582,1.58c1.105,0,1.92-0.723,2.168-1.514c0.068-0.203,0.092-0.43,0.092-0.609V276.204z"/>
			<path fill="#939393" d="M322.617,284.315c0.611-1.717,1.221-4.09,1.516-5.965l2.914-0.227c-0.633,2.125-1.65,4.564-2.531,6.012
				L322.617,284.315z"/>
			<path fill="#939393" d="M335.703,281.581l-3.729-15.23h2.961l1.447,6.914c0.383,1.854,0.744,3.797,0.994,5.312h0.045
				c0.248-1.605,0.678-3.414,1.107-5.334l1.648-6.893h2.916l1.514,7.006c0.385,1.807,0.701,3.502,0.926,5.152h0.047
				c0.27-1.672,0.633-3.412,1.039-5.266l1.582-6.893h2.824l-4.09,15.23h-2.982l-1.582-7.162c-0.385-1.74-0.656-3.188-0.836-4.836
				h-0.047c-0.27,1.627-0.564,3.096-1.016,4.836l-1.764,7.162H335.703z"/>
			<path fill="#939393" d="M354.691,277.264l-1.311,4.316h-2.871l4.881-15.23h3.549l4.949,15.23h-2.982l-1.379-4.316H354.691z
				 M359.053,275.163l-1.197-3.75c-0.295-0.928-0.543-1.967-0.77-2.848h-0.045c-0.227,0.881-0.451,1.943-0.723,2.848l-1.176,3.75
				H359.053z"/>
			<path fill="#939393" d="M371.191,279.592c0.43,0.045,0.857,0.023,1.537-0.045c1.084-0.09,2.168-0.475,2.982-1.129
				c0.949-0.77,1.604-1.877,1.875-3.256l-0.045-0.021c-0.746,0.836-1.785,1.311-3.209,1.311c-2.553,0-4.451-1.854-4.451-4.564
				c0-2.803,2.168-5.244,5.311-5.244c3.412,0,5.242,2.689,5.242,6.26c0,3.143-1.039,5.379-2.553,6.826
				c-1.289,1.197-3.051,1.875-5.018,2.01c-0.633,0.068-1.266,0.068-1.672,0.047V279.592z M372.637,271.729
				c0.023,1.514,0.883,2.689,2.418,2.689c1.131,0,1.943-0.521,2.373-1.221c0.09-0.182,0.158-0.406,0.158-0.791
				c0.023-1.988-0.723-3.707-2.531-3.707C373.654,268.7,372.637,269.944,372.637,271.729z"/>
			<path fill="#939393" d="M381.973,277.807c0-1.83,1.062-3.072,2.758-3.818v-0.068c-1.537-0.746-2.238-1.967-2.238-3.254
				c0-2.396,2.125-4.023,4.904-4.023c3.164,0,4.609,1.898,4.609,3.707c0,1.242-0.654,2.531-2.26,3.322v0.066
				c1.605,0.611,2.803,1.877,2.803,3.707c0,2.621-2.215,4.385-5.355,4.385C383.758,281.831,381.973,279.864,381.973,277.807z
				 M389.725,277.672c0-1.492-1.107-2.305-2.734-2.758c-1.379,0.406-2.17,1.355-2.17,2.576c-0.045,1.244,0.904,2.373,2.463,2.373
				C388.752,279.864,389.725,278.938,389.725,277.672z M385.137,270.553c0,1.197,0.994,1.922,2.395,2.305
				c0.996-0.293,1.832-1.107,1.832-2.215c0-1.016-0.611-2.078-2.102-2.078C385.859,268.565,385.137,269.491,385.137,270.553z"/>
			<path fill="#939393" d="M400.416,281.581v-3.729h-6.645v-1.807l5.988-9.152h3.277v8.857h1.898v2.102h-1.898v3.729H400.416z
				 M400.416,275.75v-4c0-0.836,0.021-1.693,0.09-2.553h-0.09c-0.453,0.926-0.836,1.672-1.289,2.486l-2.689,4.021l-0.021,0.045
				H400.416z"/>
			<path fill="#939393" d="M416.781,274.147c0,4.723-1.854,7.684-5.357,7.684c-3.389,0-5.197-3.074-5.219-7.549
				c0-4.564,1.943-7.639,5.377-7.639C415.131,266.643,416.781,269.807,416.781,274.147z M409.006,274.282
				c-0.021,3.57,0.973,5.424,2.51,5.424c1.627,0,2.484-1.988,2.484-5.514c0-3.412-0.812-5.424-2.484-5.424
				C410.023,268.768,408.984,270.598,409.006,274.282z"/>
			<path fill="#939393" d="M418.523,281.581v-1.693l1.74-1.605c3.457-3.209,5.084-4.971,5.107-6.914
				c0-1.311-0.701-2.465-2.623-2.465c-1.287,0-2.395,0.656-3.141,1.221l-0.812-1.965c1.061-0.859,2.666-1.516,4.52-1.516
				c3.254,0,4.836,2.057,4.836,4.453c0,2.576-1.854,4.654-4.406,7.027l-1.289,1.107v0.045h6.033v2.305H418.523z"/>
		</g>
	</g>
</g>
</svg>
