<?xml version="1.0" encoding="utf-8"?>
<!-- Generator: Adobe Illustrator 16.0.0, SVG Export Plug-In . SVG Version: 6.00 Build 0)  -->
<!DOCTYPE svg PUBLIC "-//W3C//DTD SVG 1.1//EN" "http://www.w3.org/Graphics/SVG/1.1/DTD/svg11.dtd">
<svg version="1.1" id="Layer_1" xmlns="http://www.w3.org/2000/svg" xmlns:xlink="http://www.w3.org/1999/xlink" x="0px" y="0px"
	 width="218.651px" height="218.652px" viewBox="0 0 218.651 218.652" enable-background="new 0 0 218.651 218.652"
	 xml:space="preserve">
<g>
	<path fill="#48A1B9" d="M108.938,0.803C50.98,0.907,0.646,47.167,0.727,109.11c0.079,61.308,48.731,108.183,108.349,108.206
		c63.199,0.025,109.075-52.217,107.946-108.33C218.308,51.722,169.773,0.694,108.938,0.803z M42.166,101.352
		c-4.111-21.61,9.867-41.938,31.642-45.379c11.984-1.893,23.033,1.141,31.97,9.917c5.342,5.246,10.597,10.583,15.858,15.911
		c5.455,5.523,5.712,11.085,0.793,15.917c-4.562,4.484-10.537,4.157-15.624-0.928c-7.596-7.59-15.154-15.218-22.729-22.829
		c-0.698-0.699-1.318-1.768-2.146-1.976c-1.122-0.283-2.613-0.226-3.539,0.345c-0.445,0.275-0.382,2.417,0.188,3.104
		c2.233,2.7,4.758,5.159,7.373,7.913c-11.176,12.797-24.432,22.934-34.489,36.598C46.5,115.101,43.534,108.536,42.166,101.352z
		 M59.701,127.551c-3.388-3.42-3.059-7.266,1.093-11.454c8.757-8.834,17.546-17.637,26.336-26.438
		c0.773-0.774,1.661-1.434,2.305-1.985c3.511,3.369,6.826,6.551,10.297,9.883c-0.652,0.837-1.171,1.664-1.84,2.338
		c-8.865,8.926-17.732,17.852-26.644,26.732C67.38,130.483,62.909,130.787,59.701,127.551z M163.699,123.186
		c-16.164,16.22-32.391,32.379-48.578,48.581c-2.646,2.647-5.521,3.917-9.095,1.875c-3.407-1.947-4.625-5.011-3.657-8.641
		c0.437-1.642,1.739-3.193,2.983-4.458c9.414-9.576,18.957-19.025,28.314-28.659c0.982-1.012,1.832-3.365,1.322-4.384
		c-1.444-2.885-3.391-1.861-5.291,0.067c-9.124,9.266-18.326,18.46-27.502,27.675c-0.897,0.901-1.76,1.851-2.742,2.653
		c-2.843,2.326-7.11,2.223-9.7-0.164c-2.976-2.743-3.463-6.631-0.986-9.888c1.36-1.788,3.07-3.313,4.663-4.917
		c8.476-8.516,16.974-17.012,25.442-25.537c1.54-1.552,3.679-2.878,1.114-5.517c-2.729-2.807-4.16-0.576-5.815,1.089
		c-9.362,9.431-18.694,18.889-28.067,28.31c-2.353,2.367-4.872,4.363-8.596,3.006c-5.22-1.901-7.16-8.025-3.331-12.019
		c9.196-9.589,18.62-18.962,28.118-28.253c0.816-0.799,3.179-0.953,4.285-0.376c7.818,4.085,15.773,2.743,20.843-3.81
		c5.312-6.867,4.858-14.456-1.567-20.99c-4.337-4.41-8.987-8.514-14.015-13.243c13.823-10.587,27.518-13.277,42.082-6.501
		c13.736,6.394,21.497,17.384,22.334,32.871C176.929,104.357,172.285,114.574,163.699,123.186z"/>
</g>
</svg>
