<?xml version="1.0" encoding="utf-8"?>
<!-- Generator: Adobe Illustrator 16.0.0, SVG Export Plug-In . SVG Version: 6.00 Build 0)  -->
<!DOCTYPE svg PUBLIC "-//W3C//DTD SVG 1.1//EN" "http://www.w3.org/Graphics/SVG/1.1/DTD/svg11.dtd">
<svg version="1.1" id="Layer_1" xmlns="http://www.w3.org/2000/svg" xmlns:xlink="http://www.w3.org/1999/xlink" x="0px" y="0px"
	 width="218.65px" height="218.652px" viewBox="0 0 218.65 218.652" enable-background="new 0 0 218.65 218.652"
	 xml:space="preserve">
<rect x="30.981" y="43.615" fill="#FFFFFF" width="153.254" height="135.127"/>
<path fill="#48A1B9" d="M108.938,0.802C50.98,0.907,0.646,47.167,0.727,109.11c0.079,61.308,48.731,108.183,108.35,108.206
	c63.198,0.024,109.074-52.217,107.945-108.33C218.308,51.722,169.773,0.694,108.938,0.802z M42.166,101.352
	c-4.111-21.61,9.867-41.938,31.642-45.379c11.984-1.894,23.033,1.141,31.97,9.917c5.343,5.245,10.598,10.583,15.858,15.91
	c5.455,5.523,5.712,11.085,0.793,15.917c-4.562,4.484-10.537,4.157-15.624-0.928c-7.596-7.59-15.154-15.218-22.729-22.829
	c-0.698-0.698-1.318-1.768-2.146-1.976c-1.122-0.283-2.613-0.227-3.539,0.345c-0.445,0.275-0.382,2.417,0.188,3.104
	c2.232,2.699,4.758,5.158,7.373,7.913c-11.177,12.797-24.433,22.934-34.489,36.598C46.5,115.101,43.534,108.536,42.166,101.352z
	 M59.701,127.551c-3.389-3.42-3.06-7.266,1.093-11.453c8.757-8.834,17.546-17.638,26.336-26.438
	c0.772-0.774,1.661-1.434,2.305-1.985c3.511,3.369,6.826,6.552,10.297,9.884c-0.651,0.837-1.171,1.664-1.84,2.338
	c-8.865,8.926-17.731,17.852-26.644,26.731C67.38,130.483,62.909,130.787,59.701,127.551z M163.699,123.186
	c-16.164,16.22-32.392,32.379-48.578,48.581c-2.646,2.646-5.521,3.917-9.096,1.875c-3.406-1.947-4.625-5.012-3.656-8.642
	c0.437-1.642,1.738-3.192,2.982-4.458c9.414-9.576,18.957-19.024,28.314-28.659c0.981-1.012,1.832-3.364,1.321-4.384
	c-1.443-2.885-3.391-1.86-5.291,0.067c-9.123,9.266-18.325,18.46-27.502,27.675c-0.896,0.901-1.76,1.851-2.741,2.653
	c-2.844,2.326-7.11,2.223-9.7-0.164c-2.977-2.743-3.463-6.631-0.986-9.889c1.36-1.787,3.07-3.312,4.663-4.917
	c8.477-8.516,16.974-17.012,25.442-25.536c1.54-1.553,3.679-2.879,1.113-5.518c-2.729-2.807-4.159-0.576-5.814,1.089
	c-9.362,9.432-18.694,18.89-28.067,28.311c-2.353,2.367-4.872,4.362-8.596,3.006c-5.22-1.901-7.16-8.025-3.331-12.02
	c9.196-9.589,18.62-18.962,28.118-28.253c0.815-0.799,3.179-0.953,4.285-0.376c7.817,4.085,15.772,2.743,20.843-3.81
	c5.312-6.867,4.858-14.456-1.567-20.99c-4.337-4.41-8.986-8.514-14.015-13.243c13.823-10.587,27.518-13.276,42.082-6.501
	c13.736,6.395,21.497,17.384,22.334,32.871C176.929,104.357,172.285,114.574,163.699,123.186z"/>
</svg>
