<?xml version="1.0" encoding="utf-8"?>
<!-- Generator: Adobe Illustrator 16.0.0, SVG Export Plug-In . SVG Version: 6.00 Build 0)  -->
<!DOCTYPE svg PUBLIC "-//W3C//DTD SVG 1.1//EN" "http://www.w3.org/Graphics/SVG/1.1/DTD/svg11.dtd">
<svg version="1.1" id="Layer_1" xmlns="http://www.w3.org/2000/svg" xmlns:xlink="http://www.w3.org/1999/xlink" x="0px" y="0px"
	 width="36px" height="36px" viewBox="90.863 91.788 36 36" enable-background="new 90.863 91.788 36 36" xml:space="preserve">
<g>
	<g>
		<path fill="#FFFFFF" d="M108.863,91.788c-9.924,0-18,8.076-18,18c0,9.925,8.076,18,18,18s18-8.076,18-18
			S118.789,91.788,108.863,91.788z M113.34,110.422h-2.929c0,4.679,0,10.438,0,10.438h-4.339c0,0,0-5.703,0-10.438h-2.063v-3.688
			h2.063v-2.386c0-1.709,0.812-4.379,4.379-4.379l3.215,0.012v3.582c0,0-1.954,0-2.333,0c-0.381,0-0.921,0.19-0.921,1.005v2.168
			h3.307L113.34,110.422z"/>
	</g>
</g>
</svg>
