<?xml version="1.0" encoding="utf-8"?>
<!-- Generator: Adobe Illustrator 16.0.0, SVG Export Plug-In . SVG Version: 6.00 Build 0)  -->
<!DOCTYPE svg PUBLIC "-//W3C//DTD SVG 1.1//EN" "http://www.w3.org/Graphics/SVG/1.1/DTD/svg11.dtd">
<svg version="1.1" id="Layer_1" xmlns="http://www.w3.org/2000/svg" xmlns:xlink="http://www.w3.org/1999/xlink" x="0px" y="0px"
	 width="218.65px" height="218.652px" viewBox="0 0 218.65 218.652" enable-background="new 0 0 218.65 218.652"
	 xml:space="preserve">
<g>
	<g>
		<path fill="#FFFFFF" d="M108.863,1.925C49.391,1.925,1,50.316,1,109.789c0,59.474,48.391,107.863,107.862,107.863
			c59.474,0,107.863-48.391,107.863-107.863S168.345,1.925,108.863,1.925z M135.688,113.586h-17.549c0,28.037,0,62.549,0,62.549
			H92.137c0,0,0-34.176,0-62.549H79.773V91.481h12.364V77.182c0-10.242,4.868-26.243,26.243-26.243l19.267,0.071v21.461
			c0,0-11.71,0-13.983,0c-2.279,0-5.517,1.137-5.517,6.021v12.991h19.814L135.688,113.586z"/>
	</g>
</g>
</svg>
