<?xml version="1.0" encoding="utf-8"?>
<!-- Generator: Adobe Illustrator 16.0.0, SVG Export Plug-In . SVG Version: 6.00 Build 0)  -->
<!DOCTYPE svg PUBLIC "-//W3C//DTD SVG 1.1//EN" "http://www.w3.org/Graphics/SVG/1.1/DTD/svg11.dtd">
<svg version="1.1" id="Layer_1" xmlns="http://www.w3.org/2000/svg" xmlns:xlink="http://www.w3.org/1999/xlink" x="0px" y="0px"
	 width="141.36px" height="66.865px" viewBox="0 0 141.36 66.865" enable-background="new 0 0 141.36 66.865" xml:space="preserve">
<g>
	<path fill="#FBA81A" d="M70.246,23.217c-0.048,1.499-1.617,2.242-3.267,1.303c-5.175-2.941-10.774-3.63-16.591-3.497
		c-5.65,0.128-11.072,1.087-16.05,3.921c-0.207,0.118-0.421,0.224-0.634,0.333c-1.014,0.521-2.021,0.687-2.733-0.421
		c-0.78-1.212-0.146-2.151,0.838-2.849c2.167-1.536,4.606-2.523,7.147-3.222c8.473-2.326,16.945-2.55,25.385,0.18
		c1.673,0.542,3.24,1.316,4.694,2.317C69.722,21.756,70.233,22.327,70.246,23.217z"/>
	<path fill="#713370" d="M30.09,7.741c-0.119,0.998-0.826,1.564-1.774,1.93c-7.708,2.979-14.193,7.727-19.834,13.7
		c-0.945,1-1.982,2.182-3.416,0.941c-1.521-1.316-0.556-2.626,0.462-3.693c5.94-6.222,12.762-11.211,20.757-14.485
		C28.506,5.225,30.143,5.962,30.09,7.741z"/>
	<path fill="#713370" d="M2.977,39.194c-0.686,0.003-1.228-0.283-1.619-0.84c-0.661-0.944-0.303-1.837,0.224-2.664
		c2.48-3.89,5.198-7.611,8.339-10.995c2.323-2.501,4.7-4.965,7.567-6.875c1.243-0.828,2.633-1.641,3.719,0.029
		c1.008,1.549-0.232,2.467-1.382,3.268C13.838,25.279,9.508,30.94,5.538,36.922C4.423,38.603,3.85,39.162,2.977,39.194z"/>
	<path fill="#713370" d="M37.473,13.363c1.16-0.042,2.009,0.3,2.254,1.428c0.292,1.347-0.435,2.126-1.646,2.479
		c-4.552,1.327-8.675,3.494-12.523,6.236c-2.479,1.767-4.491,4.022-6.632,6.146c-0.868,0.862-1.896,1.394-2.948,0.515
		c-1.088-0.911-0.686-2.032,0.112-2.946c5.548-6.358,12.179-11.11,20.317-13.603C36.786,13.501,37.179,13.431,37.473,13.363z"/>
	<path fill="#FBA81A" d="M50.358,11.138c4.79,0.242,8.688,0.45,12.416,1.735c1.302,0.449,2.788,0.952,2.26,2.75
		c-0.517,1.761-1.93,1.533-3.334,1.086c-5.657-1.801-11.433-1.698-17.241-1.032c-1.34,0.154-2.943,0.556-3.271-1.337
		c-0.342-1.967,1.242-2.338,2.727-2.518C46.356,11.526,48.807,11.3,50.358,11.138z"/>
	<path fill="#FBA81A" d="M58.348,7.647c-0.149,1.755-1.159,2.772-2.898,2.783c-1.558,0.01-2.471-0.98-2.618-2.535
		c-0.142-1.502,1.28-3.09,2.734-2.984C57.181,5.029,58.175,5.928,58.348,7.647z"/>
	<path fill="#713370" d="M19.38,6.81c-0.116,1.6-0.957,2.697-2.626,2.774c-1.794,0.083-2.859-0.987-2.895-2.76
		c-0.035-1.698,0.986-2.671,2.686-2.681C18.222,4.134,19.175,5.068,19.38,6.81z"/>
	<path fill="#713370" d="M41.32,3.74c-0.149,1.755-1.159,2.772-2.898,2.783c-1.557,0.011-2.471-0.979-2.618-2.534
		c-0.142-1.502,1.28-3.09,2.733-2.984C40.153,1.122,41.147,2.021,41.32,3.74z"/>
	<g>
		<path fill="#1E191A" d="M26.603,40.905c-1.207,1.582-2.976,2.761-4.558,2.761c-3.458,0-5.469-2.735-5.469-5.629
			c0-2.038,0.938-3.86,2.708-5.201c1.448-1.126,3.083-1.555,4.129-1.555c1.072,0,1.957,0.348,2.358,0.697
			c0.375,0.295,0.456,0.536,0.456,0.831c0,0.617-0.617,1.233-0.938,1.233c-0.161,0-0.295-0.081-0.509-0.295
			c-0.884-0.804-1.796-1.152-2.708-1.152c-1.635,0-3.109,1.394-3.109,4.209c0,3.699,2.547,4.932,3.994,4.932
			c1.126,0,1.983-0.322,3.164-1.42L26.603,40.905z"/>
		<path fill="#1E191A" d="M39.738,37.259c0,4.343-3.137,6.407-5.871,6.407c-3.78,0-5.951-2.976-5.951-5.925
			c0-4.423,3.431-6.46,5.978-6.46C37.271,31.281,39.738,33.989,39.738,37.259z M30.65,36.857c0,3.377,1.367,5.898,3.512,5.898
			c1.528,0,2.841-1.126,2.841-4.853c0-3.244-1.206-5.71-3.431-5.71C32.017,32.193,30.65,33.802,30.65,36.857z"/>
		<path fill="#1E191A" d="M56.062,43.344V42.62c1.501-0.161,1.77-0.294,1.77-2.144v-4.504c0-1.957-0.724-3.003-2.252-3.003
			c-0.911,0-1.85,0.483-2.842,1.287c0.054,0.322,0.08,0.644,0.08,1.126v5.254c0,1.662,0.241,1.823,1.662,1.983v0.724h-5.817V42.62
			c1.582-0.161,1.796-0.294,1.796-2.01v-4.665c0-1.983-0.724-3.002-2.252-3.002c-0.992,0-1.984,0.67-2.762,1.313v6.354
			c0,1.688,0.214,1.85,1.475,2.01v0.724H41.13V42.62c1.743-0.161,1.957-0.294,1.957-2.063v-5.549c0-1.689-0.081-1.823-1.582-2.064
			V32.3c1.179-0.214,2.627-0.563,3.914-1.099v2.171c0.563-0.401,1.125-0.857,1.903-1.34c0.723-0.457,1.367-0.75,2.225-0.75
			c1.313,0,2.44,0.831,2.976,2.198c0.778-0.59,1.528-1.072,2.172-1.501c0.59-0.375,1.287-0.697,2.037-0.697
			c2.145,0,3.458,1.501,3.458,4.128v5.174c0,1.769,0.161,1.85,1.689,2.037v0.724L56.062,43.344L56.062,43.344z"/>
		<path fill="#1E191A" d="M78.125,43.344V42.62c1.501-0.161,1.769-0.294,1.769-2.144v-4.504c0-1.957-0.724-3.003-2.251-3.003
			c-0.912,0-1.85,0.483-2.842,1.287c0.053,0.322,0.08,0.644,0.08,1.126v5.254c0,1.662,0.241,1.823,1.662,1.983v0.724h-5.817V42.62
			c1.582-0.161,1.796-0.294,1.796-2.01v-4.665c0-1.983-0.725-3.002-2.253-3.002c-0.992,0-1.983,0.67-2.761,1.313v6.354
			c0,1.688,0.214,1.85,1.474,2.01v0.724h-5.791V42.62c1.743-0.161,1.957-0.294,1.957-2.063v-5.549c0-1.689-0.081-1.823-1.582-2.064
			V32.3c1.18-0.214,2.627-0.563,3.914-1.099v2.171c0.562-0.401,1.126-0.857,1.904-1.34c0.724-0.457,1.367-0.75,2.226-0.75
			c1.313,0,2.438,0.831,2.975,2.198c0.777-0.59,1.528-1.072,2.171-1.501c0.59-0.375,1.287-0.697,2.038-0.697
			c2.145,0,3.458,1.501,3.458,4.128v5.174c0,1.769,0.161,1.85,1.689,2.037v0.724L78.125,43.344L78.125,43.344z"/>
		<path fill="#1E191A" d="M98.068,42.701c-1.287,0.188-2.708,0.563-4.102,0.965l-0.187-0.161v-1.849
			c-0.589,0.455-1.126,0.884-1.85,1.313c-0.778,0.456-1.395,0.697-2.118,0.697c-1.876,0-3.351-1.153-3.351-3.968v-5.281
			c0-1.475-0.107-1.582-1.635-1.85v-0.67c1.34-0.08,2.681-0.241,4.074-0.482c-0.08,0.885-0.107,2.171-0.107,3.94v3.646
			c0,2.279,1.126,2.922,2.278,2.922c0.939,0,1.851-0.375,2.708-1.207v-6.299c0-1.501-0.134-1.608-2.01-1.85v-0.67
			c1.421-0.08,2.895-0.187,4.369-0.482v8.9c0,1.367,0.214,1.555,1.233,1.635l0.697,0.054L98.068,42.701L98.068,42.701z"/>
		<path fill="#1E191A" d="M106.861,43.344V42.62c1.501-0.161,1.688-0.348,1.688-2.224v-4.478c0-1.876-0.696-2.976-2.332-2.976
			c-0.992,0-1.984,0.616-2.761,1.287v6.326c0,1.796,0.16,1.903,1.662,2.063v0.725h-5.924V42.62c1.769-0.187,1.903-0.321,1.903-2.09
			v-5.549c0-1.689-0.161-1.77-1.582-2.038V32.3c1.341-0.242,2.681-0.589,3.941-1.099v2.118c0.536-0.402,1.099-0.804,1.77-1.233
			c0.776-0.51,1.421-0.804,2.198-0.804c2.144,0,3.458,1.501,3.458,4.102v5.174c0,1.796,0.162,1.876,1.689,2.063v0.724H106.861z"/>
		<path fill="#1E191A" d="M113.99,43.344V42.62c1.662-0.161,1.85-0.322,1.85-2.144v-5.496c0-1.689-0.107-1.796-1.635-2.038v-0.67
			c1.394-0.215,2.761-0.562,3.994-1.019v9.222c0,1.823,0.161,1.983,1.877,2.144v0.725H113.99L113.99,43.344z M115.412,27.609
			c0-0.858,0.67-1.502,1.474-1.502c0.777,0,1.421,0.643,1.421,1.502c0,0.777-0.644,1.447-1.448,1.447
			C116.082,29.056,115.412,28.386,115.412,27.609z"/>
		<path fill="#1E191A" d="M126.429,43.318c-0.456,0.241-0.858,0.349-1.099,0.349c-1.769,0-2.761-1.046-2.761-3.217v-7.748h-1.823
			l-0.107-0.294l0.724-0.805h1.207v-1.957l1.984-1.823l0.348,0.08v3.699h2.976c0.268,0.268,0.188,0.885-0.161,1.099H124.9v6.835
			c0,2.145,0.911,2.521,1.582,2.521c0.617,0,1.207-0.214,1.582-0.401l0.241,0.724L126.429,43.318z"/>
		<path fill="#1E191A" d="M141.36,32.3c-1.394,0.241-1.635,0.456-2.359,1.957c-0.67,1.42-1.501,3.646-3.324,7.961
			c-1.77,4.29-2.359,5.845-2.761,7.292c-0.134,0.536-0.482,0.669-0.884,0.669c-0.751,0-1.582-0.669-1.582-1.367
			c0-0.429,0.241-0.67,0.697-0.992c0.884-0.536,1.42-1.152,2.037-2.305c0.456-0.831,0.644-1.34,0.777-1.689
			c0.134-0.402,0.107-0.777-0.053-1.233c-1.153-3.19-2.386-6.541-3.137-8.337c-0.562-1.394-0.831-1.742-2.252-1.957v-0.697h5.657
			V32.3c-1.233,0.214-1.394,0.483-1.045,1.447l2.385,6.595c0.723-1.796,1.823-4.852,2.358-6.514
			c0.322-0.992,0.134-1.288-1.367-1.528v-0.697h4.852V32.3z"/>
		<g>
			<path fill="#1E191A" d="M20.705,56.166c0.831-1.42,1.957-2.841,3.19-2.841c0.965,0,1.608,0.723,1.608,1.394
				c0,0.617-0.375,1.18-0.938,1.448c-0.322,0.134-0.562,0.08-0.724-0.08c-0.402-0.376-0.724-0.537-1.18-0.537
				c-0.643,0-1.447,0.697-2.01,2.118v4.933c0,1.742,0.134,1.903,2.198,2.064v0.724h-6.38v-0.724
				c1.635-0.161,1.823-0.322,1.823-2.064v-5.603c0-1.716-0.134-1.796-1.609-2.038v-0.617c1.368-0.214,2.601-0.536,3.968-1.072v2.895
				L20.705,56.166L20.705,56.166z"/>
			<path fill="#1E191A" d="M36.092,63.056c-1.689,2.171-3.565,2.654-4.45,2.654c-3.351,0-5.281-2.681-5.281-5.71
				c0-1.876,0.697-3.538,1.796-4.717c1.126-1.234,2.573-1.958,3.967-1.958c2.278,0,4.102,2.011,4.075,4.129
				c0,0.536-0.107,0.777-0.643,0.884c-0.429,0.054-3.78,0.322-6.889,0.429c0.053,3.512,2.064,5.013,3.94,5.013
				c1.072,0,2.091-0.428,3.056-1.313L36.092,63.056z M28.828,57.64c1.42,0,2.814-0.026,4.289-0.08c0.456,0,0.616-0.135,0.616-0.536
				c0.027-1.395-0.831-2.708-2.225-2.708C30.329,54.317,29.176,55.469,28.828,57.64z"/>
			<path fill="#1E191A" d="M55.768,54.371c-1.34,0.187-1.581,0.508-2.118,1.956c-0.857,2.199-2.037,5.711-3.271,9.356h-0.804
				c-1.072-2.842-2.171-5.442-3.243-8.176c-1.019,2.654-2.091,5.281-3.137,8.176h-0.831c-0.965-3.216-2.01-6.406-3.109-9.57
				c-0.456-1.394-0.697-1.581-1.957-1.742v-0.725h5.737v0.725c-1.608,0.241-1.715,0.429-1.367,1.581
				c0.617,1.984,1.26,4.047,1.903,6.058h0.054c0.992-2.546,1.957-5.227,3.056-8.23h0.751c0.992,2.734,2.091,5.496,3.189,8.311h0.054
				c0.563-1.743,1.314-4.155,1.769-5.979c0.322-1.313,0.161-1.501-1.555-1.742v-0.725h4.879V54.371z"/>
			<path fill="#1E191A" d="M64.801,65.71c-0.455,0-1.019-0.241-1.313-0.537c-0.348-0.348-0.536-0.723-0.643-1.152
				c-1.073,0.724-2.359,1.689-3.11,1.689c-1.957,0-3.297-1.635-3.297-3.297c0-1.34,0.697-2.144,2.145-2.627
				c1.608-0.563,3.592-1.287,4.182-1.77V57.48c0-1.876-0.858-2.949-2.145-2.949c-0.482,0-0.885,0.187-1.153,0.509
				c-0.322,0.375-0.563,0.965-0.778,1.796c-0.133,0.482-0.429,0.67-0.857,0.67c-0.509,0-1.26-0.536-1.26-1.18
				c0-0.428,0.348-0.723,0.885-1.125c0.777-0.562,2.573-1.582,4.102-1.876c0.831,0,1.662,0.241,2.252,0.723
				c0.991,0.805,1.26,1.904,1.26,3.351v4.878c0,1.207,0.456,1.583,0.911,1.583c0.322,0,0.697-0.134,0.965-0.269l0.269,0.724
				L64.801,65.71z M62.764,58.954c-0.563,0.294-1.663,0.804-2.252,1.072c-0.992,0.482-1.555,0.965-1.555,1.957
				c0,1.394,1.045,2.038,1.85,2.038c0.643,0,1.474-0.401,1.957-0.857V58.954z"/>
			<path fill="#1E191A" d="M72.226,56.166c0.831-1.42,1.957-2.841,3.19-2.841c0.965,0,1.608,0.723,1.608,1.394
				c0,0.617-0.375,1.18-0.938,1.448c-0.322,0.134-0.563,0.08-0.724-0.08c-0.402-0.376-0.724-0.537-1.18-0.537
				c-0.643,0-1.447,0.697-2.01,2.118v4.933c0,1.742,0.135,1.903,2.198,2.064v0.724h-6.38v-0.724
				c1.636-0.161,1.823-0.322,1.823-2.064v-5.603c0-1.716-0.134-1.796-1.608-2.038v-0.617c1.367-0.214,2.601-0.536,3.967-1.072v2.895
				L72.226,56.166L72.226,56.166z"/>
			<path fill="#1E191A" d="M90.911,64.691c-0.617,0.107-2.708,0.456-4.37,1.019v-1.716l-1.636,0.992
				c-0.991,0.589-1.635,0.724-1.957,0.724c-2.171,0-5.04-1.957-5.04-5.737c0-3.699,3.217-6.648,6.969-6.648
				c0.349,0,1.046,0.054,1.663,0.268v-3.7c0-1.689-0.161-1.769-2.01-1.93v-0.671c1.447-0.188,3.297-0.589,4.369-0.938v15.897
				c0,1.421,0.161,1.555,1.18,1.662l0.831,0.08L90.911,64.691L90.911,64.691z M86.541,55.738c-0.616-0.938-1.663-1.394-2.6-1.394
				c-1.154,0-3.377,0.992-3.377,4.906c0,3.217,1.957,4.718,3.592,4.718c0.884,0,1.742-0.375,2.385-0.831V55.738z"/>
			<path fill="#1E191A" d="M99.006,56.863c-0.536-1.581-1.447-2.654-2.761-2.654c-0.965,0-1.663,0.75-1.663,1.77
				c0,1.125,0.964,1.742,2.198,2.279c2.064,0.857,3.431,1.795,3.431,3.699c0,2.493-2.305,3.753-4.477,3.753
				c-1.394,0-2.653-0.509-3.136-0.911c-0.188-0.375-0.429-2.226-0.456-3.244l0.75-0.107c0.482,1.742,1.688,3.351,3.324,3.351
				c0.965,0,1.823-0.725,1.823-1.797c0-1.125-0.696-1.742-2.091-2.412c-1.555-0.724-3.404-1.635-3.404-3.727
				c0-1.93,1.635-3.539,4.155-3.539c1.152,0,1.876,0.241,2.439,0.483c0.214,0.59,0.509,2.251,0.59,2.869L99.006,56.863z"/>
		</g>
	</g>
	<path fill="#713370" d="M47.207,6.303c1.013,0.031,2.23,0.357,2.378,1.825c0.186,1.849-1.27,2.254-2.666,2.312
		c-5.374,0.222-10.521,1.375-15.486,3.434c-1.991,0.825-3.848,1.883-5.677,2.997c-1.108,0.675-2.254,1.159-3.134-0.142
		c-0.982-1.454,0.08-2.39,1.192-3.1C29.869,9.762,36.501,7.5,43.62,6.636C44.721,6.502,45.83,6.429,47.207,6.303z"/>
	<g>
		<path fill="#E2101C" d="M98.274,18.671c-0.154,1.005-0.295,1.938-0.442,2.869c-0.153,0.973-0.32,1.943-0.465,2.917
			c-0.034,0.228-0.105,0.332-0.354,0.321c-0.416-0.019-0.833-0.006-1.317-0.006c0.23-1.285,0.45-2.513,0.67-3.741
			c-0.012-0.005-0.025-0.011-0.038-0.017c-0.305,0.73-0.611,1.46-0.915,2.19c-0.171,0.411-0.354,0.818-0.505,1.236
			c-0.091,0.252-0.22,0.368-0.502,0.338c-0.266-0.029-0.539-0.007-0.869-0.007c-0.126-1.265-0.253-2.517-0.378-3.768
			c-0.013,0.001-0.026,0.004-0.039,0.006c-0.173,1.245-0.346,2.489-0.521,3.745c-0.558,0-1.068,0-1.611,0
			c0.321-2.019,0.642-4.024,0.965-6.058c0.713,0,1.41,0,2.166,0c0.121,1.219,0.243,2.441,0.365,3.665
			c0.029,0.004,0.058,0.009,0.087,0.014c0.206-0.491,0.412-0.98,0.616-1.471c0.274-0.66,0.542-1.324,0.827-1.979
			c0.045-0.103,0.169-0.24,0.261-0.243C96.92,18.661,97.567,18.671,98.274,18.671z"/>
		<path fill="#E2101C" d="M75.926,21.209c0.663,0,1.292,0,1.958,0c-0.062,0.426-0.104,0.812-0.188,1.188
			c-0.018,0.083-0.182,0.184-0.283,0.188c-0.458,0.021-0.919,0.028-1.377,0.003c-0.304-0.017-0.392,0.113-0.427,0.388
			c-0.074,0.586-0.18,1.168-0.276,1.772c-0.576,0-1.138,0-1.765,0c0.096-0.645,0.185-1.277,0.285-1.908
			c0.206-1.291,0.413-2.582,0.638-3.869c0.02-0.113,0.172-0.288,0.265-0.29c1.322-0.019,2.644-0.013,4.038-0.013
			c-0.069,0.471-0.132,0.901-0.205,1.393c-0.597,0-1.2,0-1.801,0c-0.689,0-0.691,0-0.815,0.672
			C75.946,20.876,75.943,21.022,75.926,21.209z"/>
		<path fill="#E2101C" d="M102.424,20.344c0.52,0,1.029,0,1.561,0c0.089,0.884,0.177,1.752,0.265,2.62
			c0.027,0.006,0.054,0.012,0.081,0.018c0.369-0.88,0.736-1.761,1.108-2.647c0.479,0,0.951,0,1.453,0
			c-0.029,0.094-0.045,0.181-0.081,0.259c-0.67,1.429-1.333,2.86-2.016,4.283c-0.63,1.313-1.302,1.632-2.773,1.332
			c0.055-0.363,0.111-0.729,0.165-1.081c0.041-0.026,0.062-0.053,0.085-0.054c0.875-0.044,0.911-0.083,0.777-0.965
			c-0.094-0.627-0.212-1.25-0.316-1.875C102.628,21.609,102.528,20.985,102.424,20.344z"/>
		<path fill="#E2101C" d="M112.338,24.757c-0.532,0-1.029,0-1.56,0c0.235-1.473,0.468-2.932,0.705-4.409c0.464,0,0.903,0,1.39,0
			c-0.029,0.257-0.056,0.503-0.087,0.785c0.238-0.254,0.417-0.532,0.67-0.692c0.242-0.154,0.562-0.187,0.936-0.3
			c-0.105,0.677-0.191,1.227-0.276,1.767c-1.093,0.071-1.322,0.27-1.528,1.333C112.492,23.729,112.424,24.223,112.338,24.757z"/>
		<path fill="#E2101C" d="M78.393,20.343c0.487,0,0.942,0,1.408,0c-0.037,0.265-0.074,0.523-0.126,0.897
			c0.419-0.651,0.825-1.144,1.614-0.977c-0.087,0.553-0.172,1.084-0.258,1.624c-0.031,0.013-0.068,0.045-0.101,0.042
			c-0.896-0.111-1.271,0.399-1.419,1.238c-0.091,0.517-0.172,1.035-0.263,1.58c-0.494,0-0.987,0-1.552,0
			C77.927,23.281,78.159,21.817,78.393,20.343z"/>
		<g>
			<path fill="#E2101C" d="M81.289,20.262c-0.789-0.167-1.195,0.326-1.614,0.977c0.053-0.374,0.089-0.632,0.126-0.897
				c-0.465,0-0.921,0-1.408,0c-0.233,1.475-0.465,2.938-0.697,4.403c0.564,0,1.058,0,1.551,0c0.09-0.544,0.171-1.063,0.263-1.58
				c0.148-0.838,0.523-1.35,1.419-1.238c0.032,0.004,0.07-0.028,0.101-0.042C81.116,21.346,81.201,20.815,81.289,20.262z"/>
			<g>
				<path fill="#E2101C" d="M89.346,18.69c-0.115,0.678-0.226,1.339-0.345,2.043c-0.752-0.694-1.633-0.688-2.309,0
					c-0.75,0.761-0.994,1.712-0.926,2.752c0.038,0.572,0.255,1.067,0.829,1.283c0.591,0.223,1.169,0.178,1.669-0.26
					c0.098-0.086,0.194-0.175,0.342-0.309c-0.027,0.23-0.045,0.386-0.067,0.572c0.369,0,0.72-0.014,1.068,0.006
					c0.256,0.014,0.342-0.072,0.38-0.332c0.221-1.467,0.466-2.93,0.699-4.396c0.071-0.445,0.129-0.892,0.198-1.361
					C90.339,18.69,89.858,18.69,89.346,18.69z M88.424,23.373c-0.167,0.273-0.506,0.392-0.775,0.226
					c-0.175-0.108-0.314-0.409-0.319-0.626c-0.006-0.31,0.093-0.635,0.209-0.929c0.156-0.39,0.521-0.587,0.823-0.491
					c0.386,0.121,0.433,0.436,0.502,0.815C88.722,22.705,88.613,23.064,88.424,23.373z"/>
			</g>
			<path fill="#E2101C" d="M96.275,18.682c-0.092,0.003-0.216,0.14-0.261,0.243c-0.286,0.655-0.553,1.318-0.827,1.979
				c-0.205,0.49-0.411,0.98-0.616,1.471c-0.029-0.004-0.058-0.009-0.087-0.014c-0.122-1.223-0.244-2.445-0.365-3.664
				c-0.756,0-1.453,0-2.166,0c-0.323,2.033-0.644,4.039-0.965,6.057c0.543,0,1.053,0,1.611,0c0.175-1.255,0.347-2.5,0.521-3.745
				c0.013-0.001,0.026-0.004,0.039-0.005c0.125,1.251,0.251,2.503,0.378,3.768c0.331,0,0.603-0.022,0.869,0.007
				c0.282,0.031,0.411-0.086,0.502-0.338c0.151-0.418,0.334-0.825,0.505-1.236c0.304-0.73,0.61-1.46,0.915-2.19
				c0.013,0.005,0.026,0.011,0.038,0.017c-0.22,1.228-0.44,2.457-0.67,3.741c0.484,0,0.901-0.013,1.317,0.006
				c0.248,0.011,0.319-0.094,0.354-0.321c0.146-0.974,0.312-1.944,0.465-2.917c0.147-0.931,0.288-1.864,0.442-2.869
				C97.567,18.671,96.92,18.661,96.275,18.682z"/>
			<path fill="#E2101C" d="M77.884,21.209c-0.666,0-1.295,0-1.958,0c0.018-0.187,0.02-0.333,0.046-0.475
				c0.124-0.672,0.126-0.672,0.814-0.672c0.603,0,1.204,0,1.802,0c0.073-0.491,0.136-0.922,0.205-1.393
				c-1.395,0-2.717-0.005-4.039,0.013c-0.094,0.001-0.245,0.176-0.265,0.29c-0.224,1.288-0.431,2.579-0.638,3.869
				c-0.1,0.63-0.189,1.263-0.285,1.908c0.626,0,1.188,0,1.765,0c0.097-0.604,0.203-1.186,0.277-1.772
				c0.035-0.275,0.122-0.405,0.426-0.388c0.458,0.025,0.919,0.018,1.378-0.002c0.101-0.005,0.265-0.106,0.284-0.189
				C77.779,22.021,77.821,21.635,77.884,21.209z"/>
			<path fill="#E2101C" d="M113.455,20.44c-0.253,0.161-0.433,0.438-0.67,0.693c0.032-0.282,0.059-0.527,0.087-0.785
				c-0.486,0-0.926,0-1.39,0c-0.236,1.477-0.47,2.936-0.704,4.409c0.531,0,1.028,0,1.56,0c0.086-0.534,0.153-1.028,0.248-1.517
				c0.206-1.063,0.435-1.262,1.528-1.333c0.085-0.54,0.171-1.089,0.276-1.766C114.016,20.254,113.697,20.286,113.455,20.44z"/>
			<path fill="#E2101C" d="M106.892,20.336c-0.503,0-0.976,0-1.454,0c-0.372,0.886-0.74,1.767-1.108,2.647
				c-0.026-0.006-0.054-0.012-0.081-0.018c-0.088-0.868-0.176-1.736-0.265-2.62c-0.532,0-1.041,0-1.561,0
				c0.104,0.64,0.205,1.265,0.309,1.89c0.104,0.625,0.222,1.247,0.316,1.874c0.134,0.883,0.097,0.921-0.777,0.965
				c-0.023,0.001-0.044,0.028-0.085,0.055c-0.054,0.351-0.109,0.717-0.165,1.08c1.471,0.3,2.144-0.019,2.773-1.332
				c0.683-1.422,1.347-2.854,2.016-4.283C106.847,20.517,106.863,20.43,106.892,20.336z"/>
			<g>
				<path fill="#E2101C" d="M101.71,22.92c0.795,0,0.795,0,0.772-0.815c-0.027-0.978-0.618-1.714-1.491-1.858
					c-1.574-0.261-3.006,0.868-3.139,2.474c-0.096,1.159,0.306,1.867,1.267,2.088c0.876,0.201,1.731,0.091,2.454-0.496
					c0.247-0.2,0.421-0.49,0.628-0.738c-0.024-0.034-0.049-0.068-0.073-0.102c-0.2,0-0.399-0.002-0.599,0
					c-0.395,0.005-0.779-0.045-1.138,0.262c-0.142,0.122-0.525,0.069-0.742-0.029c-0.278-0.127-0.333-0.432-0.239-0.786
					C100.174,22.92,100.942,22.92,101.71,22.92z M100.405,21.256c0.389,0.015,0.601,0.28,0.593,0.797c-0.487,0-0.954,0-1.42,0
					C99.597,21.554,99.936,21.238,100.405,21.256z"/>
			</g>
			<path fill="#E2101C" d="M84.172,20.25c-1.226-0.234-2.449,0.406-2.938,1.58c-0.328,0.785-0.464,1.604,0.072,2.357
				c0.527,0.739,1.329,0.766,2.127,0.663c0.846-0.109,1.515-0.509,1.916-1.377c-0.346,0-0.638-0.001-0.932,0
				c-0.291,0.002-0.566-0.027-0.814,0.236c-0.206,0.217-0.526,0.201-0.789,0.027c-0.277-0.184-0.361-0.45-0.265-0.81
				c1,0,1.996,0,3.022,0c0.026-0.21,0.053-0.356,0.063-0.504C85.72,21.316,85.123,20.431,84.172,20.25z M84.117,22.051
				c-0.468,0-0.94,0-1.415,0c0.071-0.548,0.442-0.854,0.923-0.788C83.991,21.312,84.167,21.583,84.117,22.051z"/>
		</g>
		<g>
			<path fill="#E2101C" d="M109.299,22.92c0.509,0,1.018,0,1.512,0c0.348-1.329-0.316-2.521-1.447-2.677
				c-1.328-0.184-2.492,0.502-2.941,1.764c-0.598,1.682,0.167,3.081,2.141,2.86c0.04-0.005,0.081-0.003,0.121-0.009
				c0.845-0.132,1.514-0.514,1.93-1.385c-0.255,0-0.452-0.002-0.648,0c-0.408,0.005-0.806-0.052-1.176,0.265
				c-0.141,0.121-0.527,0.066-0.74-0.037c-0.262-0.128-0.348-0.425-0.242-0.781C108.305,22.92,108.802,22.92,109.299,22.92z
				 M108.789,21.258c0.338,0.003,0.604,0.225,0.618,0.559c0.004,0.083-0.118,0.244-0.189,0.248
				c-0.412,0.023-0.828,0.012-1.282,0.012C108.072,21.499,108.348,21.254,108.789,21.258z"/>
		</g>
	</g>
</g>
</svg>
