<?xml version="1.0" encoding="utf-8"?>
<!-- Generator: Adobe Illustrator 16.0.0, SVG Export Plug-In . SVG Version: 6.00 Build 0)  -->
<!DOCTYPE svg PUBLIC "-//W3C//DTD SVG 1.1//EN" "http://www.w3.org/Graphics/SVG/1.1/DTD/svg11.dtd">
<svg version="1.1" id="Layer_1" xmlns="http://www.w3.org/2000/svg" xmlns:xlink="http://www.w3.org/1999/xlink" x="0px" y="0px"
	 width="331.335px" height="154.681px" viewBox="0 0 331.335 154.681" enable-background="new 0 0 331.335 154.681"
	 xml:space="preserve">
<path fill-rule="evenodd" clip-rule="evenodd" fill="#FBA81A" d="M162.926,52.955c-0.113,3.504-3.781,5.241-7.639,3.048
	c-12.101-6.88-25.195-8.489-38.796-8.179c-13.213,0.301-25.892,2.543-37.531,9.169c-0.485,0.276-0.986,0.523-1.482,0.779
	c-2.372,1.218-4.727,1.606-6.393-0.985c-1.824-2.835-0.341-5.03,1.96-6.661c5.067-3.592,10.771-5.902,16.714-7.534
	c19.813-5.44,39.624-5.965,59.361,0.42c3.912,1.266,7.577,3.079,10.975,5.418C161.702,49.538,162.897,50.874,162.926,52.955z"/>
<path fill-rule="evenodd" clip-rule="evenodd" fill="#713370" d="M69.025,16.764c-0.277,2.334-1.932,3.658-4.148,4.515
	c-18.023,6.966-33.189,18.068-46.38,32.036c-2.209,2.339-4.635,5.102-7.987,2.2c-3.557-3.077-1.3-6.141,1.08-8.635
	c13.892-14.551,29.844-26.217,48.539-33.872C65.32,10.882,69.149,12.604,69.025,16.764z"/>
<path fill-rule="evenodd" clip-rule="evenodd" fill="#713370" d="M5.624,90.313c-1.605,0.009-2.872-0.66-3.785-1.964
	c-1.546-2.209-0.708-4.295,0.523-6.228c5.799-9.098,12.154-17.799,19.499-25.711c5.431-5.851,10.99-11.611,17.695-16.076
	c2.906-1.936,6.156-3.837,8.697,0.069c2.357,3.622-0.542,5.769-3.233,7.641c-13.998,9.733-24.125,22.969-33.408,36.959
	C9.004,88.934,7.664,90.241,5.624,90.313z"/>
<path fill-rule="evenodd" clip-rule="evenodd" fill="#713370" d="M86.288,29.91c2.713-0.097,4.699,0.702,5.271,3.34
	c0.683,3.15-1.016,4.971-3.849,5.796c-10.645,3.102-20.285,8.172-29.285,14.583c-5.798,4.13-10.502,9.404-15.508,14.37
	c-2.029,2.014-4.435,3.261-6.893,1.203c-2.545-2.129-1.603-4.75,0.262-6.889c12.973-14.867,28.479-25.98,47.511-31.809
	C84.683,30.233,85.601,30.072,86.288,29.91z"/>
<path fill-rule="evenodd" clip-rule="evenodd" fill="#FBA81A" d="M116.421,24.71c11.2,0.566,20.315,1.051,29.033,4.057
	c3.044,1.05,6.519,2.225,5.284,6.432c-1.209,4.118-4.512,3.584-7.798,2.539c-13.228-4.212-26.734-3.971-40.316-2.414
	c-3.135,0.359-6.884,1.299-7.651-3.127c-0.798-4.601,2.904-5.469,6.377-5.89C107.062,25.615,112.793,25.088,116.421,24.71z"/>
<path fill-rule="evenodd" clip-rule="evenodd" fill="#FBA81A" d="M135.104,16.546c-0.35,4.104-2.711,6.482-6.777,6.508
	c-3.643,0.024-5.778-2.292-6.122-5.926c-0.332-3.514,2.994-7.227,6.393-6.979C132.374,10.423,134.699,12.525,135.104,16.546z"/>
<path fill-rule="evenodd" clip-rule="evenodd" fill="#713370" d="M43.98,14.588c-0.271,3.74-2.238,6.307-6.14,6.486
	c-4.196,0.194-6.685-2.308-6.77-6.454c-0.081-3.972,2.307-6.246,6.279-6.269C41.271,8.329,43.501,10.513,43.98,14.588z"/>
<path fill-rule="evenodd" clip-rule="evenodd" fill="#713370" d="M95.286,7.409c-0.349,4.104-2.71,6.482-6.776,6.508
	c-3.642,0.024-5.778-2.292-6.122-5.926c-0.332-3.514,2.994-7.228,6.392-6.98C92.557,1.287,94.881,3.388,95.286,7.409z"/>
<g>
	<path fill="#1E191A" d="M60.87,94.317c-2.821,3.698-6.958,6.456-10.657,6.456c-8.087,0-12.789-6.394-12.789-13.164
		c0-4.765,2.194-9.027,6.332-12.162c3.385-2.632,7.209-3.635,9.654-3.635c2.507,0,4.576,0.815,5.516,1.63
		c0.877,0.69,1.065,1.253,1.065,1.944c0,1.441-1.442,2.883-2.194,2.883c-0.376,0-0.689-0.188-1.191-0.69
		c-2.068-1.88-4.2-2.695-6.331-2.695c-3.824,0-7.271,3.26-7.271,9.841c0,8.651,5.955,11.535,9.34,11.535
		c2.633,0,4.639-0.752,7.397-3.322L60.87,94.317z"/>
	<path fill="#1E191A" d="M91.585,85.791c0,10.155-7.334,14.982-13.729,14.982c-8.839,0-13.917-6.958-13.917-13.854
		c0-10.343,8.024-15.107,13.979-15.107C85.818,71.812,91.585,78.144,91.585,85.791z M70.334,84.851
		c0,7.898,3.197,13.792,8.212,13.792c3.573,0,6.645-2.633,6.645-11.347c0-7.585-2.821-13.352-8.024-13.352
		C73.531,73.943,70.334,77.705,70.334,84.851z"/>
	<path fill="#1E191A" d="M129.76,100.021v-1.693c3.51-0.376,4.137-0.689,4.137-5.015V82.782c0-4.576-1.692-7.021-5.266-7.021
		c-2.131,0-4.326,1.128-6.645,3.009c0.125,0.752,0.188,1.504,0.188,2.632v12.287c0,3.887,0.564,4.263,3.886,4.639v1.693h-13.603
		v-1.693c3.699-0.376,4.2-0.689,4.2-4.702V82.719c0-4.639-1.692-7.021-5.266-7.021c-2.319,0-4.639,1.567-6.457,3.072v14.856
		c0,3.95,0.501,4.326,3.448,4.702v1.693h-13.54v-1.693c4.075-0.376,4.576-0.689,4.576-4.826V80.525c0-3.949-0.188-4.262-3.698-4.826
		v-1.505c2.758-0.501,6.144-1.316,9.152-2.57v5.078c1.317-0.939,2.633-2.006,4.451-3.134c1.692-1.066,3.197-1.755,5.203-1.755
		c3.071,0,5.705,1.943,6.958,5.141c1.818-1.379,3.573-2.508,5.078-3.511c1.379-0.878,3.009-1.63,4.764-1.63
		c5.015,0,8.087,3.511,8.087,9.654v12.099c0,4.137,0.376,4.325,3.949,4.763v1.693H129.76z"/>
	<path fill="#1E191A" d="M181.35,100.021v-1.693c3.51-0.376,4.137-0.689,4.137-5.015V82.782c0-4.576-1.693-7.021-5.266-7.021
		c-2.132,0-4.326,1.128-6.646,3.009c0.126,0.752,0.188,1.504,0.188,2.632v12.287c0,3.887,0.564,4.263,3.887,4.639v1.693h-13.603
		v-1.693c3.698-0.376,4.2-0.689,4.2-4.702V82.719c0-4.639-1.693-7.021-5.266-7.021c-2.32,0-4.639,1.567-6.457,3.072v14.856
		c0,3.95,0.501,4.326,3.448,4.702v1.693h-13.541v-1.693c4.075-0.376,4.576-0.689,4.576-4.826V80.525
		c0-3.949-0.188-4.262-3.698-4.826v-1.505c2.758-0.501,6.143-1.316,9.152-2.57v5.078c1.316-0.939,2.633-2.006,4.451-3.134
		c1.693-1.066,3.197-1.755,5.204-1.755c3.071,0,5.704,1.943,6.958,5.141c1.818-1.379,3.573-2.508,5.078-3.511
		c1.379-0.878,3.009-1.63,4.764-1.63c5.015,0,8.086,3.511,8.086,9.654v12.099c0,4.137,0.376,4.325,3.949,4.763v1.693H181.35z"/>
	<path fill="#1E191A" d="M227.987,98.517c-3.009,0.439-6.332,1.317-9.591,2.256l-0.438-0.376v-4.325
		c-1.379,1.065-2.633,2.068-4.326,3.071c-1.818,1.066-3.26,1.63-4.952,1.63c-4.388,0-7.835-2.695-7.835-9.278V79.146
		c0-3.448-0.251-3.699-3.824-4.326v-1.567c3.134-0.188,6.269-0.564,9.528-1.129c-0.188,2.069-0.25,5.078-0.25,9.215v8.526
		c0,5.329,2.632,6.833,5.328,6.833c2.194,0,4.325-0.878,6.332-2.821V79.146c0-3.511-0.313-3.761-4.702-4.326v-1.567
		c3.322-0.188,6.77-0.438,10.218-1.129v20.812c0,3.197,0.501,3.635,2.884,3.824l1.63,0.126V98.517z"/>
	<path fill="#1E191A" d="M248.546,100.021v-1.693c3.511-0.376,3.95-0.814,3.95-5.202v-10.47c0-4.387-1.63-6.958-5.454-6.958
		c-2.319,0-4.639,1.441-6.457,3.009v14.794c0,4.2,0.376,4.45,3.887,4.826v1.693h-13.854v-1.693c4.138-0.438,4.451-0.752,4.451-4.889
		V80.463c0-3.95-0.376-4.138-3.698-4.765v-1.505c3.134-0.564,6.269-1.378,9.215-2.57v4.953c1.253-0.94,2.57-1.881,4.138-2.883
		c1.817-1.192,3.322-1.881,5.14-1.881c5.015,0,8.087,3.511,8.087,9.591v12.099c0,4.2,0.376,4.388,3.949,4.826v1.693H248.546z"/>
	<path fill="#1E191A" d="M265.219,100.021v-1.693c3.886-0.376,4.325-0.752,4.325-5.015v-12.85c0-3.95-0.25-4.2-3.824-4.765v-1.567
		c3.26-0.502,6.457-1.316,9.34-2.383v21.564c0,4.263,0.376,4.639,4.388,5.015v1.693H265.219z M268.542,63.224
		c0-2.006,1.567-3.511,3.448-3.511c1.817,0,3.322,1.504,3.322,3.511c0,1.818-1.505,3.385-3.385,3.385
		C270.109,66.609,268.542,65.042,268.542,63.224z"/>
	<path fill="#1E191A" d="M294.306,99.958c-1.066,0.564-2.006,0.815-2.57,0.815c-4.137,0-6.457-2.445-6.457-7.522V75.134h-4.263
		l-0.251-0.689l1.692-1.881h2.821v-4.576l4.639-4.262l0.815,0.188v8.65h6.958c0.627,0.627,0.439,2.069-0.376,2.57h-6.582v15.985
		c0,5.015,2.131,5.893,3.698,5.893c1.442,0,2.821-0.501,3.699-0.939l0.564,1.692L294.306,99.958z"/>
	<path fill="#1E191A" d="M329.221,74.194c-3.26,0.564-3.824,1.066-5.516,4.577c-1.567,3.322-3.511,8.525-7.773,18.617
		c-4.137,10.031-5.516,13.666-6.457,17.051c-0.313,1.254-1.128,1.567-2.068,1.567c-1.755,0-3.698-1.567-3.698-3.197
		c0-1.003,0.564-1.567,1.63-2.32c2.068-1.253,3.322-2.695,4.764-5.391c1.066-1.943,1.505-3.134,1.818-3.949
		c0.313-0.94,0.251-1.818-0.125-2.884c-2.696-7.459-5.579-15.295-7.334-19.495c-1.316-3.26-1.943-4.075-5.266-4.577v-1.63h13.227
		v1.63c-2.883,0.501-3.259,1.129-2.444,3.385L315.556,93c1.692-4.2,4.263-11.346,5.516-15.233c0.752-2.32,0.313-3.009-3.197-3.573
		v-1.63h11.346V74.194z"/>
	<g>
		<path fill="#1E191A" d="M47.079,130.003c1.943-3.322,4.576-6.645,7.459-6.645c2.257,0,3.761,1.692,3.761,3.259
			c0,1.442-0.877,2.759-2.194,3.385c-0.752,0.314-1.316,0.188-1.692-0.188c-0.941-0.878-1.693-1.254-2.758-1.254
			c-1.505,0-3.385,1.63-4.702,4.952v11.535c0,4.074,0.313,4.45,5.14,4.826v1.693H37.174v-1.693c3.824-0.376,4.263-0.752,4.263-4.826
			v-13.102c0-4.012-0.313-4.2-3.761-4.765v-1.442c3.197-0.501,6.081-1.254,9.278-2.507v6.77H47.079z"/>
		<path fill="#1E191A" d="M83.061,146.114c-3.95,5.078-8.337,6.206-10.406,6.206c-7.836,0-12.349-6.269-12.349-13.352
			c0-4.388,1.63-8.274,4.2-11.033c2.633-2.884,6.018-4.576,9.278-4.576c5.328,0,9.591,4.702,9.528,9.654
			c0,1.253-0.25,1.818-1.504,2.068c-1.003,0.125-8.839,0.753-16.11,1.003c0.125,8.211,4.827,11.722,9.215,11.722
			c2.507,0,4.89-1.002,7.146-3.072L83.061,146.114z M66.073,133.451c3.322,0,6.582-0.062,10.03-0.188
			c1.065,0,1.441-0.314,1.441-1.253c0.062-3.261-1.943-6.332-5.203-6.332C69.583,125.679,66.888,128.374,66.073,133.451z"/>
		<path fill="#1E191A" d="M129.07,125.804c-3.134,0.438-3.698,1.19-4.952,4.576c-2.006,5.141-4.765,13.353-7.648,21.878h-1.88
			c-2.508-6.646-5.078-12.726-7.585-19.12c-2.382,6.206-4.89,12.35-7.334,19.12h-1.943c-2.257-7.523-4.702-14.982-7.272-22.379
			c-1.065-3.261-1.63-3.699-4.576-4.075v-1.693h13.415v1.693c-3.761,0.564-4.012,1.003-3.197,3.698
			c1.442,4.64,2.946,9.466,4.451,14.167h0.125c2.319-5.955,4.576-12.224,7.146-19.245h1.755c2.32,6.394,4.89,12.851,7.46,19.433
			h0.125c1.316-4.075,3.072-9.716,4.137-13.979c0.752-3.072,0.376-3.511-3.636-4.075v-1.693h11.409V125.804z"/>
		<path fill="#1E191A" d="M150.194,152.32c-1.065,0-2.382-0.563-3.071-1.254c-0.815-0.814-1.254-1.692-1.504-2.695
			c-2.508,1.692-5.517,3.949-7.272,3.949c-4.576,0-7.71-3.823-7.71-7.71c0-3.135,1.63-5.015,5.015-6.144
			c3.761-1.316,8.4-3.009,9.779-4.137v-1.254c0-4.388-2.006-6.896-5.015-6.896c-1.128,0-2.069,0.438-2.696,1.191
			c-0.752,0.877-1.316,2.256-1.818,4.2c-0.313,1.128-1.003,1.567-2.006,1.567c-1.191,0-2.946-1.254-2.946-2.759
			c0-1.002,0.815-1.692,2.069-2.632c1.818-1.316,6.018-3.699,9.591-4.388c1.943,0,3.887,0.564,5.266,1.692
			c2.319,1.881,2.946,4.451,2.946,7.835v11.409c0,2.821,1.066,3.699,2.131,3.699c0.752,0,1.63-0.314,2.257-0.627l0.627,1.693
			L150.194,152.32z M145.43,136.523c-1.316,0.689-3.887,1.88-5.266,2.507c-2.319,1.128-3.636,2.257-3.636,4.576
			c0,3.26,2.445,4.765,4.326,4.765c1.504,0,3.447-0.94,4.576-2.006V136.523z"/>
		<path fill="#1E191A" d="M167.557,130.003c1.943-3.322,4.576-6.645,7.459-6.645c2.257,0,3.761,1.692,3.761,3.259
			c0,1.442-0.877,2.759-2.193,3.385c-0.753,0.314-1.317,0.188-1.693-0.188c-0.94-0.878-1.692-1.254-2.758-1.254
			c-1.504,0-3.385,1.63-4.702,4.952v11.535c0,4.074,0.314,4.45,5.141,4.826v1.693h-14.919v-1.693
			c3.824-0.376,4.263-0.752,4.263-4.826v-13.102c0-4.012-0.313-4.2-3.761-4.765v-1.442c3.197-0.501,6.081-1.254,9.277-2.507v6.77
			H167.557z"/>
		<path fill="#1E191A" d="M211.249,149.938c-1.441,0.251-6.331,1.066-10.218,2.382v-4.012l-3.824,2.319
			c-2.319,1.379-3.824,1.692-4.576,1.692c-5.078,0-11.785-4.576-11.785-13.415c0-8.65,7.522-15.546,16.298-15.546
			c0.815,0,2.445,0.125,3.887,0.627v-8.651c0-3.95-0.376-4.137-4.701-4.513v-1.568c3.385-0.439,7.71-1.378,10.217-2.193v37.173
			c0,3.322,0.376,3.636,2.758,3.886l1.943,0.188V149.938z M201.031,129.001c-1.442-2.194-3.887-3.26-6.081-3.26
			c-2.696,0-7.898,2.32-7.898,11.472c0,7.522,4.576,11.033,8.4,11.033c2.069,0,4.075-0.878,5.579-1.943V129.001z"/>
		<path fill="#1E191A" d="M230.18,131.633c-1.254-3.698-3.385-6.206-6.457-6.206c-2.257,0-3.887,1.755-3.887,4.137
			c0,2.633,2.256,4.075,5.14,5.329c4.827,2.006,8.024,4.2,8.024,8.65c0,5.83-5.391,8.776-10.469,8.776
			c-3.259,0-6.206-1.191-7.334-2.13c-0.438-0.878-1.002-5.204-1.065-7.586l1.755-0.25c1.128,4.074,3.949,7.836,7.773,7.836
			c2.257,0,4.263-1.693,4.263-4.201c0-2.632-1.629-4.074-4.89-5.641c-3.636-1.692-7.961-3.824-7.961-8.714
			c0-4.513,3.824-8.274,9.716-8.274c2.696,0,4.388,0.564,5.705,1.128c0.501,1.379,1.191,5.266,1.379,6.708L230.18,131.633z"/>
	</g>
</g>
<path fill-rule="evenodd" clip-rule="evenodd" fill="#713370" d="M109.051,13.402c2.369,0.073,5.215,0.835,5.56,4.268
	c0.435,4.322-2.969,5.27-6.233,5.404c-12.567,0.519-24.603,3.217-36.212,8.031c-4.655,1.929-8.998,4.403-13.276,7.008
	c-2.59,1.576-5.271,2.709-7.328-0.333c-2.298-3.399,0.186-5.589,2.786-7.249c14.16-9.039,29.669-14.33,46.315-16.351
	C103.238,13.867,105.832,13.696,109.051,13.402z"/>
<g>
	<path fill-rule="evenodd" clip-rule="evenodd" fill="#E2101C" d="M228.468,42.323c-0.361,2.35-0.69,4.531-1.035,6.71
		c-0.358,2.274-0.748,4.543-1.087,6.82c-0.08,0.532-0.247,0.776-0.827,0.75c-0.972-0.043-1.947-0.012-3.08-0.012
		c0.539-3.005,1.053-5.877,1.568-8.75c-0.029-0.012-0.06-0.025-0.089-0.038c-0.713,1.707-1.429,3.414-2.14,5.122
		c-0.4,0.961-0.825,1.913-1.18,2.891c-0.213,0.589-0.514,0.861-1.174,0.79c-0.624-0.068-1.26-0.015-2.033-0.015
		c-0.296-2.958-0.59-5.886-0.884-8.813c-0.031,0.004-0.062,0.009-0.092,0.014c-0.404,2.91-0.808,5.821-1.216,8.757
		c-1.305,0-2.499,0-3.768,0c0.751-4.722,1.499-9.412,2.256-14.165c1.667,0,3.296,0,5.065,0c0.283,2.851,0.568,5.709,0.852,8.569
		c0.069,0.01,0.136,0.02,0.205,0.031c0.48-1.147,0.962-2.292,1.44-3.44c0.642-1.543,1.266-3.095,1.934-4.627
		c0.105-0.241,0.396-0.561,0.609-0.568C225.302,42.3,226.814,42.323,228.468,42.323z"/>
	<path fill-rule="evenodd" clip-rule="evenodd" fill="#E2101C" d="M176.209,48.26c1.549,0,3.021,0,4.578,0
		c-0.147,0.996-0.245,1.897-0.439,2.777c-0.043,0.193-0.427,0.431-0.663,0.441c-1.072,0.048-2.149,0.065-3.221,0.006
		c-0.713-0.039-0.916,0.266-0.997,0.909c-0.174,1.37-0.422,2.731-0.647,4.144c-1.348,0-2.661,0-4.127,0
		c0.225-1.509,0.433-2.988,0.668-4.462c0.481-3.019,0.964-6.038,1.49-9.048c0.047-0.264,0.402-0.674,0.62-0.677
		c3.091-0.044,6.183-0.03,9.443-0.03c-0.162,1.102-0.309,2.107-0.478,3.258c-1.398,0-2.806,0-4.213,0
		c-1.611,0-1.616-0.001-1.905,1.57C176.256,47.479,176.25,47.822,176.209,48.26z"/>
	<path fill-rule="evenodd" clip-rule="evenodd" fill="#E2101C" d="M238.171,46.237c1.217,0,2.406,0,3.65,0
		c0.208,2.068,0.414,4.097,0.619,6.127c0.063,0.014,0.126,0.028,0.189,0.042c0.861-2.058,1.722-4.116,2.591-6.189
		c1.119,0,2.223,0,3.399,0c-0.068,0.22-0.106,0.423-0.191,0.605c-1.566,3.341-3.117,6.688-4.713,10.015
		c-1.474,3.07-3.045,3.815-6.486,3.115c0.13-0.85,0.261-1.705,0.386-2.527c0.095-0.062,0.145-0.125,0.198-0.127
		c2.045-0.104,2.13-0.193,1.818-2.258c-0.222-1.465-0.496-2.922-0.74-4.383C238.649,49.195,238.415,47.733,238.171,46.237z"/>
	<path fill-rule="evenodd" clip-rule="evenodd" fill="#E2101C" d="M261.355,56.555c-1.243,0-2.406,0-3.648,0
		c0.55-3.444,1.095-6.855,1.647-10.31c1.085,0,2.113,0,3.25,0c-0.067,0.601-0.131,1.177-0.204,1.835
		c0.556-0.595,0.975-1.243,1.567-1.62c0.566-0.36,1.312-0.436,2.189-0.701c-0.247,1.583-0.448,2.868-0.646,4.13
		c-2.558,0.167-3.092,0.631-3.574,3.119C261.714,54.152,261.557,55.308,261.355,56.555z"/>
	<path fill-rule="evenodd" clip-rule="evenodd" fill="#E2101C" d="M181.977,46.232c1.139,0,2.204,0,3.292,0
		c-0.087,0.62-0.172,1.225-0.295,2.098c0.98-1.522,1.929-2.674,3.774-2.284c-0.206,1.292-0.404,2.534-0.605,3.797
		c-0.071,0.031-0.159,0.106-0.235,0.097c-2.096-0.26-2.973,0.934-3.32,2.896c-0.213,1.208-0.403,2.421-0.614,3.693
		c-1.154,0-2.308,0-3.629,0C180.889,53.102,181.43,49.681,181.977,46.232z"/>
	<g>
		<path fill="#E2101C" d="M188.749,46.046c-1.846-0.391-2.794,0.761-3.774,2.284c0.123-0.873,0.208-1.478,0.295-2.098
			c-1.088,0-2.154,0-3.292,0c-0.547,3.449-1.088,6.87-1.632,10.297c1.321,0,2.475,0,3.629,0c0.21-1.272,0.4-2.485,0.614-3.693
			c0.348-1.961,1.225-3.156,3.32-2.896c0.076,0.009,0.164-0.066,0.235-0.097C188.345,48.58,188.542,47.338,188.749,46.046z"/>
		<g>
			<path fill="#E2101C" d="M207.59,42.368c-0.268,1.585-0.529,3.132-0.807,4.777c-1.76-1.621-3.819-1.608-5.4,0
				c-1.752,1.781-2.325,4.005-2.165,6.438c0.088,1.338,0.597,2.495,1.938,3c1.383,0.52,2.732,0.417,3.903-0.609
				c0.23-0.202,0.454-0.41,0.8-0.722c-0.063,0.539-0.106,0.904-0.159,1.34c0.864,0,1.684-0.035,2.499,0.012
				c0.6,0.034,0.8-0.169,0.891-0.775c0.515-3.43,1.089-6.852,1.634-10.278c0.165-1.04,0.303-2.085,0.462-3.183
				C209.913,42.368,208.788,42.368,207.59,42.368z M205.435,53.319c-0.39,0.639-1.183,0.917-1.813,0.529
				c-0.409-0.252-0.736-0.957-0.746-1.465c-0.014-0.724,0.217-1.486,0.49-2.172c0.365-0.911,1.22-1.372,1.925-1.149
				c0.901,0.284,1.011,1.02,1.174,1.908C206.13,51.758,205.877,52.597,205.435,53.319z"/>
		</g>
		<path fill="#E2101C" d="M223.792,42.35c-0.214,0.007-0.504,0.327-0.609,0.568c-0.668,1.532-1.292,3.083-1.934,4.627
			c-0.479,1.147-0.96,2.293-1.44,3.44c-0.069-0.011-0.136-0.021-0.205-0.031c-0.284-2.859-0.569-5.718-0.852-8.569
			c-1.769,0-3.399,0-5.065,0c-0.757,4.753-1.505,9.443-2.256,14.165c1.27,0,2.463,0,3.768,0c0.408-2.936,0.812-5.847,1.216-8.757
			c0.031-0.005,0.062-0.01,0.092-0.014c0.293,2.928,0.587,5.856,0.884,8.813c0.773,0,1.409-0.053,2.033,0.015
			c0.66,0.072,0.961-0.201,1.174-0.79c0.355-0.978,0.78-1.93,1.18-2.891c0.711-1.708,1.427-3.415,2.14-5.122
			c0.029,0.012,0.06,0.025,0.089,0.038c-0.515,2.873-1.029,5.745-1.568,8.75c1.133,0,2.107-0.032,3.08,0.012
			c0.58,0.026,0.747-0.218,0.827-0.75c0.34-2.277,0.729-4.546,1.087-6.82c0.345-2.179,0.673-4.36,1.035-6.71
			C226.814,42.323,225.302,42.3,223.792,42.35z"/>
		<path fill="#E2101C" d="M180.787,48.26c-1.557,0-3.029,0-4.578,0c0.041-0.438,0.047-0.78,0.108-1.113
			c0.289-1.571,0.294-1.57,1.905-1.57c1.408,0,2.815,0,4.213,0c0.169-1.15,0.316-2.156,0.478-3.258c-3.26,0-6.352-0.014-9.443,0.03
			c-0.218,0.003-0.573,0.413-0.62,0.677c-0.525,3.011-1.008,6.03-1.49,9.048c-0.235,1.474-0.443,2.953-0.668,4.462
			c1.466,0,2.779,0,4.127,0c0.225-1.413,0.473-2.774,0.647-4.144c0.081-0.643,0.284-0.948,0.997-0.909
			c1.072,0.06,2.148,0.042,3.221-0.006c0.236-0.011,0.62-0.248,0.663-0.441C180.542,50.157,180.64,49.256,180.787,48.26z"/>
		<path fill="#E2101C" d="M263.966,46.461c-0.592,0.377-1.011,1.025-1.567,1.62c0.073-0.659,0.137-1.234,0.204-1.835
			c-1.136,0-2.165,0-3.25,0c-0.552,3.454-1.097,6.865-1.647,10.31c1.243,0,2.405,0,3.648,0c0.202-1.248,0.358-2.403,0.58-3.546
			c0.482-2.487,1.016-2.952,3.574-3.119c0.198-1.262,0.399-2.547,0.646-4.13C265.279,46.025,264.532,46.101,263.966,46.461z"/>
		<path fill="#E2101C" d="M248.62,46.217c-1.176,0-2.281,0-3.399,0c-0.869,2.073-1.729,4.131-2.591,6.189
			c-0.063-0.014-0.126-0.028-0.189-0.042c-0.205-2.03-0.411-4.06-0.619-6.127c-1.244,0-2.433,0-3.65,0
			c0.243,1.496,0.478,2.958,0.721,4.419c0.244,1.461,0.518,2.918,0.74,4.383c0.312,2.065,0.227,2.154-1.818,2.258
			c-0.053,0.002-0.103,0.064-0.198,0.127c-0.125,0.822-0.256,1.677-0.386,2.527c3.441,0.7,5.013-0.045,6.486-3.115
			c1.597-3.326,3.147-6.674,4.713-10.015C248.514,46.64,248.552,46.437,248.62,46.217z"/>
		<g>
			<path fill="#E2101C" d="M236.503,52.259c1.859,0,1.859,0,1.806-1.907c-0.063-2.286-1.444-4.007-3.485-4.345
				c-3.683-0.609-7.031,2.03-7.341,5.785c-0.224,2.71,0.715,4.366,2.963,4.882c2.048,0.469,4.048,0.213,5.736-1.159
				c0.577-0.468,0.985-1.145,1.471-1.726c-0.057-0.079-0.115-0.158-0.173-0.237c-0.466,0-0.933-0.005-1.398,0.001
				c-0.925,0.012-1.823-0.105-2.662,0.613c-0.333,0.284-1.229,0.162-1.735-0.069c-0.65-0.297-0.778-1.01-0.559-1.838
				C232.912,52.259,234.707,52.259,236.503,52.259z M233.45,48.368c0.91,0.035,1.405,0.655,1.388,1.864c-1.139,0-2.23,0-3.322,0
				C231.562,49.066,232.354,48.326,233.45,48.368z"/>
		</g>
		<path fill="#E2101C" d="M195.492,46.016c-2.865-0.547-5.727,0.95-6.87,3.694c-0.766,1.837-1.084,3.753,0.171,5.513
			c1.232,1.728,3.106,1.791,4.974,1.549c1.978-0.256,3.542-1.19,4.481-3.22c-0.809,0-1.493-0.004-2.179,0.001
			c-0.681,0.005-1.324-0.063-1.904,0.551c-0.48,0.508-1.231,0.471-1.845,0.064c-0.647-0.431-0.844-1.054-0.62-1.896
			c2.339,0,4.668,0,7.068,0c0.064-0.49,0.124-0.833,0.15-1.178C199.112,48.509,197.714,46.44,195.492,46.016z M195.363,50.226
			c-1.096,0-2.199,0-3.311,0c0.167-1.281,1.033-1.996,2.158-1.841C195.069,48.501,195.481,49.134,195.363,50.226z"/>
	</g>
	<g>
		<path fill="#E2101C" d="M254.249,52.259c1.191,0,2.381,0,3.536,0c0.813-3.107-0.74-5.894-3.384-6.261
			c-3.104-0.431-5.827,1.176-6.876,4.125c-1.399,3.932,0.391,7.203,5.006,6.688c0.094-0.01,0.189-0.007,0.283-0.021
			c1.977-0.311,3.541-1.202,4.513-3.238c-0.596,0-1.056-0.005-1.515,0.001c-0.955,0.012-1.885-0.121-2.751,0.619
			c-0.33,0.281-1.233,0.154-1.729-0.087c-0.614-0.299-0.815-0.993-0.568-1.826C251.924,52.259,253.085,52.259,254.249,52.259z
			 M253.055,48.372c0.792,0.007,1.411,0.525,1.445,1.308c0.009,0.195-0.277,0.569-0.443,0.579c-0.964,0.055-1.935,0.027-2.997,0.027
			C251.38,48.938,252.024,48.363,253.055,48.372z"/>
	</g>
</g>
</svg>
