<?xml version="1.0" encoding="utf-8"?>
<!-- Generator: Adobe Illustrator 16.0.0, SVG Export Plug-In . SVG Version: 6.00 Build 0)  -->
<!DOCTYPE svg PUBLIC "-//W3C//DTD SVG 1.1//EN" "http://www.w3.org/Graphics/SVG/1.1/DTD/svg11.dtd">
<svg version="1.1" id="Layer_1" xmlns="http://www.w3.org/2000/svg" xmlns:xlink="http://www.w3.org/1999/xlink" x="0px" y="0px"
	 width="174.96px" height="134.747px" viewBox="0 0 174.96 134.747" enable-background="new 0 0 174.96 134.747"
	 xml:space="preserve">
<g>
	<path fill="#006891" d="M29.676,96.209H11.652v-2.41c1.502,0,2.637-0.145,3.406-0.432c0.769-0.289,1.271-0.721,1.506-1.297
		s0.354-1.397,0.354-2.463v-22.32c0-1.536-0.319-2.619-0.956-3.248c-0.638-0.629-2.074-0.943-4.31-0.943v-2.41h18.024v2.41
		c-1.502,0-2.638,0.148-3.406,0.445c-0.769,0.297-1.271,0.729-1.506,1.297c-0.236,0.568-0.354,1.385-0.354,2.449v22.32
		c0,1.014,0.113,1.808,0.34,2.384s0.711,1.022,1.454,1.336c0.742,0.314,1.899,0.472,3.471,0.472V96.209z"/>
	<path fill="#006891" d="M67.073,86.831c0,1.991-0.507,3.62-1.52,4.887c-1.013,1.266-2.297,2.227-3.851,2.881
		c-1.555,0.655-3.074,1.088-4.558,1.297c-1.485,0.209-2.917,0.314-4.296,0.314H35.034v-2.41c1.52,0,2.642-0.157,3.366-0.472
		c0.725-0.313,1.196-0.76,1.415-1.336s0.328-1.37,0.328-2.384V67.183c0-1.571-0.323-2.663-0.969-3.274
		c-0.646-0.611-2.026-0.917-4.139-0.917V60.53c2.532-0.053,4.942-0.105,7.23-0.158c2.288-0.053,4.169-0.092,5.646-0.117
		c1.476-0.026,2.51-0.039,3.104-0.039h0.969c1.816,0,3.716,0.188,5.698,0.562c1.982,0.376,3.79,1.228,5.423,2.555
		c1.633,1.327,2.449,3.239,2.449,5.736c0,1.869-0.664,3.477-1.991,4.82c-1.327,1.346-3.501,2.455-6.523,3.328
		c2.061,0.366,3.855,0.982,5.384,1.846c1.528,0.865,2.685,1.961,3.471,3.288C66.68,83.678,67.073,85.172,67.073,86.831z
		 M58.061,69.279c0-1.222-0.293-2.292-0.878-3.209s-1.45-1.633-2.593-2.148c-1.144-0.515-2.546-0.772-4.205-0.772h-2.751V75.88
		h2.148c2.812,0,4.894-0.593,6.248-1.781C57.384,72.912,58.061,71.305,58.061,69.279z M59.03,86.385c0-2.41-0.625-4.283-1.873-5.619
		c-1.249-1.336-3.009-2.004-5.279-2.004h-4.244v8.54v0.708c0,1.292,0.079,2.301,0.236,3.025s0.55,1.283,1.179,1.677
		c0.628,0.393,1.624,0.589,2.986,0.589c1.816,0,3.436-0.55,4.859-1.65C58.318,90.551,59.03,88.795,59.03,86.385z"/>
	<path fill="#006891" d="M102.046,70.143c0,2.917-0.9,5.131-2.699,6.641c-1.799,1.512-3.916,2.48-6.353,2.908
		c-2.437,0.429-5,0.643-7.689,0.643h-2.357v9.273c0,1.048,0.113,1.859,0.34,2.436c0.227,0.577,0.716,1.014,1.467,1.311
		c0.75,0.297,1.895,0.445,3.432,0.445v2.41H70.321v-2.41c1.519,0,2.641-0.157,3.366-0.472c0.725-0.313,1.196-0.76,1.415-1.336
		c0.218-0.576,0.328-1.37,0.328-2.384V67.183c0-1.013-0.105-1.804-0.314-2.37c-0.209-0.568-0.681-1.014-1.415-1.337
		c-0.734-0.323-1.86-0.484-3.379-0.484V60.53l10.138-0.263c0.524-0.017,1.096-0.03,1.716-0.039c0.62-0.009,1.113-0.018,1.48-0.026
		s0.908-0.014,1.625-0.014c0.891,0,1.554,0.01,1.991,0.027c2.079,0.087,4.078,0.287,5.999,0.602c1.922,0.314,3.865,1.201,5.83,2.659
		S102.046,67.157,102.046,70.143z M93.977,70.196c0-2.829-0.825-4.72-2.476-5.672c-1.65-0.951-3.821-1.428-6.51-1.428
		c-0.489,0-1.17,0.018-2.043,0.053v14.277h2.41c2.567,0,4.645-0.441,6.235-1.323C93.182,75.221,93.977,73.252,93.977,70.196z"/>
	<path fill="#006891" d="M131.015,86.019c0,1.101-0.235,2.266-0.707,3.497s-1.184,2.41-2.136,3.537
		c-0.952,1.126-2.152,2.043-3.602,2.75c-1.45,0.707-4.127,1.061-6.03,1.061c-1.886,0-2.759-0.41-4.619-1.23
		c-1.859-0.82-3.436-2.043-4.729-3.668c-0.559,1.293-0.917,2.488-1.074,3.59h-2.41V83.399h2.41c0.437,1.746,1.039,3.389,1.808,4.926
		s1.855,2.859,3.262,3.969c1.405,1.109,3.13,1.663,5.174,1.663c1.782,0,3.209-0.489,4.283-1.468
		c1.074-0.977,1.611-2.209,1.611-3.693c0-0.838-0.166-1.571-0.498-2.2s-0.812-1.192-1.44-1.69c-0.629-0.497-1.489-1.029-2.58-1.598
		c-1.092-0.566-2.336-1.166-3.733-1.795c-2.148-1.012-3.913-2.033-5.292-3.064c-1.38-1.03-2.424-2.03-3.131-3
		c-0.707-0.969-1.196-1.89-1.467-2.764c-0.271-0.873-0.406-1.755-0.406-2.646c0-1.589,0.428-3.157,1.283-4.702
		c0.856-1.546,2.109-2.812,3.76-3.799s3.559-1.48,5.725-1.48c1.658,0,3.239,0.371,4.741,1.113c1.502,0.743,2.803,1.76,3.903,3.053
		c0.314-0.734,0.603-1.764,0.864-3.092h2.463v9.902h-2.463c-1.746-5.396-4.785-8.094-9.116-8.094c-1.572,0-2.834,0.414-3.785,1.244
		c-0.952,0.829-1.428,1.898-1.428,3.209c0,1.03,0.297,1.926,0.891,2.686c0.594,0.759,1.375,1.41,2.344,1.951
		c0.971,0.541,2.537,1.318,4.703,2.332c2.62,1.24,4.667,2.313,6.144,3.222c1.476,0.908,2.724,2.052,3.746,3.432
		C130.504,82.395,131.015,84.063,131.015,86.019z"/>
	<path fill="#006891" d="M167.788,96.209h-16.74v-2.41c1.415,0,2.445-0.1,3.091-0.301c0.646-0.201,0.97-0.678,0.97-1.428
		c0-0.524-0.104-1.057-0.314-1.599l-1.677-4.191H141.59l-0.864,2.306c-0.489,1.293-0.733,2.227-0.733,2.803
		c0,1.048,0.405,1.712,1.218,1.991s1.759,0.419,2.843,0.419v2.41h-12.234v-2.41c0.978,0,1.808-0.184,2.488-0.551
		c0.682-0.366,1.332-1.061,1.952-2.082c0.619-1.021,1.287-2.467,2.004-4.336l10.243-26.825h2.488l10.819,27.664
		c0.786,1.956,1.362,3.278,1.729,3.969c0.366,0.69,0.873,1.223,1.52,1.599c0.646,0.375,1.554,0.562,2.725,0.562V96.209z
		 M152.173,83.713l-4.898-12.391l-4.663,12.391H152.173z"/>
</g>
<g>
	<path fill="#008066" d="M2.577,107.82v-0.341h4.593v0.341H6.955c-0.493,0-0.817,0.041-0.97,0.122
		c-0.153,0.082-0.256,0.233-0.308,0.456c-0.052,0.222-0.078,0.751-0.078,1.585v4.927c0,0.79,0.019,1.308,0.056,1.552
		s0.136,0.426,0.297,0.545c0.16,0.118,0.468,0.178,0.922,0.178h0.296v0.341H2.577v-0.341h0.297c0.429,0,0.727-0.055,0.893-0.163
		c0.165-0.108,0.271-0.278,0.314-0.508c0.045-0.229,0.066-0.764,0.066-1.604v-4.927c0-0.8-0.021-1.316-0.066-1.548
		c-0.044-0.232-0.144-0.393-0.296-0.481c-0.153-0.089-0.484-0.134-0.993-0.134H2.577z"/>
	<path fill="#008066" d="M15.458,110.97c-0.336,0-0.576,0.033-0.721,0.101c-0.146,0.067-0.235,0.167-0.27,0.299
		c-0.035,0.131-0.053,0.346-0.053,0.643v5.574h-0.477l-4.6-5.466v3.874c0,0.294,0.018,0.508,0.054,0.641
		c0.037,0.133,0.129,0.235,0.278,0.306c0.148,0.071,0.389,0.106,0.721,0.106v0.478H7.778v-0.478c0.312,0,0.537-0.035,0.677-0.106
		c0.141-0.07,0.227-0.173,0.26-0.306c0.032-0.133,0.049-0.347,0.049-0.641v-3.588c0-0.291-0.008-0.509-0.023-0.654
		c-0.016-0.145-0.053-0.271-0.111-0.381c-0.059-0.108-0.154-0.197-0.288-0.265c-0.133-0.067-0.316-0.113-0.552-0.137v-0.478h2.049
		l4.003,4.729v-3.21c0-0.263-0.019-0.464-0.055-0.604c-0.036-0.14-0.126-0.248-0.27-0.324c-0.144-0.075-0.371-0.113-0.682-0.113
		v-0.478h2.624V110.97z"/>
	<path fill="#008066" d="M22.859,112.49h-0.493c-0.045-0.437-0.141-0.758-0.287-0.965c-0.147-0.208-0.306-0.336-0.475-0.384
		c-0.17-0.049-0.365-0.072-0.586-0.072h-0.893v5.149c0,0.203,0.021,0.361,0.062,0.474c0.041,0.113,0.139,0.2,0.29,0.263
		c0.152,0.062,0.375,0.093,0.669,0.093v0.478h-3.526v-0.478c0.433,0,0.711-0.062,0.835-0.187c0.125-0.124,0.188-0.339,0.188-0.643
		v-5.149h-0.747c-0.294,0-0.538,0.022-0.731,0.069s-0.363,0.175-0.511,0.384c-0.146,0.209-0.23,0.531-0.251,0.968H15.91v-1.997
		h6.949V112.49z"/>
	<path fill="#008066" d="M29.718,115.211l-0.057,2.313h-6.265v-0.478c0.433,0,0.711-0.062,0.835-0.187
		c0.125-0.124,0.187-0.339,0.187-0.643v-4.419c0-0.2-0.02-0.356-0.06-0.469c-0.039-0.112-0.133-0.201-0.28-0.265
		c-0.146-0.064-0.374-0.096-0.682-0.096v-0.478h5.834l0.094,1.825h-0.478c-0.107-0.404-0.23-0.693-0.37-0.868
		c-0.141-0.175-0.298-0.282-0.473-0.321c-0.174-0.04-0.437-0.06-0.785-0.06h-1.317v2.483h0.716c0.245,0,0.429-0.021,0.55-0.064
		s0.205-0.126,0.254-0.246c0.048-0.121,0.081-0.312,0.099-0.571h0.498v2.339h-0.478c-0.014-0.259-0.049-0.45-0.104-0.572
		c-0.056-0.123-0.143-0.205-0.262-0.247c-0.119-0.041-0.302-0.062-0.548-0.062h-0.726v1.654c0,0.276,0.007,0.479,0.021,0.606
		s0.051,0.234,0.111,0.318c0.061,0.085,0.159,0.146,0.296,0.185s0.331,0.057,0.584,0.057h0.564c0.239,0,0.466-0.03,0.683-0.091
		c0.216-0.061,0.428-0.216,0.635-0.467c0.208-0.25,0.353-0.644,0.436-1.18H29.718z"/>
	<path fill="#008066" d="M37.969,117.525h-1.882c-0.069-0.076-0.155-0.187-0.257-0.332c-0.103-0.146-0.214-0.315-0.335-0.511
		s-0.221-0.357-0.301-0.485l-0.477-0.788c-0.215-0.353-0.376-0.594-0.485-0.724c-0.108-0.129-0.233-0.212-0.373-0.248
		c-0.14-0.037-0.378-0.055-0.713-0.055h-0.265v1.836c0,0.193,0.021,0.349,0.062,0.466c0.041,0.118,0.139,0.208,0.293,0.271
		c0.153,0.062,0.377,0.093,0.671,0.093v0.478h-3.526v-0.478c0.429,0,0.705-0.062,0.827-0.187c0.123-0.124,0.185-0.339,0.185-0.643
		v-4.439c0-0.301-0.06-0.515-0.179-0.641s-0.396-0.189-0.833-0.189v-0.487l1.629-0.052c0.124-0.007,0.267-0.012,0.428-0.016
		c0.161-0.003,0.311-0.005,0.448-0.005c0.107,0,0.285,0.003,0.534,0.01c0.35,0.011,0.676,0.031,0.98,0.062
		c0.304,0.031,0.544,0.071,0.721,0.119c0.26,0.066,0.506,0.175,0.739,0.327s0.423,0.353,0.57,0.602
		c0.146,0.249,0.221,0.537,0.221,0.866c0,0.234-0.052,0.463-0.153,0.685c-0.103,0.221-0.267,0.418-0.493,0.591
		s-0.524,0.31-0.895,0.41c0.253,0.148,0.467,0.332,0.644,0.552c0.176,0.22,0.453,0.623,0.829,1.211
		c0.219,0.335,0.398,0.589,0.54,0.76s0.272,0.287,0.392,0.348s0.271,0.1,0.453,0.116V117.525z M35.055,112.365
		c0-0.56-0.17-0.932-0.511-1.115c-0.341-0.183-0.786-0.274-1.335-0.274c-0.076,0-0.136,0.001-0.18,0.003
		c-0.043,0.001-0.092,0.002-0.147,0.002v2.826h0.327c0.521,0,0.96-0.084,1.314-0.254C34.877,113.383,35.055,112.987,35.055,112.365z
		"/>
	<path fill="#008066" d="M45.873,110.97c-0.336,0-0.576,0.033-0.721,0.101c-0.146,0.067-0.235,0.167-0.27,0.299
		c-0.035,0.131-0.053,0.346-0.053,0.643v5.574h-0.477l-4.6-5.466v3.874c0,0.294,0.018,0.508,0.054,0.641
		c0.037,0.133,0.129,0.235,0.278,0.306c0.148,0.071,0.389,0.106,0.721,0.106v0.478h-2.614v-0.478c0.312,0,0.537-0.035,0.677-0.106
		c0.141-0.07,0.227-0.173,0.26-0.306c0.032-0.133,0.049-0.347,0.049-0.641v-3.588c0-0.291-0.008-0.509-0.023-0.654
		c-0.016-0.145-0.053-0.271-0.111-0.381c-0.059-0.108-0.154-0.197-0.288-0.265c-0.133-0.067-0.316-0.113-0.552-0.137v-0.478h2.049
		l4.003,4.729v-3.21c0-0.263-0.019-0.464-0.055-0.604c-0.036-0.14-0.126-0.248-0.27-0.324c-0.144-0.075-0.371-0.113-0.682-0.113
		v-0.478h2.624V110.97z"/>
	<path fill="#008066" d="M53.061,117.525h-3.314v-0.478c0.28,0,0.484-0.02,0.612-0.06s0.191-0.134,0.191-0.282
		c0-0.104-0.021-0.209-0.062-0.316l-0.332-0.83h-2.282l-0.171,0.456c-0.097,0.257-0.146,0.441-0.146,0.556
		c0,0.207,0.081,0.339,0.241,0.394c0.161,0.056,0.349,0.083,0.562,0.083v0.478h-2.421v-0.478c0.193,0,0.357-0.036,0.492-0.108
		c0.135-0.073,0.264-0.21,0.387-0.412c0.122-0.203,0.255-0.488,0.396-0.858l2.027-5.311h0.493l2.142,5.477
		c0.155,0.387,0.27,0.648,0.342,0.785c0.073,0.137,0.173,0.242,0.301,0.316s0.308,0.111,0.54,0.111V117.525z M49.97,115.051
		L49,112.598l-0.924,2.453H49.97z"/>
	<path fill="#008066" d="M59.901,112.49h-0.493c-0.045-0.437-0.141-0.758-0.287-0.965c-0.147-0.208-0.306-0.336-0.475-0.384
		c-0.17-0.049-0.365-0.072-0.586-0.072h-0.893v5.149c0,0.203,0.021,0.361,0.062,0.474c0.041,0.113,0.139,0.2,0.29,0.263
		c0.152,0.062,0.375,0.093,0.669,0.093v0.478h-3.526v-0.478c0.433,0,0.711-0.062,0.835-0.187c0.125-0.124,0.188-0.339,0.188-0.643
		v-5.149h-0.747c-0.294,0-0.538,0.022-0.731,0.069s-0.363,0.175-0.511,0.384c-0.146,0.209-0.23,0.531-0.251,0.968h-0.493v-1.997
		h6.949V112.49z"/>
	<path fill="#008066" d="M63.956,117.525h-3.568v-0.478c0.298,0,0.522-0.028,0.674-0.085c0.152-0.058,0.252-0.143,0.299-0.257
		s0.069-0.276,0.069-0.487v-4.419c0-0.304-0.062-0.519-0.188-0.643c-0.127-0.125-0.411-0.187-0.854-0.187v-0.478h3.568v0.478
		c-0.298,0-0.522,0.029-0.675,0.088s-0.251,0.145-0.298,0.257s-0.07,0.273-0.07,0.484v4.419c0,0.2,0.022,0.357,0.067,0.472
		s0.141,0.202,0.288,0.265c0.146,0.062,0.376,0.093,0.688,0.093V117.525z"/>
	<path fill="#008066" d="M72.517,114.008c0,0.64-0.151,1.239-0.456,1.797c-0.304,0.559-0.754,1.007-1.351,1.344
		s-1.301,0.506-2.113,0.506c-0.664,0-1.248-0.107-1.753-0.322c-0.505-0.214-0.917-0.501-1.236-0.86
		c-0.32-0.359-0.557-0.754-0.711-1.183c-0.153-0.429-0.23-0.859-0.23-1.291c0-0.626,0.146-1.217,0.44-1.773s0.736-1.006,1.328-1.346
		c0.591-0.341,1.298-0.511,2.12-0.511c0.751,0,1.389,0.122,1.914,0.368c0.525,0.245,0.936,0.555,1.229,0.928
		c0.294,0.374,0.504,0.765,0.631,1.175C72.455,113.249,72.517,113.639,72.517,114.008z M70.837,113.988
		c0-0.394-0.034-0.768-0.102-1.12s-0.186-0.672-0.354-0.957c-0.17-0.285-0.401-0.511-0.695-0.679s-0.657-0.252-1.089-0.252
		c-0.595,0-1.059,0.148-1.393,0.443c-0.334,0.296-0.56,0.666-0.68,1.11c-0.119,0.444-0.179,0.929-0.179,1.454
		c0,0.291,0.02,0.593,0.058,0.907c0.038,0.315,0.129,0.638,0.274,0.968s0.377,0.608,0.695,0.835c0.317,0.227,0.729,0.34,1.234,0.34
		c0.501,0,0.908-0.117,1.221-0.351s0.541-0.519,0.685-0.855s0.233-0.659,0.27-0.967S70.837,114.264,70.837,113.988z"/>
	<path fill="#008066" d="M80.918,110.97c-0.336,0-0.576,0.033-0.721,0.101c-0.146,0.067-0.235,0.167-0.27,0.299
		c-0.035,0.131-0.053,0.346-0.053,0.643v5.574h-0.477l-4.6-5.466v3.874c0,0.294,0.018,0.508,0.054,0.641
		c0.037,0.133,0.129,0.235,0.278,0.306c0.148,0.071,0.389,0.106,0.721,0.106v0.478h-2.614v-0.478c0.312,0,0.537-0.035,0.677-0.106
		c0.141-0.07,0.227-0.173,0.26-0.306c0.032-0.133,0.049-0.347,0.049-0.641v-3.588c0-0.291-0.008-0.509-0.023-0.654
		c-0.016-0.145-0.053-0.271-0.111-0.381c-0.059-0.108-0.154-0.197-0.288-0.265c-0.133-0.067-0.316-0.113-0.552-0.137v-0.478h2.049
		l4.003,4.729v-3.21c0-0.263-0.019-0.464-0.055-0.604c-0.036-0.14-0.126-0.248-0.27-0.324c-0.144-0.075-0.371-0.113-0.682-0.113
		v-0.478h2.624V110.97z"/>
	<path fill="#008066" d="M88.106,117.525h-3.314v-0.478c0.28,0,0.484-0.02,0.612-0.06s0.191-0.134,0.191-0.282
		c0-0.104-0.021-0.209-0.062-0.316l-0.332-0.83h-2.282l-0.171,0.456c-0.097,0.257-0.146,0.441-0.146,0.556
		c0,0.207,0.081,0.339,0.241,0.394c0.161,0.056,0.349,0.083,0.562,0.083v0.478h-2.421v-0.478c0.193,0,0.357-0.036,0.492-0.108
		c0.135-0.073,0.264-0.21,0.387-0.412c0.122-0.203,0.255-0.488,0.396-0.858l2.027-5.311h0.493l2.142,5.477
		c0.155,0.387,0.27,0.648,0.342,0.785c0.073,0.137,0.173,0.242,0.301,0.316s0.308,0.111,0.54,0.111V117.525z M85.015,115.051
		l-0.97-2.453l-0.924,2.453H85.015z"/>
	<path fill="#008066" d="M94.764,115.175l-0.047,2.35h-6.265v-0.478c0.433,0,0.711-0.062,0.835-0.187
		c0.125-0.124,0.187-0.339,0.187-0.643v-4.419c0-0.204-0.021-0.362-0.062-0.475c-0.042-0.112-0.138-0.199-0.288-0.262
		s-0.374-0.093-0.672-0.093v-0.478h3.537v0.478c-0.294,0-0.517,0.029-0.667,0.088s-0.248,0.145-0.295,0.257s-0.07,0.273-0.07,0.484
		v4.045c0,0.318,0.016,0.547,0.047,0.685c0.031,0.139,0.115,0.243,0.254,0.313c0.139,0.071,0.364,0.106,0.68,0.106
		c0.397,0,0.745-0.03,1.045-0.091c0.299-0.061,0.575-0.221,0.829-0.481c0.255-0.262,0.412-0.662,0.475-1.201H94.764z"/>
	<path fill="#008066" d="M104.135,112.117c1.141,0.084,1.987,0.368,2.541,0.852c0.553,0.484,0.829,1.089,0.829,1.815
		c0,0.632-0.188,1.177-0.562,1.634c-0.375,0.456-0.855,0.755-1.441,0.896c-0.585,0.141-1.369,0.211-2.352,0.211h-3.941v-0.341h0.386
		c0.43,0,0.727-0.055,0.893-0.163c0.165-0.108,0.271-0.278,0.314-0.508c0.045-0.229,0.066-0.764,0.066-1.604v-4.89
		c0-0.814-0.023-1.341-0.07-1.578c-0.047-0.236-0.146-0.399-0.296-0.488s-0.48-0.134-0.989-0.134H99.32v-0.341l1.652-0.044
		l1.881-0.06c2.746,0,4.119,0.79,4.119,2.37c0,0.652-0.235,1.176-0.707,1.571C105.793,111.711,105.083,111.978,104.135,112.117z
		 M102.32,111.976c0.124,0.005,0.228,0.007,0.312,0.007c1.066,0,1.795-0.167,2.186-0.503c0.39-0.336,0.585-0.88,0.585-1.63
		c0-0.523-0.076-0.929-0.229-1.215c-0.153-0.287-0.383-0.508-0.689-0.663c-0.306-0.156-0.829-0.233-1.57-0.233
		c-0.192,0-0.39,0.007-0.593,0.021V111.976z M102.32,112.339v2.237c0,0.953,0.018,1.558,0.052,1.814
		c0.035,0.257,0.128,0.452,0.278,0.585c0.15,0.134,0.448,0.2,0.893,0.2c0.79,0,1.383-0.202,1.778-0.607
		c0.395-0.404,0.592-1.013,0.592-1.822c0-0.83-0.223-1.441-0.67-1.834s-1.233-0.589-2.359-0.589
		C102.706,112.324,102.517,112.329,102.32,112.339z"/>
	<path fill="#008066" d="M116.528,114.008c0,0.64-0.151,1.239-0.456,1.797c-0.304,0.559-0.754,1.007-1.351,1.344
		s-1.301,0.506-2.113,0.506c-0.664,0-1.248-0.107-1.753-0.322c-0.505-0.214-0.917-0.501-1.236-0.86
		c-0.32-0.359-0.557-0.754-0.711-1.183c-0.153-0.429-0.23-0.859-0.23-1.291c0-0.626,0.146-1.217,0.44-1.773s0.736-1.006,1.328-1.346
		c0.591-0.341,1.298-0.511,2.12-0.511c0.751,0,1.389,0.122,1.914,0.368c0.525,0.245,0.936,0.555,1.229,0.928
		c0.294,0.374,0.504,0.765,0.631,1.175C116.465,113.249,116.528,113.639,116.528,114.008z M114.848,113.988
		c0-0.394-0.034-0.768-0.102-1.12s-0.186-0.672-0.354-0.957c-0.17-0.285-0.401-0.511-0.695-0.679s-0.657-0.252-1.089-0.252
		c-0.595,0-1.059,0.148-1.393,0.443c-0.334,0.296-0.56,0.666-0.68,1.11c-0.119,0.444-0.179,0.929-0.179,1.454
		c0,0.291,0.02,0.593,0.058,0.907c0.038,0.315,0.129,0.638,0.274,0.968s0.377,0.608,0.695,0.835c0.317,0.227,0.729,0.34,1.234,0.34
		c0.501,0,0.908-0.117,1.221-0.351s0.541-0.519,0.685-0.855s0.233-0.659,0.27-0.967S114.848,114.264,114.848,113.988z"/>
	<path fill="#008066" d="M123.655,117.525h-3.314v-0.478c0.28,0,0.484-0.02,0.612-0.06s0.191-0.134,0.191-0.282
		c0-0.104-0.021-0.209-0.062-0.316l-0.332-0.83h-2.282l-0.171,0.456c-0.097,0.257-0.146,0.441-0.146,0.556
		c0,0.207,0.081,0.339,0.241,0.394c0.161,0.056,0.349,0.083,0.562,0.083v0.478h-2.421v-0.478c0.193,0,0.357-0.036,0.492-0.108
		c0.135-0.073,0.264-0.21,0.387-0.412c0.122-0.203,0.255-0.488,0.396-0.858l2.027-5.311h0.493l2.142,5.477
		c0.155,0.387,0.27,0.648,0.342,0.785c0.073,0.137,0.173,0.242,0.301,0.316s0.308,0.111,0.54,0.111V117.525z M120.564,115.051
		l-0.97-2.453l-0.924,2.453H120.564z"/>
	<path fill="#008066" d="M131.609,117.525h-1.882c-0.069-0.076-0.155-0.187-0.257-0.332c-0.103-0.146-0.214-0.315-0.335-0.511
		s-0.221-0.357-0.301-0.485l-0.477-0.788c-0.215-0.353-0.376-0.594-0.485-0.724c-0.108-0.129-0.233-0.212-0.373-0.248
		c-0.14-0.037-0.378-0.055-0.713-0.055h-0.265v1.836c0,0.193,0.021,0.349,0.062,0.466c0.041,0.118,0.139,0.208,0.293,0.271
		c0.153,0.062,0.377,0.093,0.671,0.093v0.478h-3.526v-0.478c0.429,0,0.705-0.062,0.827-0.187c0.123-0.124,0.185-0.339,0.185-0.643
		v-4.439c0-0.301-0.06-0.515-0.179-0.641s-0.396-0.189-0.833-0.189v-0.487l1.629-0.052c0.124-0.007,0.267-0.012,0.428-0.016
		c0.161-0.003,0.311-0.005,0.448-0.005c0.107,0,0.285,0.003,0.534,0.01c0.35,0.011,0.676,0.031,0.98,0.062
		c0.304,0.031,0.544,0.071,0.721,0.119c0.26,0.066,0.506,0.175,0.739,0.327s0.423,0.353,0.57,0.602
		c0.146,0.249,0.221,0.537,0.221,0.866c0,0.234-0.052,0.463-0.153,0.685c-0.103,0.221-0.267,0.418-0.493,0.591
		s-0.524,0.31-0.895,0.41c0.253,0.148,0.467,0.332,0.644,0.552c0.176,0.22,0.453,0.623,0.829,1.211
		c0.219,0.335,0.398,0.589,0.54,0.76s0.272,0.287,0.392,0.348s0.271,0.1,0.453,0.116V117.525z M128.695,112.365
		c0-0.56-0.17-0.932-0.511-1.115c-0.341-0.183-0.786-0.274-1.335-0.274c-0.076,0-0.136,0.001-0.18,0.003
		c-0.043,0.001-0.092,0.002-0.147,0.002v2.826h0.327c0.521,0,0.96-0.084,1.314-0.254
		C128.517,113.383,128.695,112.987,128.695,112.365z"/>
	<path fill="#008066" d="M139.299,114.071c0,0.509-0.086,0.967-0.259,1.377c-0.174,0.41-0.396,0.751-0.669,1.024
		c-0.273,0.272-0.565,0.479-0.877,0.617c-0.657,0.29-1.461,0.436-2.411,0.436h-3.21v-0.478c0.297,0,0.521-0.028,0.674-0.085
		c0.152-0.058,0.252-0.143,0.298-0.257c0.047-0.114,0.07-0.276,0.07-0.487v-4.439c0-0.304-0.062-0.519-0.187-0.643
		c-0.124-0.125-0.409-0.188-0.855-0.188v-0.487l1.509-0.031c0.052,0,0.263-0.003,0.633-0.01s0.584-0.011,0.643-0.011
		c0.578,0,1.067,0.031,1.471,0.094c0.402,0.062,0.771,0.162,1.107,0.301c0.308,0.124,0.591,0.298,0.85,0.521
		c0.26,0.224,0.479,0.478,0.656,0.763c0.179,0.285,0.315,0.596,0.412,0.931C139.25,113.354,139.299,113.705,139.299,114.071z
		 M137.62,114.04c0-0.729-0.14-1.34-0.418-1.833c-0.278-0.492-0.656-0.834-1.133-1.024c-0.208-0.083-0.428-0.136-0.661-0.158
		s-0.568-0.033-1.004-0.033v4.942c0,0.283,0.014,0.489,0.042,0.619c0.027,0.13,0.108,0.229,0.243,0.296s0.344,0.101,0.628,0.101
		c0.84,0,1.434-0.294,1.781-0.881C137.446,115.48,137.62,114.804,137.62,114.04z"/>
	<path fill="#008066" d="M143.568,117.525H140v-0.478c0.298,0,0.522-0.028,0.674-0.085c0.152-0.058,0.252-0.143,0.299-0.257
		s0.069-0.276,0.069-0.487v-4.419c0-0.304-0.062-0.519-0.188-0.643c-0.127-0.125-0.411-0.187-0.854-0.187v-0.478h3.568v0.478
		c-0.298,0-0.522,0.029-0.675,0.088s-0.251,0.145-0.298,0.257s-0.07,0.273-0.07,0.484v4.419c0,0.2,0.022,0.357,0.067,0.472
		s0.141,0.202,0.288,0.265c0.146,0.062,0.376,0.093,0.688,0.093V117.525z"/>
	<path fill="#008066" d="M151.683,110.97c-0.336,0-0.576,0.033-0.721,0.101c-0.146,0.067-0.235,0.167-0.27,0.299
		c-0.035,0.131-0.053,0.346-0.053,0.643v5.574h-0.477l-4.6-5.466v3.874c0,0.294,0.018,0.508,0.054,0.641
		c0.037,0.133,0.129,0.235,0.278,0.306c0.148,0.071,0.389,0.106,0.721,0.106v0.478h-2.614v-0.478c0.312,0,0.537-0.035,0.677-0.106
		c0.141-0.07,0.227-0.173,0.26-0.306c0.032-0.133,0.049-0.347,0.049-0.641v-3.588c0-0.291-0.008-0.509-0.023-0.654
		c-0.016-0.145-0.053-0.271-0.111-0.381c-0.059-0.108-0.154-0.197-0.288-0.265c-0.133-0.067-0.316-0.113-0.552-0.137v-0.478h2.049
		l4.003,4.729v-3.21c0-0.263-0.019-0.464-0.055-0.604c-0.036-0.14-0.126-0.248-0.27-0.324c-0.144-0.075-0.371-0.113-0.682-0.113
		v-0.478h2.624V110.97z"/>
	<path fill="#008066" d="M159.996,114.75c-0.2,0.021-0.352,0.053-0.453,0.096c-0.103,0.043-0.172,0.117-0.21,0.223
		s-0.058,0.27-0.058,0.49v1.649c-0.501,0-1.044,0.065-1.628,0.197c-0.422,0.093-0.738,0.158-0.949,0.194s-0.46,0.055-0.747,0.055
		c-0.76,0-1.412-0.179-1.955-0.534c-0.542-0.356-0.949-0.814-1.221-1.375c-0.271-0.56-0.407-1.136-0.407-1.727
		c0-0.678,0.161-1.296,0.482-1.854c0.321-0.559,0.757-0.998,1.307-1.317c0.55-0.32,1.151-0.479,1.805-0.479
		c0.795,0,1.52,0.274,2.173,0.824c0.079-0.148,0.144-0.353,0.191-0.612h0.504l0.052,2.303h-0.478
		c-0.072-0.349-0.209-0.669-0.409-0.959c-0.201-0.291-0.451-0.521-0.75-0.69c-0.299-0.169-0.628-0.254-0.987-0.254
		c-0.263,0-0.521,0.046-0.773,0.138c-0.252,0.092-0.488,0.251-0.707,0.478c-0.22,0.226-0.396,0.534-0.529,0.925
		s-0.199,0.873-0.199,1.447c0,0.491,0.052,0.963,0.155,1.416c0.104,0.452,0.314,0.842,0.633,1.166
		c0.317,0.325,0.768,0.488,1.348,0.488c0.457,0,0.803-0.072,1.037-0.216c0.235-0.144,0.389-0.318,0.459-0.526
		c0.071-0.207,0.106-0.438,0.106-0.694c0-0.242-0.018-0.419-0.055-0.529c-0.036-0.11-0.121-0.191-0.254-0.244
		c-0.133-0.052-0.338-0.077-0.614-0.077v-0.478h3.132V114.75z"/>
	<path fill="#008066" d="M172,115.84c-0.019,0.291-0.085,0.574-0.199,0.851s-0.286,0.507-0.517,0.693
		c-0.229,0.186-0.52,0.278-0.869,0.278c-0.174,0-0.344-0.027-0.511-0.083c-0.168-0.055-0.35-0.153-0.545-0.295
		c-0.194-0.142-0.436-0.356-0.723-0.644c-0.369,0.35-0.743,0.609-1.124,0.778c-0.382,0.17-0.745,0.254-1.091,0.254
		c-0.398,0-0.756-0.094-1.074-0.281c-0.319-0.188-0.564-0.435-0.738-0.74c-0.173-0.306-0.259-0.633-0.259-0.983
		c0-0.206,0.033-0.43,0.102-0.671s0.23-0.519,0.486-0.834c0.256-0.314,0.629-0.604,1.118-0.87c-0.188-0.323-0.33-0.61-0.428-0.861
		c-0.098-0.25-0.146-0.521-0.146-0.812c0-0.28,0.054-0.532,0.16-0.757s0.244-0.406,0.411-0.544c0.168-0.139,0.358-0.244,0.572-0.317
		c0.213-0.074,0.429-0.111,0.646-0.111c0.32,0,0.599,0.071,0.836,0.213c0.238,0.142,0.419,0.323,0.545,0.544
		c0.125,0.222,0.188,0.451,0.188,0.69c0,0.317-0.114,0.631-0.343,0.942c-0.229,0.311-0.562,0.58-1,0.809l1.707,2.231
		c0.206-0.258,0.388-0.518,0.544-0.778c0.156-0.262,0.235-0.516,0.235-0.763c0-0.081-0.036-0.183-0.108-0.304
		c-0.071-0.121-0.228-0.183-0.467-0.183v-0.508h2.271v0.508c-0.203,0.045-0.365,0.107-0.489,0.188
		c-0.123,0.081-0.233,0.185-0.331,0.312s-0.261,0.371-0.489,0.732l-0.237,0.387c-0.202,0.32-0.403,0.591-0.602,0.812
		c0.177,0.258,0.383,0.49,0.618,0.698s0.457,0.312,0.663,0.312c0.1,0,0.195-0.026,0.287-0.08s0.173-0.149,0.243-0.287
		c0.069-0.139,0.117-0.314,0.144-0.527H172z M168.31,116.26l-1.944-2.524c-0.553,0.331-0.828,0.742-0.828,1.231
		c0,0.28,0.073,0.557,0.221,0.831s0.344,0.501,0.591,0.68s0.512,0.268,0.795,0.268c0.229,0,0.434-0.047,0.616-0.141
		S168.125,116.396,168.31,116.26z M168.083,111.317c0-0.151-0.028-0.293-0.086-0.426c-0.057-0.133-0.145-0.24-0.262-0.323
		c-0.118-0.083-0.258-0.124-0.42-0.124c-0.232,0-0.414,0.074-0.547,0.224s-0.199,0.315-0.199,0.5c0,0.431,0.206,0.928,0.619,1.491
		c0.269-0.202,0.484-0.4,0.648-0.594S168.083,111.623,168.083,111.317z"/>
	<path fill="#008066" d="M8.755,127.298v2.111c0,0.79,0.019,1.308,0.056,1.552s0.137,0.426,0.3,0.545
		c0.163,0.118,0.47,0.178,0.919,0.178h0.333v0.341H5.762v-0.341h0.267c0.43,0,0.728-0.055,0.893-0.163
		c0.166-0.108,0.271-0.278,0.315-0.508c0.044-0.229,0.066-0.764,0.066-1.604v-4.927c0-0.8-0.022-1.316-0.066-1.548
		c-0.045-0.232-0.144-0.393-0.297-0.481c-0.152-0.089-0.483-0.134-0.992-0.134H5.762v-0.341l1.26-0.044
		c1.008-0.035,1.793-0.053,2.355-0.053c1.037,0,1.836,0.082,2.396,0.245s1.021,0.452,1.378,0.866
		c0.358,0.415,0.537,0.938,0.537,1.571c0,0.548-0.122,1.032-0.366,1.451c-0.245,0.42-0.596,0.739-1.052,0.956
		c-0.457,0.218-1.261,0.326-2.412,0.326H8.755z M8.755,126.928h0.719c0.578,0,1.045-0.059,1.4-0.175
		c0.355-0.115,0.651-0.359,0.889-0.729s0.355-0.827,0.355-1.37c0-0.83-0.204-1.438-0.611-1.826s-1.067-0.582-1.981-0.582
		c-0.336,0-0.593,0.01-0.771,0.03V126.928z"/>
	<path fill="#008066" d="M20.285,129.711l-0.057,2.313h-6.265v-0.478c0.433,0,0.711-0.062,0.835-0.187
		c0.125-0.124,0.187-0.339,0.187-0.643v-4.419c0-0.2-0.02-0.356-0.06-0.469c-0.039-0.112-0.133-0.201-0.28-0.265
		c-0.146-0.064-0.374-0.096-0.682-0.096v-0.478h5.834l0.094,1.825h-0.478c-0.107-0.404-0.23-0.693-0.37-0.868
		c-0.141-0.175-0.298-0.282-0.473-0.321c-0.174-0.04-0.437-0.06-0.785-0.06h-1.317v2.483h0.716c0.245,0,0.429-0.021,0.55-0.064
		s0.205-0.126,0.254-0.246c0.048-0.121,0.081-0.312,0.099-0.571h0.498v2.339h-0.478c-0.014-0.259-0.049-0.45-0.104-0.572
		c-0.056-0.123-0.143-0.205-0.262-0.247c-0.119-0.041-0.302-0.062-0.548-0.062h-0.726v1.654c0,0.276,0.007,0.479,0.021,0.606
		s0.051,0.234,0.111,0.318c0.061,0.085,0.159,0.146,0.296,0.185s0.331,0.057,0.584,0.057h0.564c0.239,0,0.466-0.03,0.683-0.091
		c0.216-0.061,0.428-0.216,0.635-0.467c0.208-0.25,0.353-0.644,0.436-1.18H20.285z"/>
	<path fill="#008066" d="M27.844,126.99h-0.493c-0.045-0.437-0.141-0.758-0.287-0.965c-0.147-0.208-0.306-0.336-0.475-0.384
		c-0.17-0.049-0.365-0.072-0.586-0.072h-0.893v5.149c0,0.203,0.021,0.361,0.062,0.474c0.041,0.113,0.139,0.2,0.29,0.263
		c0.152,0.062,0.375,0.093,0.669,0.093v0.478h-3.526v-0.478c0.433,0,0.711-0.062,0.835-0.187c0.125-0.124,0.188-0.339,0.188-0.643
		v-5.149h-0.747c-0.294,0-0.538,0.022-0.731,0.069s-0.363,0.175-0.511,0.384c-0.146,0.209-0.23,0.531-0.251,0.968h-0.493v-1.997
		h6.949V126.99z"/>
	<path fill="#008066" d="M32.796,131.921v-3.23h0.37c0.42,2.104,1.415,3.156,2.986,3.156c0.706,0,1.253-0.201,1.641-0.604
		c0.388-0.402,0.581-0.853,0.581-1.352c0-0.504-0.17-0.926-0.511-1.267c-0.341-0.336-0.963-0.696-1.867-1.082
		c-0.805-0.346-1.412-0.648-1.822-0.907c-0.41-0.26-0.729-0.597-0.959-1.012c-0.229-0.414-0.345-0.856-0.345-1.325
		c0-0.717,0.248-1.312,0.744-1.79c0.497-0.477,1.125-0.715,1.886-0.715c0.425,0,0.825,0.069,1.2,0.208
		c0.375,0.138,0.761,0.425,1.155,0.859c0.228-0.271,0.356-0.565,0.386-0.882h0.326v2.63h-0.326c-0.188-0.766-0.52-1.368-0.996-1.808
		c-0.478-0.439-1.029-0.659-1.656-0.659c-0.598,0-1.036,0.162-1.314,0.485c-0.279,0.323-0.419,0.678-0.419,1.062
		c0,0.465,0.175,0.857,0.526,1.179c0.346,0.325,0.97,0.691,1.874,1.096c0.864,0.386,1.492,0.695,1.885,0.93
		c0.394,0.235,0.708,0.56,0.945,0.975c0.236,0.415,0.355,0.894,0.355,1.438c0,0.859-0.287,1.558-0.859,2.097
		c-0.573,0.538-1.339,0.807-2.297,0.807c-1.102,0-2.02-0.422-2.756-1.267c-0.163,0.232-0.284,0.559-0.363,0.979H32.796z"/>
	<path fill="#008066" d="M46.713,129.711l-0.057,2.313h-6.265v-0.478c0.433,0,0.711-0.062,0.835-0.187
		c0.125-0.124,0.187-0.339,0.187-0.643v-4.419c0-0.2-0.02-0.356-0.06-0.469c-0.039-0.112-0.133-0.201-0.28-0.265
		c-0.146-0.064-0.374-0.096-0.682-0.096v-0.478h5.834l0.094,1.825h-0.478c-0.107-0.404-0.23-0.693-0.37-0.868
		c-0.141-0.175-0.298-0.282-0.473-0.321c-0.174-0.04-0.437-0.06-0.785-0.06h-1.317v2.483h0.716c0.245,0,0.429-0.021,0.55-0.064
		s0.205-0.126,0.254-0.246c0.048-0.121,0.081-0.312,0.099-0.571h0.498v2.339h-0.478c-0.014-0.259-0.049-0.45-0.104-0.572
		c-0.056-0.123-0.143-0.205-0.262-0.247c-0.119-0.041-0.302-0.062-0.548-0.062h-0.726v1.654c0,0.276,0.007,0.479,0.021,0.606
		s0.051,0.234,0.111,0.318c0.061,0.085,0.159,0.146,0.296,0.185s0.331,0.057,0.584,0.057h0.564c0.239,0,0.466-0.03,0.683-0.091
		c0.216-0.061,0.428-0.216,0.635-0.467c0.208-0.25,0.353-0.644,0.436-1.18H46.713z"/>
	<path fill="#008066" d="M54.964,132.025h-1.882c-0.069-0.076-0.155-0.187-0.257-0.332c-0.103-0.146-0.214-0.315-0.335-0.511
		s-0.221-0.357-0.301-0.485l-0.477-0.788c-0.215-0.353-0.376-0.594-0.485-0.724c-0.108-0.129-0.233-0.212-0.373-0.248
		c-0.14-0.037-0.378-0.055-0.713-0.055h-0.265v1.836c0,0.193,0.021,0.349,0.062,0.466c0.041,0.118,0.139,0.208,0.293,0.271
		c0.153,0.062,0.377,0.093,0.671,0.093v0.478h-3.526v-0.478c0.429,0,0.705-0.062,0.827-0.187c0.123-0.124,0.185-0.339,0.185-0.643
		v-4.439c0-0.301-0.06-0.515-0.179-0.641s-0.396-0.189-0.833-0.189v-0.487l1.629-0.052c0.124-0.007,0.267-0.012,0.428-0.016
		c0.161-0.003,0.311-0.005,0.448-0.005c0.107,0,0.285,0.003,0.534,0.01c0.35,0.011,0.676,0.031,0.98,0.062
		c0.304,0.031,0.544,0.071,0.721,0.119c0.26,0.066,0.506,0.175,0.739,0.327s0.423,0.353,0.57,0.602
		c0.146,0.249,0.221,0.537,0.221,0.866c0,0.234-0.052,0.463-0.153,0.685c-0.103,0.221-0.267,0.418-0.493,0.591
		s-0.524,0.31-0.895,0.41c0.253,0.148,0.467,0.332,0.644,0.552c0.176,0.22,0.453,0.623,0.829,1.211
		c0.219,0.335,0.398,0.589,0.54,0.76s0.272,0.287,0.392,0.348s0.271,0.1,0.453,0.116V132.025z M52.05,126.865
		c0-0.56-0.17-0.932-0.511-1.115c-0.341-0.183-0.786-0.274-1.335-0.274c-0.076,0-0.136,0.001-0.18,0.003
		c-0.043,0.001-0.092,0.002-0.147,0.002v2.826h0.327c0.521,0,0.96-0.084,1.314-0.254C51.873,127.883,52.05,127.487,52.05,126.865z"
		/>
	<path fill="#008066" d="M62.017,125.47c-0.166,0.003-0.311,0.025-0.433,0.067c-0.123,0.041-0.225,0.106-0.304,0.194
		c-0.08,0.088-0.159,0.208-0.238,0.36c-0.08,0.152-0.19,0.391-0.332,0.716l-2.292,5.347h-0.482l-2.396-5.611
		c-0.149-0.35-0.265-0.59-0.348-0.721c-0.083-0.132-0.194-0.224-0.332-0.275c-0.139-0.052-0.344-0.077-0.617-0.077v-0.478h3.578
		v0.478c-0.339,0.014-0.574,0.041-0.705,0.083c-0.132,0.041-0.197,0.145-0.197,0.311c0,0.156,0.042,0.321,0.125,0.498l1.617,3.76
		l1.494-3.511c0.128-0.305,0.191-0.514,0.191-0.628c0-0.225-0.078-0.364-0.233-0.42c-0.155-0.055-0.389-0.086-0.7-0.093v-0.478
		h2.604V125.47z"/>
	<path fill="#008066" d="M65.933,132.025h-3.568v-0.478c0.298,0,0.522-0.028,0.674-0.085c0.152-0.058,0.252-0.143,0.299-0.257
		s0.069-0.276,0.069-0.487v-4.419c0-0.304-0.062-0.519-0.188-0.643c-0.127-0.125-0.411-0.187-0.854-0.187v-0.478h3.568v0.478
		c-0.298,0-0.522,0.029-0.675,0.088s-0.251,0.145-0.298,0.257s-0.07,0.273-0.07,0.484v4.419c0,0.2,0.022,0.357,0.067,0.472
		s0.141,0.202,0.288,0.265c0.146,0.062,0.376,0.093,0.688,0.093V132.025z"/>
	<path fill="#008066" d="M73.333,131.952h-0.487c-0.073-0.297-0.192-0.563-0.358-0.798c-0.263,0.272-0.563,0.508-0.902,0.705
		s-0.797,0.296-1.374,0.296c-0.633,0-1.22-0.154-1.761-0.462s-0.972-0.737-1.294-1.289c-0.321-0.551-0.481-1.173-0.481-1.864
		c0-0.49,0.087-0.959,0.262-1.405c0.175-0.445,0.423-0.838,0.746-1.177s0.709-0.605,1.157-0.799c0.447-0.193,0.938-0.29,1.47-0.29
		c0.878,0,1.604,0.287,2.178,0.86c0.076-0.148,0.15-0.364,0.224-0.648h0.467l0.083,2.588h-0.498
		c-0.09-0.438-0.253-0.829-0.487-1.172c-0.235-0.342-0.515-0.604-0.838-0.785c-0.323-0.182-0.661-0.272-1.014-0.272
		c-0.395,0-0.749,0.107-1.063,0.324c-0.314,0.216-0.561,0.545-0.738,0.987c-0.179,0.442-0.268,0.994-0.268,1.654
		c0,0.644,0.074,1.179,0.223,1.605c0.149,0.427,0.333,0.749,0.553,0.967s0.439,0.365,0.661,0.443s0.429,0.117,0.622,0.117
		c0.426,0,0.809-0.114,1.149-0.343c0.34-0.229,0.619-0.516,0.837-0.863s0.363-0.692,0.436-1.034h0.498V131.952z"/>
	<path fill="#008066" d="M80.582,129.711l-0.057,2.313H74.26v-0.478c0.433,0,0.711-0.062,0.835-0.187
		c0.125-0.124,0.187-0.339,0.187-0.643v-4.419c0-0.2-0.02-0.356-0.06-0.469c-0.039-0.112-0.133-0.201-0.28-0.265
		c-0.146-0.064-0.374-0.096-0.682-0.096v-0.478h5.834l0.094,1.825H79.71c-0.107-0.404-0.23-0.693-0.37-0.868
		c-0.141-0.175-0.298-0.282-0.473-0.321c-0.174-0.04-0.437-0.06-0.785-0.06h-1.317v2.483h0.716c0.245,0,0.429-0.021,0.55-0.064
		s0.205-0.126,0.254-0.246c0.048-0.121,0.081-0.312,0.099-0.571h0.498v2.339h-0.478c-0.014-0.259-0.049-0.45-0.104-0.572
		c-0.056-0.123-0.143-0.205-0.262-0.247c-0.119-0.041-0.302-0.062-0.548-0.062h-0.726v1.654c0,0.276,0.007,0.479,0.021,0.606
		s0.051,0.234,0.111,0.318c0.061,0.085,0.159,0.146,0.296,0.185s0.331,0.057,0.584,0.057h0.564c0.239,0,0.466-0.03,0.683-0.091
		c0.216-0.061,0.428-0.216,0.635-0.467c0.208-0.25,0.353-0.644,0.436-1.18H80.582z"/>
	<path fill="#008066" d="M86.598,130.007c0,0.218-0.047,0.448-0.141,0.692c-0.093,0.244-0.234,0.478-0.423,0.7
		s-0.426,0.404-0.713,0.544c-0.287,0.141-0.618,0.211-0.995,0.211c-0.374,0-0.744-0.082-1.112-0.244s-0.681-0.404-0.937-0.727
		c-0.11,0.257-0.182,0.493-0.213,0.711h-0.477v-2.406h0.477c0.087,0.346,0.206,0.671,0.358,0.975
		c0.152,0.305,0.367,0.566,0.646,0.786s0.62,0.329,1.024,0.329c0.353,0,0.635-0.097,0.848-0.29c0.213-0.194,0.319-0.438,0.319-0.731
		c0-0.166-0.033-0.312-0.099-0.436c-0.066-0.125-0.161-0.236-0.285-0.335c-0.125-0.099-0.295-0.203-0.511-0.316
		c-0.217-0.112-0.463-0.23-0.739-0.354c-0.426-0.201-0.774-0.403-1.048-0.607c-0.273-0.203-0.479-0.401-0.619-0.594
		c-0.141-0.191-0.237-0.374-0.291-0.547s-0.08-0.348-0.08-0.523c0-0.314,0.085-0.625,0.254-0.931
		c0.17-0.307,0.418-0.557,0.744-0.752c0.327-0.195,0.704-0.293,1.133-0.293c0.329,0,0.642,0.073,0.939,0.22
		c0.297,0.147,0.555,0.349,0.772,0.604c0.062-0.146,0.119-0.35,0.171-0.612h0.487v1.961h-0.487
		c-0.346-1.068-0.947-1.603-1.805-1.603c-0.312,0-0.561,0.082-0.749,0.246s-0.283,0.376-0.283,0.635
		c0,0.204,0.059,0.382,0.177,0.532c0.117,0.15,0.272,0.279,0.464,0.386c0.192,0.107,0.502,0.262,0.931,0.462
		c0.519,0.245,0.924,0.458,1.217,0.638c0.292,0.18,0.539,0.406,0.741,0.68S86.598,129.621,86.598,130.007z"/>
	<path fill="#008066" d="M97.401,128.321h-3.815l-0.259,0.637c-0.386,0.924-0.578,1.526-0.578,1.808c0,0.302,0.103,0.53,0.308,0.686
		s0.468,0.233,0.789,0.233v0.341H90.86v-0.341c0.444-0.069,0.775-0.227,0.992-0.471c0.218-0.244,0.479-0.759,0.785-1.545
		c0.024-0.073,0.144-0.36,0.355-0.859l2.919-6.971h0.289l3.356,7.979l0.459,1.052c0.104,0.237,0.243,0.424,0.419,0.56
		c0.175,0.136,0.438,0.221,0.788,0.256v0.341h-3.948v-0.341c0.484,0,0.812-0.036,0.981-0.107c0.171-0.071,0.256-0.214,0.256-0.426
		c0-0.109-0.113-0.433-0.341-0.971L97.401,128.321z M97.275,127.987l-1.778-4.281l-1.771,4.281H97.275z"/>
	<path fill="#008066" d="M106.754,130.007c0,0.218-0.047,0.448-0.141,0.692c-0.093,0.244-0.234,0.478-0.423,0.7
		s-0.426,0.404-0.713,0.544c-0.287,0.141-0.618,0.211-0.995,0.211c-0.374,0-0.744-0.082-1.112-0.244s-0.681-0.404-0.937-0.727
		c-0.11,0.257-0.182,0.493-0.213,0.711h-0.477v-2.406h0.477c0.087,0.346,0.206,0.671,0.358,0.975
		c0.152,0.305,0.367,0.566,0.646,0.786s0.62,0.329,1.024,0.329c0.353,0,0.635-0.097,0.848-0.29c0.213-0.194,0.319-0.438,0.319-0.731
		c0-0.166-0.033-0.312-0.099-0.436c-0.066-0.125-0.161-0.236-0.285-0.335c-0.125-0.099-0.295-0.203-0.511-0.316
		c-0.217-0.112-0.463-0.23-0.739-0.354c-0.426-0.201-0.774-0.403-1.048-0.607c-0.273-0.203-0.479-0.401-0.619-0.594
		c-0.141-0.191-0.237-0.374-0.291-0.547s-0.08-0.348-0.08-0.523c0-0.314,0.085-0.625,0.254-0.931
		c0.17-0.307,0.418-0.557,0.744-0.752c0.327-0.195,0.704-0.293,1.133-0.293c0.329,0,0.642,0.073,0.939,0.22
		c0.297,0.147,0.555,0.349,0.772,0.604c0.062-0.146,0.119-0.35,0.171-0.612h0.487v1.961h-0.487
		c-0.346-1.068-0.947-1.603-1.805-1.603c-0.312,0-0.561,0.082-0.749,0.246s-0.283,0.376-0.283,0.635
		c0,0.204,0.059,0.382,0.177,0.532c0.117,0.15,0.272,0.279,0.464,0.386c0.192,0.107,0.502,0.262,0.931,0.462
		c0.519,0.245,0.924,0.458,1.217,0.638c0.292,0.18,0.539,0.406,0.741,0.68S106.754,129.621,106.754,130.007z"/>
	<path fill="#008066" d="M112.842,130.007c0,0.218-0.047,0.448-0.141,0.692c-0.093,0.244-0.234,0.478-0.423,0.7
		s-0.426,0.404-0.713,0.544c-0.287,0.141-0.618,0.211-0.995,0.211c-0.374,0-0.744-0.082-1.112-0.244s-0.681-0.404-0.937-0.727
		c-0.11,0.257-0.182,0.493-0.213,0.711h-0.477v-2.406h0.477c0.087,0.346,0.206,0.671,0.358,0.975
		c0.152,0.305,0.367,0.566,0.646,0.786s0.62,0.329,1.024,0.329c0.353,0,0.635-0.097,0.848-0.29c0.213-0.194,0.319-0.438,0.319-0.731
		c0-0.166-0.033-0.312-0.099-0.436c-0.066-0.125-0.161-0.236-0.285-0.335c-0.125-0.099-0.295-0.203-0.511-0.316
		c-0.217-0.112-0.463-0.23-0.739-0.354c-0.426-0.201-0.774-0.403-1.048-0.607c-0.273-0.203-0.479-0.401-0.619-0.594
		c-0.141-0.191-0.237-0.374-0.291-0.547s-0.08-0.348-0.08-0.523c0-0.314,0.085-0.625,0.254-0.931
		c0.17-0.307,0.418-0.557,0.744-0.752c0.327-0.195,0.704-0.293,1.133-0.293c0.329,0,0.642,0.073,0.939,0.22
		c0.297,0.147,0.555,0.349,0.772,0.604c0.062-0.146,0.119-0.35,0.171-0.612h0.487v1.961h-0.487
		c-0.346-1.068-0.947-1.603-1.805-1.603c-0.312,0-0.561,0.082-0.749,0.246s-0.283,0.376-0.283,0.635
		c0,0.204,0.059,0.382,0.177,0.532c0.117,0.15,0.272,0.279,0.464,0.386c0.192,0.107,0.502,0.262,0.931,0.462
		c0.519,0.245,0.924,0.458,1.217,0.638c0.292,0.18,0.539,0.406,0.741,0.68S112.842,129.621,112.842,130.007z"/>
	<path fill="#008066" d="M121.652,128.508c0,0.64-0.151,1.239-0.456,1.797c-0.304,0.559-0.754,1.007-1.351,1.344
		s-1.301,0.506-2.113,0.506c-0.664,0-1.248-0.107-1.753-0.322c-0.505-0.214-0.917-0.501-1.236-0.86
		c-0.32-0.359-0.557-0.754-0.711-1.183c-0.153-0.429-0.23-0.859-0.23-1.291c0-0.626,0.146-1.217,0.44-1.773s0.736-1.006,1.328-1.346
		c0.591-0.341,1.298-0.511,2.12-0.511c0.751,0,1.389,0.122,1.914,0.368c0.525,0.245,0.936,0.555,1.229,0.928
		c0.294,0.374,0.504,0.765,0.631,1.175C121.589,127.749,121.652,128.139,121.652,128.508z M119.972,128.488
		c0-0.394-0.034-0.768-0.102-1.12s-0.186-0.672-0.354-0.957c-0.17-0.285-0.401-0.511-0.695-0.679s-0.657-0.252-1.089-0.252
		c-0.595,0-1.059,0.148-1.393,0.443c-0.334,0.296-0.56,0.666-0.68,1.11c-0.119,0.444-0.179,0.929-0.179,1.454
		c0,0.291,0.02,0.593,0.058,0.907c0.038,0.315,0.129,0.638,0.274,0.968s0.377,0.608,0.695,0.835c0.317,0.227,0.729,0.34,1.234,0.34
		c0.501,0,0.908-0.117,1.221-0.351s0.541-0.519,0.685-0.855s0.233-0.659,0.27-0.967S119.972,128.764,119.972,128.488z"/>
	<path fill="#008066" d="M129.337,131.952h-0.487c-0.073-0.297-0.192-0.563-0.358-0.798c-0.263,0.272-0.563,0.508-0.902,0.705
		s-0.797,0.296-1.374,0.296c-0.633,0-1.22-0.154-1.761-0.462s-0.972-0.737-1.294-1.289c-0.321-0.551-0.481-1.173-0.481-1.864
		c0-0.49,0.087-0.959,0.262-1.405c0.175-0.445,0.423-0.838,0.746-1.177s0.709-0.605,1.157-0.799c0.447-0.193,0.938-0.29,1.47-0.29
		c0.878,0,1.604,0.287,2.178,0.86c0.076-0.148,0.15-0.364,0.224-0.648h0.467l0.083,2.588h-0.498
		c-0.09-0.438-0.253-0.829-0.487-1.172c-0.235-0.342-0.515-0.604-0.838-0.785c-0.323-0.182-0.661-0.272-1.014-0.272
		c-0.395,0-0.749,0.107-1.063,0.324c-0.314,0.216-0.561,0.545-0.738,0.987c-0.179,0.442-0.268,0.994-0.268,1.654
		c0,0.644,0.074,1.179,0.223,1.605c0.149,0.427,0.333,0.749,0.553,0.967s0.439,0.365,0.661,0.443s0.429,0.117,0.622,0.117
		c0.426,0,0.809-0.114,1.149-0.343c0.34-0.229,0.619-0.516,0.837-0.863s0.363-0.692,0.436-1.034h0.498V131.952z"/>
	<path fill="#008066" d="M133.783,132.025h-3.568v-0.478c0.298,0,0.522-0.028,0.674-0.085c0.152-0.058,0.252-0.143,0.299-0.257
		s0.069-0.276,0.069-0.487v-4.419c0-0.304-0.062-0.519-0.188-0.643c-0.127-0.125-0.411-0.187-0.854-0.187v-0.478h3.568v0.478
		c-0.298,0-0.522,0.029-0.675,0.088s-0.251,0.145-0.298,0.257s-0.07,0.273-0.07,0.484v4.419c0,0.2,0.022,0.357,0.067,0.472
		s0.141,0.202,0.288,0.265c0.146,0.062,0.376,0.093,0.688,0.093V132.025z"/>
	<path fill="#008066" d="M141.208,132.025h-3.314v-0.478c0.28,0,0.484-0.02,0.612-0.06s0.191-0.134,0.191-0.282
		c0-0.104-0.021-0.209-0.062-0.316l-0.332-0.83h-2.282l-0.171,0.456c-0.097,0.257-0.146,0.441-0.146,0.556
		c0,0.207,0.081,0.339,0.241,0.394c0.161,0.056,0.349,0.083,0.562,0.083v0.478h-2.421v-0.478c0.193,0,0.357-0.036,0.492-0.108
		c0.135-0.073,0.264-0.21,0.387-0.412c0.122-0.203,0.255-0.488,0.396-0.858l2.027-5.311h0.493l2.142,5.477
		c0.155,0.387,0.27,0.648,0.342,0.785c0.073,0.137,0.173,0.242,0.301,0.316s0.308,0.111,0.54,0.111V132.025z M138.118,129.551
		l-0.97-2.453l-0.924,2.453H138.118z"/>
	<path fill="#008066" d="M148.048,126.99h-0.493c-0.045-0.437-0.141-0.758-0.287-0.965c-0.147-0.208-0.306-0.336-0.475-0.384
		c-0.17-0.049-0.365-0.072-0.586-0.072h-0.893v5.149c0,0.203,0.021,0.361,0.062,0.474c0.041,0.113,0.139,0.2,0.29,0.263
		c0.152,0.062,0.375,0.093,0.669,0.093v0.478h-3.526v-0.478c0.433,0,0.711-0.062,0.835-0.187c0.125-0.124,0.188-0.339,0.188-0.643
		v-5.149h-0.747c-0.294,0-0.538,0.022-0.731,0.069s-0.363,0.175-0.511,0.384c-0.146,0.209-0.23,0.531-0.251,0.968h-0.493v-1.997
		h6.949V126.99z"/>
	<path fill="#008066" d="M152.104,132.025h-3.568v-0.478c0.298,0,0.522-0.028,0.674-0.085c0.152-0.058,0.252-0.143,0.299-0.257
		s0.069-0.276,0.069-0.487v-4.419c0-0.304-0.062-0.519-0.188-0.643c-0.127-0.125-0.411-0.187-0.854-0.187v-0.478h3.568v0.478
		c-0.298,0-0.522,0.029-0.675,0.088s-0.251,0.145-0.298,0.257s-0.07,0.273-0.07,0.484v4.419c0,0.2,0.022,0.357,0.067,0.472
		s0.141,0.202,0.288,0.265c0.146,0.062,0.376,0.093,0.688,0.093V132.025z"/>
	<path fill="#008066" d="M160.665,128.508c0,0.64-0.151,1.239-0.456,1.797c-0.304,0.559-0.754,1.007-1.351,1.344
		s-1.301,0.506-2.113,0.506c-0.664,0-1.248-0.107-1.753-0.322c-0.505-0.214-0.917-0.501-1.236-0.86
		c-0.32-0.359-0.557-0.754-0.711-1.183c-0.153-0.429-0.23-0.859-0.23-1.291c0-0.626,0.146-1.217,0.44-1.773s0.736-1.006,1.328-1.346
		c0.591-0.341,1.298-0.511,2.12-0.511c0.751,0,1.389,0.122,1.914,0.368c0.525,0.245,0.936,0.555,1.229,0.928
		c0.294,0.374,0.504,0.765,0.631,1.175C160.602,127.749,160.665,128.139,160.665,128.508z M158.985,128.488
		c0-0.394-0.034-0.768-0.102-1.12s-0.186-0.672-0.354-0.957c-0.17-0.285-0.401-0.511-0.695-0.679s-0.657-0.252-1.089-0.252
		c-0.595,0-1.059,0.148-1.393,0.443c-0.334,0.296-0.56,0.666-0.68,1.11c-0.119,0.444-0.179,0.929-0.179,1.454
		c0,0.291,0.02,0.593,0.058,0.907c0.038,0.315,0.129,0.638,0.274,0.968s0.377,0.608,0.695,0.835c0.317,0.227,0.729,0.34,1.234,0.34
		c0.501,0,0.908-0.117,1.221-0.351s0.541-0.519,0.685-0.855s0.233-0.659,0.27-0.967S158.985,128.764,158.985,128.488z"/>
	<path fill="#008066" d="M169.066,125.47c-0.336,0-0.576,0.033-0.721,0.101c-0.146,0.067-0.235,0.167-0.27,0.299
		c-0.035,0.131-0.053,0.346-0.053,0.643v5.574h-0.477l-4.6-5.466v3.874c0,0.294,0.018,0.508,0.054,0.641
		c0.037,0.133,0.129,0.235,0.278,0.306c0.148,0.071,0.389,0.106,0.721,0.106v0.478h-2.614v-0.478c0.312,0,0.537-0.035,0.677-0.106
		c0.141-0.07,0.227-0.173,0.26-0.306c0.032-0.133,0.049-0.347,0.049-0.641v-3.588c0-0.291-0.008-0.509-0.023-0.654
		c-0.016-0.145-0.053-0.271-0.111-0.381c-0.059-0.108-0.154-0.197-0.288-0.265c-0.133-0.067-0.316-0.113-0.552-0.137v-0.478h2.049
		l4.003,4.729v-3.21c0-0.263-0.019-0.464-0.055-0.604c-0.036-0.14-0.126-0.248-0.27-0.324c-0.144-0.075-0.371-0.113-0.682-0.113
		v-0.478h2.624V125.47z"/>
</g>
<g>
	<path fill="#AFD2CA" d="M99.279,31.777c3.219,2.261,4.306,2.48,6.996,0.18c1.023-0.877,2.784-0.849,3.17-2.474
		c0.08-1.707,0.213-3.439-2-4c-0.813-0.011-1.702-0.199-2.201,0.708c-1.135,2.062-1.934,0.604-2.836-0.231
		c-0.625-0.58-0.848-1.222-1.016-2.093c-0.958-4.966-7.496-8.992-12.451-9.342c-2.712-0.192-5.377,0.114-8.111,0.811
		c-2.657,0.678-5.625,0.222-8.452,0.123c-2.053-0.072-3.881-1.221-6.086-1.132c-1.138,0.046-2.786-0.832-3.274-2.696
		c-0.594-2.272-2.599-3.643-4.18-5.251c-0.449-0.458-0.836-0.941-1.626-0.914c-2.868,0.098-5.867-0.479-8.206,1.93
		c-0.428,0.44-0.813,0.887-1.521,1.139c-3.048,1.085-2.75,1.192-3.129,3.786c-0.288,1.97,1.268,3.297,1.092,5.094
		c-0.089,0.902,0.477,1.083,1.218,1.072c0.832-0.013,1.725-0.193,2.484,0.042c1.125,0.349,2.157,0.999,3.229,1.521
		c-0.968,0.479-1.935,0.956-2.902,1.435H46.81c-1.762,0.251-4.105-0.89-5.189,0.537c-1.492,1.965-2.745,0.308-4.061,0.435
		c-1.112,0.107-1.74-1.197-3.088-1.049c-1.58,0.175-3.808,0.813-4.692-0.366c-0.809-1.078-0.276-3.162-0.334-4.803
		c-0.006-0.166-0.044-1.589-0.546-1.72c-0.616-0.16-1.233-0.075-1.5,0.769c-2.039,6.447-8.984,9.781-9.6,10.342
		c-1.896,1.73-3.705,4.354-4.328,7.191c-1.238,5.642-1.338,11.295-1.973,17.14c-0.347,3.2-2.113,9.814-3.571,10.531
		c-0.938,0.461-2.108,0.202-2.474-1.315c-0.429-1.78-0.054-3.664,0.008-5.494c0.033-1.018-0.754-1.807-1.303-1.88
		c-1.383-0.184-0.824,5.322-0.691,7.145c0.244,3.349,1.009,5.298,4.31,4.765c3.699-0.598,6.246-8.016,6.455-15.176
		c0.098-3.297,1.524-5.798,2.294-8.886c0.814-3.264,2.734-6.062,5.492-8.144c0.202-0.152,0.699-0.104,0.953,0.039
		c0.682,0.381-0.669,3.441-0.584,4.602c0.16,2.205,0.78,3.435,2.229,5.025c0.417,0.459,0.891,0.271,1.359,0.28
		c0.627,0.38,1.722-1.263,1.145-3.738c-0.157-0.676-1.066-1.309-0.629-1.671c1.449-1.203,0.963-2.737,0.909-4.132
		c-0.062-1.619,0.996-1.686,1.886-1.37c1.348,0.478,2.636,0.848,4.088,1.021c2.49,0.298,0.067,2.919,1.548,3.979
		c0.558,0.399,0.655,1.389,1.114,1.993c0.457,0.602,0.588,1.099,0.137,1.724c-1.151,1.596,0.277,2.671,1.166,3.122
		c1.295,0.658,1.845-0.896,3.088-1.617c2.596-1.504-1.85-3.354-1.563-5.122c0.065-0.404,0.944-0.09,3.581,1.843
		c1.728,1.063,3.111,0.221,3.874-1.417c0.913-1.962-0.831-7.383-2.69-8.546c-0.335-0.21-1.191-0.215-1.059-0.568
		c0.215-0.566,0.822-1.295,1.351-1.373c1.597-0.237,3.121-0.319,4.473,1.202c0.784,0.883,1.953,1.74,3.231-0.583
		c1.383-2.512,2.838-2.159,4.91-0.136c2,1.952,3.281,4.603,5.908,5.959c0.729,0.376,1.089,1.094,1.033,2.058
		c-0.082,1.422-0.029,2.747,0.852,4.143c0.583,0.923,0.219,2.591-0.053,3.854c-0.164,0.761-2.834,0.654-3.163,1.605
		c-0.285,0.824,0.279,1.468,0.386,2.178c0.12,0.801,0.984,0.624,1.617,0.624c0.996,0,1.992,0.012,2.989-0.003
		c1.647-0.023,3.802,0.565,4.816-0.252c1.354-1.092,0.312-3.395,0.519-5.161c0.039-0.328-0.082-0.694,0.021-0.991
		c0.573-1.646,0.739-3.413,1.181-5.019c0.348-1.267,2.701-0.193,4.048-0.616c1.896-0.596,3.761-1.368,5.512-2.304
		c0.655-0.351,0.787-0.44,1.474-0.011c2.049,1.282,1.595,3.712,2.742,5.388c0.703,1.025,1.132,2.144,1.102,3.555
		c-0.047,2.27-3.391,2.351-3.512,2.424c-0.899,0.55-0.57,1.463-0.531,2.219c0.048,0.92,0.844,0.695,1.486,0.774
		c4.734,0.581,5.338-2.694,5.979-3.87c0.603-1.104,1.882-1.823,1.535-3.39c-0.041-0.191,0.324-0.474,0.501-0.713
		c0.157,0.269,0.462,0.546,0.444,0.803c-0.084,1.252,0.543,2.72-0.919,3.604c-1.452,0.878-1.618,3.759,0.425,3.566
		c5.354-0.503,5.527-0.093,5.607-5.723c0.039-2.775-0.864-5.305-1.062-7.978c-0.03-0.413,0.177-1.036,0.483-1.23
		C98.275,31.353,98.802,31.442,99.279,31.777z"/>
	<path fill="#AFD2CA" d="M160.875,35.315c-0.543-3.775-4.372-6.338-3.711-10.536c0.055-0.353-0.384-2.677-1.396-2.542
		c-1.31,0.174-1.17,2.479-1.329,3.185c-0.068,0.299,0.076,1.476-0.094,1.522c-0.648,0.178-0.84-1.561-1.423-2.627
		c-0.141-0.257-1.166-2.893-3.394-2.785c-0.538,2.46-1.09,4.013,0.055,5.951c0.283,0.479,0.383,1.638,0.603,2
		c0.473,0.777,1.027,0.865-0.155,1.839c-0.787,0.648-0.238,1.969-1.96,2.35c-1.724,0.382-3.343,1.753-4.425,3.842
		c-0.977,1.885-1.833,3.961-3.152,5.728c-0.332,0.446-0.089,1.265-1.062,1.258c-0.988-0.008-0.7-0.869-1.034-1.283
		c-1.391-1.724-1.442-3.211,0.394-4.559c0.832-0.611,0.641-1.434,0.654-2.236c0.015-0.827-0.301-2.125,0.098-2.405
		c2.551-1.794,1.803-4.374,1.903-6.765c-0.001-1.167-0.016-2.334,0.006-3.5c0.009-0.517-0.04-1.077-0.543-1.231
		c-0.416-0.128-0.876-0.037-1.356,0.307c-3.197,2.294-4.047,2.297-7.143,0.081c-0.445-0.319-0.874-0.539-1.324-0.4
		c-0.812,0.25-0.687,1.006-0.629,1.635c0.071,0.78-0.342,1.667,0.453,2.309c0.582,0.469,0.762,1.081,0.346,1.695
		c-0.459,0.678-1.442,0.533-1.813,0.286c-2.577-1.716-5.417-0.68-8.12-0.93c-0.613-0.057-1.299-0.219-1.823,0.415
		c-2.528,3.063-6.454,5.028-7.112,9.571c-0.25,1.733-1.154,2.018-3.064,1.345c-2.285-0.804-3.044-0.219-5.127,0.734
		c-1.979,0.902-4.032,6.267-3.083,6.582c0.985,0.328,2.057-2.36,2.583-2.98c2.089-2.458,4.322-3.12,6.216-0.852
		c2.018,2.416,3.743,2.817,5.897,4.247c1.898,1.26,3.637,1.164,5.48,0.535c2.528-0.861,4.896-0.931,7.451,0.081
		c1.59,0.63,4.083,0.71,5.622-0.697c0.234-0.213-0.476-0.937-0.763-0.979c-0.488-0.074-1.017,0.066-1.49-0.044
		c-0.511-0.119-0.74-0.551-0.668-1.111c0.071-0.562,0.336-0.833,0.93-0.877c1.043-0.078,1.848,0.146,2.609,0.997
		c1.674,1.872,3.568,3.246,6.336,2.053c0.712-0.308,1.185,0.29,1.129,1.109c-0.033,0.485,0.121,1.177-0.141,1.417
		c-0.744,0.688-0.844,1.129-0.008,1.83c0.719,0.603,1.196,0.742,2.11,0.227c1.109-0.626,2.747-1.999,3.075,0.863
		c0.055,0.482,0.73,0.559,1.244,0.517c0.648-0.055,0.888,1.605,1.849,0.399c0.507-0.637,1.38-1.262,0.665-2.045
		c-1.533-1.68,0.015-1.228,0.828-1.359c1.248-0.202,1.656,0.906,2.369,1.515c0.865,0.737,1.891,0.753,2.682,0.229
		c0.743-0.492,0.58-1.829,0.195-2.235c-0.793-0.835-1.294-1.923-0.799-2.628c1.268-1.805,0.93-3.736,0.893-5.633
		c-0.031-1.571,0.053-2.395,2.087-2.387C160.5,38.344,161.105,36.921,160.875,35.315z"/>
	<path fill="#AFD2CA" d="M109.48,29.147c0.707-2.021,0.951-3.49-2.035-3.664C109.658,26.043,109.56,27.44,109.48,29.147z"/>
	<path fill="#AFD2CA" d="M109.445,29.483c0.984,0.077,0.971-0.609,1.004-1.287c0.063-1.289,0.104-1.318,2.15-1.697
		c0.936-0.174,0.796-0.806,0.859-1.453c0.136-1.396-0.85-2.387-1.455-3.377c-0.984-1.61-0.734-3.262-0.387-4.718
		c0.307-1.288,2.218-1.071,3.19-1.623c1.915-1.087,4.323-0.897,5.933-2.61c1.934-2.058,4.076-3.924,5.936-6.044
		c0.887-1.012,1.74-2.232,1.762-3.734c0.008-0.47,0.187-1.055-0.388-1.305c-0.14-0.062-0.485,0.248-0.686,0.44
		c-0.719,0.691-1.441,1.381-2.116,2.114c-1.918,2.088-4.08,3.711-7.108,3.261c-1.165-0.173-1.733,0.694-2.57,1.061
		c-3.8,1.659-7.415,1.686-10.683-1.128c-1.132-0.974-2.148-1.47-3.422-0.412c-1.283,1.066-2.232,0.535-3.45-0.319
		c-1.36-0.955-3.032-1.465-4.569-2.168c-1.355-1-2.697-2.02-4.08-2.979c-0.211-0.146-0.609-0.021-0.92-0.021
		c0.953,1.713,2.287,3.046,4,4c3.9,1.301,5.396,5.819,9.387,7.015c0.497,0.148,0.725,0.624,0.607,1.154
		c-0.365,1.651,1.17,2.168,1.838,3.211c0.447,0.7,0.94,1.636,0.811,2.356c-0.104,0.571-0.475,1.518-1.486,1.443
		c-0.247-0.018-1.072,0.938-0.797,0.969c0.652,0.07,1.746-0.174,2.404-0.144c2.158,0.097,2.16,0.104,2.234,2.51
		c0.016,0.494,0.002,0.99,0.002,1.485"/>
</g>
</svg>
