<?xml version="1.0" encoding="utf-8"?>
<!-- Generator: Adobe Illustrator 16.0.0, SVG Export Plug-In . SVG Version: 6.00 Build 0)  -->
<!DOCTYPE svg PUBLIC "-//W3C//DTD SVG 1.1//EN" "http://www.w3.org/Graphics/SVG/1.1/DTD/svg11.dtd">
<svg version="1.1" id="Capa_1" xmlns="http://www.w3.org/2000/svg" xmlns:xlink="http://www.w3.org/1999/xlink" x="0px" y="0px"
	 width="253.612px" height="254.949px" viewBox="0 305.051 253.612 254.949" enable-background="new 0 305.051 253.612 254.949"
	 xml:space="preserve">
<g>
	<rect x="-725" y="220" fill="#0084B1" width="560" height="560"/>
	<g>
		<path fill="#FFFFFF" d="M-593.206,305.051c25.648,0.021,46.802,21.205,46.747,46.982c-0.062,26.99-22.46,47.333-47.063,46.746
			c-24.954,0.506-46.885-20.338-46.88-46.925C-640.401,326.068-619.165,305.031-593.206,305.051z"/>
		<path fill="#FFFFFF" d="M-565.956,694.894h-54.953c-7.132,0-12.914-5.781-12.914-12.913V447.549
			c0-7.133,5.782-12.914,12.914-12.914h54.953c7.132,0,12.914,5.781,12.914,12.914v234.433
			C-553.043,689.112-558.824,694.894-565.956,694.894z"/>
		<path fill="#FFFFFF" d="M-249.599,516.978c0-49.147-39.842-88.989-88.989-88.989h-14.095c-26.889,0-50.644,13.416-64.932,33.922
			c-1.559,2.235-3.001,4.557-4.325,6.953c-0.459-0.069-0.73-0.105-0.736-0.092v-28.776c0-2.96-2.4-5.361-5.361-5.361h-68.561
			c-2.96,0-5.361,2.399-5.361,5.361v249.54c0,2.96,2.398,5.359,5.358,5.361l70.056,0.017c2.961,0.001,5.362-2.399,5.362-5.361
			V545.386c0-24.919,19.876-45.611,44.794-45.893c12.721-0.144,24.253,4.953,32.564,13.27c8.202,8.197,13.273,19.532,13.273,32.046
			V689.57c0,2.96,2.4,5.36,5.359,5.361l70.228,0.018c2.962,0.001,5.362-2.4,5.362-5.361v-172.61H-249.599z"/>
	</g>
</g>
<path fill="#888888" d="M232.328,307.958H21.295C11.19,307.958,3,315.898,3,325.699v212.124c0,9.802,8.194,17.749,18.295,17.749
	h211.033c10.103,0,18.284-7.952,18.284-17.749V325.699C250.612,315.901,242.431,307.958,232.328,307.958z M77.494,512.161
	c0,3.144-2.549,5.692-5.693,5.692H47.572c-3.144,0-5.693-2.549-5.693-5.693V408.801c0-3.146,2.549-5.694,5.693-5.694H71.8
	c3.145,0,5.693,2.549,5.693,5.694V512.161z M59.646,389.887c-11.002,0.223-20.671-8.967-20.669-20.688
	c0-11.369,9.363-20.645,20.809-20.636c11.308,0.009,20.635,9.35,20.61,20.714C80.369,381.177,70.493,390.146,59.646,389.887z
	 M210.396,439.387v76.104c0,1.306-1.058,2.364-2.364,2.363l-30.963-0.008c-1.305,0-2.363-1.059-2.363-2.363v-63.825
	c0-5.517-2.236-10.515-5.852-14.129c-3.665-3.667-8.749-5.913-14.358-5.851c-10.986,0.125-19.75,9.247-19.75,20.234v63.562
	c0,1.305-1.059,2.363-2.364,2.363l-30.887-0.007c-1.305-0.001-2.363-1.06-2.363-2.364V405.445c0-1.306,1.059-2.363,2.364-2.363
	h30.228c1.305,0,2.364,1.058,2.364,2.363v12.688c0.002-0.005,0.122,0.01,0.325,0.04c0.583-1.056,1.22-2.079,1.907-3.064
	c6.3-9.041,16.773-14.956,28.628-14.956h6.214c21.669,0,39.235,17.566,39.235,39.234H210.396z"/>
</svg>
