<?xml version="1.0" encoding="utf-8"?>
<!-- Generator: Adobe Illustrator 16.0.0, SVG Export Plug-In . SVG Version: 6.00 Build 0)  -->
<!DOCTYPE svg PUBLIC "-//W3C//DTD SVG 1.1//EN" "http://www.w3.org/Graphics/SVG/1.1/DTD/svg11.dtd">
<svg version="1.1" id="Layer_1" xmlns="http://www.w3.org/2000/svg" xmlns:xlink="http://www.w3.org/1999/xlink" x="0px" y="0px"
	 width="104.151px" height="78.372px" viewBox="15.259 1.467 104.151 78.372" enable-background="new 15.259 1.467 104.151 78.372"
	 xml:space="preserve">
<g>
	<path fill="#FFFFFF" d="M36.021,1.467H17.688c-1.341,0-2.429,1.087-2.429,2.428V77.41c0,1.342,1.088,2.429,2.429,2.429h2.01
		c-0.02-0.062-0.044-0.123-0.044-0.199c0-0.367,0.18-0.608,0.539-0.726c0.296-0.101,0.469-0.159,0.518-0.183
		c0.049-0.022,0.102-0.073,0.155-0.154c0.107-0.145,0.161-0.372,0.161-0.688V64.417c0-0.314-0.054-0.543-0.161-0.688
		c-0.054-0.08-0.106-0.133-0.155-0.154c-0.049-0.022-0.222-0.083-0.518-0.182c-0.359-0.117-0.539-0.358-0.539-0.728
		c0-0.224,0.088-0.396,0.263-0.519c0.176-0.121,0.425-0.183,0.747-0.183h6.339v15.813c0,0.352,0.068,0.604,0.203,0.756
		c0.071,0.089,0.139,0.146,0.202,0.167c0.062,0.022,0.269,0.08,0.618,0.169c0.432,0.1,0.646,0.346,0.646,0.74
		c0,0.082-0.021,0.154-0.048,0.226h7.396c1.342,0,2.429-1.087,2.429-2.429V3.895C38.45,2.554,37.363,1.467,36.021,1.467z
		 M34.621,70.878c-0.609,0.869-1.462,1.512-2.557,1.925c-0.906,0.331-2.212,0.497-3.917,0.497V71.86
		c0.386-0.09,0.658-0.184,0.814-0.282c0.157-0.099,0.295-0.251,0.411-0.457c0.188-0.351,0.283-0.821,0.283-1.413v-4.309
		c0-0.422-0.032-0.735-0.096-0.941c-0.062-0.206-0.188-0.395-0.376-0.564c-0.261-0.252-0.61-0.408-1.05-0.472v-1.454
		c1.848,0,3.212,0.176,4.092,0.525c1.014,0.402,1.816,1.021,2.409,1.857c0.601,0.853,0.901,1.896,0.901,3.137
		C35.537,68.868,35.231,69.999,34.621,70.878z"/>
	<path fill="#FFFFFF" d="M89.992,1.467H71.658c-1.341,0-2.429,1.087-2.429,2.428V77.41c0,1.342,1.088,2.429,2.429,2.429h2.781
		c0.237-0.074,0.403-0.166,0.492-0.271c0.229-0.271,0.344-1.096,0.344-2.477V62.337c0-1.383-0.113-2.207-0.344-2.473
		c-0.229-0.264-0.964-0.438-2.201-0.52l-0.291-0.029v-0.95h6.697l2.223-0.077l1.053-0.031c4.384,0,6.576,1.997,6.576,5.99
		c0,2.441-0.795,4.273-2.389,5.499c-1.592,1.226-3.983,1.839-7.177,1.839h-0.957v5.506c0,1.36,0.123,2.186,0.369,2.477
		c0.089,0.106,0.242,0.197,0.459,0.271h10.697c1.341,0,2.429-1.087,2.429-2.429V3.895C92.421,2.554,91.333,1.467,89.992,1.467z
		 M84.092,68.994c0.994-1.043,1.492-2.603,1.492-4.679c0-1.77-0.379-3.03-1.139-3.789c-0.76-0.756-2.027-1.133-3.807-1.133h-2.173
		v11.164h1.132C81.6,70.558,83.098,70.037,84.092,68.994z"/>
	<path fill="#FFFFFF" d="M111.464,69.53c0-1.954-1.383-2.898-3.489-2.898c-0.834,0-1.471,0.066-1.801,0.154v5.751
		c0.416,0.11,0.943,0.153,1.58,0.153C110.059,72.69,111.464,71.571,111.464,69.53z M116.98,1.467H98.646
		c-1.342,0-2.429,1.087-2.429,2.428V77.41c0,1.342,1.087,2.429,2.429,2.429h5.617V65.403c0.922-0.154,2.129-0.286,3.666-0.286
		c1.887,0,3.271,0.438,4.147,1.229c0.812,0.702,1.295,1.777,1.295,3.096c0,1.339-0.394,2.393-1.142,3.16
		c-1.01,1.075-2.655,1.625-4.521,1.625c-0.57,0-1.098-0.021-1.536-0.133v5.743h10.808c1.34,0,2.43-1.087,2.43-2.429V3.895
		C119.41,2.554,118.32,1.467,116.98,1.467z"/>
	<path fill="#FFFFFF" d="M62.292,74.513c-0.969-0.68-1.127-2.125-0.352-3.229s2.188-1.449,3.157-0.769
		c0.127,0.088,0.238,0.191,0.338,0.307V3.895c0-1.341-1.088-2.428-2.429-2.428H44.674c-1.342,0-2.429,1.087-2.429,2.428V77.41
		c0,1.342,1.087,2.429,2.429,2.429h11.273c-0.49-0.287-1.006-0.719-1.544-1.339c-2.322-2.674-9.537,1.974-6.448-5.627
		c1.07-2.638,4.631-3.7,7.988-2.36c3.355,1.342,5.22,4.57,4.164,7.215c-0.376,0.941-0.886,1.68-1.499,2.111h4.398
		c1.341,0,2.429-1.087,2.429-2.429v-3.647C64.657,74.853,63.256,75.188,62.292,74.513z M51.039,66.729
		c-0.149,1.282-1.17,2.218-2.279,2.088c-1.11-0.129-1.888-1.272-1.739-2.557c0.149-1.283,1.17-2.219,2.279-2.09
		C50.409,64.3,51.188,65.446,51.039,66.729z M56.787,66.688c-0.472,1.354-1.822,2.11-3.018,1.695
		c-1.196-0.417-1.785-1.851-1.314-3.201c0.471-1.354,1.821-2.111,3.018-1.695C56.67,63.903,57.257,65.336,56.787,66.688z
		 M58.699,70.666c-1.202-0.612-1.639-2.163-0.977-3.464c0.662-1.301,2.173-1.857,3.375-1.244c1.203,0.611,1.64,2.163,0.978,3.463
		C61.412,70.722,59.9,71.278,58.699,70.666z"/>
</g>
</svg>
