<?xml version="1.0" encoding="utf-8"?>
<!-- Generator: Adobe Illustrator 16.0.0, SVG Export Plug-In . SVG Version: 6.00 Build 0)  -->
<!DOCTYPE svg PUBLIC "-//W3C//DTD SVG 1.1//EN" "http://www.w3.org/Graphics/SVG/1.1/DTD/svg11.dtd">
<svg version="1.1" id="Layer_1" xmlns="http://www.w3.org/2000/svg" xmlns:xlink="http://www.w3.org/1999/xlink" x="0px" y="0px"
	 width="233px" height="195.5px" viewBox="0 0 233 195.5" enable-background="new 0 0 233 195.5" xml:space="preserve">
<g>
	<path fill="#D20B43" d="M79.11,16.105H57.068c-1.613,0-2.921,1.308-2.921,2.921v88.386c0,1.613,1.308,2.92,2.921,2.92h2.416
		c-0.023-0.075-0.053-0.148-0.053-0.239c0-0.442,0.216-0.731,0.646-0.872c0.356-0.119,0.565-0.191,0.624-0.219
		c0.06-0.027,0.121-0.09,0.186-0.188c0.13-0.172,0.194-0.446,0.194-0.824V91.792c0-0.378-0.064-0.652-0.194-0.825
		c-0.064-0.097-0.126-0.159-0.186-0.187c-0.059-0.027-0.268-0.101-0.624-0.219c-0.431-0.14-0.646-0.432-0.646-0.873
		c0-0.271,0.105-0.478,0.315-0.623c0.21-0.146,0.51-0.219,0.897-0.219h7.623v19.013c0,0.42,0.081,0.725,0.242,0.906
		c0.087,0.107,0.168,0.176,0.243,0.201c0.075,0.027,0.323,0.096,0.745,0.203c0.518,0.119,0.775,0.416,0.775,0.891
		c0,0.1-0.022,0.188-0.057,0.271h8.894c1.612,0,2.919-1.308,2.919-2.92V19.026C82.029,17.413,80.722,16.105,79.11,16.105z
		 M77.426,99.561c-0.733,1.045-1.758,1.816-3.074,2.312c-1.091,0.398-2.659,0.6-4.71,0.6v-1.731c0.464-0.106,0.791-0.22,0.979-0.341
		c0.188-0.117,0.353-0.301,0.493-0.549c0.227-0.422,0.34-0.988,0.34-1.7v-5.179c0-0.508-0.038-0.884-0.113-1.133
		c-0.075-0.247-0.227-0.474-0.453-0.68c-0.312-0.302-0.733-0.491-1.262-0.566v-1.747c2.223,0,3.861,0.211,4.919,0.63
		c1.22,0.486,2.186,1.23,2.897,2.234c0.723,1.025,1.084,2.281,1.084,3.771C78.527,97.143,78.161,98.502,77.426,99.561z"/>
	<path fill="#D20B43" d="M143.999,16.105h-22.043c-1.612,0-2.92,1.308-2.92,2.921v88.386c0,1.613,1.308,2.92,2.92,2.92h3.345
		c0.286-0.091,0.485-0.199,0.592-0.325c0.276-0.325,0.414-1.317,0.414-2.978V89.291c0-1.663-0.138-2.654-0.414-2.973
		c-0.276-0.317-1.158-0.525-2.646-0.624l-0.352-0.036v-1.143h8.055l2.672-0.093l1.264-0.037c5.271,0,7.908,2.401,7.908,7.202
		c0,2.936-0.957,5.139-2.871,6.611c-1.915,1.474-4.791,2.211-8.63,2.211h-1.149v6.618c0,1.637,0.147,2.629,0.442,2.979
		c0.106,0.128,0.292,0.236,0.552,0.325h12.862c1.61,0,2.92-1.308,2.92-2.92V19.026C146.918,17.413,145.609,16.105,143.999,16.105z
		 M136.904,97.295c1.195-1.255,1.795-3.129,1.795-5.626c0-2.126-0.456-3.644-1.369-4.554c-0.912-0.91-2.438-1.365-4.577-1.365h-2.61
		v13.426h1.36C133.907,99.176,135.708,98.549,136.904,97.295z"/>
	<path fill="#D20B43" d="M169.814,97.939c0-2.351-1.662-3.484-4.195-3.484c-1.004,0-1.768,0.078-2.165,0.185v6.915
		c0.501,0.133,1.134,0.186,1.899,0.186C168.125,101.739,169.814,100.393,169.814,97.939z M176.447,16.105h-22.043
		c-1.612,0-2.92,1.308-2.92,2.921v88.386c0,1.613,1.308,2.92,2.92,2.92h6.754V92.976c1.107-0.185,2.561-0.343,4.408-0.343
		c2.269,0,3.933,0.528,4.986,1.479c0.977,0.844,1.557,2.138,1.557,3.721c0,1.608-0.473,2.878-1.371,3.802
		c-1.215,1.292-3.193,1.953-5.438,1.953c-0.687,0-1.318-0.027-1.848-0.16v6.905h12.992c1.613,0,2.922-1.308,2.922-2.92V19.026
		C179.368,17.413,178.059,16.105,176.447,16.105z"/>
	<path fill="#D20B43" d="M110.694,103.93c-1.164-0.815-1.354-2.556-0.423-3.883c0.932-1.329,2.631-1.742,3.797-0.926
		c0.153,0.107,0.287,0.232,0.405,0.369V19.026c0-1.613-1.307-2.921-2.919-2.921H89.511c-1.612,0-2.919,1.308-2.919,2.921v88.386
		c0,1.613,1.307,2.92,2.919,2.92h13.555c-0.59-0.346-1.21-0.864-1.856-1.609c-2.791-3.215-11.467,2.373-7.754-6.765
		c1.289-3.17,5.569-4.45,9.604-2.839c4.034,1.613,6.277,5.495,5.008,8.673c-0.452,1.133-1.064,2.021-1.802,2.54h5.288
		c1.612,0,2.919-1.307,2.919-2.92v-4.387C113.539,104.337,111.854,104.743,110.694,103.93z M97.165,94.571
		c-0.179,1.543-1.407,2.666-2.74,2.511c-1.334-0.154-2.271-1.531-2.092-3.074c0.18-1.543,1.407-2.667,2.741-2.513
		C96.409,91.651,97.344,93.028,97.165,94.571z M104.075,94.523c-0.565,1.625-2.189,2.536-3.628,2.037
		c-1.438-0.501-2.146-2.224-1.58-3.85c0.566-1.626,2.19-2.538,3.629-2.037C103.934,91.173,104.641,92.897,104.075,94.523z
		 M106.375,99.305c-1.445-0.736-1.971-2.603-1.175-4.166c0.797-1.563,2.613-2.233,4.059-1.496c1.446,0.737,1.972,2.602,1.176,4.164
		C109.636,99.37,107.819,100.04,106.375,99.305z"/>
</g>
<g>
	<path fill="#4D4D4D" d="M29.223,136.008c0,2.588-0.982,4.521-2.943,5.803c-1.964,1.282-4.601,1.924-7.913,1.924
		c-0.42,0-0.781-0.012-1.089-0.034c0,2.472,0.092,5.461,0.272,8.967h-3.268c0.171-3.222,0.256-7.103,0.256-11.642
		c0-3.898-0.085-7.405-0.256-10.514h2.435c0.26,0,1.006-0.017,2.235-0.049c1.232-0.033,2.278-0.055,3.141-0.055
		c2.177,0,3.91,0.498,5.198,1.488C28.579,132.893,29.223,134.264,29.223,136.008z M26.38,136.996c0-2.914-1.989-4.374-5.972-4.374
		c-0.976,0-2.07,0.086-3.283,0.256c0.079,1.849,0.119,4.729,0.119,8.644c0.396,0.021,0.884,0.033,1.463,0.033
		C23.822,141.555,26.38,140.034,26.38,136.996z"/>
	<path fill="#4D4D4D" d="M52.806,152.666h-3.285c-1.09-3.256-1.883-5.412-2.382-6.467c-0.635-1.328-1.354-2.182-2.16-2.569
		c-0.635-0.305-1.776-0.46-3.42-0.46c-0.966,0-1.822,0.012-2.569,0.035c0,3.664,0.067,6.816,0.204,9.461h-3.165
		c0.17-3.518,0.256-7.396,0.256-11.641c0-3.992-0.086-7.496-0.256-10.515h2.398c0.511,0,1.157-0.017,1.94-0.049
		c0.783-0.034,1.679-0.055,2.688-0.055c4.967,0,7.452,1.713,7.452,5.14c0,2.85-1.396,4.852-4.187,6.008v0.17
		c1.249,0.375,2.259,1.24,3.029,2.604C49.998,145.461,51.149,148.24,52.806,152.666z M47.598,136.706c0-2.702-1.825-4.05-5.479-4.05
		c-1.305,0-2.398,0.074-3.284,0.222c0.079,1.974,0.119,4.655,0.119,8.048c0.682,0.022,1.334,0.034,1.958,0.034
		C45.371,140.96,47.598,139.54,47.598,136.706z"/>
	<path fill="#4D4D4D" d="M63.844,152.666h-3.231c0.169-3.676,0.254-7.557,0.254-11.641c0-4.016-0.085-7.52-0.254-10.515h3.231
		c-0.159,3.097-0.238,6.603-0.238,10.515C63.606,145.133,63.685,149.014,63.844,152.666z"/>
	<path fill="#4D4D4D" d="M86.659,146.934c0,4.195-2.922,6.293-8.764,6.293c-2.133,0-4.026-0.244-5.683-0.731l0.596-2.67
		c1.905,0.657,3.715,0.987,5.426,0.987c3.857,0,5.786-1.088,5.786-3.268c0-1.102-0.499-2.041-1.497-2.826
		c-0.67-0.52-1.985-1.218-3.947-2.092c-2.064-0.92-3.512-1.762-4.34-2.535c-1.146-1.066-1.719-2.406-1.719-4.016
		c0-1.678,0.585-3.047,1.754-4.102c1.305-1.179,3.146-1.771,5.529-1.771c2.699,0,4.549,0.179,5.548,0.529l-0.408,2.703
		c-1.725-0.543-3.557-0.814-5.496-0.814c-2.915,0-4.374,0.975-4.374,2.926c0,0.942,0.42,1.73,1.259,2.365
		c0.546,0.398,1.747,1,3.607,1.805c2.121,0.92,3.653,1.791,4.596,2.622C85.949,143.587,86.659,145.116,86.659,146.934z"/>
	<path fill="#4D4D4D" d="M114.32,141.25c0,3.662-1.072,6.591-3.216,8.787c-2.145,2.195-4.622,3.293-7.436,3.293
		c-2.699,0-5.067-1.01-7.103-3.023c-2.038-2.012-3.056-4.729-3.056-8.156c0-3.707,1.072-6.647,3.217-8.823
		c2.144-2.17,4.622-3.257,7.436-3.257c2.699,0,5.067,1.006,7.103,3.021C113.302,135.104,114.32,137.824,114.32,141.25z
		 M111.291,141.639c0-2.927-0.768-5.188-2.305-6.795c-1.538-1.604-3.309-2.408-5.317-2.408c-1.86,0-3.516,0.846-4.967,2.535
		c-1.453,1.689-2.179,3.945-2.179,6.771c0,2.938,0.773,5.211,2.322,6.815c1.549,1.605,3.319,2.404,5.317,2.404
		c1.859,0,3.513-0.854,4.959-2.566C110.569,146.684,111.291,144.43,111.291,141.639z"/>
	<path fill="#4D4D4D" d="M139.771,152.666h-2.383c0-0.195-1.859-2.908-5.582-8.15c-3.891-5.502-6.107-8.971-6.65-10.414h-0.172
		c0.205,2.736,0.307,5.076,0.307,7.027c0,3.812,0.085,7.657,0.256,11.537h-2.859c0.193-3.688,0.291-7.566,0.291-11.641
		c0-4.004-0.098-7.508-0.291-10.515h3.269c0,0.316,1.713,2.903,5.14,7.759c3.584,5.104,5.625,8.43,6.125,9.971h0.17
		c-0.192-2.768-0.291-5.116-0.291-7.043c0-4.198-0.076-7.76-0.236-10.687h2.91c-0.193,3.007-0.291,6.511-0.291,10.515
		C139.48,145.1,139.578,148.979,139.771,152.666z"/>
	<path fill="#4D4D4D" d="M176.63,136.008c0,2.588-0.979,4.521-2.942,5.803c-1.963,1.282-4.6,1.924-7.914,1.924
		c-0.42,0-0.78-0.012-1.088-0.034c0,2.472,0.092,5.461,0.271,8.967h-3.268c0.172-3.222,0.256-7.103,0.256-11.642
		c0-3.898-0.084-7.405-0.256-10.514h2.435c0.263,0,1.007-0.017,2.237-0.049c1.23-0.033,2.277-0.055,3.14-0.055
		c2.179,0,3.909,0.498,5.197,1.488C175.986,132.893,176.63,134.264,176.63,136.008z M173.789,136.996
		c0-2.914-1.99-4.374-5.971-4.374c-0.979,0-2.071,0.086-3.285,0.256c0.08,1.849,0.119,4.729,0.119,8.644
		c0.397,0.021,0.885,0.033,1.464,0.033C171.232,141.555,173.789,140.034,173.789,136.996z"/>
	<path fill="#4D4D4D" d="M197.252,150.098l-0.102,2.568h-13.715c0.16-3.518,0.238-7.396,0.238-11.641
		c0-3.992-0.078-7.496-0.238-10.515H196.3l-0.137,2.535c-3.119-0.135-6.427-0.204-9.919-0.204c0.066,1.76,0.102,4.135,0.102,7.129
		c3.018,0,5.706-0.066,8.065-0.205v2.539c-2.521-0.104-5.207-0.156-8.065-0.156c0,2.916,0.051,5.648,0.154,8.201
		C190.266,150.35,193.85,150.268,197.252,150.098z"/>
	<path fill="#4D4D4D" d="M219.232,130.512l-0.086,2.4c-2.246-0.112-4.564-0.17-6.959-0.17c-0.021,2.179-0.033,4.938-0.033,8.283
		c0,3.699,0.057,7.58,0.172,11.641h-3.114c0.136-3.868,0.204-7.748,0.204-11.641c0-3.299-0.035-6.062-0.104-8.283
		c-1.679,0-4.037,0.068-7.078,0.203l0.086-2.435L219.232,130.512L219.232,130.512z"/>
</g>
<g>
	<path fill="#4D4D4D" d="M43.259,168.287c0,1.82-0.691,3.184-2.073,4.085c-1.38,0.901-3.236,1.354-5.568,1.354
		c-0.296,0-0.55-0.01-0.767-0.024c0,1.739,0.064,3.844,0.192,6.312h-2.301c0.12-2.269,0.181-5,0.181-8.195
		c0-2.744-0.061-5.211-0.181-7.399h1.713c0.184,0,0.709-0.013,1.576-0.034c0.864-0.023,1.603-0.039,2.209-0.039
		c1.533,0,2.753,0.35,3.659,1.049C42.804,166.094,43.259,167.061,43.259,168.287z M41.258,168.982c0-2.051-1.4-3.08-4.203-3.08
		c-0.688,0-1.457,0.062-2.312,0.182c0.056,1.301,0.084,3.331,0.084,6.083c0.279,0.019,0.623,0.024,1.03,0.024
		C39.458,172.191,41.258,171.122,41.258,168.982z"/>
	<path fill="#4D4D4D" d="M58.996,180.016h-2.527c0-0.537-0.504-2.217-1.509-5.043h-6.911c-0.989,2.785-1.486,4.467-1.486,5.043
		h-2.419c0-0.298,1.03-2.85,3.089-7.662c2.062-4.809,3.092-7.455,3.092-7.935h2.777c0,0.472,0.981,3.079,2.946,7.822
		C58.012,176.982,58.996,179.573,58.996,180.016z M54.407,173.4c-1.875-4.687-2.814-7.178-2.814-7.473H51.46
		c0,0.245-0.969,2.736-2.909,7.473H54.407z"/>
	<path fill="#4D4D4D" d="M75.641,180.016h-2.312c-0.767-2.293-1.325-3.812-1.676-4.554c-0.447-0.937-0.954-1.536-1.521-1.81
		c-0.448-0.215-1.251-0.323-2.408-0.323c-0.68,0-1.282,0.008-1.809,0.024c0,2.578,0.049,4.797,0.143,6.66h-2.227
		c0.118-2.477,0.18-5.207,0.18-8.195c0-2.81-0.062-5.274-0.18-7.399h1.689c0.357,0,0.812-0.013,1.363-0.034
		c0.552-0.023,1.184-0.039,1.894-0.039c3.496,0,5.247,1.207,5.247,3.617c0,2.008-0.984,3.416-2.948,4.229v0.119
		c0.88,0.267,1.591,0.875,2.133,1.834C73.665,174.941,74.476,176.896,75.641,180.016z M71.975,168.779
		c0-1.903-1.285-2.852-3.856-2.852c-0.919,0-1.688,0.053-2.311,0.155c0.054,1.39,0.083,3.278,0.083,5.665
		c0.479,0.016,0.938,0.023,1.378,0.023C70.406,171.773,71.975,170.773,71.975,168.779z"/>
	<path fill="#4D4D4D" d="M91.113,164.419l-0.061,1.688c-1.58-0.078-3.213-0.118-4.898-0.118c-0.016,1.534-0.024,3.475-0.024,5.829
		c0,2.604,0.04,5.336,0.122,8.195h-2.193c0.097-2.725,0.144-5.455,0.144-8.195c0-2.32-0.024-4.267-0.071-5.829
		c-1.182,0-2.843,0.048-4.983,0.144l0.061-1.714H91.113z"/>
	<path fill="#4D4D4D" d="M108.106,180.016h-1.677c0-0.14-1.309-2.049-3.93-5.738c-2.737-3.873-4.299-6.315-4.682-7.332h-0.12
		c0.144,1.928,0.215,3.574,0.215,4.947c0,2.685,0.061,5.392,0.181,8.123H96.08c0.138-2.597,0.205-5.328,0.205-8.197
		c0-2.816-0.067-5.282-0.205-7.398h2.301c0,0.223,1.205,2.043,3.618,5.461c2.522,3.594,3.959,5.936,4.312,7.018h0.119
		c-0.137-1.946-0.204-3.601-0.204-4.955c0-2.957-0.055-5.463-0.165-7.522h2.046c-0.136,2.116-0.203,4.582-0.203,7.399
		C107.903,174.688,107.97,177.419,108.106,180.016z"/>
	<path fill="#4D4D4D" d="M124.788,178.206l-0.072,1.81h-9.653c0.111-2.478,0.169-5.209,0.169-8.197c0-2.809-0.058-5.273-0.169-7.398
		h9.055l-0.097,1.785c-2.194-0.096-4.521-0.145-6.981-0.145c0.048,1.237,0.071,2.91,0.071,5.018c2.125,0,4.016-0.046,5.677-0.145
		v1.787c-1.771-0.072-3.664-0.109-5.677-0.109c0,2.053,0.035,3.977,0.109,5.771C119.87,178.383,122.393,178.324,124.788,178.206z"/>
	<path fill="#4D4D4D" d="M142.093,180.016h-2.312c-0.768-2.293-1.326-3.812-1.678-4.554c-0.446-0.937-0.953-1.536-1.521-1.81
		c-0.446-0.215-1.249-0.323-2.408-0.323c-0.68,0-1.282,0.008-1.808,0.024c0,2.578,0.048,4.797,0.145,6.66h-2.229
		c0.117-2.477,0.179-5.207,0.179-8.195c0-2.81-0.062-5.274-0.179-7.399h1.688c0.358,0,0.813-0.013,1.364-0.034
		c0.552-0.023,1.183-0.039,1.894-0.039c3.496,0,5.248,1.207,5.248,3.617c0,2.008-0.984,3.416-2.949,4.229v0.119
		c0.879,0.267,1.591,0.875,2.133,1.834C140.116,174.941,140.928,176.896,142.093,180.016z M138.427,168.779
		c0-1.903-1.284-2.852-3.856-2.852c-0.918,0-1.688,0.053-2.312,0.155c0.056,1.39,0.084,3.278,0.084,5.665
		c0.479,0.016,0.939,0.023,1.378,0.023C136.857,171.773,138.427,170.773,138.427,168.779z"/>
	<path fill="#4D4D4D" d="M156.691,175.979c0,2.953-2.057,4.431-6.17,4.431c-1.5,0-2.834-0.171-4-0.517l0.42-1.879
		c1.341,0.463,2.615,0.695,3.82,0.695c2.715,0,4.071-0.766,4.071-2.301c0-0.773-0.351-1.436-1.054-1.988
		c-0.473-0.365-1.396-0.857-2.778-1.475c-1.452-0.646-2.474-1.239-3.056-1.784c-0.807-0.749-1.209-1.692-1.209-2.825
		c0-1.184,0.412-2.145,1.232-2.888c0.92-0.829,2.217-1.246,3.895-1.246c1.898,0,3.201,0.126,3.904,0.372l-0.289,1.904
		c-1.213-0.383-2.502-0.576-3.867-0.576c-2.051,0-3.079,0.688-3.079,2.061c0,0.664,0.297,1.219,0.887,1.666
		c0.386,0.28,1.229,0.703,2.538,1.27c1.494,0.648,2.572,1.262,3.234,1.847C156.191,173.623,156.691,174.699,156.691,175.979z"/>
	<path fill="#4D4D4D" d="M174.066,180.016h-2.275c0.08-2.765,0.122-5.238,0.122-7.429h-7.175c0,1.772,0.039,4.248,0.119,7.429
		h-2.276c0.112-2.916,0.168-5.647,0.168-8.197c0-2.664-0.056-5.131-0.168-7.398h2.276c-0.099,2.283-0.145,4.503-0.145,6.658h7.221
		c0-1.732-0.045-3.952-0.144-6.658h2.276c-0.119,2.219-0.181,4.688-0.181,7.398C173.887,174.798,173.948,177.529,174.066,180.016z"
		/>
	<path fill="#4D4D4D" d="M183.298,180.016h-2.274c0.119-2.59,0.18-5.32,0.18-8.197c0-2.823-0.061-5.291-0.18-7.398h2.274
		c-0.11,2.18-0.167,4.646-0.167,7.398C183.131,174.711,183.188,177.441,183.298,180.016z"/>
	<path fill="#4D4D4D" d="M200.771,168.287c0,1.82-0.692,3.184-2.071,4.085c-1.384,0.901-3.238,1.354-5.569,1.354
		c-0.297,0-0.551-0.01-0.767-0.024c0,1.739,0.063,3.844,0.192,6.312h-2.303c0.119-2.269,0.18-5,0.18-8.195
		c0-2.744-0.061-5.211-0.18-7.399h1.715c0.186,0,0.707-0.013,1.573-0.034c0.866-0.023,1.603-0.039,2.209-0.039
		c1.534,0,2.754,0.35,3.661,1.049C200.318,166.094,200.771,167.061,200.771,168.287z M198.771,168.982c0-2.051-1.4-3.08-4.205-3.08
		c-0.687,0-1.457,0.062-2.311,0.182c0.055,1.301,0.083,3.331,0.083,6.083c0.279,0.019,0.622,0.024,1.028,0.024
		C196.971,172.191,198.771,171.122,198.771,168.982z"/>
</g>
</svg>
