<?xml version="1.0" encoding="utf-8"?>
<!-- Generator: Adobe Illustrator 16.0.0, SVG Export Plug-In . SVG Version: 6.00 Build 0)  -->
<!DOCTYPE svg PUBLIC "-//W3C//DTD SVG 1.1//EN" "http://www.w3.org/Graphics/SVG/1.1/DTD/svg11.dtd">
<svg version="1.1" id="Layer_1" xmlns="http://www.w3.org/2000/svg" xmlns:xlink="http://www.w3.org/1999/xlink" x="0px" y="0px"
	 width="145.999px" height="145.999px" viewBox="0 0 145.999 145.999" enable-background="new 0 0 145.999 145.999"
	 xml:space="preserve">
<g>
	<path fill="#D20B43" d="M131.56,0H14.439C6.466,0,0,6.466,0,14.439v117.12c0,7.974,6.466,14.439,14.439,14.439h117.12
		c7.976,0,14.439-6.466,14.439-14.439V14.439C145.999,6.466,139.535,0,131.56,0z M120.243,101.681c0,2.322-0.826,4.307-2.479,5.96
		c-1.652,1.652-3.639,2.479-5.957,2.479H34.192c-2.32,0-4.307-0.826-5.959-2.479c-1.652-1.653-2.479-3.639-2.479-5.96V59.816
		c1.547,1.723,3.322,3.253,5.326,4.588c12.725,8.646,21.461,14.711,26.205,18.191c2.004,1.476,3.631,2.627,4.877,3.453
		c1.248,0.826,2.91,1.67,4.984,2.53c2.072,0.862,4.006,1.292,5.799,1.292h0.053h0.055c1.793,0,3.725-0.43,5.799-1.292
		c2.074-0.86,3.734-1.704,4.982-2.53s2.873-1.978,4.877-3.453c5.975-4.324,14.729-10.389,26.258-18.191
		c2.004-1.371,3.762-2.9,5.273-4.588V101.681z M117.659,52.276c-1.723,2.531-3.867,4.693-6.434,6.485
		C98.011,67.937,89.784,73.649,86.55,75.898c-0.352,0.247-1.098,0.782-2.24,1.608c-1.143,0.827-2.092,1.495-2.848,2.004
		c-0.756,0.51-1.67,1.08-2.742,1.714c-1.07,0.632-2.082,1.107-3.031,1.421c-0.949,0.318-1.828,0.475-2.637,0.475h-0.053h-0.053
		c-0.809,0-1.688-0.156-2.637-0.475c-0.949-0.313-1.959-0.789-3.031-1.421c-1.072-0.633-1.986-1.204-2.742-1.714
		c-0.756-0.509-1.705-1.177-2.848-2.004c-1.143-0.826-1.889-1.361-2.24-1.608c-3.199-2.249-7.805-5.456-13.814-9.622
		c-6.012-4.165-9.613-6.67-10.809-7.513c-2.18-1.477-4.236-3.507-6.17-6.091s-2.9-4.983-2.9-7.198c0-2.741,0.73-5.025,2.189-6.854
		c1.457-1.828,3.541-2.742,6.248-2.742h77.613c2.285,0,4.262,0.826,5.932,2.479s2.506,3.639,2.506,5.959
		C120.243,47.093,119.382,49.746,117.659,52.276z"/>
</g>
</svg>
