<?xml version="1.0" encoding="utf-8"?>
<!-- Generator: Adobe Illustrator 16.0.0, SVG Export Plug-In . SVG Version: 6.00 Build 0)  -->
<!DOCTYPE svg PUBLIC "-//W3C//DTD SVG 1.1//EN" "http://www.w3.org/Graphics/SVG/1.1/DTD/svg11.dtd">
<svg version="1.1" id="Layer_1" xmlns="http://www.w3.org/2000/svg" xmlns:xlink="http://www.w3.org/1999/xlink" x="0px" y="0px"
	 width="577.5px" height="482.5px" viewBox="182.5 77.5 577.5 482.5" enable-background="new 182.5 77.5 577.5 482.5"
	 xml:space="preserve">
<g>
	<path fill="#FFFFFF" d="M752,106.833c0-14-9.333-23.333-23.333-23.333H215.333c-14,0-23.333,9.333-23.333,23.333V153.5
		c0,14,9.333,23.333,23.333,23.333h513.333c14,0,23.333-9.333,23.333-23.333V106.833z"/>
	<path fill="#FFFFFF" d="M752,293.5c0-14-9.333-23.333-23.333-23.333H215.333c-14,0-23.333,9.333-23.333,23.333v46.668
		c0,13.998,9.333,23.332,23.333,23.332h513.333c14,0,23.333-9.334,23.333-23.332V293.5z"/>
	<path fill="#FFFFFF" d="M752,480.166c0-14-9.333-23.332-23.333-23.332H215.333c-14,0-23.333,9.332-23.333,23.332v46.668
		c0,14,9.333,23.332,23.333,23.332h513.333c14,0,23.333-9.332,23.333-23.332V480.166z"/>
</g>
</svg>
