<?xml version="1.0" encoding="utf-8"?>
<!-- Generator: Adobe Illustrator 16.0.0, SVG Export Plug-In . SVG Version: 6.00 Build 0)  -->
<!DOCTYPE svg PUBLIC "-//W3C//DTD SVG 1.1//EN" "http://www.w3.org/Graphics/SVG/1.1/DTD/svg11.dtd">
<svg version="1.1" id="Layer_1" xmlns="http://www.w3.org/2000/svg" xmlns:xlink="http://www.w3.org/1999/xlink" x="0px" y="0px"
	 width="180.308px" height="51.318px" viewBox="0 0 180.308 51.318" enable-background="new 0 0 180.308 51.318"
	 xml:space="preserve">
<g>
	<path fill-rule="evenodd" clip-rule="evenodd" fill="#757679" d="M28.596,24.393c-5.052,2.252-10.246,2.54-15.542,1.054
		c-1.101-0.309-2.542-0.715-2.341-2.129c0.244-1.725,1.776-1.128,2.794-0.856c4.072,1.081,6.098-1.036,6.702-4.598
		c0.652-3.849,0.792-7.878-3.675-9.832c-3.493-1.528-6.987,0.928-7.102,5.049c-0.167,5.983-0.281,11.985,0.011,17.958
		c0.186,3.803-2.161,4.703-4.864,4.85c-3.408,0.184-1.94-2.76-2.134-4.412c-0.818-6.999,1.38-14.161-1.238-21.104
		C0.563,8.666,7.902,3.951,9.469,5.243c1.39,1.146,1.986,0.319,2.978-0.022c5.933-2.049,10.949-0.837,13.896,3.33
		c2.932,4.146,2.312,8.798-1.857,14.071c-0.188,0.239-0.258,0.571-0.398,0.895c1.135,0.928,2.215-0.403,3.316-0.073
		C27.827,23.727,28.444,23.768,28.596,24.393z"/>
	<path fill-rule="evenodd" clip-rule="evenodd" fill="#F4872F" d="M122.394,21.724c0,0,0.012,0.113,0.013,0.113
		c0.23-1.136,0.401-2.288,0.7-3.406c1.405-5.236,6.027-8.72,10.942-8.29c4.46,0.39,8.971,4.984,9.401,9.574
		c0.475,5.075-3.005,10.021-7.893,11.216c-4.881,1.193-9.92-1.495-12.074-6.459C123.091,23.568,122.755,22.64,122.394,21.724z"/>
	<path fill-rule="evenodd" clip-rule="evenodd" fill="#F48C37" d="M144.873,4.293c2.671,0.532,4.712,1.724,4.638,4.843
		c-0.075,3.171-1.832,5.1-4.96,5.02c-3.152-0.08-4.871-2.248-4.705-5.297C140,5.994,141.939,4.486,144.873,4.293z"/>
	<path fill-rule="evenodd" clip-rule="evenodd" fill="#F48933" d="M154.423,19.441c-0.324,3.026-1.814,4.878-4.75,4.898
		c-3.113,0.023-5.167-1.834-5.067-4.902c0.097-2.977,2.16-5.009,5.226-4.854C152.65,14.726,154.123,16.771,154.423,19.441z"/>
	<path fill-rule="evenodd" clip-rule="evenodd" fill="#F48932" d="M139.294,4.392c-0.334,2.953-1.669,5.034-4.906,5.035
		c-2.836,0.001-4.734-1.507-4.906-4.428c-0.188-3.217,1.689-4.884,4.787-4.994C137.176-0.1,138.794,1.529,139.294,4.392z"/>
	<g>
		<path fill="#747578" d="M115.382,22.759c2.416-6.698,1.303-8.781-5.65-10.671c-1.924-0.523-3.873-0.965-5.766-1.581
			c-1.067-0.348-2.434-0.787-2.116-2.297c0.27-1.285,1.51-1.673,2.693-1.843c2.115-0.304,3.927,0.33,5.45,1.849
			c1.018,1.013,2.212,1.657,3.506,0.563c0.588-0.498,1.397-1.478,1.244-1.969c-0.443-1.413-1.937-1.694-3.234-1.947
			c-5.154-1.003-10.334-1.649-14.613,2.354c-2.391,2.235-4.066,3.36-5.576-0.823C90.458,4.009,88,3.946,85.741,4.197
			c-2.049,0.228-3.469,1.365-3.895,3.322c-0.471,2.169,0.993,3.454,2.768,4.182c2.087,0.855,1.702,1.999,0.805,3.482
			c-1.017,1.682-1.69,3.607-3.616,4.717c-2.428-3.549-3.736-7.442-4.447-11.579c-0.237-1.38,0.5-3.723-1.351-3.808
			c-2.811-0.128-4.45,2.623-6.494,4.199c-2.185,1.686,0.785,1.729,1.23,2.617c1.507,3.009,2.99,5.993-0.857,8.544
			c-2.19-2.408-3.042-5.302-3.927-8.146c-2.62-8.418-2.592-8.427-9.729-2.414c-0.12,0.101-0.17,0.283-0.445,0.763
			c3.159,0.822,3.853,3.612,4.98,6.155c1.141,2.572,2.308,5.18,3.853,7.515c2.147,3.246,4.846,2.952,7.523,0.472
			c0.939-0.87,1.084-2.51,2.666-2.757c4.933,6.287,6.856,6.25,11.349-0.364c1.49-2.194,2.755-4.542,4.142-6.808
			c1.208-1.973,3.69-4.013,5.077-2.284c3.397,4.236,8.277,3.817,12.503,5.412c1.618,0.61,3.925,0.865,3.373,3.462
			c-0.455,2.14-2.386,2.659-4.243,2.854c-3.17,0.333-5.736-1.339-8.381-2.742c-1.066-0.566-2.367-2.075-3.424-0.441
			c-0.789,1.222,0.302,2.587,1.252,3.492c0.684,0.652,1.67,1.158,2.6,1.355c8.197,1.736,16.101,1.418,23.245-3.61
			C119.809,20.528,117.803,23.23,115.382,22.759z M86.961,9.685c-1.057-0.202-1.757-0.976-1.65-2.145
			c0.065-0.703,0.499-1.204,1.295-1.225c1.27-0.031,1.763,0.695,1.805,1.853C88.384,9.123,87.991,9.883,86.961,9.685z"/>
		<path fill="#747578" d="M122.394,21.724c-0.032,0.022-0.064,0.042-0.097,0.064c0.037,0.019,0.072,0.029,0.109,0.05L122.394,21.724
			z"/>
	</g>
	<g>
		<path fill="#747578" d="M53.169,16.361c0.075-0.658,0.006-1.332,0.011-1.998c0.03-4.121-0.076-8.195-4.998-9.75
			C43.18,3.032,36.302,4.959,33.366,8.939c2.814-0.524,5.359-1.247,7.939-1.409c2.48-0.156,5.106,0.74,4.776,3.747
			c-0.339,3.094-2.96,1.016-4.401,0.969c-7.448-0.241-10.262,1.81-11.739,9.146c-0.297,1.474-1.554,1.544-2.539,2.052
			c0.398,0.316,0.796,0.633,1.193,0.949c0.814-0.151,1.886-0.714,2.403-0.391c4.681,2.927,9.364,3.095,14.18,0.434
			c1.099-0.606,1.824,0.186,2.682,0.688c4.364,2.552,7.719,0.606,12.367-3.338C53.048,23.828,52.705,20.463,53.169,16.361z
			 M46.188,18.228c-0.256,3.208-2.32,4.867-5.272,4.764c-2.367-0.083-3.964-1.769-3.705-4.385c0.297-2.99,2.461-3.613,4.949-3.562
			C44.284,15.202,46.422,15.294,46.188,18.228z"/>
	</g>
</g>
<g>
	<path fill="#F4872F" d="M59.967,50.015V38.498h-1.878v-1.851h1.878v-0.636c0-1.878,0.415-3.59,1.547-4.667
		c0.911-0.884,2.126-1.243,3.259-1.243c0.856,0,1.602,0.193,2.071,0.387l-0.332,1.878c-0.359-0.165-0.856-0.304-1.546-0.304
		c-2.071,0-2.596,1.823-2.596,3.867v0.718h3.231v1.851H62.37v11.517H59.967z"/>
	<path fill="#F4872F" d="M79.521,43.221c0,4.943-3.424,7.098-6.656,7.098c-3.618,0-6.408-2.651-6.408-6.877
		c0-4.474,2.928-7.098,6.628-7.098C76.925,36.344,79.521,39.133,79.521,43.221z M68.916,43.358c0,2.928,1.685,5.138,4.06,5.138
		c2.32,0,4.06-2.183,4.06-5.192c0-2.265-1.132-5.138-4.005-5.138C70.159,38.166,68.916,40.817,68.916,43.358z"/>
	<path fill="#F4872F" d="M82.587,40.817c0-1.574-0.028-2.927-0.11-4.17h2.126l0.083,2.624h0.11c0.607-1.796,2.071-2.928,3.701-2.928
		c0.276,0,0.47,0.027,0.691,0.083v2.292c-0.249-0.056-0.498-0.083-0.829-0.083c-1.712,0-2.928,1.298-3.259,3.121
		c-0.055,0.331-0.11,0.718-0.11,1.132v7.126h-2.403V40.817z"/>
	<path fill="#F4872F" d="M104.875,50.015l-0.193-1.685h-0.083c-0.746,1.05-2.182,1.988-4.088,1.988
		c-2.706,0-4.087-1.905-4.087-3.839c0-3.231,2.872-4.999,8.037-4.972v-0.275c0-1.105-0.304-3.094-3.038-3.094
		c-1.243,0-2.541,0.387-3.48,0.994l-0.552-1.602c1.104-0.718,2.706-1.188,4.391-1.188c4.088,0,5.082,2.789,5.082,5.468v4.999
		c0,1.16,0.056,2.293,0.221,3.204H104.875z M104.516,43.193c-2.651-0.056-5.661,0.414-5.661,3.01c0,1.574,1.049,2.32,2.292,2.32
		c1.74,0,2.845-1.104,3.231-2.237c0.083-0.248,0.138-0.524,0.138-0.773V43.193z"/>
	<path fill="#F4872F" d="M126.169,49.518c-0.636,0.331-2.044,0.773-3.84,0.773c-4.032,0-6.655-2.734-6.655-6.822
		c0-4.115,2.816-7.098,7.181-7.098c1.436,0,2.706,0.359,3.369,0.69l-0.553,1.878c-0.579-0.331-1.491-0.635-2.816-0.635
		c-3.065,0-4.723,2.265-4.723,5.054c0,3.094,1.988,4.999,4.64,4.999c1.381,0,2.292-0.359,2.982-0.663L126.169,49.518z"/>
	<path fill="#F4872F" d="M136.416,50.015l-0.193-1.685h-0.083c-0.745,1.05-2.182,1.988-4.088,1.988
		c-2.706,0-4.087-1.905-4.087-3.839c0-3.231,2.872-4.999,8.037-4.972v-0.275c0-1.105-0.304-3.094-3.038-3.094
		c-1.243,0-2.541,0.387-3.48,0.994l-0.552-1.602c1.104-0.718,2.706-1.188,4.391-1.188c4.088,0,5.082,2.789,5.082,5.468v4.999
		c0,1.16,0.056,2.293,0.221,3.204H136.416z M136.056,43.193c-2.651-0.056-5.661,0.414-5.661,3.01c0,1.574,1.049,2.32,2.292,2.32
		c1.74,0,2.845-1.104,3.231-2.237c0.083-0.248,0.138-0.524,0.138-0.773V43.193z"/>
	<path fill="#F4872F" d="M153.511,46.369c0,1.381,0.028,2.596,0.111,3.646h-2.154l-0.139-2.182h-0.055
		c-0.636,1.077-2.044,2.485-4.419,2.485c-2.1,0-4.612-1.16-4.612-5.855v-7.815h2.43v7.401c0,2.541,0.773,4.254,2.983,4.254
		c1.629,0,2.762-1.133,3.203-2.21c0.139-0.359,0.222-0.801,0.222-1.243v-8.202h2.43V46.369z"/>
	<path fill="#F4872F" d="M157.212,47.529c0.718,0.469,1.988,0.967,3.204,0.967c1.768,0,2.596-0.884,2.596-1.989
		c0-1.16-0.69-1.795-2.485-2.458c-2.403-0.855-3.535-2.182-3.535-3.783c0-2.154,1.74-3.922,4.612-3.922
		c1.354,0,2.541,0.387,3.286,0.828l-0.607,1.768c-0.524-0.331-1.491-0.773-2.734-0.773c-1.436,0-2.236,0.829-2.236,1.823
		c0,1.104,0.801,1.602,2.54,2.265c2.32,0.884,3.508,2.044,3.508,4.032c0,2.348-1.822,4.005-4.999,4.005
		c-1.464,0-2.816-0.359-3.756-0.911L157.212,47.529z"/>
	<path fill="#F4872F" d="M169.834,43.772c0.056,3.287,2.154,4.641,4.585,4.641c1.74,0,2.789-0.304,3.701-0.69l0.414,1.739
		c-0.856,0.387-2.32,0.829-4.446,0.829c-4.115,0-6.573-2.707-6.573-6.739s2.375-7.208,6.27-7.208c4.363,0,5.523,3.839,5.523,6.297
		c0,0.497-0.056,0.884-0.083,1.132H169.834z M176.96,42.033c0.027-1.547-0.636-3.95-3.369-3.95c-2.458,0-3.535,2.266-3.729,3.95
		H176.96z"/>
</g>
</svg>
