<?xml version="1.0" encoding="utf-8"?>
<!-- Generator: Adobe Illustrator 16.0.0, SVG Export Plug-In . SVG Version: 6.00 Build 0)  -->
<!DOCTYPE svg PUBLIC "-//W3C//DTD SVG 1.1//EN" "http://www.w3.org/Graphics/SVG/1.1/DTD/svg11.dtd">
<svg version="1.1" id="Layer_1" xmlns="http://www.w3.org/2000/svg" xmlns:xlink="http://www.w3.org/1999/xlink" x="0px" y="0px"
	 width="145.999px" height="145.999px" viewBox="0 0 145.999 145.999" enable-background="new 0 0 145.999 145.999"
	 xml:space="preserve">
<g>
	<path fill="#D20B43" d="M131.56,0H14.439C6.466,0,0,6.466,0,14.439v117.12c0,7.974,6.466,14.439,14.439,14.439h117.12
		c7.976,0,14.439-6.466,14.439-14.439V14.439C145.999,6.466,139.535,0,131.56,0z M37.107,93.828
		c4.166-17.986,8.322-35.975,12.516-53.954c1.94-8.32,2.643-8.875,11.006-8.864c7.986,0.012,15.973,0.08,23.958,0.13
		c0.666,0.004,1.331,0.041,1.995,0.083c10.872,0.694,17.957,5.227,20.015,12.798c2.797,10.29-1.038,21.067-9.59,26.919
		c-8.574,5.865-18.293,7.693-28.423,7.91c-9.172,0.196-9.662,0.514-11.791,9.313c-0.469,1.94-0.982,3.869-1.465,5.807
		c-2.049,8.222-2.807,8.823-11.156,8.835C35.893,102.816,35.222,101.972,37.107,93.828z M95.707,79.92
		c-7.972,3.86-16.458,5.068-25.203,5.098c-7.425,0.026-8.553,0.887-10.537,7.881c-0.635,2.239-1.191,4.504-1.693,6.776
		c-1.641,7.422-10.184,11.484-17.098,8.118c-0.638-0.31-1.297-0.714-1.025-1.406c0.193-0.491,0.902-1.039,1.43-1.093
		c1.814-0.183,3.65-0.142,5.479-0.217c5.904-0.244,8.723-2.502,10.278-8.263c0.868-3.211,1.964-6.393,2.461-9.663
		c0.593-3.898,2.544-5.162,6.39-5.227c9.025-0.151,17.88-1.457,26.202-5.323c8.01-3.719,13.779-9.582,17.335-18.416
		C110.286,67.45,104.858,75.487,95.707,79.92z"/>
	<path fill="#D20B43" d="M63.188,53.195c1.586-7.579,3.557-9.199,9.511-9.053c7.347,0.181,11.688,2.848,12.412,7.624
		c0.863,5.696-3.218,11.252-10.01,12.957c-4.104,1.029-8.891,3.017-12.392-0.305C59.28,61.166,62.417,56.882,63.188,53.195z"/>
	<path fill="#D20B43" d="M75.101,64.724c6.792-1.705,10.873-7.261,10.01-12.957c-0.725-4.776-5.065-7.443-12.412-7.624
		c-5.954-0.146-7.925,1.474-9.511,9.053c-0.771,3.687-3.907,7.971-0.479,11.224C66.21,67.74,70.996,65.753,75.101,64.724z"/>
</g>
</svg>
