<?xml version="1.0" encoding="utf-8"?>
<!-- Generator: Adobe Illustrator 16.0.0, SVG Export Plug-In . SVG Version: 6.00 Build 0)  -->
<!DOCTYPE svg PUBLIC "-//W3C//DTD SVG 1.1//EN" "http://www.w3.org/Graphics/SVG/1.1/DTD/svg11.dtd">
<svg version="1.1" id="Layer_1" xmlns="http://www.w3.org/2000/svg" xmlns:xlink="http://www.w3.org/1999/xlink" x="0px" y="0px"
	 width="218.65px" height="218.652px" viewBox="0 0 218.65 218.652" enable-background="new 0 0 218.65 218.652"
	 xml:space="preserve">
<rect x="45.597" y="51.539" fill="#FFFFFF" width="141.001" height="122.386"/>
<g>
	<g>
		<path fill="#48A1B9" d="M109.274,1.104C49.575,1.104,1,49.677,1,109.378c0,59.701,48.575,108.274,108.273,108.274
			c59.701,0,108.275-48.574,108.275-108.274S168.983,1.104,109.274,1.104z M157.577,84.599c0.047,1.073,0.071,2.155,0.071,3.232
			c0,32.936-25.06,70.897-70.91,70.897c-14.071,0-27.173-4.114-38.199-11.189c1.951,0.23,3.931,0.35,5.945,0.35
			c11.679,0,22.42-3.986,30.95-10.668c-10.901-0.201-20.109-7.403-23.28-17.311c1.517,0.29,3.084,0.447,4.686,0.447
			c2.27,0,4.477-0.293,6.568-0.864c-11.402-2.287-19.988-12.355-19.988-24.438c0-0.103,0-0.214,0.004-0.312
			c3.355,1.861,7.198,2.985,11.283,3.114c-6.684-4.464-11.082-12.096-11.082-20.738c0-4.574,1.227-8.854,3.369-12.534
			c12.287,15.081,30.656,24.996,51.364,26.044c-0.426-1.826-0.639-3.727-0.639-5.682c0-13.761,11.155-24.924,24.917-24.924
			c7.167,0,13.637,3.028,18.189,7.871c5.682-1.115,11.001-3.187,15.832-6.053c-1.874,5.826-5.814,10.703-10.977,13.791
			c5.046-0.601,9.864-1.933,14.314-3.918C166.674,76.702,162.45,81.094,157.577,84.599z"/>
	</g>
</g>
</svg>
