<?xml version="1.0" encoding="utf-8"?>
<!-- Generator: Adobe Illustrator 16.0.0, SVG Export Plug-In . SVG Version: 6.00 Build 0)  -->
<!DOCTYPE svg PUBLIC "-//W3C//DTD SVG 1.1//EN" "http://www.w3.org/Graphics/SVG/1.1/DTD/svg11.dtd">
<svg version="1.1" id="Layer_1" xmlns="http://www.w3.org/2000/svg" xmlns:xlink="http://www.w3.org/1999/xlink" x="0px" y="0px"
	 width="36px" height="36px" viewBox="91.275 91.378 36 36" enable-background="new 91.275 91.378 36 36" xml:space="preserve">
<g>
	<g>
		<path fill="#FFFFFF" d="M109.275,91.378c-9.925,0-18,8.075-18,18c0,9.925,8.075,18,18,18s18-8.076,18-18
			C127.275,99.453,119.2,91.378,109.275,91.378z M117.305,105.259c0.008,0.178,0.012,0.358,0.012,0.537
			c0,5.475-4.166,11.787-11.789,11.787c-2.339,0-4.517-0.685-6.35-1.86c0.324,0.038,0.653,0.058,0.988,0.058
			c1.941,0,3.727-0.662,5.145-1.773c-1.812-0.033-3.343-1.23-3.87-2.877c0.252,0.048,0.513,0.074,0.779,0.074
			c0.377,0,0.744-0.049,1.092-0.144c-1.896-0.381-3.323-2.055-3.323-4.063c0-0.017,0-0.036,0.001-0.052
			c0.558,0.31,1.196,0.496,1.875,0.518c-1.111-0.742-1.842-2.011-1.842-3.448c0-0.76,0.204-1.472,0.56-2.083
			c2.042,2.507,5.097,4.155,8.539,4.33c-0.071-0.304-0.106-0.62-0.106-0.944c0-2.288,1.854-4.144,4.142-4.144
			c1.191,0,2.267,0.503,3.024,1.309c0.944-0.186,1.828-0.53,2.632-1.006c-0.312,0.969-0.967,1.779-1.825,2.292
			c0.839-0.1,1.64-0.321,2.38-0.651C118.817,103.946,118.115,104.676,117.305,105.259z"/>
	</g>
</g>
</svg>
