<?xml version="1.0" encoding="utf-8"?>
<!-- Generator: Adobe Illustrator 16.0.0, SVG Export Plug-In . SVG Version: 6.00 Build 0)  -->
<!DOCTYPE svg PUBLIC "-//W3C//DTD SVG 1.1//EN" "http://www.w3.org/Graphics/SVG/1.1/DTD/svg11.dtd">
<svg version="1.1" id="Layer_1" xmlns="http://www.w3.org/2000/svg" xmlns:xlink="http://www.w3.org/1999/xlink" x="0px" y="0px"
	 width="103.619px" height="100.757px" viewBox="0 0 103.619 100.757" enable-background="new 0 0 103.619 100.757"
	 xml:space="preserve">
<g>
	<path fill="none" d="M80.233,37.768c-0.507,0.99-0.01,1.833,0.331,2.626c1.938,4.508,0.439,8.501-1.752,12.415
		c-0.879,1.568-2.02,1.966-3.85,1.525c-4.387-1.057-8.447-2.792-12.189-5.264c-4.594-3.036-8.754-6.387-11.917-11.151
		c-2.125-3.201-4.482-6.188-5.375-9.938c-1.43-6.003-3.644-11.221-10.81-12.568c4.671-2.75,5.519-6.189,2.921-10.528
		c-2.157-3.603-5.816-4.901-8.685-3.03c-2.221,1.449-2.99,3.596-2.588,6.143c0.385,2.436,1.778,4.385,3.812,6.402
		c-2.408-0.316-4.297-0.507-6.166-0.821c-2.694-0.454-5.426-0.911-7.301-3.211c-1.7-2.085-0.812-4.285-0.23-6.484
		c0.222-0.839,0.001-1.668-0.895-2.061c-0.9-0.394-1.55,0.062-2.121,0.744c-2.858,3.41-2.709,9.528,0.284,12.869
		c1.795,2.005,4.136,3.25,6.358,4.644c2.76,1.733,3.98,4.331,3.799,7.379c-0.389,6.534-2.078,12.71-5.994,18.113
		c-3.693,5.097-6.922,6.039-12.765,3.712c-0.947-0.377-1.957-0.842-2.727,0.184c-0.857,1.143-0.071,2.025,0.685,2.857
		c4.426,4.871,11.685,5.686,17.07,1.881c1.705-1.205,3.287-2.592,5.041-3.718c3.002-1.927,5.798-1.189,7.629,1.881
		c0.85,1.425,1.218,3.011,1.55,4.621c0.742,3.594,0.521,7.235,0.602,10.862c0.028,1.273-0.007,2.554,0.487,3.76
		c0.416,1.016,0.843,2.167,2.149,2.167c1.321,0,1.752-1.093,2.059-2.191c0.637-2.284,0.99-4.596,1.05-6.979
		c0.195-7.759-1.621-15.335-1.994-23.041c-0.195-4.033,0.119-7.972,1.331-12.385c1.07,2.322,1.692,4.154,2.695,5.746
		c1.926,3.056,3.754,6.37,7.369,7.724c1.573,0.589,2.929,1.312,4.209,2.352c5.436,4.414,10.887,8.814,17.727,10.974
		c0.604,0.191,1.434,0.075,1.776,1.032c-4.259,1.509-8.519,1.757-12.908,1.018c-3.431-0.577-8.293-4.762-9.164-8.102
		c-0.285-1.092,0.08-1.932,0.774-2.741c0.425-0.496,1.422-0.978,0.664-1.758c-0.787-0.81-1.508,0.027-2.1,0.515
		c-2.569,2.119-2.841,5.543-0.216,8.435c2.903,3.196,4.115,6.671,3.578,10.947c-0.747,5.941-1.335,11.904-1.882,17.867
		c-0.161,1.756-0.446,4.24,1.971,4.351c2.558,0.118,1.732-2.432,1.851-3.98c0.173-2.247-0.329-4.554,0.543-6.733
		c0.3-0.751,0.82-1.661,1.744-1.407c1.024,0.282,0.346,1.227,0.3,1.876c-0.194,2.713-0.602,5.439,0.319,8.096
		c0.352,1.014,0.76,2.323,2.116,2.089c1.405-0.242,1.212-1.577,1.181-2.674c-0.046-1.633-0.174-3.271-0.089-4.898
		c0.244-4.653,0.987-5.344,5.568-5.28c1.355,0.019,2.726,0.112,4.06,0.345c4.418,0.771,4.505,0.912,4.652,5.41
		c0.062,1.905,0.07,3.814,0.235,5.709c0.079,0.903,0.466,1.906,1.553,1.972c1.285,0.078,1.236-1.062,1.395-1.935
		c0.411-2.25,0.468-4.511,0.211-6.782c-0.122-1.072-0.457-2.557,0.868-2.774c1.494-0.245,1.723,1.307,1.877,2.472
		c0.264,1.979,0.317,3.993,0.693,5.947c0.234,1.218,0.199,3.162,2.086,2.917c1.653-0.215,1.338-1.957,1.262-3.167
		c-0.234-3.712-0.563-7.419-0.883-11.126c-0.48-5.572-0.361-11.07,1.825-16.345c0.61-1.471,1.294-2.36,3.249-1.969
		c4.039,0.809,8.569-1.482,10.639-5.039c1.504-2.585,1.025-4.126-1.734-5.432c-1.477-0.699-2.954-1.413-4.482-1.988
		c-3.611-1.359-7.164-2.731-7.898-7.23c-0.032-0.197-0.375-0.342-0.657-0.583c-1.16,1.089-0.837,2.575-1.151,3.837
		c-0.409,1.645-1.124,1.889-2.471,0.874C82.407,39.005,81.649,37.864,80.233,37.768z M96.4,96.112
		c0.004-0.248,0.008-0.496,0.011-0.744c-3.388-0.26-6.772-0.576-10.165-0.771c-8.781-0.507-17.553-1.06-26.281-2.237
		c-8.521-1.149-15.943-4.206-22.188-10.439c-5.082-5.072-11.07-9.15-17.999-11.476c-4.829-1.622-9.774-2.566-15.05-1.332
		c0.733,0.882,1.615,0.824,2.364,0.981c6.622,1.398,12.446,4.39,17.687,8.626c4.249,3.435,7.98,7.406,11.806,11.276
		c2.865,2.896,6.145,5.062,9.946,6.483c9.687,3.621,19.745,3.625,29.832,2.897C83.128,98.89,89.843,97.904,96.4,96.112z"/>
	<path fill="#222222" d="M80.233,37.768c1.416,0.097,2.174,1.238,3.153,1.974c1.348,1.015,2.062,0.771,2.471-0.874
		c0.314-1.262-0.009-2.749,1.151-3.837c0.282,0.241,0.625,0.386,0.658,0.583c0.734,4.499,4.287,5.871,7.898,7.23
		c1.527,0.575,3.004,1.289,4.481,1.988c2.759,1.306,3.238,2.847,1.734,5.432c-2.07,3.557-6.601,5.848-10.639,5.039
		c-1.954-0.392-2.639,0.498-3.248,1.969c-2.187,5.275-2.307,10.773-1.826,16.345c0.319,3.707,0.649,7.415,0.883,11.126
		c0.076,1.21,0.392,2.952-1.261,3.167c-1.887,0.245-1.854-1.699-2.087-2.917c-0.375-1.954-0.429-3.968-0.692-5.947
		c-0.155-1.165-0.384-2.717-1.878-2.472c-1.324,0.217-0.989,1.702-0.868,2.774c0.257,2.272,0.2,4.533-0.211,6.782
		c-0.159,0.873-0.11,2.013-1.395,1.935c-1.087-0.066-1.474-1.069-1.552-1.972c-0.165-1.896-0.174-3.806-0.236-5.709
		c-0.146-4.498-0.234-4.639-4.652-5.41c-1.333-0.232-2.703-0.326-4.059-0.345c-4.582-0.064-5.325,0.627-5.568,5.28
		c-0.085,1.626,0.043,3.265,0.089,4.898c0.032,1.097,0.224,2.432-1.18,2.674c-1.356,0.234-1.765-1.075-2.117-2.089
		c-0.921-2.655-0.512-5.382-0.319-8.096c0.046-0.65,0.724-1.594-0.299-1.876c-0.925-0.254-1.444,0.656-1.745,1.407
		c-0.872,2.18-0.369,4.487-0.542,6.733c-0.12,1.548,0.707,4.098-1.851,3.98c-2.417-0.111-2.132-2.595-1.971-4.351
		c0.547-5.963,1.136-11.926,1.882-17.867c0.537-4.276-0.674-7.75-3.578-10.947c-2.625-2.892-2.354-6.316,0.216-8.435
		c0.593-0.488,1.313-1.325,2.1-0.515c0.759,0.78-0.238,1.262-0.663,1.758c-0.694,0.809-1.059,1.649-0.774,2.741
		c0.871,3.339,5.732,7.525,9.164,8.102c4.39,0.739,8.649,0.491,12.908-1.018c-0.341-0.956-1.172-0.84-1.776-1.032
		c-6.839-2.16-12.291-6.56-17.726-10.974c-1.281-1.04-2.637-1.763-4.209-2.352c-3.615-1.354-5.442-4.668-7.369-7.724
		c-1.003-1.592-1.625-3.424-2.695-5.746c-1.212,4.413-1.525,8.352-1.33,12.385c0.373,7.706,2.189,15.282,1.993,23.041
		c-0.06,2.384-0.413,4.695-1.05,6.979c-0.307,1.099-0.739,2.192-2.059,2.191c-1.306-0.001-1.733-1.152-2.149-2.167
		c-0.494-1.206-0.458-2.487-0.486-3.76c-0.081-3.626,0.14-7.268-0.602-10.862c-0.332-1.61-0.701-3.197-1.55-4.621
		c-1.831-3.069-4.626-3.809-7.629-1.881c-1.753,1.125-3.335,2.513-5.04,3.718c-5.386,3.804-12.644,2.989-17.07-1.881
		c-0.756-0.833-1.543-1.714-0.685-2.857c0.77-1.025,1.78-0.561,2.727-0.184c5.842,2.327,9.071,1.385,12.765-3.712
		c3.915-5.403,5.604-11.58,5.993-18.113c0.181-3.048-1.039-5.646-3.799-7.379c-2.222-1.395-4.563-2.639-6.358-4.644
		c-2.993-3.342-3.142-9.459-0.284-12.869c0.572-0.682,1.222-1.138,2.121-0.744c0.896,0.393,1.117,1.222,0.895,2.061
		c-0.582,2.199-1.469,4.398,0.23,6.484c1.875,2.301,4.606,2.758,7.301,3.211c1.869,0.314,3.759,0.505,6.166,0.821
		c-2.033-2.017-3.427-3.967-3.812-6.402c-0.402-2.547,0.367-4.694,2.588-6.143c2.869-1.871,6.528-0.573,8.685,3.03
		c2.598,4.339,1.75,7.779-2.921,10.528c7.166,1.348,9.38,6.566,10.81,12.568c0.894,3.75,3.25,6.738,5.375,9.938
		c3.163,4.765,7.323,8.116,11.918,11.152c3.742,2.473,7.801,4.207,12.189,5.264c1.83,0.441,2.971,0.043,3.85-1.524
		c2.191-3.914,3.691-7.907,1.752-12.415C80.223,39.601,79.726,38.758,80.233,37.768z"/>
	<path fill="#3BC134" d="M96.4,96.112c-6.558,1.792-13.272,2.778-20.037,3.266c-10.087,0.727-20.146,0.723-29.832-2.898
		c-3.802-1.421-7.082-3.586-9.947-6.483c-3.825-3.87-7.557-7.841-11.806-11.276c-5.241-4.236-11.064-7.228-17.687-8.626
		c-0.749-0.158-1.631-0.099-2.364-0.981c5.276-1.234,10.222-0.29,15.05,1.331c6.929,2.326,12.917,6.404,17.999,11.476
		c6.246,6.233,13.667,9.29,22.188,10.439c8.729,1.178,17.5,1.73,26.281,2.237c3.393,0.196,6.777,0.511,10.165,0.771
		C96.408,95.616,96.404,95.864,96.4,96.112z"/>
</g>
</svg>
