<?xml version="1.0" encoding="utf-8"?>
<!-- Generator: Adobe Illustrator 16.0.0, SVG Export Plug-In . SVG Version: 6.00 Build 0)  -->
<!DOCTYPE svg PUBLIC "-//W3C//DTD SVG 1.1//EN" "http://www.w3.org/Graphics/SVG/1.1/DTD/svg11.dtd">
<svg version="1.1" id="Layer_1" xmlns="http://www.w3.org/2000/svg" xmlns:xlink="http://www.w3.org/1999/xlink" x="0px" y="0px"
	 width="318px" height="311px" viewBox="0 0 318 311" enable-background="new 0 0 318 311" xml:space="preserve">
<g>
	<path fill="none" d="M243.627,115.089c-1.56,3.047-0.032,5.64,1.017,8.078c5.964,13.866,1.351,26.148-5.389,38.185
		c-2.702,4.823-6.213,6.046-11.841,4.69c-13.495-3.251-25.981-8.587-37.491-16.192c-14.131-9.337-26.927-19.644-36.656-34.3
		c-6.535-9.845-13.785-19.033-16.533-30.569c-4.397-18.463-11.208-34.513-33.248-38.658c14.368-8.456,16.975-19.036,8.985-32.382
		C105.839,2.861,94.583-1.134,85.759,4.621c-6.833,4.458-9.198,11.062-7.96,18.895c1.184,7.492,5.468,13.489,11.723,19.693
		c-7.405-0.971-13.217-1.559-18.966-2.525c-8.287-1.395-16.688-2.801-22.456-9.877c-5.228-6.415-2.497-13.181-0.708-19.944
		c0.682-2.579,0.004-5.13-2.752-6.338c-2.767-1.213-4.766,0.188-6.524,2.287c-8.792,10.488-8.332,29.305,0.873,39.583
		c5.521,6.166,12.721,9.994,19.557,14.283c8.49,5.329,12.243,13.321,11.686,22.697c-1.195,20.096-6.392,39.094-18.435,55.713
		c-11.358,15.675-21.291,18.574-39.261,11.416c-2.912-1.159-6.019-2.588-8.386,0.565c-2.639,3.515-0.22,6.228,2.107,8.789
		c13.614,14.982,35.939,17.487,52.504,5.786c5.245-3.705,10.111-7.973,15.503-11.435c9.236-5.928,17.834-3.656,23.465,5.785
		c2.614,4.383,3.746,9.262,4.768,14.214c2.282,11.056,1.602,22.255,1.85,33.409c0.086,3.916-0.023,7.855,1.497,11.564
		c1.28,3.124,2.593,6.665,6.61,6.667c4.062,0.001,5.39-3.361,6.333-6.741c1.959-7.025,3.045-14.136,3.23-21.467
		c0.602-23.864-4.985-47.168-6.131-70.87c-0.6-12.404,0.364-24.518,4.092-38.092c3.291,7.142,5.204,12.777,8.289,17.672
		c5.925,9.399,11.546,19.592,22.665,23.757c4.837,1.811,9.008,4.034,12.947,7.232c16.721,13.577,33.486,27.112,54.523,33.754
		c1.858,0.588,4.411,0.232,5.462,3.175c-13.1,4.64-26.201,5.403-39.702,3.13c-10.555-1.775-25.507-14.648-28.187-24.918
		c-0.877-3.358,0.245-5.943,2.38-8.432c1.308-1.526,4.373-3.008,2.041-5.408c-2.42-2.49-4.637,0.083-6.46,1.585
		c-7.902,6.515-8.739,17.048-0.664,25.942c8.93,9.832,12.657,20.519,11.004,33.671c-2.297,18.273-4.107,36.613-5.789,54.956
		c-0.495,5.399-1.372,13.04,6.062,13.382c7.868,0.362,5.327-7.48,5.694-12.242c0.533-6.911-1.013-14.007,1.669-20.712
		c0.924-2.31,2.523-5.108,5.366-4.325c3.148,0.866,1.064,3.772,0.921,5.77c-0.595,8.346-1.851,16.732,0.982,24.902
		c1.082,3.117,2.337,7.143,6.509,6.424c4.32-0.745,3.728-4.851,3.632-8.224c-0.142-5.023-0.536-10.062-0.275-15.065
		c0.749-14.311,3.035-16.439,17.128-16.24c4.168,0.059,8.384,0.346,12.485,1.061c13.589,2.371,13.858,2.805,14.309,16.64
		c0.191,5.858,0.217,11.732,0.725,17.562c0.242,2.777,1.432,5.861,4.775,6.064c3.951,0.24,3.801-3.267,4.291-5.95
		c1.264-6.92,1.438-13.874,0.649-20.861c-0.373-3.296-1.404-7.864,2.669-8.532c4.596-0.753,5.299,4.021,5.776,7.604
		c0.811,6.085,0.976,12.28,2.13,18.291c0.719,3.746,0.614,9.725,6.419,8.972c5.084-0.66,4.114-6.018,3.879-9.741
		c-0.72-11.418-1.733-22.821-2.716-34.223c-1.477-17.138-1.109-34.05,5.616-50.274c1.875-4.524,3.98-7.259,9.992-6.055
		c12.421,2.487,26.357-4.56,32.724-15.5c4.627-7.952,3.153-12.693-5.334-16.708c-4.543-2.149-9.086-4.347-13.784-6.115
		c-11.107-4.18-22.034-8.399-24.293-22.237c-0.099-0.606-1.156-1.054-2.022-1.794c-3.569,3.35-2.575,7.921-3.541,11.804
		c-1.258,5.059-3.455,5.809-7.601,2.688C250.315,118.897,247.982,115.387,243.627,115.089z M293.355,294.544
		c0.013-0.763,0.024-1.524,0.036-2.288c-10.421-0.801-20.832-1.771-31.265-2.373c-27.01-1.559-53.989-3.26-80.835-6.882
		c-26.21-3.535-49.036-12.935-68.246-32.109c-15.631-15.6-34.05-28.144-55.361-35.297c-14.851-4.985-30.064-7.891-46.292-4.094
		c2.256,2.714,4.969,2.533,7.272,3.019c20.369,4.301,38.283,13.502,54.402,26.533c13.068,10.565,24.546,22.78,36.312,34.683
		c8.811,8.911,18.9,15.57,30.593,19.941c29.794,11.137,60.73,11.15,91.757,8.913C252.533,303.09,273.185,300.056,293.355,294.544z"
		/>
	<path fill="#222222" fill-rule="evenodd" clip-rule="evenodd" d="M243.627,115.089c4.355,0.298,6.688,3.808,9.697,6.071
		c4.146,3.121,6.343,2.371,7.601-2.688c0.966-3.883-0.028-8.455,3.541-11.804c0.866,0.74,1.923,1.188,2.022,1.794
		c2.259,13.838,13.186,18.057,24.293,22.237c4.698,1.768,9.241,3.965,13.784,6.115c8.487,4.015,9.961,8.756,5.334,16.708
		c-6.367,10.94-20.303,17.986-32.724,15.5c-6.011-1.205-8.117,1.531-9.992,6.055c-6.725,16.225-7.093,33.136-5.616,50.274
		c0.982,11.402,1.996,22.805,2.716,34.223c0.234,3.723,1.205,9.081-3.879,9.741c-5.805,0.753-5.7-5.226-6.419-8.972
		c-1.155-6.011-1.32-12.206-2.13-18.291c-0.477-3.583-1.18-8.356-5.776-7.604c-4.073,0.668-3.042,5.236-2.669,8.532
		c0.79,6.988,0.615,13.941-0.649,20.861c-0.49,2.684-0.34,6.19-4.291,5.95c-3.343-0.203-4.533-3.288-4.775-6.064
		c-0.508-5.831-0.534-11.705-0.725-17.562c-0.451-13.835-0.72-14.269-14.309-16.64c-4.101-0.715-8.316-1.002-12.485-1.061
		c-14.093-0.199-16.38,1.929-17.128,16.24c-0.261,5.003,0.133,10.042,0.275,15.065c0.096,3.373,0.688,7.479-3.632,8.224
		c-4.172,0.719-5.428-3.307-6.509-6.424c-2.833-8.169-1.577-16.556-0.982-24.902c0.143-1.998,2.227-4.904-0.921-5.77
		c-2.843-0.783-4.442,2.015-5.366,4.325c-2.682,6.705-1.136,13.801-1.669,20.712c-0.368,4.762,2.174,12.604-5.694,12.242
		c-7.434-0.342-6.557-7.983-6.062-13.382c1.682-18.342,3.492-36.682,5.789-54.956c1.653-13.152-2.074-23.839-11.004-33.671
		c-8.076-8.894-7.239-19.427,0.664-25.942c1.823-1.501,4.04-4.075,6.46-1.585c2.333,2.4-0.732,3.882-2.041,5.408
		c-2.135,2.488-3.257,5.073-2.38,8.432c2.68,10.27,17.632,23.144,28.187,24.918c13.501,2.272,26.603,1.509,39.702-3.13
		c-1.051-2.942-3.604-2.587-5.462-3.175c-21.038-6.642-37.803-20.177-54.523-33.754c-3.939-3.198-8.11-5.421-12.947-7.232
		c-11.119-4.165-16.74-14.358-22.665-23.757c-3.085-4.896-4.999-10.531-8.289-17.672c-3.729,13.574-4.692,25.688-4.092,38.092
		c1.146,23.702,6.733,47.006,6.131,70.87c-0.185,7.332-1.271,14.442-3.23,21.467c-0.943,3.379-2.271,6.742-6.333,6.741
		c-4.017-0.002-5.33-3.543-6.61-6.667c-1.52-3.708-1.411-7.648-1.497-11.564c-0.248-11.154,0.432-22.353-1.85-33.409
		c-1.021-4.953-2.154-9.832-4.768-14.214c-5.631-9.44-14.229-11.713-23.465-5.785c-5.392,3.461-10.259,7.729-15.503,11.435
		c-16.565,11.701-38.89,9.196-52.504-5.786c-2.327-2.561-4.746-5.273-2.107-8.789c2.367-3.153,5.474-1.724,8.386-0.565
		c17.97,7.158,27.902,4.259,39.261-11.416c12.042-16.62,17.239-35.618,18.435-55.713c0.557-9.376-3.196-17.368-11.686-22.697
		c-6.835-4.29-14.035-8.117-19.557-14.283C29.783,36.116,29.324,17.3,38.115,6.812c1.759-2.099,3.757-3.5,6.524-2.287
		c2.756,1.208,3.434,3.759,2.752,6.338c-1.789,6.763-4.52,13.53,0.708,19.944c5.768,7.076,14.169,8.482,22.456,9.877
		c5.749,0.966,11.561,1.554,18.966,2.525c-6.255-6.204-10.54-12.201-11.723-19.693c-1.238-7.833,1.128-14.437,7.96-18.895
		c8.824-5.755,20.08-1.76,26.712,9.321c7.99,13.346,5.383,23.926-8.985,32.382c22.04,4.146,28.851,20.195,33.248,38.658
		c2.748,11.536,9.998,20.724,16.533,30.569c9.729,14.656,22.525,24.962,36.656,34.3c11.51,7.605,23.996,12.94,37.491,16.192
		c5.628,1.355,9.14,0.133,11.841-4.69c6.74-12.037,11.354-24.319,5.389-38.185C243.596,120.729,242.067,118.136,243.627,115.089z"/>
	<path fill-rule="evenodd" clip-rule="evenodd" fill="#3BC134" d="M293.355,294.544c-20.17,5.512-40.822,8.546-61.628,10.046
		c-31.026,2.237-61.963,2.224-91.757-8.913c-11.692-4.371-21.782-11.03-30.593-19.941c-11.765-11.903-23.243-24.118-36.312-34.683
		c-16.119-13.03-34.033-22.231-54.402-26.533c-2.304-0.486-5.016-0.305-7.272-3.019c16.229-3.797,31.441-0.891,46.292,4.094
		c21.311,7.153,39.729,19.698,55.361,35.297c19.21,19.174,42.035,28.574,68.246,32.109c26.846,3.622,53.826,5.323,80.835,6.882
		c10.433,0.603,20.844,1.572,31.265,2.373C293.379,293.02,293.368,293.781,293.355,294.544z"/>
</g>
</svg>
